M48
;DRILL file {KiCad (5.0.1)-4} date 19.04.2019 12:03:07
;FORMAT={-:-/ absolute / metric / decimal}
FMAT,2
METRIC,TZ
T1C0.400
T2C0.800
T3C1.016
T4C1.100
T5C1.300
T6C1.700
T7C2.600
%
G90
G05
M71
T1
X65.278Y-112.522
X66.04Y-114.3
X66.04Y-117.856
X66.62Y-74.668
X66.802Y-113.538
X66.802Y-116.078
X66.802Y-129.032
X68.072Y-108.712
X68.072Y-110.744
X69.596Y-108.712
X69.596Y-110.744
X70.104Y-119.888
X70.358Y-80.01
X70.612Y-125.984
X71.12Y-108.712
X71.12Y-110.744
X71.12Y-120.904
X71.628Y-80.01
X71.628Y-87.376
X72.644Y-108.712
X72.644Y-109.728
X72.644Y-110.744
X73.152Y-77.724
X73.914Y-69.85
X75.224Y-68.54
X75.438Y-108.204
X75.517Y-97.711
X76.2Y-113.538
X76.2Y-120.904
X76.454Y-88.646
X76.454Y-91.186
X76.454Y-137.668
X76.708Y-66.04
X76.708Y-69.088
X76.708Y-101.6
X76.708Y-128.778
X76.962Y-67.149
X77.724Y-108.712
X77.978Y-70.104
X77.978Y-87.122
X77.978Y-88.646
X77.978Y-91.186
X78.486Y-124.968
X78.486Y-125.984
X78.74Y-113.538
X79.756Y-124.968
X79.756Y-125.984
X80.264Y-149.86
X80.518Y-70.104
X80.518Y-107.95
X80.772Y-124.968
X80.772Y-125.984
X81.788Y-110.236
X81.788Y-118.11
X81.788Y-149.352
X81.788Y-150.876
X82.296Y-98.806
X82.296Y-126.238
X82.55Y-68.834
X82.804Y-87.884
X82.804Y-143.256
X82.804Y-144.78
X82.804Y-146.304
X82.804Y-147.828
X83.058Y-66.104
X83.058Y-100.076
X83.058Y-107.442
X83.058Y-115.57
X83.312Y-69.596
X83.808Y-67.149
X83.82Y-101.092
X84.328Y-110.998
X84.328Y-117.856
X84.328Y-143.256
X84.328Y-144.526
X84.836Y-100.076
X85.09Y-144.018
X85.344Y-89.154
X85.852Y-143.256
X87.376Y-141.732
X87.376Y-143.256
X88.392Y-103.378
X88.392Y-107.696
X88.619Y-68.727
X88.9Y-87.884
X88.9Y-87.884
X88.9Y-89.154
X88.9Y-90.17
X89.154Y-98.806
X89.154Y-100.076
X89.154Y-101.092
X89.154Y-104.14
X89.154Y-106.934
X89.408Y-69.342
X89.408Y-121.92
X89.408Y-123.444
X89.408Y-131.826
X89.653Y-70.358
X89.662Y-84.582
X89.956Y-67.524
X90.678Y-84.582
X90.678Y-97.79
X90.678Y-108.458
X90.691Y-68.259
X91.44Y-87.884
X91.44Y-98.806
X91.44Y-102.362
X91.44Y-111.506
X91.662Y-125.73
X92.202Y-89.154
X92.202Y-100.076
X92.202Y-132.334
X92.456Y-113.538
X92.964Y-92.71
X92.964Y-107.442
X93.218Y-101.346
X93.218Y-138.176
X93.472Y-133.35
X93.726Y-105.41
X93.726Y-123.698
X94.234Y-124.587
X95.123Y-124.841
X95.25Y-108.712
X95.504Y-113.284
X95.504Y-125.73
X96.012Y-120.396
X96.266Y-78.486
X96.266Y-94.488
X96.266Y-99.79
X96.774Y-69.85
X96.774Y-101.346
X96.774Y-105.664
X97.46Y-59.333
X97.79Y-68.834
X98.044Y-94.488
X98.298Y-105.664
X98.298Y-109.728
X98.298Y-135.128
X98.552Y-120.396
X98.806Y-134.112
X98.806Y-137.414
X98.806Y-138.938
X99.06Y-129.794
X99.06Y-140.716
X99.06Y-142.24
X99.06Y-143.764
X99.568Y-109.728
X99.568Y-113.792
X99.568Y-125.984
X99.822Y-122.174
X100.076Y-97.536
X100.076Y-113.03
X100.584Y-71.12
X100.584Y-127.508
X100.584Y-142.24
X100.584Y-143.256
X100.584Y-144.272
X100.838Y-100.838
X100.838Y-123.444
X101.092Y-135.382
X101.597Y-143.256
X101.6Y-142.24
X101.854Y-100.584
X101.854Y-119.126
X102.108Y-123.444
X102.362Y-131.826
X103.124Y-111.76
X103.124Y-117.856
X103.124Y-122.936
X103.251Y-130.556
X103.251Y-131.572
X103.378Y-136.906
X103.632Y-104.648
X103.886Y-140.97
X104.14Y-132.842
X104.14Y-133.858
X104.394Y-128.524
X104.394Y-130.556
X104.775Y-89.916
X105.156Y-129.032
X105.41Y-111.76
X105.918Y-147.066
X106.07Y-91.643
X106.172Y-129.032
X106.68Y-108.712
X106.68Y-132.588
X107.188Y-128.778
X107.442Y-131.572
X107.696Y-116.84
X107.95Y-121.158
X107.95Y-123.952
X108.179Y-130.505
X108.204Y-132.08
X108.204Y-147.32
X108.458Y-133.604
X108.458Y-142.494
X108.966Y-136.144
X109.22Y-120.65
X109.982Y-134.874
X110.236Y-124.714
X112.014Y-129.54
X112.268Y-127.762
X113.157Y-120.269
X113.157Y-122.682
X113.284Y-113.284
X113.284Y-114.808
X114.046Y-132.334
X114.046Y-137.414
X114.173Y-126.238
X114.554Y-134.366
X114.808Y-146.05
X115.57Y-120.396
X115.57Y-126.619
X116.078Y-137.16
X116.586Y-131.064
X117.094Y-122.682
X117.348Y-136.906
X117.502Y-124.179
X121.592Y-102.555
X123.19Y-118.491
X123.444Y-85.852
X124.333Y-112.141
X124.46Y-137.922
X124.714Y-136.144
X125.73Y-139.192
X126.492Y-60.833
X128.016Y-72.517
X131.445Y-74.93
X131.445Y-109.855
X132.588Y-93.472
X133.072Y-84.86
T2
X126.111Y-86.36
X128.111Y-86.36
X79.184Y-151.099
X79.184Y-153.099
X85.09Y-139.192
X85.09Y-141.192
X129.032Y-136.144
X131.032Y-136.144
X115.316Y-66.167
X117.316Y-66.167
X106.045Y-80.518
X108.045Y-80.518
X120.777Y-108.839
X122.777Y-108.839
X120.713Y-114.681
X122.713Y-114.681
X107.188Y-145.034
X109.188Y-145.034
X120.904Y-74.93
X122.904Y-74.93
X115.316Y-106.807
X117.316Y-106.807
X113.792Y-127.762
X113.792Y-129.762
X113.062Y-148.59
X115.062Y-148.59
X129.032Y-151.13
X131.032Y-151.13
X120.904Y-68.77
X122.904Y-68.77
X101.378Y-120.65
X103.378Y-120.65
T3
X69.088Y-82.55
X69.088Y-85.09
X71.628Y-82.55
X71.628Y-85.09
X74.168Y-82.55
X74.168Y-85.09
X76.708Y-82.55
X76.708Y-85.09
X79.248Y-82.55
X79.248Y-85.09
X81.788Y-82.55
X81.788Y-85.09
X84.328Y-82.55
X84.328Y-85.09
X86.868Y-82.55
X86.868Y-85.09
X125.984Y-140.97
X125.984Y-143.51
X125.984Y-146.05
X128.524Y-140.97
X128.524Y-143.51
X128.524Y-146.05
X125.984Y-125.984
X125.984Y-128.524
X125.984Y-131.064
X128.524Y-125.984
X128.524Y-128.524
X128.524Y-131.064
X69.088Y-93.218
X69.088Y-95.758
X71.628Y-93.218
X71.628Y-95.758
X74.168Y-93.218
X74.168Y-95.758
X76.708Y-93.218
X76.708Y-95.758
X79.248Y-93.218
X79.248Y-95.758
X81.788Y-93.218
X81.788Y-95.758
X84.328Y-93.218
X84.328Y-95.758
X86.868Y-93.218
X86.868Y-95.758
X69.088Y-103.886
X69.088Y-106.426
X71.628Y-103.886
X71.628Y-106.426
X74.168Y-103.886
X74.168Y-106.426
X76.708Y-103.886
X76.708Y-106.426
X79.248Y-103.886
X79.248Y-106.426
X81.788Y-103.886
X81.788Y-106.426
X84.328Y-103.886
X84.328Y-106.426
X86.868Y-103.886
X86.868Y-106.426
X77.216Y-134.62
X79.756Y-134.62
X82.296Y-134.62
X78.74Y-61.468
X78.74Y-64.008
X78.74Y-66.548
X81.28Y-61.468
X81.28Y-64.008
X81.28Y-66.548
X99.314Y-79.248
X99.314Y-81.788
X99.314Y-84.328
X99.314Y-86.868
X99.314Y-89.408
X99.314Y-91.948
X69.088Y-71.882
X69.088Y-74.422
X71.628Y-71.882
X71.628Y-74.422
X74.168Y-71.882
X74.168Y-74.422
X76.708Y-71.882
X76.708Y-74.422
X79.248Y-71.882
X79.248Y-74.422
X81.788Y-71.882
X81.788Y-74.422
X84.328Y-71.882
X84.328Y-74.422
X86.868Y-71.882
X86.868Y-74.422
X69.85Y-114.808
X69.85Y-117.348
X72.39Y-114.808
X72.39Y-117.348
X74.93Y-114.808
X74.93Y-117.348
X77.47Y-114.808
X77.47Y-117.348
X80.01Y-114.808
X80.01Y-117.348
X91.948Y-61.468
X91.948Y-64.008
X91.948Y-66.548
X94.488Y-61.468
X94.488Y-64.008
X94.488Y-66.548
X85.344Y-61.468
X85.344Y-64.008
X85.344Y-66.548
X87.884Y-61.468
X87.884Y-64.008
X87.884Y-66.548
X72.136Y-61.468
X72.136Y-64.008
X72.136Y-66.548
X74.676Y-61.468
X74.676Y-64.008
X74.676Y-66.548
T4
X68.326Y-130.914
X68.326Y-137.414
X72.826Y-130.914
X72.826Y-137.414
T5
X68.58Y-141.986
X68.58Y-147.066
T6
X135.636Y-115.57
X135.636Y-100.33
X135.636Y-131.064
X135.636Y-69.85
X135.636Y-146.304
X135.636Y-85.09
T7
X135.636Y-126.064
X135.636Y-136.064
X140.136Y-131.064
X135.636Y-64.85
X135.636Y-74.85
X140.136Y-69.85
X135.636Y-141.304
X135.636Y-151.304
X140.136Y-146.304
X135.636Y-80.09
X135.636Y-90.09
X140.136Y-85.09
X135.636Y-110.57
X135.636Y-120.57
X140.136Y-115.57
X135.636Y-95.33
X135.636Y-105.33
X140.136Y-100.33
T0
M30
