%FSLAX45Y45*%
G04 Gerber Fmt 4.5, Leading zero omitted, Abs format (unit mm)*
G04 Created by KiCad (PCBNEW (5.0.1)-4) date 19.04.2019 12:03:11*
%MOMM*%
%LPD*%
G01*
G04 APERTURE LIST*
%ADD10C,0.200000*%
%ADD11C,0.300000*%
G04 APERTURE END LIST*
D10*
X6507800Y-11232200D02*
X6547800Y-11272200D01*
X6547800Y-11232200D02*
X6507800Y-11272200D01*
X6584000Y-11410000D02*
X6624000Y-11450000D01*
X6624000Y-11410000D02*
X6584000Y-11450000D01*
X6584000Y-11765600D02*
X6624000Y-11805600D01*
X6624000Y-11765600D02*
X6584000Y-11805600D01*
X6641978Y-7446841D02*
X6681978Y-7486841D01*
X6681978Y-7446841D02*
X6641978Y-7486841D01*
X6660200Y-11333800D02*
X6700200Y-11373800D01*
X6700200Y-11333800D02*
X6660200Y-11373800D01*
X6660200Y-11587800D02*
X6700200Y-11627800D01*
X6700200Y-11587800D02*
X6660200Y-11627800D01*
X6660200Y-12883200D02*
X6700200Y-12923200D01*
X6700200Y-12883200D02*
X6660200Y-12923200D01*
X6787200Y-10851200D02*
X6827200Y-10891200D01*
X6827200Y-10851200D02*
X6787200Y-10891200D01*
X6787200Y-11054400D02*
X6827200Y-11094400D01*
X6827200Y-11054400D02*
X6787200Y-11094400D01*
X6939600Y-10851200D02*
X6979600Y-10891200D01*
X6979600Y-10851200D02*
X6939600Y-10891200D01*
X6939600Y-11054400D02*
X6979600Y-11094400D01*
X6979600Y-11054400D02*
X6939600Y-11094400D01*
X6990400Y-11968800D02*
X7030400Y-12008800D01*
X7030400Y-11968800D02*
X6990400Y-12008800D01*
X7015800Y-7981000D02*
X7055800Y-8021000D01*
X7055800Y-7981000D02*
X7015800Y-8021000D01*
X7041200Y-12578400D02*
X7081200Y-12618400D01*
X7081200Y-12578400D02*
X7041200Y-12618400D01*
X7092000Y-10851200D02*
X7132000Y-10891200D01*
X7132000Y-10851200D02*
X7092000Y-10891200D01*
X7092000Y-11054400D02*
X7132000Y-11094400D01*
X7132000Y-11054400D02*
X7092000Y-11094400D01*
X7092000Y-12070400D02*
X7132000Y-12110400D01*
X7132000Y-12070400D02*
X7092000Y-12110400D01*
X7142800Y-7981000D02*
X7182800Y-8021000D01*
X7182800Y-7981000D02*
X7142800Y-8021000D01*
X7142800Y-8717600D02*
X7182800Y-8757600D01*
X7182800Y-8717600D02*
X7142800Y-8757600D01*
X7244400Y-10851200D02*
X7284400Y-10891200D01*
X7284400Y-10851200D02*
X7244400Y-10891200D01*
X7244400Y-10952800D02*
X7284400Y-10992800D01*
X7284400Y-10952800D02*
X7244400Y-10992800D01*
X7244400Y-11054400D02*
X7284400Y-11094400D01*
X7284400Y-11054400D02*
X7244400Y-11094400D01*
X7295200Y-7752400D02*
X7335200Y-7792400D01*
X7335200Y-7752400D02*
X7295200Y-7792400D01*
X7371400Y-6965000D02*
X7411400Y-7005000D01*
X7411400Y-6965000D02*
X7371400Y-7005000D01*
X7502401Y-6833999D02*
X7542401Y-6873999D01*
X7542401Y-6833999D02*
X7502401Y-6873999D01*
X7523800Y-10800400D02*
X7563800Y-10840400D01*
X7563800Y-10800400D02*
X7523800Y-10840400D01*
X7531662Y-9751138D02*
X7571662Y-9791138D01*
X7571662Y-9751138D02*
X7531662Y-9791138D01*
X7600000Y-11333800D02*
X7640000Y-11373800D01*
X7640000Y-11333800D02*
X7600000Y-11373800D01*
X7600000Y-12070400D02*
X7640000Y-12110400D01*
X7640000Y-12070400D02*
X7600000Y-12110400D01*
X7625400Y-8844600D02*
X7665400Y-8884600D01*
X7665400Y-8844600D02*
X7625400Y-8884600D01*
X7625400Y-9098600D02*
X7665400Y-9138600D01*
X7665400Y-9098600D02*
X7625400Y-9138600D01*
X7625400Y-13746800D02*
X7665400Y-13786800D01*
X7665400Y-13746800D02*
X7625400Y-13786800D01*
X7650800Y-6584000D02*
X7690800Y-6624000D01*
X7690800Y-6584000D02*
X7650800Y-6624000D01*
X7650800Y-6888800D02*
X7690800Y-6928800D01*
X7690800Y-6888800D02*
X7650800Y-6928800D01*
X7650800Y-10140000D02*
X7690800Y-10180000D01*
X7690800Y-10140000D02*
X7650800Y-10180000D01*
X7650800Y-12857800D02*
X7690800Y-12897800D01*
X7690800Y-12857800D02*
X7650800Y-12897800D01*
X7676200Y-6694916D02*
X7716200Y-6734916D01*
X7716200Y-6694916D02*
X7676200Y-6734916D01*
X7752400Y-10851200D02*
X7792400Y-10891200D01*
X7792400Y-10851200D02*
X7752400Y-10891200D01*
X7777800Y-6990400D02*
X7817800Y-7030400D01*
X7817800Y-6990400D02*
X7777800Y-7030400D01*
X7777800Y-8692200D02*
X7817800Y-8732200D01*
X7817800Y-8692200D02*
X7777800Y-8732200D01*
X7777800Y-8844600D02*
X7817800Y-8884600D01*
X7817800Y-8844600D02*
X7777800Y-8884600D01*
X7777800Y-9098600D02*
X7817800Y-9138600D01*
X7817800Y-9098600D02*
X7777800Y-9138600D01*
X7828600Y-12476800D02*
X7868600Y-12516800D01*
X7868600Y-12476800D02*
X7828600Y-12516800D01*
X7828600Y-12578400D02*
X7868600Y-12618400D01*
X7868600Y-12578400D02*
X7828600Y-12618400D01*
X7854000Y-11333800D02*
X7894000Y-11373800D01*
X7894000Y-11333800D02*
X7854000Y-11373800D01*
X7955600Y-12476800D02*
X7995600Y-12516800D01*
X7995600Y-12476800D02*
X7955600Y-12516800D01*
X7955600Y-12578400D02*
X7995600Y-12618400D01*
X7995600Y-12578400D02*
X7955600Y-12618400D01*
X8006400Y-14966000D02*
X8046400Y-15006000D01*
X8046400Y-14966000D02*
X8006400Y-15006000D01*
X8031800Y-6990400D02*
X8071800Y-7030400D01*
X8071800Y-6990400D02*
X8031800Y-7030400D01*
X8031800Y-10775000D02*
X8071800Y-10815000D01*
X8071800Y-10775000D02*
X8031800Y-10815000D01*
X8057200Y-12476800D02*
X8097200Y-12516800D01*
X8097200Y-12476800D02*
X8057200Y-12516800D01*
X8057200Y-12578400D02*
X8097200Y-12618400D01*
X8097200Y-12578400D02*
X8057200Y-12618400D01*
X8158800Y-11003600D02*
X8198800Y-11043600D01*
X8198800Y-11003600D02*
X8158800Y-11043600D01*
X8158800Y-11791000D02*
X8198800Y-11831000D01*
X8198800Y-11791000D02*
X8158800Y-11831000D01*
X8158800Y-14915200D02*
X8198800Y-14955200D01*
X8198800Y-14915200D02*
X8158800Y-14955200D01*
X8158800Y-15067600D02*
X8198800Y-15107600D01*
X8198800Y-15067600D02*
X8158800Y-15107600D01*
X8209600Y-9860600D02*
X8249600Y-9900600D01*
X8249600Y-9860600D02*
X8209600Y-9900600D01*
X8209600Y-12603800D02*
X8249600Y-12643800D01*
X8249600Y-12603800D02*
X8209600Y-12643800D01*
X8235000Y-6863400D02*
X8275000Y-6903400D01*
X8275000Y-6863400D02*
X8235000Y-6903400D01*
X8260400Y-8768400D02*
X8300400Y-8808400D01*
X8300400Y-8768400D02*
X8260400Y-8808400D01*
X8260400Y-14305600D02*
X8300400Y-14345600D01*
X8300400Y-14305600D02*
X8260400Y-14345600D01*
X8260400Y-14458000D02*
X8300400Y-14498000D01*
X8300400Y-14458000D02*
X8260400Y-14498000D01*
X8260400Y-14610400D02*
X8300400Y-14650400D01*
X8300400Y-14610400D02*
X8260400Y-14650400D01*
X8260400Y-14762800D02*
X8300400Y-14802800D01*
X8300400Y-14762800D02*
X8260400Y-14802800D01*
X8285800Y-6590380D02*
X8325800Y-6630380D01*
X8325800Y-6590380D02*
X8285800Y-6630380D01*
X8285800Y-9987600D02*
X8325800Y-10027600D01*
X8325800Y-9987600D02*
X8285800Y-10027600D01*
X8285800Y-10724200D02*
X8325800Y-10764200D01*
X8325800Y-10724200D02*
X8285800Y-10764200D01*
X8285800Y-11537000D02*
X8325800Y-11577000D01*
X8325800Y-11537000D02*
X8285800Y-11577000D01*
X8311200Y-6939600D02*
X8351200Y-6979600D01*
X8351200Y-6939600D02*
X8311200Y-6979600D01*
X8360800Y-6694916D02*
X8400800Y-6734916D01*
X8400800Y-6694916D02*
X8360800Y-6734916D01*
X8362000Y-10089200D02*
X8402000Y-10129200D01*
X8402000Y-10089200D02*
X8362000Y-10129200D01*
X8412800Y-11079800D02*
X8452800Y-11119800D01*
X8452800Y-11079800D02*
X8412800Y-11119800D01*
X8412800Y-11765600D02*
X8452800Y-11805600D01*
X8452800Y-11765600D02*
X8412800Y-11805600D01*
X8412800Y-14305600D02*
X8452800Y-14345600D01*
X8452800Y-14305600D02*
X8412800Y-14345600D01*
X8412800Y-14432600D02*
X8452800Y-14472600D01*
X8452800Y-14432600D02*
X8412800Y-14472600D01*
X8463600Y-9987600D02*
X8503600Y-10027600D01*
X8503600Y-9987600D02*
X8463600Y-10027600D01*
X8489000Y-14381800D02*
X8529000Y-14421800D01*
X8529000Y-14381800D02*
X8489000Y-14421800D01*
X8514400Y-8895400D02*
X8554400Y-8935400D01*
X8554400Y-8895400D02*
X8514400Y-8935400D01*
X8565200Y-14305600D02*
X8605200Y-14345600D01*
X8605200Y-14305600D02*
X8565200Y-14345600D01*
X8717600Y-14153200D02*
X8757600Y-14193200D01*
X8757600Y-14153200D02*
X8717600Y-14193200D01*
X8717600Y-14305600D02*
X8757600Y-14345600D01*
X8757600Y-14305600D02*
X8717600Y-14345600D01*
X8819200Y-10317800D02*
X8859200Y-10357800D01*
X8859200Y-10317800D02*
X8819200Y-10357800D01*
X8819200Y-10749600D02*
X8859200Y-10789600D01*
X8859200Y-10749600D02*
X8819200Y-10789600D01*
X8841927Y-6852726D02*
X8881927Y-6892726D01*
X8881927Y-6852726D02*
X8841927Y-6892726D01*
X8870000Y-8768400D02*
X8910000Y-8808400D01*
X8910000Y-8768400D02*
X8870000Y-8808400D01*
X8870000Y-8768400D02*
X8910000Y-8808400D01*
X8910000Y-8768400D02*
X8870000Y-8808400D01*
X8870000Y-8895400D02*
X8910000Y-8935400D01*
X8910000Y-8895400D02*
X8870000Y-8935400D01*
X8870000Y-8997000D02*
X8910000Y-9037000D01*
X8910000Y-8997000D02*
X8870000Y-9037000D01*
X8895400Y-9860600D02*
X8935400Y-9900600D01*
X8935400Y-9860600D02*
X8895400Y-9900600D01*
X8895400Y-9987600D02*
X8935400Y-10027600D01*
X8935400Y-9987600D02*
X8895400Y-10027600D01*
X8895400Y-10089200D02*
X8935400Y-10129200D01*
X8935400Y-10089200D02*
X8895400Y-10129200D01*
X8895400Y-10394000D02*
X8935400Y-10434000D01*
X8935400Y-10394000D02*
X8895400Y-10434000D01*
X8895400Y-10673400D02*
X8935400Y-10713400D01*
X8935400Y-10673400D02*
X8895400Y-10713400D01*
X8920800Y-6914200D02*
X8960800Y-6954200D01*
X8960800Y-6914200D02*
X8920800Y-6954200D01*
X8920800Y-12172000D02*
X8960800Y-12212000D01*
X8960800Y-12172000D02*
X8920800Y-12212000D01*
X8920800Y-12324400D02*
X8960800Y-12364400D01*
X8960800Y-12324400D02*
X8920800Y-12364400D01*
X8920800Y-13162600D02*
X8960800Y-13202600D01*
X8960800Y-13162600D02*
X8920800Y-13202600D01*
X8945300Y-7015800D02*
X8985300Y-7055800D01*
X8985300Y-7015800D02*
X8945300Y-7055800D01*
X8946200Y-8438200D02*
X8986200Y-8478200D01*
X8986200Y-8438200D02*
X8946200Y-8478200D01*
X8975601Y-6732399D02*
X9015601Y-6772399D01*
X9015601Y-6732399D02*
X8975601Y-6772399D01*
X9047800Y-8438200D02*
X9087800Y-8478200D01*
X9087800Y-8438200D02*
X9047800Y-8478200D01*
X9047800Y-9759000D02*
X9087800Y-9799000D01*
X9087800Y-9759000D02*
X9047800Y-9799000D01*
X9047800Y-10825800D02*
X9087800Y-10865800D01*
X9087800Y-10825800D02*
X9047800Y-10865800D01*
X9049118Y-6805916D02*
X9089118Y-6845916D01*
X9089118Y-6805916D02*
X9049118Y-6845916D01*
X9124000Y-8768400D02*
X9164000Y-8808400D01*
X9164000Y-8768400D02*
X9124000Y-8808400D01*
X9124000Y-9860600D02*
X9164000Y-9900600D01*
X9164000Y-9860600D02*
X9124000Y-9900600D01*
X9124000Y-10216200D02*
X9164000Y-10256200D01*
X9164000Y-10216200D02*
X9124000Y-10256200D01*
X9124000Y-11130600D02*
X9164000Y-11170600D01*
X9164000Y-11130600D02*
X9124000Y-11170600D01*
X9146200Y-12553000D02*
X9186200Y-12593000D01*
X9186200Y-12553000D02*
X9146200Y-12593000D01*
X9200200Y-8895400D02*
X9240200Y-8935400D01*
X9240200Y-8895400D02*
X9200200Y-8935400D01*
X9200200Y-9987600D02*
X9240200Y-10027600D01*
X9240200Y-9987600D02*
X9200200Y-10027600D01*
X9200200Y-13213400D02*
X9240200Y-13253400D01*
X9240200Y-13213400D02*
X9200200Y-13253400D01*
X9225600Y-11333800D02*
X9265600Y-11373800D01*
X9265600Y-11333800D02*
X9225600Y-11373800D01*
X9276400Y-9251000D02*
X9316400Y-9291000D01*
X9316400Y-9251000D02*
X9276400Y-9291000D01*
X9276400Y-10724200D02*
X9316400Y-10764200D01*
X9316400Y-10724200D02*
X9276400Y-10764200D01*
X9301800Y-10114600D02*
X9341800Y-10154600D01*
X9341800Y-10114600D02*
X9301800Y-10154600D01*
X9301800Y-13797600D02*
X9341800Y-13837600D01*
X9341800Y-13797600D02*
X9301800Y-13837600D01*
X9327200Y-13315000D02*
X9367200Y-13355000D01*
X9367200Y-13315000D02*
X9327200Y-13355000D01*
X9352600Y-10521000D02*
X9392600Y-10561000D01*
X9392600Y-10521000D02*
X9352600Y-10561000D01*
X9352600Y-12349800D02*
X9392600Y-12389800D01*
X9392600Y-12349800D02*
X9352600Y-12389800D01*
X9403400Y-12438700D02*
X9443400Y-12478700D01*
X9443400Y-12438700D02*
X9403400Y-12478700D01*
X9492300Y-12464100D02*
X9532300Y-12504100D01*
X9532300Y-12464100D02*
X9492300Y-12504100D01*
X9505000Y-10851200D02*
X9545000Y-10891200D01*
X9545000Y-10851200D02*
X9505000Y-10891200D01*
X9530400Y-11308400D02*
X9570400Y-11348400D01*
X9570400Y-11308400D02*
X9530400Y-11348400D01*
X9530400Y-12553000D02*
X9570400Y-12593000D01*
X9570400Y-12553000D02*
X9530400Y-12593000D01*
X9581200Y-12019600D02*
X9621200Y-12059600D01*
X9621200Y-12019600D02*
X9581200Y-12059600D01*
X9606600Y-7828600D02*
X9646600Y-7868600D01*
X9646600Y-7828600D02*
X9606600Y-7868600D01*
X9606600Y-9428800D02*
X9646600Y-9468800D01*
X9646600Y-9428800D02*
X9606600Y-9468800D01*
X9606600Y-9959000D02*
X9646600Y-9999000D01*
X9646600Y-9959000D02*
X9606600Y-9999000D01*
X9657400Y-6965000D02*
X9697400Y-7005000D01*
X9697400Y-6965000D02*
X9657400Y-7005000D01*
X9657400Y-10114600D02*
X9697400Y-10154600D01*
X9697400Y-10114600D02*
X9657400Y-10154600D01*
X9657400Y-10546400D02*
X9697400Y-10586400D01*
X9697400Y-10546400D02*
X9657400Y-10586400D01*
X9725980Y-5913300D02*
X9765980Y-5953300D01*
X9765980Y-5913300D02*
X9725980Y-5953300D01*
X9759000Y-6863400D02*
X9799000Y-6903400D01*
X9799000Y-6863400D02*
X9759000Y-6903400D01*
X9784400Y-9428800D02*
X9824400Y-9468800D01*
X9824400Y-9428800D02*
X9784400Y-9468800D01*
X9809800Y-10546400D02*
X9849800Y-10586400D01*
X9849800Y-10546400D02*
X9809800Y-10586400D01*
X9809800Y-10952800D02*
X9849800Y-10992800D01*
X9849800Y-10952800D02*
X9809800Y-10992800D01*
X9809800Y-13492800D02*
X9849800Y-13532800D01*
X9849800Y-13492800D02*
X9809800Y-13532800D01*
X9835200Y-12019600D02*
X9875200Y-12059600D01*
X9875200Y-12019600D02*
X9835200Y-12059600D01*
X9860600Y-13391200D02*
X9900600Y-13431200D01*
X9900600Y-13391200D02*
X9860600Y-13431200D01*
X9860600Y-13721400D02*
X9900600Y-13761400D01*
X9900600Y-13721400D02*
X9860600Y-13761400D01*
X9860600Y-13873800D02*
X9900600Y-13913800D01*
X9900600Y-13873800D02*
X9860600Y-13913800D01*
X9886000Y-12959400D02*
X9926000Y-12999400D01*
X9926000Y-12959400D02*
X9886000Y-12999400D01*
X9886000Y-14051600D02*
X9926000Y-14091600D01*
X9926000Y-14051600D02*
X9886000Y-14091600D01*
X9886000Y-14204000D02*
X9926000Y-14244000D01*
X9926000Y-14204000D02*
X9886000Y-14244000D01*
X9886000Y-14356400D02*
X9926000Y-14396400D01*
X9926000Y-14356400D02*
X9886000Y-14396400D01*
X9936800Y-10952800D02*
X9976800Y-10992800D01*
X9976800Y-10952800D02*
X9936800Y-10992800D01*
X9936800Y-11359200D02*
X9976800Y-11399200D01*
X9976800Y-11359200D02*
X9936800Y-11399200D01*
X9936800Y-12578400D02*
X9976800Y-12618400D01*
X9976800Y-12578400D02*
X9936800Y-12618400D01*
X9962200Y-12197400D02*
X10002200Y-12237400D01*
X10002200Y-12197400D02*
X9962200Y-12237400D01*
X9987600Y-9733600D02*
X10027600Y-9773600D01*
X10027600Y-9733600D02*
X9987600Y-9773600D01*
X9987600Y-11283000D02*
X10027600Y-11323000D01*
X10027600Y-11283000D02*
X9987600Y-11323000D01*
X10038400Y-7092000D02*
X10078400Y-7132000D01*
X10078400Y-7092000D02*
X10038400Y-7132000D01*
X10038400Y-12730800D02*
X10078400Y-12770800D01*
X10078400Y-12730800D02*
X10038400Y-12770800D01*
X10038400Y-14204000D02*
X10078400Y-14244000D01*
X10078400Y-14204000D02*
X10038400Y-14244000D01*
X10038400Y-14305600D02*
X10078400Y-14345600D01*
X10078400Y-14305600D02*
X10038400Y-14345600D01*
X10038400Y-14407200D02*
X10078400Y-14447200D01*
X10078400Y-14407200D02*
X10038400Y-14447200D01*
X10063800Y-10063800D02*
X10103800Y-10103800D01*
X10103800Y-10063800D02*
X10063800Y-10103800D01*
X10063800Y-12324400D02*
X10103800Y-12364400D01*
X10103800Y-12324400D02*
X10063800Y-12364400D01*
X10089200Y-13518200D02*
X10129200Y-13558200D01*
X10129200Y-13518200D02*
X10089200Y-13558200D01*
X10139709Y-14305601D02*
X10179709Y-14345601D01*
X10179709Y-14305601D02*
X10139709Y-14345601D01*
X10140000Y-14204000D02*
X10180000Y-14244000D01*
X10180000Y-14204000D02*
X10140000Y-14244000D01*
X10165400Y-10038400D02*
X10205400Y-10078400D01*
X10205400Y-10038400D02*
X10165400Y-10078400D01*
X10165400Y-11892600D02*
X10205400Y-11932600D01*
X10205400Y-11892600D02*
X10165400Y-11932600D01*
X10190800Y-12324400D02*
X10230800Y-12364400D01*
X10230800Y-12324400D02*
X10190800Y-12364400D01*
X10216200Y-13162600D02*
X10256200Y-13202600D01*
X10256200Y-13162600D02*
X10216200Y-13202600D01*
X10292400Y-11156000D02*
X10332400Y-11196000D01*
X10332400Y-11156000D02*
X10292400Y-11196000D01*
X10292400Y-11765600D02*
X10332400Y-11805600D01*
X10332400Y-11765600D02*
X10292400Y-11805600D01*
X10292400Y-12273600D02*
X10332400Y-12313600D01*
X10332400Y-12273600D02*
X10292400Y-12313600D01*
X10305100Y-13035600D02*
X10345100Y-13075600D01*
X10345100Y-13035600D02*
X10305100Y-13075600D01*
X10305100Y-13137200D02*
X10345100Y-13177200D01*
X10345100Y-13137200D02*
X10305100Y-13177200D01*
X10317800Y-13670600D02*
X10357800Y-13710600D01*
X10357800Y-13670600D02*
X10317800Y-13710600D01*
X10343200Y-10444800D02*
X10383200Y-10484800D01*
X10383200Y-10444800D02*
X10343200Y-10484800D01*
X10368600Y-14077000D02*
X10408600Y-14117000D01*
X10408600Y-14077000D02*
X10368600Y-14117000D01*
X10394000Y-13264200D02*
X10434000Y-13304200D01*
X10434000Y-13264200D02*
X10394000Y-13304200D01*
X10394000Y-13365800D02*
X10434000Y-13405800D01*
X10434000Y-13365800D02*
X10394000Y-13405800D01*
X10419400Y-12832400D02*
X10459400Y-12872400D01*
X10459400Y-12832400D02*
X10419400Y-12872400D01*
X10419400Y-13035600D02*
X10459400Y-13075600D01*
X10459400Y-13035600D02*
X10419400Y-13075600D01*
X10457500Y-8971600D02*
X10497500Y-9011600D01*
X10497500Y-8971600D02*
X10457500Y-9011600D01*
X10495600Y-12883200D02*
X10535600Y-12923200D01*
X10535600Y-12883200D02*
X10495600Y-12923200D01*
X10521000Y-11156000D02*
X10561000Y-11196000D01*
X10561000Y-11156000D02*
X10521000Y-11196000D01*
X10571800Y-14686600D02*
X10611800Y-14726600D01*
X10611800Y-14686600D02*
X10571800Y-14726600D01*
X10587040Y-9144320D02*
X10627040Y-9184320D01*
X10627040Y-9144320D02*
X10587040Y-9184320D01*
X10597200Y-12883200D02*
X10637200Y-12923200D01*
X10637200Y-12883200D02*
X10597200Y-12923200D01*
X10648000Y-10851200D02*
X10688000Y-10891200D01*
X10688000Y-10851200D02*
X10648000Y-10891200D01*
X10648000Y-13238800D02*
X10688000Y-13278800D01*
X10688000Y-13238800D02*
X10648000Y-13278800D01*
X10698800Y-12857800D02*
X10738800Y-12897800D01*
X10738800Y-12857800D02*
X10698800Y-12897800D01*
X10724200Y-13137200D02*
X10764200Y-13177200D01*
X10764200Y-13137200D02*
X10724200Y-13177200D01*
X10749600Y-11664000D02*
X10789600Y-11704000D01*
X10789600Y-11664000D02*
X10749600Y-11704000D01*
X10775000Y-12095800D02*
X10815000Y-12135800D01*
X10815000Y-12095800D02*
X10775000Y-12135800D01*
X10775000Y-12375200D02*
X10815000Y-12415200D01*
X10815000Y-12375200D02*
X10775000Y-12415200D01*
X10797860Y-13030520D02*
X10837860Y-13070520D01*
X10837860Y-13030520D02*
X10797860Y-13070520D01*
X10800400Y-13188000D02*
X10840400Y-13228000D01*
X10840400Y-13188000D02*
X10800400Y-13228000D01*
X10800400Y-14712000D02*
X10840400Y-14752000D01*
X10840400Y-14712000D02*
X10800400Y-14752000D01*
X10825800Y-13340400D02*
X10865800Y-13380400D01*
X10865800Y-13340400D02*
X10825800Y-13380400D01*
X10825800Y-14229400D02*
X10865800Y-14269400D01*
X10865800Y-14229400D02*
X10825800Y-14269400D01*
X10876600Y-13594400D02*
X10916600Y-13634400D01*
X10916600Y-13594400D02*
X10876600Y-13634400D01*
X10902000Y-12045000D02*
X10942000Y-12085000D01*
X10942000Y-12045000D02*
X10902000Y-12085000D01*
X10978200Y-13467400D02*
X11018200Y-13507400D01*
X11018200Y-13467400D02*
X10978200Y-13507400D01*
X11003600Y-12451400D02*
X11043600Y-12491400D01*
X11043600Y-12451400D02*
X11003600Y-12491400D01*
X11181400Y-12934000D02*
X11221400Y-12974000D01*
X11221400Y-12934000D02*
X11181400Y-12974000D01*
X11206800Y-12756200D02*
X11246800Y-12796200D01*
X11246800Y-12756200D02*
X11206800Y-12796200D01*
X11295700Y-12006900D02*
X11335700Y-12046900D01*
X11335700Y-12006900D02*
X11295700Y-12046900D01*
X11295700Y-12248200D02*
X11335700Y-12288200D01*
X11335700Y-12248200D02*
X11295700Y-12288200D01*
X11308400Y-11308400D02*
X11348400Y-11348400D01*
X11348400Y-11308400D02*
X11308400Y-11348400D01*
X11308400Y-11460800D02*
X11348400Y-11500800D01*
X11348400Y-11460800D02*
X11308400Y-11500800D01*
X11384600Y-13213400D02*
X11424600Y-13253400D01*
X11424600Y-13213400D02*
X11384600Y-13253400D01*
X11384600Y-13721400D02*
X11424600Y-13761400D01*
X11424600Y-13721400D02*
X11384600Y-13761400D01*
X11397300Y-12603800D02*
X11437300Y-12643800D01*
X11437300Y-12603800D02*
X11397300Y-12643800D01*
X11435400Y-13416600D02*
X11475400Y-13456600D01*
X11475400Y-13416600D02*
X11435400Y-13456600D01*
X11460800Y-14585000D02*
X11500800Y-14625000D01*
X11500800Y-14585000D02*
X11460800Y-14625000D01*
X11537000Y-12019600D02*
X11577000Y-12059600D01*
X11577000Y-12019600D02*
X11537000Y-12059600D01*
X11537000Y-12641900D02*
X11577000Y-12681900D01*
X11577000Y-12641900D02*
X11537000Y-12681900D01*
X11587800Y-13696000D02*
X11627800Y-13736000D01*
X11627800Y-13696000D02*
X11587800Y-13736000D01*
X11638600Y-13086400D02*
X11678600Y-13126400D01*
X11678600Y-13086400D02*
X11638600Y-13126400D01*
X11689400Y-12248200D02*
X11729400Y-12288200D01*
X11729400Y-12248200D02*
X11689400Y-12288200D01*
X11714800Y-13670600D02*
X11754800Y-13710600D01*
X11754800Y-13670600D02*
X11714800Y-13710600D01*
X11730175Y-12397925D02*
X11770175Y-12437925D01*
X11770175Y-12397925D02*
X11730175Y-12437925D01*
X12139230Y-10235500D02*
X12179230Y-10275500D01*
X12179230Y-10235500D02*
X12139230Y-10275500D01*
X12299000Y-11829100D02*
X12339000Y-11869100D01*
X12339000Y-11829100D02*
X12299000Y-11869100D01*
X12324400Y-8565200D02*
X12364400Y-8605200D01*
X12364400Y-8565200D02*
X12324400Y-8605200D01*
X12413300Y-11194100D02*
X12453300Y-11234100D01*
X12453300Y-11194100D02*
X12413300Y-11234100D01*
X12426000Y-13772200D02*
X12466000Y-13812200D01*
X12466000Y-13772200D02*
X12426000Y-13812200D01*
X12451400Y-13594400D02*
X12491400Y-13634400D01*
X12491400Y-13594400D02*
X12451400Y-13634400D01*
X12553000Y-13899200D02*
X12593000Y-13939200D01*
X12593000Y-13899200D02*
X12553000Y-13939200D01*
X12629200Y-6063300D02*
X12669200Y-6103300D01*
X12669200Y-6063300D02*
X12629200Y-6103300D01*
X12781600Y-7231700D02*
X12821600Y-7271700D01*
X12821600Y-7231700D02*
X12781600Y-7271700D01*
X13124500Y-7473000D02*
X13164500Y-7513000D01*
X13164500Y-7473000D02*
X13124500Y-7513000D01*
X13124500Y-10965500D02*
X13164500Y-11005500D01*
X13164500Y-10965500D02*
X13124500Y-11005500D01*
X13238800Y-9327200D02*
X13278800Y-9367200D01*
X13278800Y-9327200D02*
X13238800Y-9367200D01*
X13287200Y-8466000D02*
X13327200Y-8506000D01*
X13327200Y-8466000D02*
X13287200Y-8506000D01*
X12651100Y-8636000D02*
G75*
G03X12651100Y-8636000I-40000J0D01*
G01*
X12851100Y-8636000D02*
G75*
G03X12851100Y-8636000I-40000J0D01*
G01*
X7958450Y-15109850D02*
G75*
G03X7958450Y-15109850I-40000J0D01*
G01*
X7958450Y-15309850D02*
G75*
G03X7958450Y-15309850I-40000J0D01*
G01*
X8549000Y-13919200D02*
G75*
G03X8549000Y-13919200I-40000J0D01*
G01*
X8549000Y-14119200D02*
G75*
G03X8549000Y-14119200I-40000J0D01*
G01*
X12943200Y-13614400D02*
G75*
G03X12943200Y-13614400I-40000J0D01*
G01*
X13143200Y-13614400D02*
G75*
G03X13143200Y-13614400I-40000J0D01*
G01*
X11571600Y-6616700D02*
G75*
G03X11571600Y-6616700I-40000J0D01*
G01*
X11771600Y-6616700D02*
G75*
G03X11771600Y-6616700I-40000J0D01*
G01*
X10644500Y-8051800D02*
G75*
G03X10644500Y-8051800I-40000J0D01*
G01*
X10844500Y-8051800D02*
G75*
G03X10844500Y-8051800I-40000J0D01*
G01*
X12117700Y-10883900D02*
G75*
G03X12117700Y-10883900I-40000J0D01*
G01*
X12317700Y-10883900D02*
G75*
G03X12317700Y-10883900I-40000J0D01*
G01*
X12111350Y-11468100D02*
G75*
G03X12111350Y-11468100I-40000J0D01*
G01*
X12311350Y-11468100D02*
G75*
G03X12311350Y-11468100I-40000J0D01*
G01*
X10758800Y-14503400D02*
G75*
G03X10758800Y-14503400I-40000J0D01*
G01*
X10958800Y-14503400D02*
G75*
G03X10958800Y-14503400I-40000J0D01*
G01*
X12130400Y-7493000D02*
G75*
G03X12130400Y-7493000I-40000J0D01*
G01*
X12330400Y-7493000D02*
G75*
G03X12330400Y-7493000I-40000J0D01*
G01*
X11571600Y-10680700D02*
G75*
G03X11571600Y-10680700I-40000J0D01*
G01*
X11771600Y-10680700D02*
G75*
G03X11771600Y-10680700I-40000J0D01*
G01*
X11419200Y-12776200D02*
G75*
G03X11419200Y-12776200I-40000J0D01*
G01*
X11419200Y-12976200D02*
G75*
G03X11419200Y-12976200I-40000J0D01*
G01*
X11346200Y-14859000D02*
G75*
G03X11346200Y-14859000I-40000J0D01*
G01*
X11546200Y-14859000D02*
G75*
G03X11546200Y-14859000I-40000J0D01*
G01*
X12943200Y-15113000D02*
G75*
G03X12943200Y-15113000I-40000J0D01*
G01*
X13143200Y-15113000D02*
G75*
G03X13143200Y-15113000I-40000J0D01*
G01*
X12130400Y-6877050D02*
G75*
G03X12130400Y-6877050I-40000J0D01*
G01*
X12330400Y-6877050D02*
G75*
G03X12330400Y-6877050I-40000J0D01*
G01*
X10177800Y-12065000D02*
G75*
G03X10177800Y-12065000I-40000J0D01*
G01*
X10377800Y-12065000D02*
G75*
G03X10377800Y-12065000I-40000J0D01*
G01*
X6908800Y-8204200D02*
X6908800Y-8305800D01*
X6858000Y-8255000D02*
X6959600Y-8255000D01*
X6908800Y-8458200D02*
X6908800Y-8559800D01*
X6858000Y-8509000D02*
X6959600Y-8509000D01*
X7162800Y-8204200D02*
X7162800Y-8305800D01*
X7112000Y-8255000D02*
X7213600Y-8255000D01*
X7162800Y-8458200D02*
X7162800Y-8559800D01*
X7112000Y-8509000D02*
X7213600Y-8509000D01*
X7416800Y-8204200D02*
X7416800Y-8305800D01*
X7366000Y-8255000D02*
X7467600Y-8255000D01*
X7416800Y-8458200D02*
X7416800Y-8559800D01*
X7366000Y-8509000D02*
X7467600Y-8509000D01*
X7670800Y-8204200D02*
X7670800Y-8305800D01*
X7620000Y-8255000D02*
X7721600Y-8255000D01*
X7670800Y-8458200D02*
X7670800Y-8559800D01*
X7620000Y-8509000D02*
X7721600Y-8509000D01*
X7924800Y-8204200D02*
X7924800Y-8305800D01*
X7874000Y-8255000D02*
X7975600Y-8255000D01*
X7924800Y-8458200D02*
X7924800Y-8559800D01*
X7874000Y-8509000D02*
X7975600Y-8509000D01*
X8178800Y-8204200D02*
X8178800Y-8305800D01*
X8128000Y-8255000D02*
X8229600Y-8255000D01*
X8178800Y-8458200D02*
X8178800Y-8559800D01*
X8128000Y-8509000D02*
X8229600Y-8509000D01*
X8432800Y-8204200D02*
X8432800Y-8305800D01*
X8382000Y-8255000D02*
X8483600Y-8255000D01*
X8432800Y-8458200D02*
X8432800Y-8559800D01*
X8382000Y-8509000D02*
X8483600Y-8509000D01*
X8686800Y-8204200D02*
X8686800Y-8305800D01*
X8636000Y-8255000D02*
X8737600Y-8255000D01*
X8686800Y-8458200D02*
X8686800Y-8559800D01*
X8636000Y-8509000D02*
X8737600Y-8509000D01*
X12598400Y-14046200D02*
X12598400Y-14147800D01*
X12547600Y-14097000D02*
X12649200Y-14097000D01*
X12598400Y-14300200D02*
X12598400Y-14401800D01*
X12547600Y-14351000D02*
X12649200Y-14351000D01*
X12598400Y-14554200D02*
X12598400Y-14655800D01*
X12547600Y-14605000D02*
X12649200Y-14605000D01*
X12852400Y-14046200D02*
X12852400Y-14147800D01*
X12801600Y-14097000D02*
X12903200Y-14097000D01*
X12852400Y-14300200D02*
X12852400Y-14401800D01*
X12801600Y-14351000D02*
X12903200Y-14351000D01*
X12852400Y-14554200D02*
X12852400Y-14655800D01*
X12801600Y-14605000D02*
X12903200Y-14605000D01*
X12598400Y-12547600D02*
X12598400Y-12649200D01*
X12547600Y-12598400D02*
X12649200Y-12598400D01*
X12598400Y-12801600D02*
X12598400Y-12903200D01*
X12547600Y-12852400D02*
X12649200Y-12852400D01*
X12598400Y-13055600D02*
X12598400Y-13157200D01*
X12547600Y-13106400D02*
X12649200Y-13106400D01*
X12852400Y-12547600D02*
X12852400Y-12649200D01*
X12801600Y-12598400D02*
X12903200Y-12598400D01*
X12852400Y-12801600D02*
X12852400Y-12903200D01*
X12801600Y-12852400D02*
X12903200Y-12852400D01*
X12852400Y-13055600D02*
X12852400Y-13157200D01*
X12801600Y-13106400D02*
X12903200Y-13106400D01*
X6908800Y-9271000D02*
X6908800Y-9372600D01*
X6858000Y-9321800D02*
X6959600Y-9321800D01*
X6908800Y-9525000D02*
X6908800Y-9626600D01*
X6858000Y-9575800D02*
X6959600Y-9575800D01*
X7162800Y-9271000D02*
X7162800Y-9372600D01*
X7112000Y-9321800D02*
X7213600Y-9321800D01*
X7162800Y-9525000D02*
X7162800Y-9626600D01*
X7112000Y-9575800D02*
X7213600Y-9575800D01*
X7416800Y-9271000D02*
X7416800Y-9372600D01*
X7366000Y-9321800D02*
X7467600Y-9321800D01*
X7416800Y-9525000D02*
X7416800Y-9626600D01*
X7366000Y-9575800D02*
X7467600Y-9575800D01*
X7670800Y-9271000D02*
X7670800Y-9372600D01*
X7620000Y-9321800D02*
X7721600Y-9321800D01*
X7670800Y-9525000D02*
X7670800Y-9626600D01*
X7620000Y-9575800D02*
X7721600Y-9575800D01*
X7924800Y-9271000D02*
X7924800Y-9372600D01*
X7874000Y-9321800D02*
X7975600Y-9321800D01*
X7924800Y-9525000D02*
X7924800Y-9626600D01*
X7874000Y-9575800D02*
X7975600Y-9575800D01*
X8178800Y-9271000D02*
X8178800Y-9372600D01*
X8128000Y-9321800D02*
X8229600Y-9321800D01*
X8178800Y-9525000D02*
X8178800Y-9626600D01*
X8128000Y-9575800D02*
X8229600Y-9575800D01*
X8432800Y-9271000D02*
X8432800Y-9372600D01*
X8382000Y-9321800D02*
X8483600Y-9321800D01*
X8432800Y-9525000D02*
X8432800Y-9626600D01*
X8382000Y-9575800D02*
X8483600Y-9575800D01*
X8686800Y-9271000D02*
X8686800Y-9372600D01*
X8636000Y-9321800D02*
X8737600Y-9321800D01*
X8686800Y-9525000D02*
X8686800Y-9626600D01*
X8636000Y-9575800D02*
X8737600Y-9575800D01*
X6908800Y-10337800D02*
X6908800Y-10439400D01*
X6858000Y-10388600D02*
X6959600Y-10388600D01*
X6908800Y-10591800D02*
X6908800Y-10693400D01*
X6858000Y-10642600D02*
X6959600Y-10642600D01*
X7162800Y-10337800D02*
X7162800Y-10439400D01*
X7112000Y-10388600D02*
X7213600Y-10388600D01*
X7162800Y-10591800D02*
X7162800Y-10693400D01*
X7112000Y-10642600D02*
X7213600Y-10642600D01*
X7416800Y-10337800D02*
X7416800Y-10439400D01*
X7366000Y-10388600D02*
X7467600Y-10388600D01*
X7416800Y-10591800D02*
X7416800Y-10693400D01*
X7366000Y-10642600D02*
X7467600Y-10642600D01*
X7670800Y-10337800D02*
X7670800Y-10439400D01*
X7620000Y-10388600D02*
X7721600Y-10388600D01*
X7670800Y-10591800D02*
X7670800Y-10693400D01*
X7620000Y-10642600D02*
X7721600Y-10642600D01*
X7924800Y-10337800D02*
X7924800Y-10439400D01*
X7874000Y-10388600D02*
X7975600Y-10388600D01*
X7924800Y-10591800D02*
X7924800Y-10693400D01*
X7874000Y-10642600D02*
X7975600Y-10642600D01*
X8178800Y-10337800D02*
X8178800Y-10439400D01*
X8128000Y-10388600D02*
X8229600Y-10388600D01*
X8178800Y-10591800D02*
X8178800Y-10693400D01*
X8128000Y-10642600D02*
X8229600Y-10642600D01*
X8432800Y-10337800D02*
X8432800Y-10439400D01*
X8382000Y-10388600D02*
X8483600Y-10388600D01*
X8432800Y-10591800D02*
X8432800Y-10693400D01*
X8382000Y-10642600D02*
X8483600Y-10642600D01*
X8686800Y-10337800D02*
X8686800Y-10439400D01*
X8636000Y-10388600D02*
X8737600Y-10388600D01*
X8686800Y-10591800D02*
X8686800Y-10693400D01*
X8636000Y-10642600D02*
X8737600Y-10642600D01*
X7721600Y-13411200D02*
X7721600Y-13512800D01*
X7670800Y-13462000D02*
X7772400Y-13462000D01*
X7975600Y-13411200D02*
X7975600Y-13512800D01*
X7924800Y-13462000D02*
X8026400Y-13462000D01*
X8229600Y-13411200D02*
X8229600Y-13512800D01*
X8178800Y-13462000D02*
X8280400Y-13462000D01*
X7874000Y-6096000D02*
X7874000Y-6197600D01*
X7823200Y-6146800D02*
X7924800Y-6146800D01*
X7874000Y-6350000D02*
X7874000Y-6451600D01*
X7823200Y-6400800D02*
X7924800Y-6400800D01*
X7874000Y-6604000D02*
X7874000Y-6705600D01*
X7823200Y-6654800D02*
X7924800Y-6654800D01*
X8128000Y-6096000D02*
X8128000Y-6197600D01*
X8077200Y-6146800D02*
X8178800Y-6146800D01*
X8128000Y-6350000D02*
X8128000Y-6451600D01*
X8077200Y-6400800D02*
X8178800Y-6400800D01*
X8128000Y-6604000D02*
X8128000Y-6705600D01*
X8077200Y-6654800D02*
X8178800Y-6654800D01*
X9931400Y-7874000D02*
X9931400Y-7975600D01*
X9880600Y-7924800D02*
X9982200Y-7924800D01*
X9931400Y-8128000D02*
X9931400Y-8229600D01*
X9880600Y-8178800D02*
X9982200Y-8178800D01*
X9931400Y-8382000D02*
X9931400Y-8483600D01*
X9880600Y-8432800D02*
X9982200Y-8432800D01*
X9931400Y-8636000D02*
X9931400Y-8737600D01*
X9880600Y-8686800D02*
X9982200Y-8686800D01*
X9931400Y-8890000D02*
X9931400Y-8991600D01*
X9880600Y-8940800D02*
X9982200Y-8940800D01*
X9931400Y-9144000D02*
X9931400Y-9245600D01*
X9880600Y-9194800D02*
X9982200Y-9194800D01*
X6908800Y-7137400D02*
X6908800Y-7239000D01*
X6858000Y-7188200D02*
X6959600Y-7188200D01*
X6908800Y-7391400D02*
X6908800Y-7493000D01*
X6858000Y-7442200D02*
X6959600Y-7442200D01*
X7162800Y-7137400D02*
X7162800Y-7239000D01*
X7112000Y-7188200D02*
X7213600Y-7188200D01*
X7162800Y-7391400D02*
X7162800Y-7493000D01*
X7112000Y-7442200D02*
X7213600Y-7442200D01*
X7416800Y-7137400D02*
X7416800Y-7239000D01*
X7366000Y-7188200D02*
X7467600Y-7188200D01*
X7416800Y-7391400D02*
X7416800Y-7493000D01*
X7366000Y-7442200D02*
X7467600Y-7442200D01*
X7670800Y-7137400D02*
X7670800Y-7239000D01*
X7620000Y-7188200D02*
X7721600Y-7188200D01*
X7670800Y-7391400D02*
X7670800Y-7493000D01*
X7620000Y-7442200D02*
X7721600Y-7442200D01*
X7924800Y-7137400D02*
X7924800Y-7239000D01*
X7874000Y-7188200D02*
X7975600Y-7188200D01*
X7924800Y-7391400D02*
X7924800Y-7493000D01*
X7874000Y-7442200D02*
X7975600Y-7442200D01*
X8178800Y-7137400D02*
X8178800Y-7239000D01*
X8128000Y-7188200D02*
X8229600Y-7188200D01*
X8178800Y-7391400D02*
X8178800Y-7493000D01*
X8128000Y-7442200D02*
X8229600Y-7442200D01*
X8432800Y-7137400D02*
X8432800Y-7239000D01*
X8382000Y-7188200D02*
X8483600Y-7188200D01*
X8432800Y-7391400D02*
X8432800Y-7493000D01*
X8382000Y-7442200D02*
X8483600Y-7442200D01*
X8686800Y-7137400D02*
X8686800Y-7239000D01*
X8636000Y-7188200D02*
X8737600Y-7188200D01*
X8686800Y-7391400D02*
X8686800Y-7493000D01*
X8636000Y-7442200D02*
X8737600Y-7442200D01*
X6985000Y-11430000D02*
X6985000Y-11531600D01*
X6934200Y-11480800D02*
X7035800Y-11480800D01*
X6985000Y-11684000D02*
X6985000Y-11785600D01*
X6934200Y-11734800D02*
X7035800Y-11734800D01*
X7239000Y-11430000D02*
X7239000Y-11531600D01*
X7188200Y-11480800D02*
X7289800Y-11480800D01*
X7239000Y-11684000D02*
X7239000Y-11785600D01*
X7188200Y-11734800D02*
X7289800Y-11734800D01*
X7493000Y-11430000D02*
X7493000Y-11531600D01*
X7442200Y-11480800D02*
X7543800Y-11480800D01*
X7493000Y-11684000D02*
X7493000Y-11785600D01*
X7442200Y-11734800D02*
X7543800Y-11734800D01*
X7747000Y-11430000D02*
X7747000Y-11531600D01*
X7696200Y-11480800D02*
X7797800Y-11480800D01*
X7747000Y-11684000D02*
X7747000Y-11785600D01*
X7696200Y-11734800D02*
X7797800Y-11734800D01*
X8001000Y-11430000D02*
X8001000Y-11531600D01*
X7950200Y-11480800D02*
X8051800Y-11480800D01*
X8001000Y-11684000D02*
X8001000Y-11785600D01*
X7950200Y-11734800D02*
X8051800Y-11734800D01*
X9194800Y-6096000D02*
X9194800Y-6197600D01*
X9144000Y-6146800D02*
X9245600Y-6146800D01*
X9194800Y-6350000D02*
X9194800Y-6451600D01*
X9144000Y-6400800D02*
X9245600Y-6400800D01*
X9194800Y-6604000D02*
X9194800Y-6705600D01*
X9144000Y-6654800D02*
X9245600Y-6654800D01*
X9448800Y-6096000D02*
X9448800Y-6197600D01*
X9398000Y-6146800D02*
X9499600Y-6146800D01*
X9448800Y-6350000D02*
X9448800Y-6451600D01*
X9398000Y-6400800D02*
X9499600Y-6400800D01*
X9448800Y-6604000D02*
X9448800Y-6705600D01*
X9398000Y-6654800D02*
X9499600Y-6654800D01*
X8534400Y-6096000D02*
X8534400Y-6197600D01*
X8483600Y-6146800D02*
X8585200Y-6146800D01*
X8534400Y-6350000D02*
X8534400Y-6451600D01*
X8483600Y-6400800D02*
X8585200Y-6400800D01*
X8534400Y-6604000D02*
X8534400Y-6705600D01*
X8483600Y-6654800D02*
X8585200Y-6654800D01*
X8788400Y-6096000D02*
X8788400Y-6197600D01*
X8737600Y-6146800D02*
X8839200Y-6146800D01*
X8788400Y-6350000D02*
X8788400Y-6451600D01*
X8737600Y-6400800D02*
X8839200Y-6400800D01*
X8788400Y-6604000D02*
X8788400Y-6705600D01*
X8737600Y-6654800D02*
X8839200Y-6654800D01*
X7213600Y-6096000D02*
X7213600Y-6197600D01*
X7162800Y-6146800D02*
X7264400Y-6146800D01*
X7213600Y-6350000D02*
X7213600Y-6451600D01*
X7162800Y-6400800D02*
X7264400Y-6400800D01*
X7213600Y-6604000D02*
X7213600Y-6705600D01*
X7162800Y-6654800D02*
X7264400Y-6654800D01*
X7467600Y-6096000D02*
X7467600Y-6197600D01*
X7416800Y-6146800D02*
X7518400Y-6146800D01*
X7467600Y-6350000D02*
X7467600Y-6451600D01*
X7416800Y-6400800D02*
X7518400Y-6400800D01*
X7467600Y-6604000D02*
X7467600Y-6705600D01*
X7416800Y-6654800D02*
X7518400Y-6654800D01*
X6871491Y-13130291D02*
X6871491Y-13052509D01*
X6793709Y-13052509D01*
X6793709Y-13130291D01*
X6871491Y-13130291D01*
X6871491Y-13780291D02*
X6871491Y-13702509D01*
X6793709Y-13702509D01*
X6793709Y-13780291D01*
X6871491Y-13780291D01*
X7321491Y-13130291D02*
X7321491Y-13052509D01*
X7243709Y-13052509D01*
X7243709Y-13130291D01*
X7321491Y-13130291D01*
X7321491Y-13780291D02*
X7321491Y-13702509D01*
X7243709Y-13702509D01*
X7243709Y-13780291D01*
X7321491Y-13780291D01*
X6858000Y-14263600D02*
X6923000Y-14198600D01*
X6858000Y-14133600D01*
X6793000Y-14198600D01*
X6858000Y-14263600D01*
X6858000Y-14771600D02*
X6923000Y-14706600D01*
X6858000Y-14641600D01*
X6793000Y-14706600D01*
X6858000Y-14771600D01*
X13478600Y-11472000D02*
X13648600Y-11642000D01*
X13648600Y-11472000D02*
X13478600Y-11642000D01*
X13648600Y-11557000D02*
G75*
G03X13648600Y-11557000I-85000J0D01*
G01*
X13478600Y-9948000D02*
X13648600Y-10118000D01*
X13648600Y-9948000D02*
X13478600Y-10118000D01*
X13648600Y-10033000D02*
G75*
G03X13648600Y-10033000I-85000J0D01*
G01*
X13478600Y-13021400D02*
X13648600Y-13191400D01*
X13648600Y-13021400D02*
X13478600Y-13191400D01*
X13648600Y-13106400D02*
G75*
G03X13648600Y-13106400I-85000J0D01*
G01*
X13478600Y-6900000D02*
X13648600Y-7070000D01*
X13648600Y-6900000D02*
X13478600Y-7070000D01*
X13648600Y-6985000D02*
G75*
G03X13648600Y-6985000I-85000J0D01*
G01*
X13478600Y-14545400D02*
X13648600Y-14715400D01*
X13648600Y-14545400D02*
X13478600Y-14715400D01*
X13648600Y-14630400D02*
G75*
G03X13648600Y-14630400I-85000J0D01*
G01*
X13478600Y-8424000D02*
X13648600Y-8594000D01*
X13648600Y-8424000D02*
X13478600Y-8594000D01*
X13648600Y-8509000D02*
G75*
G03X13648600Y-8509000I-85000J0D01*
G01*
X13433600Y-12476400D02*
X13693600Y-12736400D01*
X13693600Y-12476400D02*
X13433600Y-12736400D01*
X13563600Y-12476400D02*
X13563600Y-12736400D01*
X13433600Y-12606400D02*
X13693600Y-12606400D01*
X13433600Y-13476400D02*
X13693600Y-13736400D01*
X13693600Y-13476400D02*
X13433600Y-13736400D01*
X13563600Y-13476400D02*
X13563600Y-13736400D01*
X13433600Y-13606400D02*
X13693600Y-13606400D01*
X13883600Y-12976400D02*
X14143600Y-13236400D01*
X14143600Y-12976400D02*
X13883600Y-13236400D01*
X14013600Y-12976400D02*
X14013600Y-13236400D01*
X13883600Y-13106400D02*
X14143600Y-13106400D01*
X13433600Y-6355000D02*
X13693600Y-6615000D01*
X13693600Y-6355000D02*
X13433600Y-6615000D01*
X13563600Y-6355000D02*
X13563600Y-6615000D01*
X13433600Y-6485000D02*
X13693600Y-6485000D01*
X13433600Y-7355000D02*
X13693600Y-7615000D01*
X13693600Y-7355000D02*
X13433600Y-7615000D01*
X13563600Y-7355000D02*
X13563600Y-7615000D01*
X13433600Y-7485000D02*
X13693600Y-7485000D01*
X13883600Y-6855000D02*
X14143600Y-7115000D01*
X14143600Y-6855000D02*
X13883600Y-7115000D01*
X14013600Y-6855000D02*
X14013600Y-7115000D01*
X13883600Y-6985000D02*
X14143600Y-6985000D01*
X13433600Y-14000400D02*
X13693600Y-14260400D01*
X13693600Y-14000400D02*
X13433600Y-14260400D01*
X13563600Y-14000400D02*
X13563600Y-14260400D01*
X13433600Y-14130400D02*
X13693600Y-14130400D01*
X13433600Y-15000400D02*
X13693600Y-15260400D01*
X13693600Y-15000400D02*
X13433600Y-15260400D01*
X13563600Y-15000400D02*
X13563600Y-15260400D01*
X13433600Y-15130400D02*
X13693600Y-15130400D01*
X13883600Y-14500400D02*
X14143600Y-14760400D01*
X14143600Y-14500400D02*
X13883600Y-14760400D01*
X14013600Y-14500400D02*
X14013600Y-14760400D01*
X13883600Y-14630400D02*
X14143600Y-14630400D01*
X13433600Y-7879000D02*
X13693600Y-8139000D01*
X13693600Y-7879000D02*
X13433600Y-8139000D01*
X13563600Y-7879000D02*
X13563600Y-8139000D01*
X13433600Y-8009000D02*
X13693600Y-8009000D01*
X13433600Y-8879000D02*
X13693600Y-9139000D01*
X13693600Y-8879000D02*
X13433600Y-9139000D01*
X13563600Y-8879000D02*
X13563600Y-9139000D01*
X13433600Y-9009000D02*
X13693600Y-9009000D01*
X13883600Y-8379000D02*
X14143600Y-8639000D01*
X14143600Y-8379000D02*
X13883600Y-8639000D01*
X14013600Y-8379000D02*
X14013600Y-8639000D01*
X13883600Y-8509000D02*
X14143600Y-8509000D01*
X13433600Y-10927000D02*
X13693600Y-11187000D01*
X13693600Y-10927000D02*
X13433600Y-11187000D01*
X13563600Y-10927000D02*
X13563600Y-11187000D01*
X13433600Y-11057000D02*
X13693600Y-11057000D01*
X13433600Y-11927000D02*
X13693600Y-12187000D01*
X13693600Y-11927000D02*
X13433600Y-12187000D01*
X13563600Y-11927000D02*
X13563600Y-12187000D01*
X13433600Y-12057000D02*
X13693600Y-12057000D01*
X13883600Y-11427000D02*
X14143600Y-11687000D01*
X14143600Y-11427000D02*
X13883600Y-11687000D01*
X14013600Y-11427000D02*
X14013600Y-11687000D01*
X13883600Y-11557000D02*
X14143600Y-11557000D01*
X13433600Y-9403000D02*
X13693600Y-9663000D01*
X13693600Y-9403000D02*
X13433600Y-9663000D01*
X13563600Y-9403000D02*
X13563600Y-9663000D01*
X13433600Y-9533000D02*
X13693600Y-9533000D01*
X13433600Y-10403000D02*
X13693600Y-10663000D01*
X13693600Y-10403000D02*
X13433600Y-10663000D01*
X13563600Y-10403000D02*
X13563600Y-10663000D01*
X13433600Y-10533000D02*
X13693600Y-10533000D01*
X13883600Y-9903000D02*
X14143600Y-10163000D01*
X14143600Y-9903000D02*
X13883600Y-10163000D01*
X14013600Y-9903000D02*
X14013600Y-10163000D01*
X13883600Y-10033000D02*
X14143600Y-10033000D01*
D11*
X286429Y-465714D02*
X286429Y-165714D01*
X357857Y-165714D01*
X400714Y-180000D01*
X429286Y-208571D01*
X443571Y-237143D01*
X457857Y-294286D01*
X457857Y-337143D01*
X443571Y-394286D01*
X429286Y-422857D01*
X400714Y-451428D01*
X357857Y-465714D01*
X286429Y-465714D01*
X586429Y-465714D02*
X586429Y-265714D01*
X586429Y-322857D02*
X600714Y-294286D01*
X615000Y-280000D01*
X643571Y-265714D01*
X672143Y-265714D01*
X772143Y-465714D02*
X772143Y-265714D01*
X772143Y-165714D02*
X757857Y-180000D01*
X772143Y-194286D01*
X786428Y-180000D01*
X772143Y-165714D01*
X772143Y-194286D01*
X957857Y-465714D02*
X929286Y-451428D01*
X915000Y-422857D01*
X915000Y-165714D01*
X1115000Y-465714D02*
X1086429Y-451428D01*
X1072143Y-422857D01*
X1072143Y-165714D01*
X1457857Y-465714D02*
X1457857Y-165714D01*
X1557857Y-380000D01*
X1657857Y-165714D01*
X1657857Y-465714D01*
X1929286Y-465714D02*
X1929286Y-308571D01*
X1915000Y-280000D01*
X1886428Y-265714D01*
X1829286Y-265714D01*
X1800714Y-280000D01*
X1929286Y-451428D02*
X1900714Y-465714D01*
X1829286Y-465714D01*
X1800714Y-451428D01*
X1786428Y-422857D01*
X1786428Y-394286D01*
X1800714Y-365714D01*
X1829286Y-351428D01*
X1900714Y-351428D01*
X1929286Y-337143D01*
X2072143Y-265714D02*
X2072143Y-565714D01*
X2072143Y-280000D02*
X2100714Y-265714D01*
X2157857Y-265714D01*
X2186429Y-280000D01*
X2200714Y-294286D01*
X2215000Y-322857D01*
X2215000Y-408571D01*
X2200714Y-437143D01*
X2186429Y-451428D01*
X2157857Y-465714D01*
X2100714Y-465714D01*
X2072143Y-451428D01*
X2343571Y-437143D02*
X2357857Y-451428D01*
X2343571Y-465714D01*
X2329286Y-451428D01*
X2343571Y-437143D01*
X2343571Y-465714D01*
X2343571Y-280000D02*
X2357857Y-294286D01*
X2343571Y-308571D01*
X2329286Y-294286D01*
X2343571Y-280000D01*
X2343571Y-308571D01*
X-40000Y-940000D02*
X0Y-980000D01*
X0Y-940000D02*
X-40000Y-980000D01*
X343571Y-795714D02*
X372143Y-795714D01*
X400714Y-810000D01*
X415000Y-824286D01*
X429286Y-852857D01*
X443571Y-910000D01*
X443571Y-981428D01*
X429286Y-1038571D01*
X415000Y-1067143D01*
X400714Y-1081429D01*
X372143Y-1095714D01*
X343571Y-1095714D01*
X315000Y-1081429D01*
X300714Y-1067143D01*
X286429Y-1038571D01*
X272143Y-981428D01*
X272143Y-910000D01*
X286429Y-852857D01*
X300714Y-824286D01*
X315000Y-810000D01*
X343571Y-795714D01*
X572143Y-1067143D02*
X586429Y-1081429D01*
X572143Y-1095714D01*
X557857Y-1081429D01*
X572143Y-1067143D01*
X572143Y-1095714D01*
X843571Y-895714D02*
X843571Y-1095714D01*
X772143Y-781428D02*
X700714Y-995714D01*
X886428Y-995714D01*
X1057857Y-795714D02*
X1086429Y-795714D01*
X1115000Y-810000D01*
X1129286Y-824286D01*
X1143571Y-852857D01*
X1157857Y-910000D01*
X1157857Y-981428D01*
X1143571Y-1038571D01*
X1129286Y-1067143D01*
X1115000Y-1081429D01*
X1086429Y-1095714D01*
X1057857Y-1095714D01*
X1029286Y-1081429D01*
X1015000Y-1067143D01*
X1000714Y-1038571D01*
X986428Y-981428D01*
X986428Y-910000D01*
X1000714Y-852857D01*
X1015000Y-824286D01*
X1029286Y-810000D01*
X1057857Y-795714D01*
X1286429Y-1095714D02*
X1286429Y-895714D01*
X1286429Y-924286D02*
X1300714Y-910000D01*
X1329286Y-895714D01*
X1372143Y-895714D01*
X1400714Y-910000D01*
X1415000Y-938571D01*
X1415000Y-1095714D01*
X1415000Y-938571D02*
X1429286Y-910000D01*
X1457857Y-895714D01*
X1500714Y-895714D01*
X1529286Y-910000D01*
X1543571Y-938571D01*
X1543571Y-1095714D01*
X1686428Y-1095714D02*
X1686428Y-895714D01*
X1686428Y-924286D02*
X1700714Y-910000D01*
X1729286Y-895714D01*
X1772143Y-895714D01*
X1800714Y-910000D01*
X1815000Y-938571D01*
X1815000Y-1095714D01*
X1815000Y-938571D02*
X1829286Y-910000D01*
X1857857Y-895714D01*
X1900714Y-895714D01*
X1929286Y-910000D01*
X1943571Y-938571D01*
X1943571Y-1095714D01*
X2529286Y-781428D02*
X2272143Y-1167143D01*
X2915000Y-795714D02*
X2943571Y-795714D01*
X2972143Y-810000D01*
X2986428Y-824286D01*
X3000714Y-852857D01*
X3015000Y-910000D01*
X3015000Y-981428D01*
X3000714Y-1038571D01*
X2986428Y-1067143D01*
X2972143Y-1081429D01*
X2943571Y-1095714D01*
X2915000Y-1095714D01*
X2886428Y-1081429D01*
X2872143Y-1067143D01*
X2857857Y-1038571D01*
X2843571Y-981428D01*
X2843571Y-910000D01*
X2857857Y-852857D01*
X2872143Y-824286D01*
X2886428Y-810000D01*
X2915000Y-795714D01*
X3143571Y-1067143D02*
X3157857Y-1081429D01*
X3143571Y-1095714D01*
X3129286Y-1081429D01*
X3143571Y-1067143D01*
X3143571Y-1095714D01*
X3343571Y-795714D02*
X3372143Y-795714D01*
X3400714Y-810000D01*
X3415000Y-824286D01*
X3429286Y-852857D01*
X3443571Y-910000D01*
X3443571Y-981428D01*
X3429286Y-1038571D01*
X3415000Y-1067143D01*
X3400714Y-1081429D01*
X3372143Y-1095714D01*
X3343571Y-1095714D01*
X3315000Y-1081429D01*
X3300714Y-1067143D01*
X3286428Y-1038571D01*
X3272143Y-981428D01*
X3272143Y-910000D01*
X3286428Y-852857D01*
X3300714Y-824286D01*
X3315000Y-810000D01*
X3343571Y-795714D01*
X3729286Y-1095714D02*
X3557857Y-1095714D01*
X3643571Y-1095714D02*
X3643571Y-795714D01*
X3615000Y-838571D01*
X3586428Y-867143D01*
X3557857Y-881428D01*
X3986428Y-795714D02*
X3929286Y-795714D01*
X3900714Y-810000D01*
X3886428Y-824286D01*
X3857857Y-867143D01*
X3843571Y-924286D01*
X3843571Y-1038571D01*
X3857857Y-1067143D01*
X3872143Y-1081429D01*
X3900714Y-1095714D01*
X3957857Y-1095714D01*
X3986428Y-1081429D01*
X4000714Y-1067143D01*
X4015000Y-1038571D01*
X4015000Y-967143D01*
X4000714Y-938571D01*
X3986428Y-924286D01*
X3957857Y-910000D01*
X3900714Y-910000D01*
X3872143Y-924286D01*
X3857857Y-938571D01*
X3843571Y-967143D01*
X4129286Y-795714D02*
X4129286Y-852857D01*
X4243571Y-795714D02*
X4243571Y-852857D01*
X4686429Y-1210000D02*
X4672143Y-1195714D01*
X4643571Y-1152857D01*
X4629286Y-1124286D01*
X4615000Y-1081429D01*
X4600714Y-1010000D01*
X4600714Y-952857D01*
X4615000Y-881428D01*
X4629286Y-838571D01*
X4643571Y-810000D01*
X4672143Y-767143D01*
X4686429Y-752857D01*
X4786429Y-824286D02*
X4800714Y-810000D01*
X4829286Y-795714D01*
X4900714Y-795714D01*
X4929286Y-810000D01*
X4943571Y-824286D01*
X4957857Y-852857D01*
X4957857Y-881428D01*
X4943571Y-924286D01*
X4772143Y-1095714D01*
X4957857Y-1095714D01*
X5057857Y-795714D02*
X5243571Y-795714D01*
X5143571Y-910000D01*
X5186429Y-910000D01*
X5215000Y-924286D01*
X5229286Y-938571D01*
X5243571Y-967143D01*
X5243571Y-1038571D01*
X5229286Y-1067143D01*
X5215000Y-1081429D01*
X5186429Y-1095714D01*
X5100714Y-1095714D01*
X5072143Y-1081429D01*
X5057857Y-1067143D01*
X5529286Y-1095714D02*
X5357857Y-1095714D01*
X5443571Y-1095714D02*
X5443571Y-795714D01*
X5415000Y-838571D01*
X5386429Y-867143D01*
X5357857Y-881428D01*
X5886428Y-1095714D02*
X5886428Y-795714D01*
X6015000Y-1095714D02*
X6015000Y-938571D01*
X6000714Y-910000D01*
X5972143Y-895714D01*
X5929286Y-895714D01*
X5900714Y-910000D01*
X5886428Y-924286D01*
X6200714Y-1095714D02*
X6172143Y-1081429D01*
X6157857Y-1067143D01*
X6143571Y-1038571D01*
X6143571Y-952857D01*
X6157857Y-924286D01*
X6172143Y-910000D01*
X6200714Y-895714D01*
X6243571Y-895714D01*
X6272143Y-910000D01*
X6286428Y-924286D01*
X6300714Y-952857D01*
X6300714Y-1038571D01*
X6286428Y-1067143D01*
X6272143Y-1081429D01*
X6243571Y-1095714D01*
X6200714Y-1095714D01*
X6472143Y-1095714D02*
X6443571Y-1081429D01*
X6429286Y-1052857D01*
X6429286Y-795714D01*
X6700714Y-1081429D02*
X6672143Y-1095714D01*
X6615000Y-1095714D01*
X6586428Y-1081429D01*
X6572143Y-1052857D01*
X6572143Y-938571D01*
X6586428Y-910000D01*
X6615000Y-895714D01*
X6672143Y-895714D01*
X6700714Y-910000D01*
X6715000Y-938571D01*
X6715000Y-967143D01*
X6572143Y-995714D01*
X6829286Y-1081429D02*
X6857857Y-1095714D01*
X6915000Y-1095714D01*
X6943571Y-1081429D01*
X6957857Y-1052857D01*
X6957857Y-1038571D01*
X6943571Y-1010000D01*
X6915000Y-995714D01*
X6872143Y-995714D01*
X6843571Y-981428D01*
X6829286Y-952857D01*
X6829286Y-938571D01*
X6843571Y-910000D01*
X6872143Y-895714D01*
X6915000Y-895714D01*
X6943571Y-910000D01*
X7057857Y-1210000D02*
X7072143Y-1195714D01*
X7100714Y-1152857D01*
X7115000Y-1124286D01*
X7129286Y-1081429D01*
X7143571Y-1010000D01*
X7143571Y-952857D01*
X7129286Y-881428D01*
X7115000Y-838571D01*
X7100714Y-810000D01*
X7072143Y-767143D01*
X7057857Y-752857D01*
X0Y-1356000D02*
G75*
G03X0Y-1356000I-40000J0D01*
G01*
X343571Y-1191714D02*
X372143Y-1191714D01*
X400714Y-1206000D01*
X415000Y-1220286D01*
X429286Y-1248857D01*
X443571Y-1306000D01*
X443571Y-1377429D01*
X429286Y-1434571D01*
X415000Y-1463143D01*
X400714Y-1477428D01*
X372143Y-1491714D01*
X343571Y-1491714D01*
X315000Y-1477428D01*
X300714Y-1463143D01*
X286429Y-1434571D01*
X272143Y-1377429D01*
X272143Y-1306000D01*
X286429Y-1248857D01*
X300714Y-1220286D01*
X315000Y-1206000D01*
X343571Y-1191714D01*
X572143Y-1463143D02*
X586429Y-1477428D01*
X572143Y-1491714D01*
X557857Y-1477428D01*
X572143Y-1463143D01*
X572143Y-1491714D01*
X757857Y-1320286D02*
X729286Y-1306000D01*
X715000Y-1291714D01*
X700714Y-1263143D01*
X700714Y-1248857D01*
X715000Y-1220286D01*
X729286Y-1206000D01*
X757857Y-1191714D01*
X815000Y-1191714D01*
X843571Y-1206000D01*
X857857Y-1220286D01*
X872143Y-1248857D01*
X872143Y-1263143D01*
X857857Y-1291714D01*
X843571Y-1306000D01*
X815000Y-1320286D01*
X757857Y-1320286D01*
X729286Y-1334571D01*
X715000Y-1348857D01*
X700714Y-1377429D01*
X700714Y-1434571D01*
X715000Y-1463143D01*
X729286Y-1477428D01*
X757857Y-1491714D01*
X815000Y-1491714D01*
X843571Y-1477428D01*
X857857Y-1463143D01*
X872143Y-1434571D01*
X872143Y-1377429D01*
X857857Y-1348857D01*
X843571Y-1334571D01*
X815000Y-1320286D01*
X1057857Y-1191714D02*
X1086429Y-1191714D01*
X1115000Y-1206000D01*
X1129286Y-1220286D01*
X1143571Y-1248857D01*
X1157857Y-1306000D01*
X1157857Y-1377429D01*
X1143571Y-1434571D01*
X1129286Y-1463143D01*
X1115000Y-1477428D01*
X1086429Y-1491714D01*
X1057857Y-1491714D01*
X1029286Y-1477428D01*
X1015000Y-1463143D01*
X1000714Y-1434571D01*
X986428Y-1377429D01*
X986428Y-1306000D01*
X1000714Y-1248857D01*
X1015000Y-1220286D01*
X1029286Y-1206000D01*
X1057857Y-1191714D01*
X1286429Y-1491714D02*
X1286429Y-1291714D01*
X1286429Y-1320286D02*
X1300714Y-1306000D01*
X1329286Y-1291714D01*
X1372143Y-1291714D01*
X1400714Y-1306000D01*
X1415000Y-1334571D01*
X1415000Y-1491714D01*
X1415000Y-1334571D02*
X1429286Y-1306000D01*
X1457857Y-1291714D01*
X1500714Y-1291714D01*
X1529286Y-1306000D01*
X1543571Y-1334571D01*
X1543571Y-1491714D01*
X1686428Y-1491714D02*
X1686428Y-1291714D01*
X1686428Y-1320286D02*
X1700714Y-1306000D01*
X1729286Y-1291714D01*
X1772143Y-1291714D01*
X1800714Y-1306000D01*
X1815000Y-1334571D01*
X1815000Y-1491714D01*
X1815000Y-1334571D02*
X1829286Y-1306000D01*
X1857857Y-1291714D01*
X1900714Y-1291714D01*
X1929286Y-1306000D01*
X1943571Y-1334571D01*
X1943571Y-1491714D01*
X2529286Y-1177429D02*
X2272143Y-1563143D01*
X2915000Y-1191714D02*
X2943571Y-1191714D01*
X2972143Y-1206000D01*
X2986428Y-1220286D01*
X3000714Y-1248857D01*
X3015000Y-1306000D01*
X3015000Y-1377429D01*
X3000714Y-1434571D01*
X2986428Y-1463143D01*
X2972143Y-1477428D01*
X2943571Y-1491714D01*
X2915000Y-1491714D01*
X2886428Y-1477428D01*
X2872143Y-1463143D01*
X2857857Y-1434571D01*
X2843571Y-1377429D01*
X2843571Y-1306000D01*
X2857857Y-1248857D01*
X2872143Y-1220286D01*
X2886428Y-1206000D01*
X2915000Y-1191714D01*
X3143571Y-1463143D02*
X3157857Y-1477428D01*
X3143571Y-1491714D01*
X3129286Y-1477428D01*
X3143571Y-1463143D01*
X3143571Y-1491714D01*
X3343571Y-1191714D02*
X3372143Y-1191714D01*
X3400714Y-1206000D01*
X3415000Y-1220286D01*
X3429286Y-1248857D01*
X3443571Y-1306000D01*
X3443571Y-1377429D01*
X3429286Y-1434571D01*
X3415000Y-1463143D01*
X3400714Y-1477428D01*
X3372143Y-1491714D01*
X3343571Y-1491714D01*
X3315000Y-1477428D01*
X3300714Y-1463143D01*
X3286428Y-1434571D01*
X3272143Y-1377429D01*
X3272143Y-1306000D01*
X3286428Y-1248857D01*
X3300714Y-1220286D01*
X3315000Y-1206000D01*
X3343571Y-1191714D01*
X3543571Y-1191714D02*
X3729286Y-1191714D01*
X3629286Y-1306000D01*
X3672143Y-1306000D01*
X3700714Y-1320286D01*
X3715000Y-1334571D01*
X3729286Y-1363143D01*
X3729286Y-1434571D01*
X3715000Y-1463143D01*
X3700714Y-1477428D01*
X3672143Y-1491714D01*
X3586428Y-1491714D01*
X3557857Y-1477428D01*
X3543571Y-1463143D01*
X4015000Y-1491714D02*
X3843571Y-1491714D01*
X3929286Y-1491714D02*
X3929286Y-1191714D01*
X3900714Y-1234571D01*
X3872143Y-1263143D01*
X3843571Y-1277429D01*
X4129286Y-1191714D02*
X4129286Y-1248857D01*
X4243571Y-1191714D02*
X4243571Y-1248857D01*
X4686429Y-1606000D02*
X4672143Y-1591714D01*
X4643571Y-1548857D01*
X4629286Y-1520286D01*
X4615000Y-1477428D01*
X4600714Y-1406000D01*
X4600714Y-1348857D01*
X4615000Y-1277429D01*
X4629286Y-1234571D01*
X4643571Y-1206000D01*
X4672143Y-1163143D01*
X4686429Y-1148857D01*
X4772143Y-1191714D02*
X4957857Y-1191714D01*
X4857857Y-1306000D01*
X4900714Y-1306000D01*
X4929286Y-1320286D01*
X4943571Y-1334571D01*
X4957857Y-1363143D01*
X4957857Y-1434571D01*
X4943571Y-1463143D01*
X4929286Y-1477428D01*
X4900714Y-1491714D01*
X4815000Y-1491714D01*
X4786429Y-1477428D01*
X4772143Y-1463143D01*
X5072143Y-1220286D02*
X5086429Y-1206000D01*
X5115000Y-1191714D01*
X5186429Y-1191714D01*
X5215000Y-1206000D01*
X5229286Y-1220286D01*
X5243571Y-1248857D01*
X5243571Y-1277429D01*
X5229286Y-1320286D01*
X5057857Y-1491714D01*
X5243571Y-1491714D01*
X5600714Y-1491714D02*
X5600714Y-1191714D01*
X5729286Y-1491714D02*
X5729286Y-1334571D01*
X5715000Y-1306000D01*
X5686428Y-1291714D01*
X5643571Y-1291714D01*
X5615000Y-1306000D01*
X5600714Y-1320286D01*
X5915000Y-1491714D02*
X5886428Y-1477428D01*
X5872143Y-1463143D01*
X5857857Y-1434571D01*
X5857857Y-1348857D01*
X5872143Y-1320286D01*
X5886428Y-1306000D01*
X5915000Y-1291714D01*
X5957857Y-1291714D01*
X5986428Y-1306000D01*
X6000714Y-1320286D01*
X6015000Y-1348857D01*
X6015000Y-1434571D01*
X6000714Y-1463143D01*
X5986428Y-1477428D01*
X5957857Y-1491714D01*
X5915000Y-1491714D01*
X6186428Y-1491714D02*
X6157857Y-1477428D01*
X6143571Y-1448857D01*
X6143571Y-1191714D01*
X6415000Y-1477428D02*
X6386428Y-1491714D01*
X6329286Y-1491714D01*
X6300714Y-1477428D01*
X6286428Y-1448857D01*
X6286428Y-1334571D01*
X6300714Y-1306000D01*
X6329286Y-1291714D01*
X6386428Y-1291714D01*
X6415000Y-1306000D01*
X6429286Y-1334571D01*
X6429286Y-1363143D01*
X6286428Y-1391714D01*
X6543571Y-1477428D02*
X6572143Y-1491714D01*
X6629286Y-1491714D01*
X6657857Y-1477428D01*
X6672143Y-1448857D01*
X6672143Y-1434571D01*
X6657857Y-1406000D01*
X6629286Y-1391714D01*
X6586428Y-1391714D01*
X6557857Y-1377429D01*
X6543571Y-1348857D01*
X6543571Y-1334571D01*
X6557857Y-1306000D01*
X6586428Y-1291714D01*
X6629286Y-1291714D01*
X6657857Y-1306000D01*
X6772143Y-1606000D02*
X6786428Y-1591714D01*
X6815000Y-1548857D01*
X6829286Y-1520286D01*
X6843571Y-1477428D01*
X6857857Y-1406000D01*
X6857857Y-1348857D01*
X6843571Y-1277429D01*
X6829286Y-1234571D01*
X6815000Y-1206000D01*
X6786428Y-1163143D01*
X6772143Y-1148857D01*
X-50800Y-1701200D02*
X-50800Y-1802800D01*
X-101600Y-1752000D02*
X0Y-1752000D01*
X443571Y-1887714D02*
X272143Y-1887714D01*
X357857Y-1887714D02*
X357857Y-1587714D01*
X329286Y-1630571D01*
X300714Y-1659143D01*
X272143Y-1673428D01*
X572143Y-1859143D02*
X586429Y-1873428D01*
X572143Y-1887714D01*
X557857Y-1873428D01*
X572143Y-1859143D01*
X572143Y-1887714D01*
X772143Y-1587714D02*
X800714Y-1587714D01*
X829286Y-1602000D01*
X843571Y-1616286D01*
X857857Y-1644857D01*
X872143Y-1702000D01*
X872143Y-1773428D01*
X857857Y-1830571D01*
X843571Y-1859143D01*
X829286Y-1873428D01*
X800714Y-1887714D01*
X772143Y-1887714D01*
X743571Y-1873428D01*
X729286Y-1859143D01*
X715000Y-1830571D01*
X700714Y-1773428D01*
X700714Y-1702000D01*
X715000Y-1644857D01*
X729286Y-1616286D01*
X743571Y-1602000D01*
X772143Y-1587714D01*
X986428Y-1616286D02*
X1000714Y-1602000D01*
X1029286Y-1587714D01*
X1100714Y-1587714D01*
X1129286Y-1602000D01*
X1143571Y-1616286D01*
X1157857Y-1644857D01*
X1157857Y-1673428D01*
X1143571Y-1716286D01*
X972143Y-1887714D01*
X1157857Y-1887714D01*
X1286429Y-1887714D02*
X1286429Y-1687714D01*
X1286429Y-1716286D02*
X1300714Y-1702000D01*
X1329286Y-1687714D01*
X1372143Y-1687714D01*
X1400714Y-1702000D01*
X1415000Y-1730571D01*
X1415000Y-1887714D01*
X1415000Y-1730571D02*
X1429286Y-1702000D01*
X1457857Y-1687714D01*
X1500714Y-1687714D01*
X1529286Y-1702000D01*
X1543571Y-1730571D01*
X1543571Y-1887714D01*
X1686428Y-1887714D02*
X1686428Y-1687714D01*
X1686428Y-1716286D02*
X1700714Y-1702000D01*
X1729286Y-1687714D01*
X1772143Y-1687714D01*
X1800714Y-1702000D01*
X1815000Y-1730571D01*
X1815000Y-1887714D01*
X1815000Y-1730571D02*
X1829286Y-1702000D01*
X1857857Y-1687714D01*
X1900714Y-1687714D01*
X1929286Y-1702000D01*
X1943571Y-1730571D01*
X1943571Y-1887714D01*
X2529286Y-1573428D02*
X2272143Y-1959143D01*
X2915000Y-1587714D02*
X2943571Y-1587714D01*
X2972143Y-1602000D01*
X2986428Y-1616286D01*
X3000714Y-1644857D01*
X3015000Y-1702000D01*
X3015000Y-1773428D01*
X3000714Y-1830571D01*
X2986428Y-1859143D01*
X2972143Y-1873428D01*
X2943571Y-1887714D01*
X2915000Y-1887714D01*
X2886428Y-1873428D01*
X2872143Y-1859143D01*
X2857857Y-1830571D01*
X2843571Y-1773428D01*
X2843571Y-1702000D01*
X2857857Y-1644857D01*
X2872143Y-1616286D01*
X2886428Y-1602000D01*
X2915000Y-1587714D01*
X3143571Y-1859143D02*
X3157857Y-1873428D01*
X3143571Y-1887714D01*
X3129286Y-1873428D01*
X3143571Y-1859143D01*
X3143571Y-1887714D01*
X3343571Y-1587714D02*
X3372143Y-1587714D01*
X3400714Y-1602000D01*
X3415000Y-1616286D01*
X3429286Y-1644857D01*
X3443571Y-1702000D01*
X3443571Y-1773428D01*
X3429286Y-1830571D01*
X3415000Y-1859143D01*
X3400714Y-1873428D01*
X3372143Y-1887714D01*
X3343571Y-1887714D01*
X3315000Y-1873428D01*
X3300714Y-1859143D01*
X3286428Y-1830571D01*
X3272143Y-1773428D01*
X3272143Y-1702000D01*
X3286428Y-1644857D01*
X3300714Y-1616286D01*
X3315000Y-1602000D01*
X3343571Y-1587714D01*
X3700714Y-1687714D02*
X3700714Y-1887714D01*
X3629286Y-1573428D02*
X3557857Y-1787714D01*
X3743571Y-1787714D01*
X3915000Y-1587714D02*
X3943571Y-1587714D01*
X3972143Y-1602000D01*
X3986428Y-1616286D01*
X4000714Y-1644857D01*
X4015000Y-1702000D01*
X4015000Y-1773428D01*
X4000714Y-1830571D01*
X3986428Y-1859143D01*
X3972143Y-1873428D01*
X3943571Y-1887714D01*
X3915000Y-1887714D01*
X3886428Y-1873428D01*
X3872143Y-1859143D01*
X3857857Y-1830571D01*
X3843571Y-1773428D01*
X3843571Y-1702000D01*
X3857857Y-1644857D01*
X3872143Y-1616286D01*
X3886428Y-1602000D01*
X3915000Y-1587714D01*
X4129286Y-1587714D02*
X4129286Y-1644857D01*
X4243571Y-1587714D02*
X4243571Y-1644857D01*
X4686429Y-2002000D02*
X4672143Y-1987714D01*
X4643571Y-1944857D01*
X4629286Y-1916286D01*
X4615000Y-1873428D01*
X4600714Y-1802000D01*
X4600714Y-1744857D01*
X4615000Y-1673428D01*
X4629286Y-1630571D01*
X4643571Y-1602000D01*
X4672143Y-1559143D01*
X4686429Y-1544857D01*
X4957857Y-1887714D02*
X4786429Y-1887714D01*
X4872143Y-1887714D02*
X4872143Y-1587714D01*
X4843571Y-1630571D01*
X4815000Y-1659143D01*
X4786429Y-1673428D01*
X5243571Y-1887714D02*
X5072143Y-1887714D01*
X5157857Y-1887714D02*
X5157857Y-1587714D01*
X5129286Y-1630571D01*
X5100714Y-1659143D01*
X5072143Y-1673428D01*
X5386429Y-1887714D02*
X5443571Y-1887714D01*
X5472143Y-1873428D01*
X5486429Y-1859143D01*
X5515000Y-1816286D01*
X5529286Y-1759143D01*
X5529286Y-1644857D01*
X5515000Y-1616286D01*
X5500714Y-1602000D01*
X5472143Y-1587714D01*
X5415000Y-1587714D01*
X5386429Y-1602000D01*
X5372143Y-1616286D01*
X5357857Y-1644857D01*
X5357857Y-1716286D01*
X5372143Y-1744857D01*
X5386429Y-1759143D01*
X5415000Y-1773428D01*
X5472143Y-1773428D01*
X5500714Y-1759143D01*
X5515000Y-1744857D01*
X5529286Y-1716286D01*
X5886428Y-1887714D02*
X5886428Y-1587714D01*
X6015000Y-1887714D02*
X6015000Y-1730571D01*
X6000714Y-1702000D01*
X5972143Y-1687714D01*
X5929286Y-1687714D01*
X5900714Y-1702000D01*
X5886428Y-1716286D01*
X6200714Y-1887714D02*
X6172143Y-1873428D01*
X6157857Y-1859143D01*
X6143571Y-1830571D01*
X6143571Y-1744857D01*
X6157857Y-1716286D01*
X6172143Y-1702000D01*
X6200714Y-1687714D01*
X6243571Y-1687714D01*
X6272143Y-1702000D01*
X6286428Y-1716286D01*
X6300714Y-1744857D01*
X6300714Y-1830571D01*
X6286428Y-1859143D01*
X6272143Y-1873428D01*
X6243571Y-1887714D01*
X6200714Y-1887714D01*
X6472143Y-1887714D02*
X6443571Y-1873428D01*
X6429286Y-1844857D01*
X6429286Y-1587714D01*
X6700714Y-1873428D02*
X6672143Y-1887714D01*
X6615000Y-1887714D01*
X6586428Y-1873428D01*
X6572143Y-1844857D01*
X6572143Y-1730571D01*
X6586428Y-1702000D01*
X6615000Y-1687714D01*
X6672143Y-1687714D01*
X6700714Y-1702000D01*
X6715000Y-1730571D01*
X6715000Y-1759143D01*
X6572143Y-1787714D01*
X6829286Y-1873428D02*
X6857857Y-1887714D01*
X6915000Y-1887714D01*
X6943571Y-1873428D01*
X6957857Y-1844857D01*
X6957857Y-1830571D01*
X6943571Y-1802000D01*
X6915000Y-1787714D01*
X6872143Y-1787714D01*
X6843571Y-1773428D01*
X6829286Y-1744857D01*
X6829286Y-1730571D01*
X6843571Y-1702000D01*
X6872143Y-1687714D01*
X6915000Y-1687714D01*
X6943571Y-1702000D01*
X7057857Y-2002000D02*
X7072143Y-1987714D01*
X7100714Y-1944857D01*
X7115000Y-1916286D01*
X7129286Y-1873428D01*
X7143571Y-1802000D01*
X7143571Y-1744857D01*
X7129286Y-1673428D01*
X7115000Y-1630571D01*
X7100714Y-1602000D01*
X7072143Y-1559143D01*
X7057857Y-1544857D01*
X-16109Y-2186891D02*
X-16109Y-2109109D01*
X-93891Y-2109109D01*
X-93891Y-2186891D01*
X-16109Y-2186891D01*
X443571Y-2283714D02*
X272143Y-2283714D01*
X357857Y-2283714D02*
X357857Y-1983714D01*
X329286Y-2026571D01*
X300714Y-2055143D01*
X272143Y-2069428D01*
X572143Y-2255143D02*
X586429Y-2269429D01*
X572143Y-2283714D01*
X557857Y-2269429D01*
X572143Y-2255143D01*
X572143Y-2283714D01*
X872143Y-2283714D02*
X700714Y-2283714D01*
X786428Y-2283714D02*
X786428Y-1983714D01*
X757857Y-2026571D01*
X729286Y-2055143D01*
X700714Y-2069428D01*
X1057857Y-1983714D02*
X1086429Y-1983714D01*
X1115000Y-1998000D01*
X1129286Y-2012286D01*
X1143571Y-2040857D01*
X1157857Y-2098000D01*
X1157857Y-2169429D01*
X1143571Y-2226571D01*
X1129286Y-2255143D01*
X1115000Y-2269429D01*
X1086429Y-2283714D01*
X1057857Y-2283714D01*
X1029286Y-2269429D01*
X1015000Y-2255143D01*
X1000714Y-2226571D01*
X986428Y-2169429D01*
X986428Y-2098000D01*
X1000714Y-2040857D01*
X1015000Y-2012286D01*
X1029286Y-1998000D01*
X1057857Y-1983714D01*
X1286429Y-2283714D02*
X1286429Y-2083714D01*
X1286429Y-2112286D02*
X1300714Y-2098000D01*
X1329286Y-2083714D01*
X1372143Y-2083714D01*
X1400714Y-2098000D01*
X1415000Y-2126571D01*
X1415000Y-2283714D01*
X1415000Y-2126571D02*
X1429286Y-2098000D01*
X1457857Y-2083714D01*
X1500714Y-2083714D01*
X1529286Y-2098000D01*
X1543571Y-2126571D01*
X1543571Y-2283714D01*
X1686428Y-2283714D02*
X1686428Y-2083714D01*
X1686428Y-2112286D02*
X1700714Y-2098000D01*
X1729286Y-2083714D01*
X1772143Y-2083714D01*
X1800714Y-2098000D01*
X1815000Y-2126571D01*
X1815000Y-2283714D01*
X1815000Y-2126571D02*
X1829286Y-2098000D01*
X1857857Y-2083714D01*
X1900714Y-2083714D01*
X1929286Y-2098000D01*
X1943571Y-2126571D01*
X1943571Y-2283714D01*
X2529286Y-1969428D02*
X2272143Y-2355143D01*
X2915000Y-1983714D02*
X2943571Y-1983714D01*
X2972143Y-1998000D01*
X2986428Y-2012286D01*
X3000714Y-2040857D01*
X3015000Y-2098000D01*
X3015000Y-2169429D01*
X3000714Y-2226571D01*
X2986428Y-2255143D01*
X2972143Y-2269429D01*
X2943571Y-2283714D01*
X2915000Y-2283714D01*
X2886428Y-2269429D01*
X2872143Y-2255143D01*
X2857857Y-2226571D01*
X2843571Y-2169429D01*
X2843571Y-2098000D01*
X2857857Y-2040857D01*
X2872143Y-2012286D01*
X2886428Y-1998000D01*
X2915000Y-1983714D01*
X3143571Y-2255143D02*
X3157857Y-2269429D01*
X3143571Y-2283714D01*
X3129286Y-2269429D01*
X3143571Y-2255143D01*
X3143571Y-2283714D01*
X3343571Y-1983714D02*
X3372143Y-1983714D01*
X3400714Y-1998000D01*
X3415000Y-2012286D01*
X3429286Y-2040857D01*
X3443571Y-2098000D01*
X3443571Y-2169429D01*
X3429286Y-2226571D01*
X3415000Y-2255143D01*
X3400714Y-2269429D01*
X3372143Y-2283714D01*
X3343571Y-2283714D01*
X3315000Y-2269429D01*
X3300714Y-2255143D01*
X3286428Y-2226571D01*
X3272143Y-2169429D01*
X3272143Y-2098000D01*
X3286428Y-2040857D01*
X3300714Y-2012286D01*
X3315000Y-1998000D01*
X3343571Y-1983714D01*
X3700714Y-2083714D02*
X3700714Y-2283714D01*
X3629286Y-1969428D02*
X3557857Y-2183714D01*
X3743571Y-2183714D01*
X3829286Y-1983714D02*
X4015000Y-1983714D01*
X3915000Y-2098000D01*
X3957857Y-2098000D01*
X3986428Y-2112286D01*
X4000714Y-2126571D01*
X4015000Y-2155143D01*
X4015000Y-2226571D01*
X4000714Y-2255143D01*
X3986428Y-2269429D01*
X3957857Y-2283714D01*
X3872143Y-2283714D01*
X3843571Y-2269429D01*
X3829286Y-2255143D01*
X4129286Y-1983714D02*
X4129286Y-2040857D01*
X4243571Y-1983714D02*
X4243571Y-2040857D01*
X4686429Y-2398000D02*
X4672143Y-2383714D01*
X4643571Y-2340857D01*
X4629286Y-2312286D01*
X4615000Y-2269429D01*
X4600714Y-2198000D01*
X4600714Y-2140857D01*
X4615000Y-2069428D01*
X4629286Y-2026571D01*
X4643571Y-1998000D01*
X4672143Y-1955143D01*
X4686429Y-1940857D01*
X4929286Y-2083714D02*
X4929286Y-2283714D01*
X4857857Y-1969428D02*
X4786429Y-2183714D01*
X4972143Y-2183714D01*
X5315000Y-2283714D02*
X5315000Y-1983714D01*
X5443571Y-2283714D02*
X5443571Y-2126571D01*
X5429286Y-2098000D01*
X5400714Y-2083714D01*
X5357857Y-2083714D01*
X5329286Y-2098000D01*
X5315000Y-2112286D01*
X5629286Y-2283714D02*
X5600714Y-2269429D01*
X5586429Y-2255143D01*
X5572143Y-2226571D01*
X5572143Y-2140857D01*
X5586429Y-2112286D01*
X5600714Y-2098000D01*
X5629286Y-2083714D01*
X5672143Y-2083714D01*
X5700714Y-2098000D01*
X5715000Y-2112286D01*
X5729286Y-2140857D01*
X5729286Y-2226571D01*
X5715000Y-2255143D01*
X5700714Y-2269429D01*
X5672143Y-2283714D01*
X5629286Y-2283714D01*
X5900714Y-2283714D02*
X5872143Y-2269429D01*
X5857857Y-2240857D01*
X5857857Y-1983714D01*
X6129286Y-2269429D02*
X6100714Y-2283714D01*
X6043571Y-2283714D01*
X6015000Y-2269429D01*
X6000714Y-2240857D01*
X6000714Y-2126571D01*
X6015000Y-2098000D01*
X6043571Y-2083714D01*
X6100714Y-2083714D01*
X6129286Y-2098000D01*
X6143571Y-2126571D01*
X6143571Y-2155143D01*
X6000714Y-2183714D01*
X6257857Y-2269429D02*
X6286428Y-2283714D01*
X6343571Y-2283714D01*
X6372143Y-2269429D01*
X6386428Y-2240857D01*
X6386428Y-2226571D01*
X6372143Y-2198000D01*
X6343571Y-2183714D01*
X6300714Y-2183714D01*
X6272143Y-2169429D01*
X6257857Y-2140857D01*
X6257857Y-2126571D01*
X6272143Y-2098000D01*
X6300714Y-2083714D01*
X6343571Y-2083714D01*
X6372143Y-2098000D01*
X6486428Y-2398000D02*
X6500714Y-2383714D01*
X6529286Y-2340857D01*
X6543571Y-2312286D01*
X6557857Y-2269429D01*
X6572143Y-2198000D01*
X6572143Y-2140857D01*
X6557857Y-2069428D01*
X6543571Y-2026571D01*
X6529286Y-1998000D01*
X6500714Y-1955143D01*
X6486428Y-1940857D01*
X-65000Y-2609000D02*
X0Y-2544000D01*
X-65000Y-2479000D01*
X-130000Y-2544000D01*
X-65000Y-2609000D01*
X443571Y-2679714D02*
X272143Y-2679714D01*
X357857Y-2679714D02*
X357857Y-2379714D01*
X329286Y-2422571D01*
X300714Y-2451143D01*
X272143Y-2465429D01*
X572143Y-2651143D02*
X586429Y-2665429D01*
X572143Y-2679714D01*
X557857Y-2665429D01*
X572143Y-2651143D01*
X572143Y-2679714D01*
X686429Y-2379714D02*
X872143Y-2379714D01*
X772143Y-2494000D01*
X815000Y-2494000D01*
X843571Y-2508286D01*
X857857Y-2522571D01*
X872143Y-2551143D01*
X872143Y-2622571D01*
X857857Y-2651143D01*
X843571Y-2665429D01*
X815000Y-2679714D01*
X729286Y-2679714D01*
X700714Y-2665429D01*
X686429Y-2651143D01*
X1057857Y-2379714D02*
X1086429Y-2379714D01*
X1115000Y-2394000D01*
X1129286Y-2408286D01*
X1143571Y-2436857D01*
X1157857Y-2494000D01*
X1157857Y-2565429D01*
X1143571Y-2622571D01*
X1129286Y-2651143D01*
X1115000Y-2665429D01*
X1086429Y-2679714D01*
X1057857Y-2679714D01*
X1029286Y-2665429D01*
X1015000Y-2651143D01*
X1000714Y-2622571D01*
X986428Y-2565429D01*
X986428Y-2494000D01*
X1000714Y-2436857D01*
X1015000Y-2408286D01*
X1029286Y-2394000D01*
X1057857Y-2379714D01*
X1286429Y-2679714D02*
X1286429Y-2479714D01*
X1286429Y-2508286D02*
X1300714Y-2494000D01*
X1329286Y-2479714D01*
X1372143Y-2479714D01*
X1400714Y-2494000D01*
X1415000Y-2522571D01*
X1415000Y-2679714D01*
X1415000Y-2522571D02*
X1429286Y-2494000D01*
X1457857Y-2479714D01*
X1500714Y-2479714D01*
X1529286Y-2494000D01*
X1543571Y-2522571D01*
X1543571Y-2679714D01*
X1686428Y-2679714D02*
X1686428Y-2479714D01*
X1686428Y-2508286D02*
X1700714Y-2494000D01*
X1729286Y-2479714D01*
X1772143Y-2479714D01*
X1800714Y-2494000D01*
X1815000Y-2522571D01*
X1815000Y-2679714D01*
X1815000Y-2522571D02*
X1829286Y-2494000D01*
X1857857Y-2479714D01*
X1900714Y-2479714D01*
X1929286Y-2494000D01*
X1943571Y-2522571D01*
X1943571Y-2679714D01*
X2529286Y-2365429D02*
X2272143Y-2751143D01*
X2915000Y-2379714D02*
X2943571Y-2379714D01*
X2972143Y-2394000D01*
X2986428Y-2408286D01*
X3000714Y-2436857D01*
X3015000Y-2494000D01*
X3015000Y-2565429D01*
X3000714Y-2622571D01*
X2986428Y-2651143D01*
X2972143Y-2665429D01*
X2943571Y-2679714D01*
X2915000Y-2679714D01*
X2886428Y-2665429D01*
X2872143Y-2651143D01*
X2857857Y-2622571D01*
X2843571Y-2565429D01*
X2843571Y-2494000D01*
X2857857Y-2436857D01*
X2872143Y-2408286D01*
X2886428Y-2394000D01*
X2915000Y-2379714D01*
X3143571Y-2651143D02*
X3157857Y-2665429D01*
X3143571Y-2679714D01*
X3129286Y-2665429D01*
X3143571Y-2651143D01*
X3143571Y-2679714D01*
X3343571Y-2379714D02*
X3372143Y-2379714D01*
X3400714Y-2394000D01*
X3415000Y-2408286D01*
X3429286Y-2436857D01*
X3443571Y-2494000D01*
X3443571Y-2565429D01*
X3429286Y-2622571D01*
X3415000Y-2651143D01*
X3400714Y-2665429D01*
X3372143Y-2679714D01*
X3343571Y-2679714D01*
X3315000Y-2665429D01*
X3300714Y-2651143D01*
X3286428Y-2622571D01*
X3272143Y-2565429D01*
X3272143Y-2494000D01*
X3286428Y-2436857D01*
X3300714Y-2408286D01*
X3315000Y-2394000D01*
X3343571Y-2379714D01*
X3715000Y-2379714D02*
X3572143Y-2379714D01*
X3557857Y-2522571D01*
X3572143Y-2508286D01*
X3600714Y-2494000D01*
X3672143Y-2494000D01*
X3700714Y-2508286D01*
X3715000Y-2522571D01*
X3729286Y-2551143D01*
X3729286Y-2622571D01*
X3715000Y-2651143D01*
X3700714Y-2665429D01*
X3672143Y-2679714D01*
X3600714Y-2679714D01*
X3572143Y-2665429D01*
X3557857Y-2651143D01*
X4015000Y-2679714D02*
X3843571Y-2679714D01*
X3929286Y-2679714D02*
X3929286Y-2379714D01*
X3900714Y-2422571D01*
X3872143Y-2451143D01*
X3843571Y-2465429D01*
X4129286Y-2379714D02*
X4129286Y-2436857D01*
X4243571Y-2379714D02*
X4243571Y-2436857D01*
X4686429Y-2794000D02*
X4672143Y-2779714D01*
X4643571Y-2736857D01*
X4629286Y-2708286D01*
X4615000Y-2665429D01*
X4600714Y-2594000D01*
X4600714Y-2536857D01*
X4615000Y-2465429D01*
X4629286Y-2422571D01*
X4643571Y-2394000D01*
X4672143Y-2351143D01*
X4686429Y-2336857D01*
X4786429Y-2408286D02*
X4800714Y-2394000D01*
X4829286Y-2379714D01*
X4900714Y-2379714D01*
X4929286Y-2394000D01*
X4943571Y-2408286D01*
X4957857Y-2436857D01*
X4957857Y-2465429D01*
X4943571Y-2508286D01*
X4772143Y-2679714D01*
X4957857Y-2679714D01*
X5315000Y-2679714D02*
X5315000Y-2379714D01*
X5443571Y-2679714D02*
X5443571Y-2522571D01*
X5429286Y-2494000D01*
X5400714Y-2479714D01*
X5357857Y-2479714D01*
X5329286Y-2494000D01*
X5315000Y-2508286D01*
X5629286Y-2679714D02*
X5600714Y-2665429D01*
X5586429Y-2651143D01*
X5572143Y-2622571D01*
X5572143Y-2536857D01*
X5586429Y-2508286D01*
X5600714Y-2494000D01*
X5629286Y-2479714D01*
X5672143Y-2479714D01*
X5700714Y-2494000D01*
X5715000Y-2508286D01*
X5729286Y-2536857D01*
X5729286Y-2622571D01*
X5715000Y-2651143D01*
X5700714Y-2665429D01*
X5672143Y-2679714D01*
X5629286Y-2679714D01*
X5900714Y-2679714D02*
X5872143Y-2665429D01*
X5857857Y-2636857D01*
X5857857Y-2379714D01*
X6129286Y-2665429D02*
X6100714Y-2679714D01*
X6043571Y-2679714D01*
X6015000Y-2665429D01*
X6000714Y-2636857D01*
X6000714Y-2522571D01*
X6015000Y-2494000D01*
X6043571Y-2479714D01*
X6100714Y-2479714D01*
X6129286Y-2494000D01*
X6143571Y-2522571D01*
X6143571Y-2551143D01*
X6000714Y-2579714D01*
X6257857Y-2665429D02*
X6286428Y-2679714D01*
X6343571Y-2679714D01*
X6372143Y-2665429D01*
X6386428Y-2636857D01*
X6386428Y-2622571D01*
X6372143Y-2594000D01*
X6343571Y-2579714D01*
X6300714Y-2579714D01*
X6272143Y-2565429D01*
X6257857Y-2536857D01*
X6257857Y-2522571D01*
X6272143Y-2494000D01*
X6300714Y-2479714D01*
X6343571Y-2479714D01*
X6372143Y-2494000D01*
X6486428Y-2794000D02*
X6500714Y-2779714D01*
X6529286Y-2736857D01*
X6543571Y-2708286D01*
X6557857Y-2665429D01*
X6572143Y-2594000D01*
X6572143Y-2536857D01*
X6557857Y-2465429D01*
X6543571Y-2422571D01*
X6529286Y-2394000D01*
X6500714Y-2351143D01*
X6486428Y-2336857D01*
X-170000Y-2855000D02*
X0Y-3025000D01*
X0Y-2855000D02*
X-170000Y-3025000D01*
X0Y-2940000D02*
G75*
G03X0Y-2940000I-85000J0D01*
G01*
X443571Y-3075714D02*
X272143Y-3075714D01*
X357857Y-3075714D02*
X357857Y-2775714D01*
X329286Y-2818571D01*
X300714Y-2847143D01*
X272143Y-2861428D01*
X572143Y-3047143D02*
X586429Y-3061428D01*
X572143Y-3075714D01*
X557857Y-3061428D01*
X572143Y-3047143D01*
X572143Y-3075714D01*
X686429Y-2775714D02*
X886428Y-2775714D01*
X757857Y-3075714D01*
X1057857Y-2775714D02*
X1086429Y-2775714D01*
X1115000Y-2790000D01*
X1129286Y-2804286D01*
X1143571Y-2832857D01*
X1157857Y-2890000D01*
X1157857Y-2961428D01*
X1143571Y-3018571D01*
X1129286Y-3047143D01*
X1115000Y-3061428D01*
X1086429Y-3075714D01*
X1057857Y-3075714D01*
X1029286Y-3061428D01*
X1015000Y-3047143D01*
X1000714Y-3018571D01*
X986428Y-2961428D01*
X986428Y-2890000D01*
X1000714Y-2832857D01*
X1015000Y-2804286D01*
X1029286Y-2790000D01*
X1057857Y-2775714D01*
X1286429Y-3075714D02*
X1286429Y-2875714D01*
X1286429Y-2904286D02*
X1300714Y-2890000D01*
X1329286Y-2875714D01*
X1372143Y-2875714D01*
X1400714Y-2890000D01*
X1415000Y-2918571D01*
X1415000Y-3075714D01*
X1415000Y-2918571D02*
X1429286Y-2890000D01*
X1457857Y-2875714D01*
X1500714Y-2875714D01*
X1529286Y-2890000D01*
X1543571Y-2918571D01*
X1543571Y-3075714D01*
X1686428Y-3075714D02*
X1686428Y-2875714D01*
X1686428Y-2904286D02*
X1700714Y-2890000D01*
X1729286Y-2875714D01*
X1772143Y-2875714D01*
X1800714Y-2890000D01*
X1815000Y-2918571D01*
X1815000Y-3075714D01*
X1815000Y-2918571D02*
X1829286Y-2890000D01*
X1857857Y-2875714D01*
X1900714Y-2875714D01*
X1929286Y-2890000D01*
X1943571Y-2918571D01*
X1943571Y-3075714D01*
X2529286Y-2761429D02*
X2272143Y-3147143D01*
X2915000Y-2775714D02*
X2943571Y-2775714D01*
X2972143Y-2790000D01*
X2986428Y-2804286D01*
X3000714Y-2832857D01*
X3015000Y-2890000D01*
X3015000Y-2961428D01*
X3000714Y-3018571D01*
X2986428Y-3047143D01*
X2972143Y-3061428D01*
X2943571Y-3075714D01*
X2915000Y-3075714D01*
X2886428Y-3061428D01*
X2872143Y-3047143D01*
X2857857Y-3018571D01*
X2843571Y-2961428D01*
X2843571Y-2890000D01*
X2857857Y-2832857D01*
X2872143Y-2804286D01*
X2886428Y-2790000D01*
X2915000Y-2775714D01*
X3143571Y-3047143D02*
X3157857Y-3061428D01*
X3143571Y-3075714D01*
X3129286Y-3061428D01*
X3143571Y-3047143D01*
X3143571Y-3075714D01*
X3343571Y-2775714D02*
X3372143Y-2775714D01*
X3400714Y-2790000D01*
X3415000Y-2804286D01*
X3429286Y-2832857D01*
X3443571Y-2890000D01*
X3443571Y-2961428D01*
X3429286Y-3018571D01*
X3415000Y-3047143D01*
X3400714Y-3061428D01*
X3372143Y-3075714D01*
X3343571Y-3075714D01*
X3315000Y-3061428D01*
X3300714Y-3047143D01*
X3286428Y-3018571D01*
X3272143Y-2961428D01*
X3272143Y-2890000D01*
X3286428Y-2832857D01*
X3300714Y-2804286D01*
X3315000Y-2790000D01*
X3343571Y-2775714D01*
X3700714Y-2775714D02*
X3643571Y-2775714D01*
X3615000Y-2790000D01*
X3600714Y-2804286D01*
X3572143Y-2847143D01*
X3557857Y-2904286D01*
X3557857Y-3018571D01*
X3572143Y-3047143D01*
X3586428Y-3061428D01*
X3615000Y-3075714D01*
X3672143Y-3075714D01*
X3700714Y-3061428D01*
X3715000Y-3047143D01*
X3729286Y-3018571D01*
X3729286Y-2947143D01*
X3715000Y-2918571D01*
X3700714Y-2904286D01*
X3672143Y-2890000D01*
X3615000Y-2890000D01*
X3586428Y-2904286D01*
X3572143Y-2918571D01*
X3557857Y-2947143D01*
X3829286Y-2775714D02*
X4029286Y-2775714D01*
X3900714Y-3075714D01*
X4129286Y-2775714D02*
X4129286Y-2832857D01*
X4243571Y-2775714D02*
X4243571Y-2832857D01*
X4686429Y-3190000D02*
X4672143Y-3175714D01*
X4643571Y-3132857D01*
X4629286Y-3104286D01*
X4615000Y-3061428D01*
X4600714Y-2990000D01*
X4600714Y-2932857D01*
X4615000Y-2861428D01*
X4629286Y-2818571D01*
X4643571Y-2790000D01*
X4672143Y-2747143D01*
X4686429Y-2732857D01*
X4929286Y-2775714D02*
X4872143Y-2775714D01*
X4843571Y-2790000D01*
X4829286Y-2804286D01*
X4800714Y-2847143D01*
X4786429Y-2904286D01*
X4786429Y-3018571D01*
X4800714Y-3047143D01*
X4815000Y-3061428D01*
X4843571Y-3075714D01*
X4900714Y-3075714D01*
X4929286Y-3061428D01*
X4943571Y-3047143D01*
X4957857Y-3018571D01*
X4957857Y-2947143D01*
X4943571Y-2918571D01*
X4929286Y-2904286D01*
X4900714Y-2890000D01*
X4843571Y-2890000D01*
X4815000Y-2904286D01*
X4800714Y-2918571D01*
X4786429Y-2947143D01*
X5315000Y-3075714D02*
X5315000Y-2775714D01*
X5443571Y-3075714D02*
X5443571Y-2918571D01*
X5429286Y-2890000D01*
X5400714Y-2875714D01*
X5357857Y-2875714D01*
X5329286Y-2890000D01*
X5315000Y-2904286D01*
X5629286Y-3075714D02*
X5600714Y-3061428D01*
X5586429Y-3047143D01*
X5572143Y-3018571D01*
X5572143Y-2932857D01*
X5586429Y-2904286D01*
X5600714Y-2890000D01*
X5629286Y-2875714D01*
X5672143Y-2875714D01*
X5700714Y-2890000D01*
X5715000Y-2904286D01*
X5729286Y-2932857D01*
X5729286Y-3018571D01*
X5715000Y-3047143D01*
X5700714Y-3061428D01*
X5672143Y-3075714D01*
X5629286Y-3075714D01*
X5900714Y-3075714D02*
X5872143Y-3061428D01*
X5857857Y-3032857D01*
X5857857Y-2775714D01*
X6129286Y-3061428D02*
X6100714Y-3075714D01*
X6043571Y-3075714D01*
X6015000Y-3061428D01*
X6000714Y-3032857D01*
X6000714Y-2918571D01*
X6015000Y-2890000D01*
X6043571Y-2875714D01*
X6100714Y-2875714D01*
X6129286Y-2890000D01*
X6143571Y-2918571D01*
X6143571Y-2947143D01*
X6000714Y-2975714D01*
X6257857Y-3061428D02*
X6286428Y-3075714D01*
X6343571Y-3075714D01*
X6372143Y-3061428D01*
X6386428Y-3032857D01*
X6386428Y-3018571D01*
X6372143Y-2990000D01*
X6343571Y-2975714D01*
X6300714Y-2975714D01*
X6272143Y-2961428D01*
X6257857Y-2932857D01*
X6257857Y-2918571D01*
X6272143Y-2890000D01*
X6300714Y-2875714D01*
X6343571Y-2875714D01*
X6372143Y-2890000D01*
X6486428Y-3190000D02*
X6500714Y-3175714D01*
X6529286Y-3132857D01*
X6543571Y-3104286D01*
X6557857Y-3061428D01*
X6572143Y-2990000D01*
X6572143Y-2932857D01*
X6557857Y-2861428D01*
X6543571Y-2818571D01*
X6529286Y-2790000D01*
X6500714Y-2747143D01*
X6486428Y-2732857D01*
X-260000Y-3206000D02*
X0Y-3466000D01*
X0Y-3206000D02*
X-260000Y-3466000D01*
X-130000Y-3206000D02*
X-130000Y-3466000D01*
X-260000Y-3336000D02*
X0Y-3336000D01*
X272143Y-3200286D02*
X286429Y-3186000D01*
X315000Y-3171714D01*
X386428Y-3171714D01*
X415000Y-3186000D01*
X429286Y-3200286D01*
X443571Y-3228857D01*
X443571Y-3257428D01*
X429286Y-3300286D01*
X257857Y-3471714D01*
X443571Y-3471714D01*
X572143Y-3443143D02*
X586429Y-3457428D01*
X572143Y-3471714D01*
X557857Y-3457428D01*
X572143Y-3443143D01*
X572143Y-3471714D01*
X843571Y-3171714D02*
X786428Y-3171714D01*
X757857Y-3186000D01*
X743571Y-3200286D01*
X715000Y-3243143D01*
X700714Y-3300286D01*
X700714Y-3414571D01*
X715000Y-3443143D01*
X729286Y-3457428D01*
X757857Y-3471714D01*
X815000Y-3471714D01*
X843571Y-3457428D01*
X857857Y-3443143D01*
X872143Y-3414571D01*
X872143Y-3343143D01*
X857857Y-3314571D01*
X843571Y-3300286D01*
X815000Y-3286000D01*
X757857Y-3286000D01*
X729286Y-3300286D01*
X715000Y-3314571D01*
X700714Y-3343143D01*
X1057857Y-3171714D02*
X1086429Y-3171714D01*
X1115000Y-3186000D01*
X1129286Y-3200286D01*
X1143571Y-3228857D01*
X1157857Y-3286000D01*
X1157857Y-3357428D01*
X1143571Y-3414571D01*
X1129286Y-3443143D01*
X1115000Y-3457428D01*
X1086429Y-3471714D01*
X1057857Y-3471714D01*
X1029286Y-3457428D01*
X1015000Y-3443143D01*
X1000714Y-3414571D01*
X986428Y-3357428D01*
X986428Y-3286000D01*
X1000714Y-3228857D01*
X1015000Y-3200286D01*
X1029286Y-3186000D01*
X1057857Y-3171714D01*
X1286429Y-3471714D02*
X1286429Y-3271714D01*
X1286429Y-3300286D02*
X1300714Y-3286000D01*
X1329286Y-3271714D01*
X1372143Y-3271714D01*
X1400714Y-3286000D01*
X1415000Y-3314571D01*
X1415000Y-3471714D01*
X1415000Y-3314571D02*
X1429286Y-3286000D01*
X1457857Y-3271714D01*
X1500714Y-3271714D01*
X1529286Y-3286000D01*
X1543571Y-3314571D01*
X1543571Y-3471714D01*
X1686428Y-3471714D02*
X1686428Y-3271714D01*
X1686428Y-3300286D02*
X1700714Y-3286000D01*
X1729286Y-3271714D01*
X1772143Y-3271714D01*
X1800714Y-3286000D01*
X1815000Y-3314571D01*
X1815000Y-3471714D01*
X1815000Y-3314571D02*
X1829286Y-3286000D01*
X1857857Y-3271714D01*
X1900714Y-3271714D01*
X1929286Y-3286000D01*
X1943571Y-3314571D01*
X1943571Y-3471714D01*
X2529286Y-3157428D02*
X2272143Y-3543143D01*
X2915000Y-3171714D02*
X2943571Y-3171714D01*
X2972143Y-3186000D01*
X2986428Y-3200286D01*
X3000714Y-3228857D01*
X3015000Y-3286000D01*
X3015000Y-3357428D01*
X3000714Y-3414571D01*
X2986428Y-3443143D01*
X2972143Y-3457428D01*
X2943571Y-3471714D01*
X2915000Y-3471714D01*
X2886428Y-3457428D01*
X2872143Y-3443143D01*
X2857857Y-3414571D01*
X2843571Y-3357428D01*
X2843571Y-3286000D01*
X2857857Y-3228857D01*
X2872143Y-3200286D01*
X2886428Y-3186000D01*
X2915000Y-3171714D01*
X3143571Y-3443143D02*
X3157857Y-3457428D01*
X3143571Y-3471714D01*
X3129286Y-3457428D01*
X3143571Y-3443143D01*
X3143571Y-3471714D01*
X3443571Y-3471714D02*
X3272143Y-3471714D01*
X3357857Y-3471714D02*
X3357857Y-3171714D01*
X3329286Y-3214571D01*
X3300714Y-3243143D01*
X3272143Y-3257428D01*
X3629286Y-3171714D02*
X3657857Y-3171714D01*
X3686428Y-3186000D01*
X3700714Y-3200286D01*
X3715000Y-3228857D01*
X3729286Y-3286000D01*
X3729286Y-3357428D01*
X3715000Y-3414571D01*
X3700714Y-3443143D01*
X3686428Y-3457428D01*
X3657857Y-3471714D01*
X3629286Y-3471714D01*
X3600714Y-3457428D01*
X3586428Y-3443143D01*
X3572143Y-3414571D01*
X3557857Y-3357428D01*
X3557857Y-3286000D01*
X3572143Y-3228857D01*
X3586428Y-3200286D01*
X3600714Y-3186000D01*
X3629286Y-3171714D01*
X3843571Y-3200286D02*
X3857857Y-3186000D01*
X3886428Y-3171714D01*
X3957857Y-3171714D01*
X3986428Y-3186000D01*
X4000714Y-3200286D01*
X4015000Y-3228857D01*
X4015000Y-3257428D01*
X4000714Y-3300286D01*
X3829286Y-3471714D01*
X4015000Y-3471714D01*
X4129286Y-3171714D02*
X4129286Y-3228857D01*
X4243571Y-3171714D02*
X4243571Y-3228857D01*
X4686429Y-3586000D02*
X4672143Y-3571714D01*
X4643571Y-3528857D01*
X4629286Y-3500286D01*
X4615000Y-3457428D01*
X4600714Y-3386000D01*
X4600714Y-3328857D01*
X4615000Y-3257428D01*
X4629286Y-3214571D01*
X4643571Y-3186000D01*
X4672143Y-3143143D01*
X4686429Y-3128857D01*
X4957857Y-3471714D02*
X4786429Y-3471714D01*
X4872143Y-3471714D02*
X4872143Y-3171714D01*
X4843571Y-3214571D01*
X4815000Y-3243143D01*
X4786429Y-3257428D01*
X5129286Y-3300286D02*
X5100714Y-3286000D01*
X5086429Y-3271714D01*
X5072143Y-3243143D01*
X5072143Y-3228857D01*
X5086429Y-3200286D01*
X5100714Y-3186000D01*
X5129286Y-3171714D01*
X5186429Y-3171714D01*
X5215000Y-3186000D01*
X5229286Y-3200286D01*
X5243571Y-3228857D01*
X5243571Y-3243143D01*
X5229286Y-3271714D01*
X5215000Y-3286000D01*
X5186429Y-3300286D01*
X5129286Y-3300286D01*
X5100714Y-3314571D01*
X5086429Y-3328857D01*
X5072143Y-3357428D01*
X5072143Y-3414571D01*
X5086429Y-3443143D01*
X5100714Y-3457428D01*
X5129286Y-3471714D01*
X5186429Y-3471714D01*
X5215000Y-3457428D01*
X5229286Y-3443143D01*
X5243571Y-3414571D01*
X5243571Y-3357428D01*
X5229286Y-3328857D01*
X5215000Y-3314571D01*
X5186429Y-3300286D01*
X5600714Y-3471714D02*
X5600714Y-3171714D01*
X5729286Y-3471714D02*
X5729286Y-3314571D01*
X5715000Y-3286000D01*
X5686428Y-3271714D01*
X5643571Y-3271714D01*
X5615000Y-3286000D01*
X5600714Y-3300286D01*
X5915000Y-3471714D02*
X5886428Y-3457428D01*
X5872143Y-3443143D01*
X5857857Y-3414571D01*
X5857857Y-3328857D01*
X5872143Y-3300286D01*
X5886428Y-3286000D01*
X5915000Y-3271714D01*
X5957857Y-3271714D01*
X5986428Y-3286000D01*
X6000714Y-3300286D01*
X6015000Y-3328857D01*
X6015000Y-3414571D01*
X6000714Y-3443143D01*
X5986428Y-3457428D01*
X5957857Y-3471714D01*
X5915000Y-3471714D01*
X6186428Y-3471714D02*
X6157857Y-3457428D01*
X6143571Y-3428857D01*
X6143571Y-3171714D01*
X6415000Y-3457428D02*
X6386428Y-3471714D01*
X6329286Y-3471714D01*
X6300714Y-3457428D01*
X6286428Y-3428857D01*
X6286428Y-3314571D01*
X6300714Y-3286000D01*
X6329286Y-3271714D01*
X6386428Y-3271714D01*
X6415000Y-3286000D01*
X6429286Y-3314571D01*
X6429286Y-3343143D01*
X6286428Y-3371714D01*
X6543571Y-3457428D02*
X6572143Y-3471714D01*
X6629286Y-3471714D01*
X6657857Y-3457428D01*
X6672143Y-3428857D01*
X6672143Y-3414571D01*
X6657857Y-3386000D01*
X6629286Y-3371714D01*
X6586428Y-3371714D01*
X6557857Y-3357428D01*
X6543571Y-3328857D01*
X6543571Y-3314571D01*
X6557857Y-3286000D01*
X6586428Y-3271714D01*
X6629286Y-3271714D01*
X6657857Y-3286000D01*
X6772143Y-3586000D02*
X6786428Y-3571714D01*
X6815000Y-3528857D01*
X6829286Y-3500286D01*
X6843571Y-3457428D01*
X6857857Y-3386000D01*
X6857857Y-3328857D01*
X6843571Y-3257428D01*
X6829286Y-3214571D01*
X6815000Y-3186000D01*
X6786428Y-3143143D01*
X6772143Y-3128857D01*
M02*
