G04 #@! TF.FileFunction,Legend,Bot*
%FSLAX46Y46*%
G04 Gerber Fmt 4.6, Leading zero omitted, Abs format (unit mm)*
G04 Created by KiCad (PCBNEW 4.0.7-e1-6374~58~ubuntu16.04.1) date Mon Aug 21 17:43:10 2017*
%MOMM*%
%LPD*%
G01*
G04 APERTURE LIST*
%ADD10C,0.100000*%
%ADD11C,0.200000*%
%ADD12C,0.010000*%
G04 APERTURE END LIST*
D10*
D11*
X106745619Y-76469905D02*
X107745619Y-76469905D01*
X107031333Y-76136571D01*
X107745619Y-75803238D01*
X106745619Y-75803238D01*
X106745619Y-74898476D02*
X107269429Y-74898476D01*
X107364667Y-74946095D01*
X107412286Y-75041333D01*
X107412286Y-75231810D01*
X107364667Y-75327048D01*
X106793238Y-74898476D02*
X106745619Y-74993714D01*
X106745619Y-75231810D01*
X106793238Y-75327048D01*
X106888476Y-75374667D01*
X106983714Y-75374667D01*
X107078952Y-75327048D01*
X107126571Y-75231810D01*
X107126571Y-74993714D01*
X107174190Y-74898476D01*
X106745619Y-74517524D02*
X107412286Y-73993714D01*
X107412286Y-74517524D02*
X106745619Y-73993714D01*
X107269429Y-72517523D02*
X107221810Y-72374666D01*
X107174190Y-72327047D01*
X107078952Y-72279428D01*
X106936095Y-72279428D01*
X106840857Y-72327047D01*
X106793238Y-72374666D01*
X106745619Y-72469904D01*
X106745619Y-72850857D01*
X107745619Y-72850857D01*
X107745619Y-72517523D01*
X107698000Y-72422285D01*
X107650381Y-72374666D01*
X107555143Y-72327047D01*
X107459905Y-72327047D01*
X107364667Y-72374666D01*
X107317048Y-72422285D01*
X107269429Y-72517523D01*
X107269429Y-72850857D01*
X106793238Y-71469904D02*
X106745619Y-71565142D01*
X106745619Y-71755619D01*
X106793238Y-71850857D01*
X106888476Y-71898476D01*
X107269429Y-71898476D01*
X107364667Y-71850857D01*
X107412286Y-71755619D01*
X107412286Y-71565142D01*
X107364667Y-71469904D01*
X107269429Y-71422285D01*
X107174190Y-71422285D01*
X107078952Y-71898476D01*
X106793238Y-70565142D02*
X106745619Y-70660380D01*
X106745619Y-70850857D01*
X106793238Y-70946095D01*
X106840857Y-70993714D01*
X106936095Y-71041333D01*
X107221810Y-71041333D01*
X107317048Y-70993714D01*
X107364667Y-70946095D01*
X107412286Y-70850857D01*
X107412286Y-70660380D01*
X107364667Y-70565142D01*
X106745619Y-70136571D02*
X107745619Y-70136571D01*
X107126571Y-70041333D02*
X106745619Y-69755618D01*
X107412286Y-69755618D02*
X107031333Y-70136571D01*
X106793238Y-68946094D02*
X106745619Y-69041332D01*
X106745619Y-69231809D01*
X106793238Y-69327047D01*
X106888476Y-69374666D01*
X107269429Y-69374666D01*
X107364667Y-69327047D01*
X107412286Y-69231809D01*
X107412286Y-69041332D01*
X107364667Y-68946094D01*
X107269429Y-68898475D01*
X107174190Y-68898475D01*
X107078952Y-69374666D01*
X106745619Y-68469904D02*
X107412286Y-68469904D01*
X107221810Y-68469904D02*
X107317048Y-68422285D01*
X107364667Y-68374666D01*
X107412286Y-68279428D01*
X107412286Y-68184189D01*
X105045619Y-76469905D02*
X106045619Y-76469905D01*
X105045619Y-75898476D02*
X105617048Y-76327048D01*
X106045619Y-75898476D02*
X105474190Y-76469905D01*
X105045619Y-75041333D02*
X105569429Y-75041333D01*
X105664667Y-75088952D01*
X105712286Y-75184190D01*
X105712286Y-75374667D01*
X105664667Y-75469905D01*
X105093238Y-75041333D02*
X105045619Y-75136571D01*
X105045619Y-75374667D01*
X105093238Y-75469905D01*
X105188476Y-75517524D01*
X105283714Y-75517524D01*
X105378952Y-75469905D01*
X105426571Y-75374667D01*
X105426571Y-75136571D01*
X105474190Y-75041333D01*
X105045619Y-74565143D02*
X105712286Y-74565143D01*
X106045619Y-74565143D02*
X105998000Y-74612762D01*
X105950381Y-74565143D01*
X105998000Y-74517524D01*
X106045619Y-74565143D01*
X105950381Y-74565143D01*
X105045619Y-73327048D02*
X106045619Y-73327048D01*
X106045619Y-73088953D01*
X105998000Y-72946095D01*
X105902762Y-72850857D01*
X105807524Y-72803238D01*
X105617048Y-72755619D01*
X105474190Y-72755619D01*
X105283714Y-72803238D01*
X105188476Y-72850857D01*
X105093238Y-72946095D01*
X105045619Y-73088953D01*
X105045619Y-73327048D01*
X105093238Y-71946095D02*
X105045619Y-72041333D01*
X105045619Y-72231810D01*
X105093238Y-72327048D01*
X105188476Y-72374667D01*
X105569429Y-72374667D01*
X105664667Y-72327048D01*
X105712286Y-72231810D01*
X105712286Y-72041333D01*
X105664667Y-71946095D01*
X105569429Y-71898476D01*
X105474190Y-71898476D01*
X105378952Y-72374667D01*
X105045619Y-71469905D02*
X106045619Y-71469905D01*
X105045619Y-71041333D02*
X105569429Y-71041333D01*
X105664667Y-71088952D01*
X105712286Y-71184190D01*
X105712286Y-71327048D01*
X105664667Y-71422286D01*
X105617048Y-71469905D01*
X105045619Y-70565143D02*
X105712286Y-70565143D01*
X105617048Y-70565143D02*
X105664667Y-70517524D01*
X105712286Y-70422286D01*
X105712286Y-70279428D01*
X105664667Y-70184190D01*
X105569429Y-70136571D01*
X105045619Y-70136571D01*
X105569429Y-70136571D02*
X105664667Y-70088952D01*
X105712286Y-69993714D01*
X105712286Y-69850857D01*
X105664667Y-69755619D01*
X105569429Y-69708000D01*
X105045619Y-69708000D01*
X105093238Y-68850857D02*
X105045619Y-68946095D01*
X105045619Y-69136572D01*
X105093238Y-69231810D01*
X105188476Y-69279429D01*
X105569429Y-69279429D01*
X105664667Y-69231810D01*
X105712286Y-69136572D01*
X105712286Y-68946095D01*
X105664667Y-68850857D01*
X105569429Y-68803238D01*
X105474190Y-68803238D01*
X105378952Y-69279429D01*
X105045619Y-68231810D02*
X105093238Y-68327048D01*
X105188476Y-68374667D01*
X106045619Y-68374667D01*
X105712286Y-67993714D02*
X105712286Y-67612762D01*
X106045619Y-67850857D02*
X105188476Y-67850857D01*
X105093238Y-67803238D01*
X105045619Y-67708000D01*
X105045619Y-67612762D01*
X103440857Y-75898476D02*
X103393238Y-75946095D01*
X103345619Y-76088952D01*
X103345619Y-76184190D01*
X103393238Y-76327048D01*
X103488476Y-76422286D01*
X103583714Y-76469905D01*
X103774190Y-76517524D01*
X103917048Y-76517524D01*
X104107524Y-76469905D01*
X104202762Y-76422286D01*
X104298000Y-76327048D01*
X104345619Y-76184190D01*
X104345619Y-76088952D01*
X104298000Y-75946095D01*
X104250381Y-75898476D01*
X103345619Y-75469905D02*
X104345619Y-75469905D01*
X103345619Y-75041333D02*
X103869429Y-75041333D01*
X103964667Y-75088952D01*
X104012286Y-75184190D01*
X104012286Y-75327048D01*
X103964667Y-75422286D01*
X103917048Y-75469905D01*
X103345619Y-74565143D02*
X104012286Y-74565143D01*
X103821810Y-74565143D02*
X103917048Y-74517524D01*
X103964667Y-74469905D01*
X104012286Y-74374667D01*
X104012286Y-74279428D01*
X103345619Y-73946095D02*
X104012286Y-73946095D01*
X104345619Y-73946095D02*
X104298000Y-73993714D01*
X104250381Y-73946095D01*
X104298000Y-73898476D01*
X104345619Y-73946095D01*
X104250381Y-73946095D01*
X103393238Y-73517524D02*
X103345619Y-73422286D01*
X103345619Y-73231810D01*
X103393238Y-73136571D01*
X103488476Y-73088952D01*
X103536095Y-73088952D01*
X103631333Y-73136571D01*
X103678952Y-73231810D01*
X103678952Y-73374667D01*
X103726571Y-73469905D01*
X103821810Y-73517524D01*
X103869429Y-73517524D01*
X103964667Y-73469905D01*
X104012286Y-73374667D01*
X104012286Y-73231810D01*
X103964667Y-73136571D01*
X104012286Y-72803238D02*
X104012286Y-72422286D01*
X104345619Y-72660381D02*
X103488476Y-72660381D01*
X103393238Y-72612762D01*
X103345619Y-72517524D01*
X103345619Y-72422286D01*
X103345619Y-71946095D02*
X103393238Y-72041333D01*
X103440857Y-72088952D01*
X103536095Y-72136571D01*
X103821810Y-72136571D01*
X103917048Y-72088952D01*
X103964667Y-72041333D01*
X104012286Y-71946095D01*
X104012286Y-71803237D01*
X103964667Y-71707999D01*
X103917048Y-71660380D01*
X103821810Y-71612761D01*
X103536095Y-71612761D01*
X103440857Y-71660380D01*
X103393238Y-71707999D01*
X103345619Y-71803237D01*
X103345619Y-71946095D01*
X104012286Y-71184190D02*
X103012286Y-71184190D01*
X103964667Y-71184190D02*
X104012286Y-71088952D01*
X104012286Y-70898475D01*
X103964667Y-70803237D01*
X103917048Y-70755618D01*
X103821810Y-70707999D01*
X103536095Y-70707999D01*
X103440857Y-70755618D01*
X103393238Y-70803237D01*
X103345619Y-70898475D01*
X103345619Y-71088952D01*
X103393238Y-71184190D01*
X103345619Y-70279428D02*
X104345619Y-70279428D01*
X103345619Y-69850856D02*
X103869429Y-69850856D01*
X103964667Y-69898475D01*
X104012286Y-69993713D01*
X104012286Y-70136571D01*
X103964667Y-70231809D01*
X103917048Y-70279428D01*
X103393238Y-68660380D02*
X103345619Y-68517523D01*
X103345619Y-68279427D01*
X103393238Y-68184189D01*
X103440857Y-68136570D01*
X103536095Y-68088951D01*
X103631333Y-68088951D01*
X103726571Y-68136570D01*
X103774190Y-68184189D01*
X103821810Y-68279427D01*
X103869429Y-68469904D01*
X103917048Y-68565142D01*
X103964667Y-68612761D01*
X104059905Y-68660380D01*
X104155143Y-68660380D01*
X104250381Y-68612761D01*
X104298000Y-68565142D01*
X104345619Y-68469904D01*
X104345619Y-68231808D01*
X104298000Y-68088951D01*
X103393238Y-67231808D02*
X103345619Y-67327046D01*
X103345619Y-67517523D01*
X103393238Y-67612761D01*
X103440857Y-67660380D01*
X103536095Y-67707999D01*
X103821810Y-67707999D01*
X103917048Y-67660380D01*
X103964667Y-67612761D01*
X104012286Y-67517523D01*
X104012286Y-67327046D01*
X103964667Y-67231808D01*
X103345619Y-66803237D02*
X104345619Y-66803237D01*
X103345619Y-66374665D02*
X103869429Y-66374665D01*
X103964667Y-66422284D01*
X104012286Y-66517522D01*
X104012286Y-66660380D01*
X103964667Y-66755618D01*
X103917048Y-66803237D01*
X103345619Y-65898475D02*
X104012286Y-65898475D01*
X103917048Y-65898475D02*
X103964667Y-65850856D01*
X104012286Y-65755618D01*
X104012286Y-65612760D01*
X103964667Y-65517522D01*
X103869429Y-65469903D01*
X103345619Y-65469903D01*
X103869429Y-65469903D02*
X103964667Y-65422284D01*
X104012286Y-65327046D01*
X104012286Y-65184189D01*
X103964667Y-65088951D01*
X103869429Y-65041332D01*
X103345619Y-65041332D01*
X103345619Y-64565142D02*
X104012286Y-64565142D01*
X104345619Y-64565142D02*
X104298000Y-64612761D01*
X104250381Y-64565142D01*
X104298000Y-64517523D01*
X104345619Y-64565142D01*
X104250381Y-64565142D01*
X103345619Y-63660380D02*
X104345619Y-63660380D01*
X103393238Y-63660380D02*
X103345619Y-63755618D01*
X103345619Y-63946095D01*
X103393238Y-64041333D01*
X103440857Y-64088952D01*
X103536095Y-64136571D01*
X103821810Y-64136571D01*
X103917048Y-64088952D01*
X103964667Y-64041333D01*
X104012286Y-63946095D01*
X104012286Y-63755618D01*
X103964667Y-63660380D01*
X104012286Y-63327047D02*
X104012286Y-62946095D01*
X104345619Y-63184190D02*
X103488476Y-63184190D01*
X103393238Y-63136571D01*
X103345619Y-63041333D01*
X103345619Y-62946095D01*
X101645619Y-76469905D02*
X102645619Y-76469905D01*
X101931333Y-76136571D01*
X102645619Y-75803238D01*
X101645619Y-75803238D01*
X101645619Y-74898476D02*
X102169429Y-74898476D01*
X102264667Y-74946095D01*
X102312286Y-75041333D01*
X102312286Y-75231810D01*
X102264667Y-75327048D01*
X101693238Y-74898476D02*
X101645619Y-74993714D01*
X101645619Y-75231810D01*
X101693238Y-75327048D01*
X101788476Y-75374667D01*
X101883714Y-75374667D01*
X101978952Y-75327048D01*
X102026571Y-75231810D01*
X102026571Y-74993714D01*
X102074190Y-74898476D01*
X101645619Y-74517524D02*
X102312286Y-73993714D01*
X102312286Y-74517524D02*
X101645619Y-73993714D01*
X102645619Y-72946095D02*
X101645619Y-72708000D01*
X102359905Y-72517523D01*
X101645619Y-72327047D01*
X102645619Y-72088952D01*
X102312286Y-71279428D02*
X101645619Y-71279428D01*
X102312286Y-71708000D02*
X101788476Y-71708000D01*
X101693238Y-71660381D01*
X101645619Y-71565143D01*
X101645619Y-71422285D01*
X101693238Y-71327047D01*
X101740857Y-71279428D01*
X101645619Y-70660381D02*
X101693238Y-70755619D01*
X101788476Y-70803238D01*
X102645619Y-70803238D01*
X102312286Y-70422285D02*
X102312286Y-70041333D01*
X101645619Y-70279428D02*
X102502762Y-70279428D01*
X102598000Y-70231809D01*
X102645619Y-70136571D01*
X102645619Y-70041333D01*
D12*
G36*
X94149333Y-140631334D02*
X94149333Y-141226720D01*
X94118533Y-141740619D01*
X94021713Y-142112216D01*
X93852244Y-142357786D01*
X93637806Y-142482543D01*
X93445460Y-142517219D01*
X93094501Y-142544598D01*
X92595513Y-142564236D01*
X91959078Y-142575691D01*
X91342699Y-142578667D01*
X89323333Y-142578667D01*
X89323333Y-144526000D01*
X91805633Y-144526000D01*
X92622234Y-144523644D01*
X93289124Y-144514848D01*
X93825880Y-144497019D01*
X94252079Y-144467566D01*
X94587299Y-144423896D01*
X94851118Y-144363417D01*
X95063113Y-144283539D01*
X95242863Y-144181667D01*
X95409944Y-144055211D01*
X95419031Y-144047596D01*
X95644850Y-143833443D01*
X95812007Y-143605316D01*
X95929798Y-143332802D01*
X96007519Y-142985486D01*
X96054470Y-142532956D01*
X96079946Y-141944799D01*
X96081601Y-141880167D01*
X96112197Y-140631334D01*
X94149333Y-140631334D01*
X94149333Y-140631334D01*
G37*
X94149333Y-140631334D02*
X94149333Y-141226720D01*
X94118533Y-141740619D01*
X94021713Y-142112216D01*
X93852244Y-142357786D01*
X93637806Y-142482543D01*
X93445460Y-142517219D01*
X93094501Y-142544598D01*
X92595513Y-142564236D01*
X91959078Y-142575691D01*
X91342699Y-142578667D01*
X89323333Y-142578667D01*
X89323333Y-144526000D01*
X91805633Y-144526000D01*
X92622234Y-144523644D01*
X93289124Y-144514848D01*
X93825880Y-144497019D01*
X94252079Y-144467566D01*
X94587299Y-144423896D01*
X94851118Y-144363417D01*
X95063113Y-144283539D01*
X95242863Y-144181667D01*
X95409944Y-144055211D01*
X95419031Y-144047596D01*
X95644850Y-143833443D01*
X95812007Y-143605316D01*
X95929798Y-143332802D01*
X96007519Y-142985486D01*
X96054470Y-142532956D01*
X96079946Y-141944799D01*
X96081601Y-141880167D01*
X96112197Y-140631334D01*
X94149333Y-140631334D01*
G36*
X94318666Y-134281334D02*
X94318666Y-135958485D01*
X94317550Y-136554496D01*
X94310880Y-137005774D01*
X94293671Y-137336918D01*
X94260940Y-137572527D01*
X94207705Y-137737201D01*
X94128981Y-137855538D01*
X94019784Y-137952138D01*
X93897661Y-138036613D01*
X93765886Y-138121050D01*
X93664571Y-138165481D01*
X93589713Y-138152903D01*
X93537308Y-138066311D01*
X93503352Y-137888703D01*
X93483843Y-137603075D01*
X93474777Y-137192421D01*
X93472150Y-136639739D01*
X93472000Y-136228667D01*
X93472000Y-134281334D01*
X91863333Y-134281334D01*
X91863333Y-136228667D01*
X91861404Y-136782534D01*
X91855993Y-137275137D01*
X91847665Y-137682841D01*
X91836984Y-137982010D01*
X91824517Y-138149009D01*
X91816795Y-138176000D01*
X91659292Y-138124364D01*
X91452760Y-138001141D01*
X91268528Y-137853858D01*
X91188510Y-137757357D01*
X91158726Y-137616846D01*
X91134028Y-137330121D01*
X91115520Y-136920252D01*
X91104308Y-136410312D01*
X91101333Y-135937900D01*
X91101333Y-134281334D01*
X89323333Y-134281334D01*
X89336019Y-136122834D01*
X89341317Y-136677762D01*
X89348948Y-137186728D01*
X89358265Y-137621338D01*
X89368621Y-137953200D01*
X89379370Y-138153924D01*
X89383054Y-138187614D01*
X89444681Y-138380265D01*
X89568674Y-138648184D01*
X89688405Y-138864948D01*
X90060115Y-139329601D01*
X90550283Y-139704713D01*
X91132358Y-139988189D01*
X91779791Y-140177933D01*
X92466031Y-140271851D01*
X93164529Y-140267846D01*
X93848736Y-140163824D01*
X94492100Y-139957689D01*
X95068073Y-139647345D01*
X95464340Y-139320783D01*
X95649600Y-139122227D01*
X95795023Y-138924547D01*
X95905349Y-138704456D01*
X95985318Y-138438663D01*
X96039668Y-138103879D01*
X96073138Y-137676816D01*
X96090470Y-137134183D01*
X96096401Y-136452691D01*
X96096666Y-136213585D01*
X96096666Y-134281334D01*
X94318666Y-134281334D01*
X94318666Y-134281334D01*
G37*
X94318666Y-134281334D02*
X94318666Y-135958485D01*
X94317550Y-136554496D01*
X94310880Y-137005774D01*
X94293671Y-137336918D01*
X94260940Y-137572527D01*
X94207705Y-137737201D01*
X94128981Y-137855538D01*
X94019784Y-137952138D01*
X93897661Y-138036613D01*
X93765886Y-138121050D01*
X93664571Y-138165481D01*
X93589713Y-138152903D01*
X93537308Y-138066311D01*
X93503352Y-137888703D01*
X93483843Y-137603075D01*
X93474777Y-137192421D01*
X93472150Y-136639739D01*
X93472000Y-136228667D01*
X93472000Y-134281334D01*
X91863333Y-134281334D01*
X91863333Y-136228667D01*
X91861404Y-136782534D01*
X91855993Y-137275137D01*
X91847665Y-137682841D01*
X91836984Y-137982010D01*
X91824517Y-138149009D01*
X91816795Y-138176000D01*
X91659292Y-138124364D01*
X91452760Y-138001141D01*
X91268528Y-137853858D01*
X91188510Y-137757357D01*
X91158726Y-137616846D01*
X91134028Y-137330121D01*
X91115520Y-136920252D01*
X91104308Y-136410312D01*
X91101333Y-135937900D01*
X91101333Y-134281334D01*
X89323333Y-134281334D01*
X89336019Y-136122834D01*
X89341317Y-136677762D01*
X89348948Y-137186728D01*
X89358265Y-137621338D01*
X89368621Y-137953200D01*
X89379370Y-138153924D01*
X89383054Y-138187614D01*
X89444681Y-138380265D01*
X89568674Y-138648184D01*
X89688405Y-138864948D01*
X90060115Y-139329601D01*
X90550283Y-139704713D01*
X91132358Y-139988189D01*
X91779791Y-140177933D01*
X92466031Y-140271851D01*
X93164529Y-140267846D01*
X93848736Y-140163824D01*
X94492100Y-139957689D01*
X95068073Y-139647345D01*
X95464340Y-139320783D01*
X95649600Y-139122227D01*
X95795023Y-138924547D01*
X95905349Y-138704456D01*
X95985318Y-138438663D01*
X96039668Y-138103879D01*
X96073138Y-137676816D01*
X96090470Y-137134183D01*
X96096401Y-136452691D01*
X96096666Y-136213585D01*
X96096666Y-134281334D01*
X94318666Y-134281334D01*
G36*
X94318666Y-127592667D02*
X94318666Y-129232249D01*
X94317452Y-129803542D01*
X94312276Y-130230784D01*
X94300836Y-130539247D01*
X94280832Y-130754206D01*
X94249962Y-130900933D01*
X94205925Y-131004702D01*
X94149843Y-131086456D01*
X93942888Y-131273263D01*
X93726510Y-131389803D01*
X93472000Y-131478525D01*
X93472000Y-127508000D01*
X91863333Y-127508000D01*
X91863333Y-131493292D01*
X91672833Y-131395066D01*
X91464175Y-131261655D01*
X91291833Y-131123328D01*
X91226811Y-131057989D01*
X91178563Y-130981011D01*
X91144590Y-130868091D01*
X91122392Y-130694923D01*
X91109469Y-130437202D01*
X91103321Y-130070624D01*
X91101448Y-129570882D01*
X91101333Y-129271242D01*
X91101333Y-127592667D01*
X89323333Y-127592667D01*
X89326097Y-129434167D01*
X89328972Y-130067928D01*
X89336681Y-130558953D01*
X89351062Y-130933813D01*
X89373956Y-131219081D01*
X89407201Y-131441327D01*
X89452638Y-131627122D01*
X89484852Y-131727350D01*
X89751198Y-132241940D01*
X90169186Y-132693260D01*
X90730225Y-133072812D01*
X90961246Y-133188258D01*
X91263740Y-133319152D01*
X91525785Y-133404751D01*
X91804654Y-133457073D01*
X92157619Y-133488138D01*
X92460422Y-133502895D01*
X93327263Y-133488573D01*
X94072778Y-133366491D01*
X94709096Y-133133119D01*
X95248344Y-132784926D01*
X95405586Y-132645631D01*
X95595100Y-132458092D01*
X95743722Y-132283344D01*
X95856741Y-132097884D01*
X95939450Y-131878213D01*
X95997138Y-131600828D01*
X96035098Y-131242229D01*
X96058620Y-130778913D01*
X96072995Y-130187380D01*
X96080951Y-129645834D01*
X96107569Y-127592667D01*
X94318666Y-127592667D01*
X94318666Y-127592667D01*
G37*
X94318666Y-127592667D02*
X94318666Y-129232249D01*
X94317452Y-129803542D01*
X94312276Y-130230784D01*
X94300836Y-130539247D01*
X94280832Y-130754206D01*
X94249962Y-130900933D01*
X94205925Y-131004702D01*
X94149843Y-131086456D01*
X93942888Y-131273263D01*
X93726510Y-131389803D01*
X93472000Y-131478525D01*
X93472000Y-127508000D01*
X91863333Y-127508000D01*
X91863333Y-131493292D01*
X91672833Y-131395066D01*
X91464175Y-131261655D01*
X91291833Y-131123328D01*
X91226811Y-131057989D01*
X91178563Y-130981011D01*
X91144590Y-130868091D01*
X91122392Y-130694923D01*
X91109469Y-130437202D01*
X91103321Y-130070624D01*
X91101448Y-129570882D01*
X91101333Y-129271242D01*
X91101333Y-127592667D01*
X89323333Y-127592667D01*
X89326097Y-129434167D01*
X89328972Y-130067928D01*
X89336681Y-130558953D01*
X89351062Y-130933813D01*
X89373956Y-131219081D01*
X89407201Y-131441327D01*
X89452638Y-131627122D01*
X89484852Y-131727350D01*
X89751198Y-132241940D01*
X90169186Y-132693260D01*
X90730225Y-133072812D01*
X90961246Y-133188258D01*
X91263740Y-133319152D01*
X91525785Y-133404751D01*
X91804654Y-133457073D01*
X92157619Y-133488138D01*
X92460422Y-133502895D01*
X93327263Y-133488573D01*
X94072778Y-133366491D01*
X94709096Y-133133119D01*
X95248344Y-132784926D01*
X95405586Y-132645631D01*
X95595100Y-132458092D01*
X95743722Y-132283344D01*
X95856741Y-132097884D01*
X95939450Y-131878213D01*
X95997138Y-131600828D01*
X96035098Y-131242229D01*
X96058620Y-130778913D01*
X96072995Y-130187380D01*
X96080951Y-129645834D01*
X96107569Y-127592667D01*
X94318666Y-127592667D01*
G36*
X97536000Y-127508000D02*
X97536000Y-146871626D01*
X97345500Y-147151948D01*
X97049824Y-147451136D01*
X96641149Y-147674051D01*
X96287166Y-147774198D01*
X96012000Y-147823767D01*
X96012000Y-145118667D01*
X94064666Y-145118667D01*
X94064666Y-147828000D01*
X89408000Y-147828000D01*
X89408000Y-150198667D01*
X92053833Y-150197943D01*
X93260732Y-150190832D01*
X94304601Y-150169998D01*
X95191211Y-150135132D01*
X95926333Y-150085922D01*
X96515738Y-150022059D01*
X96965197Y-149943233D01*
X97016535Y-149931168D01*
X97802829Y-149667410D01*
X98473965Y-149290369D01*
X99022034Y-148805883D01*
X99439128Y-148219791D01*
X99504506Y-148094205D01*
X99779666Y-147535321D01*
X99802519Y-137521661D01*
X99825371Y-127508000D01*
X97536000Y-127508000D01*
X97536000Y-127508000D01*
G37*
X97536000Y-127508000D02*
X97536000Y-146871626D01*
X97345500Y-147151948D01*
X97049824Y-147451136D01*
X96641149Y-147674051D01*
X96287166Y-147774198D01*
X96012000Y-147823767D01*
X96012000Y-145118667D01*
X94064666Y-145118667D01*
X94064666Y-147828000D01*
X89408000Y-147828000D01*
X89408000Y-150198667D01*
X92053833Y-150197943D01*
X93260732Y-150190832D01*
X94304601Y-150169998D01*
X95191211Y-150135132D01*
X95926333Y-150085922D01*
X96515738Y-150022059D01*
X96965197Y-149943233D01*
X97016535Y-149931168D01*
X97802829Y-149667410D01*
X98473965Y-149290369D01*
X99022034Y-148805883D01*
X99439128Y-148219791D01*
X99504506Y-148094205D01*
X99779666Y-147535321D01*
X99802519Y-137521661D01*
X99825371Y-127508000D01*
X97536000Y-127508000D01*
G36*
X99821297Y-123140143D02*
X99818508Y-122510596D01*
X99812610Y-122009511D01*
X99802581Y-121616454D01*
X99787400Y-121310991D01*
X99766044Y-121072687D01*
X99737491Y-120881110D01*
X99700719Y-120715824D01*
X99654706Y-120556396D01*
X99653672Y-120553086D01*
X99371461Y-119929979D01*
X98938118Y-119363731D01*
X98365037Y-118863680D01*
X97663615Y-118439169D01*
X96845247Y-118099536D01*
X96546189Y-118006151D01*
X96063968Y-117905234D01*
X95465591Y-117837939D01*
X94800960Y-117804751D01*
X94119978Y-117806158D01*
X93472548Y-117842645D01*
X92908574Y-117914698D01*
X92657462Y-117968268D01*
X91850530Y-118240690D01*
X91129250Y-118615573D01*
X90511802Y-119078417D01*
X90016364Y-119614722D01*
X89661114Y-120209988D01*
X89573864Y-120427856D01*
X89529112Y-120566327D01*
X89493167Y-120713231D01*
X89465076Y-120888094D01*
X89443883Y-121110439D01*
X89428637Y-121399792D01*
X89418382Y-121775675D01*
X89412165Y-122257614D01*
X89409032Y-122865133D01*
X89408030Y-123617756D01*
X89408000Y-123822885D01*
X89408000Y-126746000D01*
X91694000Y-126746000D01*
X91695393Y-124269500D01*
X91696201Y-123555915D01*
X91698675Y-122991022D01*
X91704228Y-122554185D01*
X91714274Y-122224763D01*
X91730228Y-121982117D01*
X91753503Y-121805609D01*
X91785514Y-121674598D01*
X91827674Y-121568445D01*
X91881398Y-121466512D01*
X91888264Y-121454334D01*
X92186780Y-121089202D01*
X92613648Y-120791419D01*
X93140565Y-120564049D01*
X93739230Y-120410156D01*
X94381337Y-120332802D01*
X95038585Y-120335051D01*
X95682670Y-120419968D01*
X96285288Y-120590615D01*
X96818137Y-120850055D01*
X96910709Y-120910708D01*
X97078431Y-121030824D01*
X97213127Y-121148871D01*
X97318414Y-121284118D01*
X97397912Y-121455834D01*
X97455240Y-121683288D01*
X97494017Y-121985749D01*
X97517862Y-122382486D01*
X97530394Y-122892767D01*
X97535233Y-123535863D01*
X97536000Y-124239963D01*
X97536000Y-126746000D01*
X99822000Y-126746000D01*
X99822000Y-123918586D01*
X99821297Y-123140143D01*
X99821297Y-123140143D01*
G37*
X99821297Y-123140143D02*
X99818508Y-122510596D01*
X99812610Y-122009511D01*
X99802581Y-121616454D01*
X99787400Y-121310991D01*
X99766044Y-121072687D01*
X99737491Y-120881110D01*
X99700719Y-120715824D01*
X99654706Y-120556396D01*
X99653672Y-120553086D01*
X99371461Y-119929979D01*
X98938118Y-119363731D01*
X98365037Y-118863680D01*
X97663615Y-118439169D01*
X96845247Y-118099536D01*
X96546189Y-118006151D01*
X96063968Y-117905234D01*
X95465591Y-117837939D01*
X94800960Y-117804751D01*
X94119978Y-117806158D01*
X93472548Y-117842645D01*
X92908574Y-117914698D01*
X92657462Y-117968268D01*
X91850530Y-118240690D01*
X91129250Y-118615573D01*
X90511802Y-119078417D01*
X90016364Y-119614722D01*
X89661114Y-120209988D01*
X89573864Y-120427856D01*
X89529112Y-120566327D01*
X89493167Y-120713231D01*
X89465076Y-120888094D01*
X89443883Y-121110439D01*
X89428637Y-121399792D01*
X89418382Y-121775675D01*
X89412165Y-122257614D01*
X89409032Y-122865133D01*
X89408030Y-123617756D01*
X89408000Y-123822885D01*
X89408000Y-126746000D01*
X91694000Y-126746000D01*
X91695393Y-124269500D01*
X91696201Y-123555915D01*
X91698675Y-122991022D01*
X91704228Y-122554185D01*
X91714274Y-122224763D01*
X91730228Y-121982117D01*
X91753503Y-121805609D01*
X91785514Y-121674598D01*
X91827674Y-121568445D01*
X91881398Y-121466512D01*
X91888264Y-121454334D01*
X92186780Y-121089202D01*
X92613648Y-120791419D01*
X93140565Y-120564049D01*
X93739230Y-120410156D01*
X94381337Y-120332802D01*
X95038585Y-120335051D01*
X95682670Y-120419968D01*
X96285288Y-120590615D01*
X96818137Y-120850055D01*
X96910709Y-120910708D01*
X97078431Y-121030824D01*
X97213127Y-121148871D01*
X97318414Y-121284118D01*
X97397912Y-121455834D01*
X97455240Y-121683288D01*
X97494017Y-121985749D01*
X97517862Y-122382486D01*
X97530394Y-122892767D01*
X97535233Y-123535863D01*
X97536000Y-124239963D01*
X97536000Y-126746000D01*
X99822000Y-126746000D01*
X99822000Y-123918586D01*
X99821297Y-123140143D01*
G36*
X99779612Y-106876427D02*
X99779277Y-105749492D01*
X99778408Y-104769834D01*
X99776750Y-103926425D01*
X99774048Y-103208237D01*
X99770047Y-102604241D01*
X99764492Y-102103410D01*
X99757129Y-101694715D01*
X99747702Y-101367128D01*
X99735957Y-101109620D01*
X99721638Y-100911165D01*
X99704492Y-100760733D01*
X99684263Y-100647297D01*
X99660696Y-100559827D01*
X99633536Y-100487297D01*
X99602530Y-100418678D01*
X99600646Y-100414667D01*
X99271570Y-99907075D01*
X98799569Y-99465230D01*
X98213333Y-99111911D01*
X97967961Y-98999193D01*
X97761645Y-98924193D01*
X97548957Y-98879265D01*
X97284469Y-98856765D01*
X96922754Y-98849048D01*
X96647000Y-98848334D01*
X96202595Y-98851378D01*
X95882032Y-98865297D01*
X95639858Y-98897267D01*
X95430622Y-98954467D01*
X95208871Y-99044074D01*
X95103161Y-99092133D01*
X94644959Y-99363878D01*
X94215928Y-99726481D01*
X93863684Y-100134120D01*
X93661025Y-100479959D01*
X93610313Y-100630335D01*
X93569948Y-100840679D01*
X93537926Y-101133776D01*
X93512244Y-101532407D01*
X93490898Y-102059355D01*
X93475594Y-102588772D01*
X93459081Y-103189803D01*
X93442680Y-103645745D01*
X93423719Y-103980820D01*
X93399527Y-104219248D01*
X93367433Y-104385252D01*
X93324765Y-104503053D01*
X93268852Y-104596873D01*
X93251483Y-104620772D01*
X93096749Y-104810131D01*
X92935278Y-104953608D01*
X92741001Y-105058071D01*
X92487848Y-105130387D01*
X92149753Y-105177424D01*
X91700645Y-105206049D01*
X91114457Y-105223129D01*
X90953166Y-105226225D01*
X89408000Y-105254116D01*
X89408000Y-107536767D01*
X91672833Y-107510550D01*
X93937666Y-107484334D01*
X94422319Y-107246340D01*
X94741922Y-107055530D01*
X95046455Y-106818914D01*
X95200891Y-106664969D01*
X95372959Y-106448486D01*
X95505910Y-106233646D01*
X95604664Y-105994992D01*
X95674145Y-105707067D01*
X95719273Y-105344414D01*
X95744972Y-104881575D01*
X95756162Y-104293093D01*
X95758000Y-103783532D01*
X95762785Y-103060505D01*
X95781398Y-102489124D01*
X95820226Y-102051866D01*
X95885655Y-101731209D01*
X95984072Y-101509628D01*
X96121864Y-101369601D01*
X96305417Y-101293605D01*
X96541119Y-101264115D01*
X96677271Y-101261334D01*
X97026510Y-101324090D01*
X97275504Y-101480527D01*
X97536000Y-101699720D01*
X97536000Y-108126860D01*
X97535924Y-109322079D01*
X97535495Y-110359489D01*
X97534411Y-111250618D01*
X97532372Y-112006989D01*
X97529074Y-112640130D01*
X97524217Y-113161564D01*
X97517499Y-113582819D01*
X97508618Y-113915419D01*
X97497272Y-114170890D01*
X97483161Y-114360758D01*
X97465983Y-114496547D01*
X97445435Y-114589784D01*
X97421216Y-114651994D01*
X97393025Y-114694703D01*
X97363285Y-114726715D01*
X97040728Y-114946992D01*
X96680488Y-115028308D01*
X96325199Y-114969908D01*
X96017496Y-114771034D01*
X95998003Y-114750943D01*
X95938206Y-114682724D01*
X95891406Y-114606583D01*
X95855529Y-114501558D01*
X95828502Y-114346687D01*
X95808252Y-114121008D01*
X95792703Y-113803559D01*
X95779784Y-113373376D01*
X95767419Y-112809499D01*
X95758000Y-112324854D01*
X95744395Y-111650344D01*
X95731098Y-111122769D01*
X95716089Y-110719747D01*
X95697345Y-110418895D01*
X95672848Y-110197833D01*
X95640575Y-110034177D01*
X95598505Y-109905545D01*
X95544619Y-109789555D01*
X95525877Y-109753933D01*
X95145774Y-109217645D01*
X94642455Y-108786243D01*
X94031768Y-108467990D01*
X93329562Y-108271155D01*
X92554287Y-108204000D01*
X91811190Y-108272433D01*
X91131043Y-108470185D01*
X90534115Y-108785938D01*
X90040676Y-109208373D01*
X89670997Y-109726170D01*
X89609979Y-109848121D01*
X89559826Y-109958536D01*
X89518828Y-110065043D01*
X89486056Y-110185137D01*
X89460584Y-110336310D01*
X89441485Y-110536057D01*
X89427832Y-110801871D01*
X89418697Y-111151245D01*
X89413154Y-111601672D01*
X89410276Y-112170648D01*
X89409135Y-112875664D01*
X89408827Y-113643834D01*
X89408000Y-117009334D01*
X91694000Y-117009334D01*
X91694000Y-111094957D01*
X91914256Y-110921704D01*
X92249891Y-110744850D01*
X92620735Y-110687067D01*
X92976781Y-110746371D01*
X93268022Y-110920780D01*
X93321026Y-110977499D01*
X93358437Y-111073942D01*
X93389913Y-111274416D01*
X93416336Y-111592336D01*
X93438585Y-112041119D01*
X93457544Y-112634180D01*
X93472000Y-113275557D01*
X93485280Y-113936980D01*
X93497786Y-114452726D01*
X93512004Y-114846422D01*
X93530418Y-115141693D01*
X93555514Y-115362164D01*
X93589775Y-115531461D01*
X93635687Y-115673210D01*
X93695735Y-115811036D01*
X93750560Y-115924043D01*
X93930765Y-116233486D01*
X94144399Y-116520435D01*
X94282853Y-116665034D01*
X94857425Y-117060947D01*
X95518270Y-117331342D01*
X96233829Y-117472313D01*
X96972543Y-117479951D01*
X97702851Y-117350350D01*
X98239107Y-117154806D01*
X98806236Y-116824260D01*
X99248250Y-116399816D01*
X99530204Y-115977997D01*
X99779666Y-115527667D01*
X99779666Y-108161667D01*
X99779612Y-106876427D01*
X99779612Y-106876427D01*
G37*
X99779612Y-106876427D02*
X99779277Y-105749492D01*
X99778408Y-104769834D01*
X99776750Y-103926425D01*
X99774048Y-103208237D01*
X99770047Y-102604241D01*
X99764492Y-102103410D01*
X99757129Y-101694715D01*
X99747702Y-101367128D01*
X99735957Y-101109620D01*
X99721638Y-100911165D01*
X99704492Y-100760733D01*
X99684263Y-100647297D01*
X99660696Y-100559827D01*
X99633536Y-100487297D01*
X99602530Y-100418678D01*
X99600646Y-100414667D01*
X99271570Y-99907075D01*
X98799569Y-99465230D01*
X98213333Y-99111911D01*
X97967961Y-98999193D01*
X97761645Y-98924193D01*
X97548957Y-98879265D01*
X97284469Y-98856765D01*
X96922754Y-98849048D01*
X96647000Y-98848334D01*
X96202595Y-98851378D01*
X95882032Y-98865297D01*
X95639858Y-98897267D01*
X95430622Y-98954467D01*
X95208871Y-99044074D01*
X95103161Y-99092133D01*
X94644959Y-99363878D01*
X94215928Y-99726481D01*
X93863684Y-100134120D01*
X93661025Y-100479959D01*
X93610313Y-100630335D01*
X93569948Y-100840679D01*
X93537926Y-101133776D01*
X93512244Y-101532407D01*
X93490898Y-102059355D01*
X93475594Y-102588772D01*
X93459081Y-103189803D01*
X93442680Y-103645745D01*
X93423719Y-103980820D01*
X93399527Y-104219248D01*
X93367433Y-104385252D01*
X93324765Y-104503053D01*
X93268852Y-104596873D01*
X93251483Y-104620772D01*
X93096749Y-104810131D01*
X92935278Y-104953608D01*
X92741001Y-105058071D01*
X92487848Y-105130387D01*
X92149753Y-105177424D01*
X91700645Y-105206049D01*
X91114457Y-105223129D01*
X90953166Y-105226225D01*
X89408000Y-105254116D01*
X89408000Y-107536767D01*
X91672833Y-107510550D01*
X93937666Y-107484334D01*
X94422319Y-107246340D01*
X94741922Y-107055530D01*
X95046455Y-106818914D01*
X95200891Y-106664969D01*
X95372959Y-106448486D01*
X95505910Y-106233646D01*
X95604664Y-105994992D01*
X95674145Y-105707067D01*
X95719273Y-105344414D01*
X95744972Y-104881575D01*
X95756162Y-104293093D01*
X95758000Y-103783532D01*
X95762785Y-103060505D01*
X95781398Y-102489124D01*
X95820226Y-102051866D01*
X95885655Y-101731209D01*
X95984072Y-101509628D01*
X96121864Y-101369601D01*
X96305417Y-101293605D01*
X96541119Y-101264115D01*
X96677271Y-101261334D01*
X97026510Y-101324090D01*
X97275504Y-101480527D01*
X97536000Y-101699720D01*
X97536000Y-108126860D01*
X97535924Y-109322079D01*
X97535495Y-110359489D01*
X97534411Y-111250618D01*
X97532372Y-112006989D01*
X97529074Y-112640130D01*
X97524217Y-113161564D01*
X97517499Y-113582819D01*
X97508618Y-113915419D01*
X97497272Y-114170890D01*
X97483161Y-114360758D01*
X97465983Y-114496547D01*
X97445435Y-114589784D01*
X97421216Y-114651994D01*
X97393025Y-114694703D01*
X97363285Y-114726715D01*
X97040728Y-114946992D01*
X96680488Y-115028308D01*
X96325199Y-114969908D01*
X96017496Y-114771034D01*
X95998003Y-114750943D01*
X95938206Y-114682724D01*
X95891406Y-114606583D01*
X95855529Y-114501558D01*
X95828502Y-114346687D01*
X95808252Y-114121008D01*
X95792703Y-113803559D01*
X95779784Y-113373376D01*
X95767419Y-112809499D01*
X95758000Y-112324854D01*
X95744395Y-111650344D01*
X95731098Y-111122769D01*
X95716089Y-110719747D01*
X95697345Y-110418895D01*
X95672848Y-110197833D01*
X95640575Y-110034177D01*
X95598505Y-109905545D01*
X95544619Y-109789555D01*
X95525877Y-109753933D01*
X95145774Y-109217645D01*
X94642455Y-108786243D01*
X94031768Y-108467990D01*
X93329562Y-108271155D01*
X92554287Y-108204000D01*
X91811190Y-108272433D01*
X91131043Y-108470185D01*
X90534115Y-108785938D01*
X90040676Y-109208373D01*
X89670997Y-109726170D01*
X89609979Y-109848121D01*
X89559826Y-109958536D01*
X89518828Y-110065043D01*
X89486056Y-110185137D01*
X89460584Y-110336310D01*
X89441485Y-110536057D01*
X89427832Y-110801871D01*
X89418697Y-111151245D01*
X89413154Y-111601672D01*
X89410276Y-112170648D01*
X89409135Y-112875664D01*
X89408827Y-113643834D01*
X89408000Y-117009334D01*
X91694000Y-117009334D01*
X91694000Y-111094957D01*
X91914256Y-110921704D01*
X92249891Y-110744850D01*
X92620735Y-110687067D01*
X92976781Y-110746371D01*
X93268022Y-110920780D01*
X93321026Y-110977499D01*
X93358437Y-111073942D01*
X93389913Y-111274416D01*
X93416336Y-111592336D01*
X93438585Y-112041119D01*
X93457544Y-112634180D01*
X93472000Y-113275557D01*
X93485280Y-113936980D01*
X93497786Y-114452726D01*
X93512004Y-114846422D01*
X93530418Y-115141693D01*
X93555514Y-115362164D01*
X93589775Y-115531461D01*
X93635687Y-115673210D01*
X93695735Y-115811036D01*
X93750560Y-115924043D01*
X93930765Y-116233486D01*
X94144399Y-116520435D01*
X94282853Y-116665034D01*
X94857425Y-117060947D01*
X95518270Y-117331342D01*
X96233829Y-117472313D01*
X96972543Y-117479951D01*
X97702851Y-117350350D01*
X98239107Y-117154806D01*
X98806236Y-116824260D01*
X99248250Y-116399816D01*
X99530204Y-115977997D01*
X99779666Y-115527667D01*
X99779666Y-108161667D01*
X99779612Y-106876427D01*
G36*
X96956107Y-122401623D02*
X96771652Y-122228296D01*
X96502189Y-122044974D01*
X96184404Y-121876617D01*
X95854984Y-121748180D01*
X95854915Y-121748159D01*
X95212822Y-121615815D01*
X94515270Y-121584577D01*
X93836136Y-121654617D01*
X93476950Y-121742596D01*
X93130004Y-121875141D01*
X92810636Y-122040079D01*
X92555585Y-122213752D01*
X92401592Y-122372501D01*
X92372988Y-122453476D01*
X92428572Y-122560943D01*
X92573549Y-122749750D01*
X92777899Y-122981177D01*
X92802338Y-123007178D01*
X93025806Y-123237001D01*
X93169452Y-123358692D01*
X93266047Y-123390595D01*
X93348362Y-123351056D01*
X93375282Y-123327907D01*
X93714801Y-123117415D01*
X94156642Y-122979395D01*
X94647635Y-122919266D01*
X95134611Y-122942449D01*
X95564398Y-123054363D01*
X95654252Y-123095600D01*
X95869642Y-123223814D01*
X96010792Y-123342002D01*
X96034225Y-123378237D01*
X96106140Y-123376401D01*
X96260397Y-123283648D01*
X96461246Y-123130414D01*
X96672931Y-122947137D01*
X96859700Y-122764254D01*
X96985801Y-122612201D01*
X97018867Y-122539998D01*
X96956107Y-122401623D01*
X96956107Y-122401623D01*
G37*
X96956107Y-122401623D02*
X96771652Y-122228296D01*
X96502189Y-122044974D01*
X96184404Y-121876617D01*
X95854984Y-121748180D01*
X95854915Y-121748159D01*
X95212822Y-121615815D01*
X94515270Y-121584577D01*
X93836136Y-121654617D01*
X93476950Y-121742596D01*
X93130004Y-121875141D01*
X92810636Y-122040079D01*
X92555585Y-122213752D01*
X92401592Y-122372501D01*
X92372988Y-122453476D01*
X92428572Y-122560943D01*
X92573549Y-122749750D01*
X92777899Y-122981177D01*
X92802338Y-123007178D01*
X93025806Y-123237001D01*
X93169452Y-123358692D01*
X93266047Y-123390595D01*
X93348362Y-123351056D01*
X93375282Y-123327907D01*
X93714801Y-123117415D01*
X94156642Y-122979395D01*
X94647635Y-122919266D01*
X95134611Y-122942449D01*
X95564398Y-123054363D01*
X95654252Y-123095600D01*
X95869642Y-123223814D01*
X96010792Y-123342002D01*
X96034225Y-123378237D01*
X96106140Y-123376401D01*
X96260397Y-123283648D01*
X96461246Y-123130414D01*
X96672931Y-122947137D01*
X96859700Y-122764254D01*
X96985801Y-122612201D01*
X97018867Y-122539998D01*
X96956107Y-122401623D01*
G36*
X96523941Y-124084904D02*
X96297523Y-124067852D01*
X95949045Y-124053739D01*
X95502142Y-124043383D01*
X94980450Y-124037602D01*
X94657333Y-124036667D01*
X94103470Y-124039401D01*
X93610870Y-124047069D01*
X93203167Y-124058870D01*
X92903997Y-124074004D01*
X92736994Y-124091671D01*
X92710000Y-124102613D01*
X92766416Y-124187526D01*
X92917563Y-124359830D01*
X93136293Y-124589362D01*
X93260333Y-124714000D01*
X93810666Y-125259442D01*
X93810666Y-126746000D01*
X95419333Y-126746000D01*
X95419333Y-125232741D01*
X96012000Y-124702114D01*
X96269430Y-124464898D01*
X96470398Y-124266897D01*
X96586828Y-124136441D01*
X96604666Y-124104077D01*
X96523941Y-124084904D01*
X96523941Y-124084904D01*
G37*
X96523941Y-124084904D02*
X96297523Y-124067852D01*
X95949045Y-124053739D01*
X95502142Y-124043383D01*
X94980450Y-124037602D01*
X94657333Y-124036667D01*
X94103470Y-124039401D01*
X93610870Y-124047069D01*
X93203167Y-124058870D01*
X92903997Y-124074004D01*
X92736994Y-124091671D01*
X92710000Y-124102613D01*
X92766416Y-124187526D01*
X92917563Y-124359830D01*
X93136293Y-124589362D01*
X93260333Y-124714000D01*
X93810666Y-125259442D01*
X93810666Y-126746000D01*
X95419333Y-126746000D01*
X95419333Y-125232741D01*
X96012000Y-124702114D01*
X96269430Y-124464898D01*
X96470398Y-124266897D01*
X96586828Y-124136441D01*
X96604666Y-124104077D01*
X96523941Y-124084904D01*
D10*
X134562000Y-155575000D02*
G75*
G03X134562000Y-155575000I-450000J0D01*
G01*
X72840000Y-155194000D02*
G75*
G03X72840000Y-155194000I-450000J0D01*
G01*
X135324000Y-60198000D02*
G75*
G03X135324000Y-60198000I-450000J0D01*
G01*
M02*
