M48
INCH,TZ
T1C0.016
T2C0.031
T3C0.040
T4C0.043
T5C0.051
T6C0.067
T7C0.102
T8C0.126
%
G90
G05
T1
X2.57Y-4.43
X2.6Y-4.5
X2.6Y-4.64
X2.62Y-2.93
X2.63Y-4.47
X2.63Y-4.57
X2.63Y-5.08
X2.68Y-4.28
X2.68Y-4.36
X2.74Y-4.28
X2.74Y-4.36
X2.76Y-4.72
X2.78Y-4.96
X2.8Y-4.28
X2.8Y-4.36
X2.8Y-4.76
X2.86Y-4.28
X2.86Y-4.32
X2.86Y-4.36
X2.9Y-3.58
X2.97Y-4.26
X3.Y-4.47
X3.Y-4.76
X3.01Y-5.42
X3.02Y-4.02
X3.02Y-5.07
X3.07Y-3.69
X3.08Y-3.42
X3.08Y-3.86
X3.08Y-4.02
X3.09Y-4.92
X3.09Y-4.96
X3.1Y-3.58
X3.1Y-4.47
X3.12Y-4.31
X3.14Y-3.46
X3.14Y-3.52
X3.14Y-4.02
X3.14Y-4.92
X3.14Y-4.96
X3.15Y-3.85
X3.16Y-3.39
X3.16Y-5.9
X3.17Y-4.25
X3.18Y-3.46
X3.18Y-4.92
X3.18Y-4.96
X3.2Y-3.52
X3.2Y-4.02
X3.22Y-4.34
X3.22Y-4.65
X3.22Y-5.88
X3.22Y-5.94
X3.24Y-3.89
X3.24Y-4.97
X3.26Y-3.46
X3.26Y-3.94
X3.26Y-5.64
X3.26Y-5.7
X3.26Y-5.76
X3.26Y-5.82
X3.27Y-4.23
X3.27Y-4.55
X3.3Y-3.98
X3.32Y-4.37
X3.32Y-4.64
X3.32Y-5.64
X3.32Y-5.69
X3.34Y-3.94
X3.35Y-5.67
X3.36Y-3.51
X3.38Y-5.64
X3.44Y-5.58
X3.44Y-5.64
X3.48Y-4.07
X3.48Y-4.24
X3.5Y-3.4
X3.5Y-3.46
X3.5Y-3.51
X3.5Y-3.55
X3.51Y-3.85
X3.51Y-3.89
X3.51Y-3.94
X3.51Y-3.98
X3.51Y-4.1
X3.51Y-4.21
X3.52Y-4.8
X3.52Y-4.86
X3.52Y-5.19
X3.57Y-3.4
X3.57Y-3.85
X3.57Y-4.27
X3.6Y-3.46
X3.6Y-3.89
X3.6Y-4.03
X3.6Y-4.39
X3.6087Y-4.95
X3.63Y-3.51
X3.63Y-3.94
X3.63Y-5.21
X3.64Y-4.47
X3.66Y-3.65
X3.66Y-4.23
X3.67Y-3.99
X3.67Y-5.44
X3.68Y-5.25
X3.69Y-4.15
X3.69Y-4.87
X3.71Y-4.905
X3.745Y-4.915
X3.75Y-4.28
X3.76Y-4.46
X3.76Y-4.95
X3.78Y-4.74
X3.79Y-3.09
X3.79Y-3.72
X3.79Y-3.9287
X3.81Y-2.75
X3.81Y-3.99
X3.81Y-4.16
X3.85Y-2.71
X3.86Y-3.72
X3.87Y-4.16
X3.87Y-4.32
X3.87Y-5.32
X3.88Y-4.74
X3.89Y-5.28
X3.89Y-5.41
X3.89Y-5.47
X3.9Y-5.11
X3.9Y-5.54
X3.9Y-5.6
X3.9Y-5.66
X3.92Y-4.32
X3.92Y-4.48
X3.92Y-4.96
X3.93Y-4.81
X3.94Y-3.84
X3.94Y-4.45
X3.96Y-2.8
X3.96Y-5.02
X3.96Y-5.6
X3.96Y-5.64
X3.96Y-5.68
X3.97Y-3.97
X3.97Y-4.86
X3.98Y-5.33
X3.9999Y-5.64
X4.Y-5.6
X4.01Y-3.96
X4.01Y-4.69
X4.02Y-4.86
X4.03Y-5.19
X4.06Y-4.4
X4.06Y-4.64
X4.06Y-4.84
X4.065Y-5.14
X4.065Y-5.18
X4.07Y-5.39
X4.08Y-4.12
X4.09Y-5.55
X4.1Y-5.23
X4.1Y-5.27
X4.11Y-5.06
X4.11Y-5.14
X4.125Y-3.54
X4.14Y-5.08
X4.15Y-4.4
X4.17Y-5.79
X4.176Y-3.608
X4.18Y-5.08
X4.2Y-4.28
X4.2Y-5.22
X4.22Y-5.07
X4.23Y-5.18
X4.24Y-4.6
X4.25Y-4.77
X4.25Y-4.88
X4.26Y-5.2
X4.26Y-5.8
X4.27Y-5.26
X4.27Y-5.61
X4.29Y-5.36
X4.3Y-4.75
X4.33Y-5.31
X4.34Y-4.91
X4.36Y-5.04
X4.41Y-5.1
X4.42Y-5.03
X4.455Y-4.735
X4.455Y-4.83
X4.46Y-4.46
X4.46Y-4.52
X4.49Y-5.21
X4.49Y-5.41
X4.495Y-4.97
X4.51Y-5.29
X4.52Y-5.75
X4.55Y-4.74
X4.55Y-4.985
X4.57Y-5.4
X4.59Y-5.16
X4.61Y-4.83
X4.62Y-5.39
X4.7871Y-4.0376
X4.85Y-4.665
X4.86Y-3.38
X4.895Y-4.415
X4.9Y-5.43
X4.91Y-5.36
X4.95Y-5.48
X4.98Y-2.395
X5.04Y-2.855
X5.175Y-2.95
X5.175Y-4.325
X5.22Y-3.68
X5.2391Y-3.3409
T2
X3.1175Y-5.9488
X3.1175Y-6.0275
X3.35Y-5.48
X3.35Y-5.5587
X3.9913Y-4.75
X4.07Y-4.75
X4.175Y-3.17
X4.22Y-5.71
X4.2537Y-3.17
X4.2987Y-5.71
X4.4513Y-5.85
X4.48Y-5.03
X4.48Y-5.1087
X4.53Y-5.85
X4.54Y-2.605
X4.54Y-4.205
X4.6187Y-2.605
X4.6187Y-4.205
X4.7525Y-4.515
X4.755Y-4.285
X4.76Y-2.7075
X4.76Y-2.95
X4.8312Y-4.515
X4.8337Y-4.285
X4.8387Y-2.7075
X4.8387Y-2.95
X4.965Y-3.4
X5.0437Y-3.4
X5.08Y-5.36
X5.08Y-5.95
X5.1587Y-5.36
X5.1587Y-5.95
T3
X2.72Y-2.74
X2.72Y-2.84
X2.72Y-3.19
X2.72Y-3.29
X2.72Y-3.64
X2.72Y-3.74
X2.72Y-4.09
X2.72Y-4.19
X2.75Y-4.52
X2.75Y-4.62
X2.82Y-2.74
X2.82Y-2.84
X2.82Y-3.19
X2.82Y-3.29
X2.82Y-3.64
X2.82Y-3.74
X2.82Y-4.09
X2.82Y-4.19
X2.85Y-4.52
X2.85Y-4.62
X2.92Y-2.74
X2.92Y-2.84
X2.92Y-3.19
X2.92Y-3.29
X2.92Y-3.64
X2.92Y-3.74
X2.92Y-4.09
X2.92Y-4.19
X2.95Y-4.52
X2.95Y-4.62
X3.02Y-2.74
X3.02Y-2.84
X3.02Y-3.19
X3.02Y-3.29
X3.02Y-3.64
X3.02Y-3.74
X3.02Y-4.09
X3.02Y-4.19
X3.04Y-5.3
X3.05Y-4.52
X3.05Y-4.62
X3.12Y-2.74
X3.12Y-2.84
X3.12Y-3.19
X3.12Y-3.29
X3.12Y-3.64
X3.12Y-3.74
X3.12Y-4.09
X3.12Y-4.19
X3.14Y-5.3
X3.15Y-4.52
X3.15Y-4.62
X3.22Y-2.74
X3.22Y-2.84
X3.22Y-3.19
X3.22Y-3.29
X3.22Y-3.64
X3.22Y-3.74
X3.22Y-4.09
X3.22Y-4.19
X3.24Y-5.3
X3.32Y-2.74
X3.32Y-2.84
X3.32Y-3.19
X3.32Y-3.29
X3.32Y-3.64
X3.32Y-3.74
X3.32Y-4.09
X3.32Y-4.19
X3.42Y-2.74
X3.42Y-2.84
X3.42Y-3.19
X3.42Y-3.29
X3.42Y-3.64
X3.42Y-3.74
X3.42Y-4.09
X3.42Y-4.19
X3.91Y-3.12
X3.91Y-3.22
X3.91Y-3.32
X3.91Y-3.42
X3.91Y-3.52
X3.91Y-3.62
X4.96Y-4.96
X4.96Y-5.06
X4.96Y-5.16
X4.96Y-5.55
X4.96Y-5.65
X4.96Y-5.75
X5.06Y-4.96
X5.06Y-5.06
X5.06Y-5.16
X5.06Y-5.55
X5.06Y-5.65
X5.06Y-5.75
T4
X2.69Y-5.1541
X2.69Y-5.41
X2.8672Y-5.1541
X2.8672Y-5.41
T5
X2.7Y-5.59
X2.7Y-5.79
T6
X5.34Y-2.75
X5.34Y-3.35
X5.34Y-3.95
X5.34Y-4.55
X5.34Y-5.16
X5.34Y-5.76
T7
X5.34Y-2.5531
X5.34Y-2.9469
X5.34Y-3.1531
X5.34Y-3.5469
X5.34Y-3.7531
X5.34Y-4.1469
X5.34Y-4.3531
X5.34Y-4.7469
X5.34Y-4.9631
X5.34Y-5.3569
X5.34Y-5.5631
X5.34Y-5.9569
X5.5172Y-2.75
X5.5172Y-3.35
X5.5172Y-3.95
X5.5172Y-4.55
X5.5172Y-5.16
X5.5172Y-5.76
T8
X2.64Y-2.42
X2.64Y-6.09
X5.51Y-2.41
X5.51Y-6.09
T0
M30
