G04 #@! TF.FileFunction,Copper,L2,Bot,Signal*
%FSLAX46Y46*%
G04 Gerber Fmt 4.6, Leading zero omitted, Abs format (unit mm)*
G04 Created by KiCad (PCBNEW 4.0.6-e0-6349~52~ubuntu16.10.1) date Thu Jun  8 12:23:59 2017*
%MOMM*%
%LPD*%
G01*
G04 APERTURE LIST*
%ADD10C,0.100000*%
%ADD11R,1.727200X1.727200*%
%ADD12O,1.727200X1.727200*%
%ADD13R,1.300000X1.300000*%
%ADD14C,1.300000*%
%ADD15O,4.000000X3.200000*%
%ADD16O,3.200000X4.000000*%
%ADD17O,3.000000X2.300000*%
%ADD18R,2.540000X2.540000*%
%ADD19C,2.540000*%
%ADD20R,2.032000X1.727200*%
%ADD21O,2.032000X1.727200*%
%ADD22R,1.727200X2.032000*%
%ADD23O,1.727200X2.032000*%
%ADD24C,2.000000*%
%ADD25C,0.700000*%
%ADD26C,0.600000*%
%ADD27C,0.200000*%
%ADD28C,0.250000*%
%ADD29C,0.300000*%
%ADD30C,0.600000*%
%ADD31C,0.254000*%
G04 APERTURE END LIST*
D10*
D11*
X69850000Y-117348000D03*
D12*
X69850000Y-114808000D03*
X72390000Y-117348000D03*
X72390000Y-114808000D03*
X74930000Y-117348000D03*
X74930000Y-114808000D03*
X77470000Y-117348000D03*
X77470000Y-114808000D03*
X80010000Y-117348000D03*
X80010000Y-114808000D03*
D13*
X120713500Y-114681000D03*
D14*
X122713500Y-114681000D03*
D13*
X120777000Y-108839000D03*
D14*
X122777000Y-108839000D03*
D13*
X120904000Y-74930000D03*
D14*
X122904000Y-74930000D03*
D13*
X120904000Y-68770500D03*
D14*
X122904000Y-68770500D03*
D13*
X115316000Y-106807000D03*
D14*
X117316000Y-106807000D03*
D13*
X115316000Y-66167000D03*
D14*
X117316000Y-66167000D03*
D13*
X129032000Y-151130000D03*
D14*
X131032000Y-151130000D03*
D13*
X129032000Y-136144000D03*
D14*
X131032000Y-136144000D03*
D13*
X126111000Y-86360000D03*
D14*
X128111000Y-86360000D03*
D13*
X106045000Y-80518000D03*
D14*
X108045000Y-80518000D03*
D13*
X85090000Y-139192000D03*
D14*
X85090000Y-141192000D03*
D13*
X79184500Y-153098500D03*
D14*
X79184500Y-151098500D03*
D15*
X135636000Y-141304000D03*
X135636000Y-151304000D03*
D16*
X140136000Y-146304000D03*
D17*
X135636000Y-146304000D03*
D15*
X135636000Y-126064000D03*
X135636000Y-136064000D03*
D16*
X140136000Y-131064000D03*
D17*
X135636000Y-131064000D03*
D18*
X68580000Y-141986000D03*
D19*
X68580000Y-147066000D03*
D15*
X135636000Y-110570000D03*
X135636000Y-120570000D03*
D16*
X140136000Y-115570000D03*
D17*
X135636000Y-115570000D03*
D15*
X135636000Y-95330000D03*
X135636000Y-105330000D03*
D16*
X140136000Y-100330000D03*
D17*
X135636000Y-100330000D03*
D15*
X135636000Y-80090000D03*
X135636000Y-90090000D03*
D16*
X140136000Y-85090000D03*
D17*
X135636000Y-85090000D03*
D15*
X135636000Y-64850000D03*
X135636000Y-74850000D03*
D16*
X140136000Y-69850000D03*
D17*
X135636000Y-69850000D03*
D20*
X99314000Y-91948000D03*
D21*
X99314000Y-89408000D03*
X99314000Y-86868000D03*
X99314000Y-84328000D03*
X99314000Y-81788000D03*
X99314000Y-79248000D03*
D22*
X77216000Y-134620000D03*
D23*
X79756000Y-134620000D03*
X82296000Y-134620000D03*
D11*
X69088000Y-106426000D03*
D12*
X69088000Y-103886000D03*
X71628000Y-106426000D03*
X71628000Y-103886000D03*
X74168000Y-106426000D03*
X74168000Y-103886000D03*
X76708000Y-106426000D03*
X76708000Y-103886000D03*
X79248000Y-106426000D03*
X79248000Y-103886000D03*
X81788000Y-106426000D03*
X81788000Y-103886000D03*
X84328000Y-106426000D03*
X84328000Y-103886000D03*
X86868000Y-106426000D03*
X86868000Y-103886000D03*
D11*
X69088000Y-94996000D03*
D12*
X69088000Y-92456000D03*
X71628000Y-94996000D03*
X71628000Y-92456000D03*
X74168000Y-94996000D03*
X74168000Y-92456000D03*
X76708000Y-94996000D03*
X76708000Y-92456000D03*
X79248000Y-94996000D03*
X79248000Y-92456000D03*
X81788000Y-94996000D03*
X81788000Y-92456000D03*
X84328000Y-94996000D03*
X84328000Y-92456000D03*
X86868000Y-94996000D03*
X86868000Y-92456000D03*
D11*
X69088000Y-83566000D03*
D12*
X69088000Y-81026000D03*
X71628000Y-83566000D03*
X71628000Y-81026000D03*
X74168000Y-83566000D03*
X74168000Y-81026000D03*
X76708000Y-83566000D03*
X76708000Y-81026000D03*
X79248000Y-83566000D03*
X79248000Y-81026000D03*
X81788000Y-83566000D03*
X81788000Y-81026000D03*
X84328000Y-83566000D03*
X84328000Y-81026000D03*
X86868000Y-83566000D03*
X86868000Y-81026000D03*
D11*
X69088000Y-72136000D03*
D12*
X69088000Y-69596000D03*
X71628000Y-72136000D03*
X71628000Y-69596000D03*
X74168000Y-72136000D03*
X74168000Y-69596000D03*
X76708000Y-72136000D03*
X76708000Y-69596000D03*
X79248000Y-72136000D03*
X79248000Y-69596000D03*
X81788000Y-72136000D03*
X81788000Y-69596000D03*
X84328000Y-72136000D03*
X84328000Y-69596000D03*
X86868000Y-72136000D03*
X86868000Y-69596000D03*
D11*
X128524000Y-146050000D03*
D12*
X125984000Y-146050000D03*
X128524000Y-143510000D03*
X125984000Y-143510000D03*
X128524000Y-140970000D03*
X125984000Y-140970000D03*
D11*
X128524000Y-131064000D03*
D12*
X125984000Y-131064000D03*
X128524000Y-128524000D03*
X125984000Y-128524000D03*
X128524000Y-125984000D03*
X125984000Y-125984000D03*
D24*
X72826000Y-137414000D03*
X68326000Y-137414000D03*
X72826000Y-130914000D03*
X68326000Y-130914000D03*
D13*
X113792000Y-127762000D03*
D14*
X113792000Y-129762000D03*
D13*
X103378000Y-120650000D03*
D14*
X101378000Y-120650000D03*
D13*
X115062000Y-148590000D03*
D14*
X113062000Y-148590000D03*
D13*
X107188000Y-145034000D03*
D14*
X109188000Y-145034000D03*
D25*
X96774000Y-69850000D03*
X65278000Y-112522000D03*
X114046000Y-132334000D03*
X100838000Y-123444000D03*
X113284000Y-113284000D03*
X113284000Y-114808000D03*
X103632000Y-104648000D03*
X106680000Y-108712000D03*
X103124000Y-117856000D03*
X107696000Y-116840000D03*
X80772000Y-87884000D03*
X81280000Y-89408000D03*
X79756000Y-89408000D03*
X78232000Y-86868000D03*
X79756000Y-87884000D03*
X82804000Y-100076000D03*
X70104000Y-119888000D03*
X71120000Y-120904000D03*
X68072000Y-108712000D03*
X69596000Y-108712000D03*
X71120000Y-108712000D03*
X72644000Y-108712000D03*
X72644000Y-109728000D03*
X72644000Y-110744000D03*
X71120000Y-110744000D03*
X69596000Y-110744000D03*
X68072000Y-110744000D03*
X76708000Y-102108000D03*
X78232000Y-102108000D03*
X79756000Y-102108000D03*
X81280000Y-102108000D03*
X89408000Y-123444000D03*
X89408000Y-121920000D03*
X79756000Y-124968000D03*
X78486000Y-124968000D03*
X78486000Y-125984000D03*
X79756000Y-125984000D03*
X80772000Y-125984000D03*
X87376000Y-141732000D03*
X87376000Y-143256000D03*
X85852000Y-143256000D03*
X80264000Y-149860000D03*
X81788000Y-150876000D03*
X81788000Y-149352000D03*
X82804000Y-147828000D03*
X82804000Y-146304000D03*
X82804000Y-144780000D03*
X82804000Y-143256000D03*
X84328000Y-143256000D03*
X101597091Y-143256008D03*
X101600000Y-142240000D03*
X100584000Y-142240000D03*
X100584000Y-143256000D03*
X99060000Y-143764000D03*
X99060000Y-142240000D03*
X99060000Y-140716000D03*
X70612000Y-125984000D03*
X103886000Y-140970000D03*
X105918000Y-147066000D03*
X93218000Y-138176000D03*
X80772000Y-124968000D03*
X80518000Y-107950000D03*
X66548000Y-74422000D03*
X103124000Y-111760000D03*
X105410000Y-111760000D03*
X103251000Y-131572000D03*
X100584000Y-127508000D03*
X114046000Y-137414000D03*
X109982000Y-134874000D03*
X116078000Y-137160000D03*
X110744000Y-128016000D03*
X128016000Y-72517000D03*
X124333000Y-112141000D03*
X85090000Y-144018000D03*
X84328000Y-144526000D03*
X100584000Y-144272000D03*
X113538000Y-119888000D03*
X76454000Y-137668000D03*
X117094000Y-120396000D03*
X93472000Y-133350000D03*
X95504000Y-125730000D03*
X103378000Y-136906000D03*
X108966000Y-136144000D03*
X104775000Y-89916000D03*
X108204000Y-147320000D03*
X108458000Y-142494000D03*
X98806000Y-134112000D03*
X117348000Y-136906000D03*
X124714000Y-136144000D03*
X114808000Y-146050000D03*
X125730000Y-139192000D03*
X124460000Y-137922000D03*
X131445000Y-109855000D03*
X131445000Y-74930000D03*
X106070400Y-91643200D03*
X91662000Y-125730000D03*
X82296000Y-126238000D03*
X95250000Y-108712000D03*
X66802000Y-129032000D03*
X96266000Y-99790000D03*
X104394000Y-128524000D03*
X98806000Y-137414000D03*
X98806000Y-138938000D03*
X96266000Y-78486000D03*
X101854000Y-119126000D03*
X100076000Y-97536000D03*
X100838000Y-100838000D03*
X89408000Y-131826000D03*
X102108000Y-123444000D03*
X99568000Y-125984000D03*
X96266000Y-94488000D03*
X84328000Y-117856000D03*
X93726000Y-123698000D03*
X92202000Y-89154000D03*
X88900000Y-89154000D03*
X85344000Y-89154000D03*
X89154000Y-100076000D03*
X84836000Y-100076000D03*
X92202000Y-100076000D03*
X84328000Y-110998000D03*
X103124000Y-122936000D03*
X99060000Y-129794000D03*
X91440000Y-102362000D03*
X93218000Y-101346000D03*
X96774000Y-101346000D03*
X81788000Y-118110000D03*
X94234000Y-124587000D03*
X91440000Y-87884000D03*
X88900000Y-87884000D03*
X82804000Y-87884000D03*
X91440000Y-98806000D03*
X89154000Y-98806000D03*
X82296000Y-98806000D03*
X81788000Y-110236000D03*
X92964000Y-107442000D03*
X112268000Y-127762000D03*
X96774000Y-105664000D03*
X93726000Y-105410000D03*
X91440000Y-111506000D03*
X92456000Y-113538000D03*
X95504000Y-113284000D03*
X100076000Y-113030000D03*
X110236000Y-124714000D03*
X78740000Y-113538000D03*
X96012000Y-120396000D03*
X98552000Y-120396000D03*
X105156000Y-129032000D03*
X90678000Y-108458000D03*
X99568000Y-113792000D03*
X107950000Y-121158000D03*
D26*
X107950000Y-123952000D03*
D25*
X107188000Y-128778000D03*
X90678000Y-86360000D03*
X88900000Y-86360000D03*
X80264000Y-86106000D03*
X90678000Y-97790000D03*
X89154000Y-97790000D03*
X80010000Y-97790000D03*
X79248000Y-109474000D03*
X101854000Y-100584000D03*
D26*
X92964000Y-92710000D03*
D25*
X98044000Y-94488000D03*
X73660000Y-90932000D03*
X78740000Y-90932000D03*
X88900000Y-90170000D03*
X112014000Y-129540000D03*
X89154000Y-101092000D03*
X83820000Y-101092000D03*
X115062000Y-126492000D03*
X98298000Y-105664000D03*
X88392000Y-107696000D03*
X88392000Y-103378000D03*
X103251000Y-130556000D03*
X75438000Y-108204000D03*
X76200000Y-113538000D03*
X76200000Y-120904000D03*
X76708000Y-128778000D03*
X98298000Y-135128000D03*
X101092000Y-135382000D03*
X83058000Y-115570000D03*
X83058000Y-107442000D03*
X78232000Y-98044000D03*
X77978000Y-93726000D03*
X104394000Y-130556000D03*
X89154000Y-104140000D03*
X89154000Y-106934000D03*
X92202000Y-132334000D03*
X66040000Y-114300000D03*
X66040000Y-117856000D03*
X95123000Y-124841000D03*
X66802000Y-113538000D03*
X66802000Y-116078000D03*
X106172000Y-129032000D03*
X109220000Y-120650000D03*
X107442000Y-131572000D03*
X99568000Y-109728000D03*
X106680000Y-132588000D03*
X98298000Y-109728000D03*
X104140000Y-132842000D03*
X100584000Y-71120000D03*
X97790000Y-68834000D03*
X104140000Y-133858000D03*
X108458000Y-133604000D03*
D26*
X114554000Y-134366000D03*
D25*
X108204000Y-132080000D03*
X116586000Y-131064000D03*
X121592300Y-102555000D03*
X123190000Y-118491000D03*
X126492000Y-60833000D03*
X123444000Y-85852000D03*
X99822000Y-122174000D03*
X102362000Y-131826000D03*
X133072000Y-84860000D03*
X132588000Y-93472000D03*
D27*
X123952000Y-139700000D02*
X120650000Y-143002000D01*
X72826000Y-151058000D02*
X72826000Y-137414000D01*
X76962000Y-155194000D02*
X72826000Y-151058000D01*
X103886000Y-155194000D02*
X76962000Y-155194000D01*
X114554000Y-144526000D02*
X103886000Y-155194000D01*
X119126000Y-144526000D02*
X114554000Y-144526000D01*
X120650000Y-143002000D02*
X119126000Y-144526000D01*
D28*
X96774000Y-69850000D02*
X93472000Y-66548000D01*
X93472000Y-66548000D02*
X67564000Y-66548000D01*
X67564000Y-66548000D02*
X65278000Y-68834000D01*
X65278000Y-68834000D02*
X65278000Y-112522000D01*
X123952000Y-139700000D02*
X123952000Y-139700000D01*
X124968000Y-134620000D02*
X124206000Y-134620000D01*
X125730000Y-135382000D02*
X124968000Y-134620000D01*
X125730000Y-137922000D02*
X125730000Y-135382000D01*
X123952000Y-139700000D02*
X125730000Y-137922000D01*
D27*
X116332000Y-134620000D02*
X124206000Y-134620000D01*
X124206000Y-134620000D02*
X124460000Y-134620000D01*
X114046000Y-132334000D02*
X116332000Y-134620000D01*
X98952002Y-126638002D02*
X98806000Y-126492000D01*
X99822000Y-127508000D02*
X98952002Y-126638002D01*
X98952002Y-125075998D02*
X100584000Y-123444000D01*
X100584000Y-123444000D02*
X100838000Y-123444000D01*
X99822000Y-127508000D02*
X100584000Y-127508000D01*
X98806000Y-125222000D02*
X98952002Y-125075998D01*
X98806000Y-126492000D02*
X98806000Y-125222000D01*
X113284000Y-114808000D02*
X113284000Y-113284000D01*
X80772000Y-87884000D02*
X79756000Y-87884000D01*
X78740000Y-88392000D02*
X79756000Y-89408000D01*
X78740000Y-87376000D02*
X78740000Y-88392000D01*
X78232000Y-86868000D02*
X78740000Y-87376000D01*
X71374000Y-125222000D02*
X71374000Y-124714000D01*
X71120000Y-124460000D02*
X71120000Y-120904000D01*
X71374000Y-124714000D02*
X71120000Y-124460000D01*
X69596000Y-110744000D02*
X68072000Y-110744000D01*
X67564000Y-104648000D02*
X67564000Y-108204000D01*
X67564000Y-108204000D02*
X68072000Y-108712000D01*
X69596000Y-108712000D02*
X71120000Y-108712000D01*
X72644000Y-108712000D02*
X72644000Y-109728000D01*
X72644000Y-110744000D02*
X71120000Y-110744000D01*
X69596000Y-110744000D02*
X68072000Y-110744000D01*
X68326000Y-103886000D02*
X67564000Y-104648000D01*
X69088000Y-103886000D02*
X68326000Y-103886000D01*
X81788000Y-103886000D02*
X81788000Y-102616000D01*
X79756000Y-102108000D02*
X78232000Y-102108000D01*
X81788000Y-102616000D02*
X81280000Y-102108000D01*
X89408000Y-121920000D02*
X89408000Y-123444000D01*
X80772000Y-124968000D02*
X80772000Y-124968000D01*
X78486000Y-124968000D02*
X79756000Y-124968000D01*
X79756000Y-125984000D02*
X78486000Y-125984000D01*
X80772000Y-124968000D02*
X80772000Y-125984000D01*
X85852000Y-143256000D02*
X87376000Y-143256000D01*
X80772000Y-149860000D02*
X80264000Y-149860000D01*
X81788000Y-150876000D02*
X80772000Y-149860000D01*
X81788000Y-148844000D02*
X81788000Y-149352000D01*
X82804000Y-147828000D02*
X81788000Y-148844000D01*
X82804000Y-144780000D02*
X82804000Y-146304000D01*
X84328000Y-143256000D02*
X82804000Y-143256000D01*
X101597099Y-143256000D02*
X101600000Y-143256000D01*
X101597091Y-143256008D02*
X101597099Y-143256000D01*
X100584000Y-142240000D02*
X101600000Y-142240000D01*
X100076000Y-143764000D02*
X100584000Y-143256000D01*
X99060000Y-143764000D02*
X100076000Y-143764000D01*
X99060000Y-140716000D02*
X99060000Y-142240000D01*
X71374000Y-125222000D02*
X71628000Y-125222000D01*
X71628000Y-125222000D02*
X80772000Y-124968000D01*
X70612000Y-125984000D02*
X71374000Y-125222000D01*
X68326000Y-137414000D02*
X68326000Y-141732000D01*
X68326000Y-141732000D02*
X68580000Y-141986000D01*
X102108000Y-144780000D02*
X100584000Y-144780000D01*
X103124000Y-143764000D02*
X102108000Y-144780000D01*
X103124000Y-141732000D02*
X103124000Y-143764000D01*
X103886000Y-140970000D02*
X103124000Y-141732000D01*
X100584000Y-144272000D02*
X100584000Y-144780000D01*
X100584000Y-144780000D02*
X100584000Y-145796000D01*
X101854000Y-147066000D02*
X105918000Y-147066000D01*
X100584000Y-145796000D02*
X101854000Y-147066000D01*
X89471500Y-134429500D02*
X83121500Y-134429500D01*
X93218000Y-138176000D02*
X89471500Y-134429500D01*
X78740000Y-116078000D02*
X80010000Y-114808000D01*
X78740000Y-119380000D02*
X78740000Y-116078000D01*
X81280000Y-121920000D02*
X78740000Y-119380000D01*
X81280000Y-124714000D02*
X81280000Y-121920000D01*
X80772000Y-124968000D02*
X81280000Y-124714000D01*
X80772000Y-103886000D02*
X81788000Y-103886000D01*
X80518000Y-104140000D02*
X80772000Y-103886000D01*
X80518000Y-107950000D02*
X80518000Y-104140000D01*
D28*
X69088000Y-92456000D02*
X68834000Y-92456000D01*
X68834000Y-92456000D02*
X67564000Y-93726000D01*
X67564000Y-102362000D02*
X69088000Y-103886000D01*
X67564000Y-93726000D02*
X67564000Y-102362000D01*
X69088000Y-81026000D02*
X68072000Y-81026000D01*
X67564000Y-90932000D02*
X69088000Y-92456000D01*
X67564000Y-81534000D02*
X67564000Y-90932000D01*
X68072000Y-81026000D02*
X67564000Y-81534000D01*
X67056000Y-69596000D02*
X69088000Y-69596000D01*
X66548000Y-70104000D02*
X67056000Y-69596000D01*
X66548000Y-74422000D02*
X66548000Y-70104000D01*
D27*
X105410000Y-111760000D02*
X103124000Y-111760000D01*
X99822000Y-131064000D02*
X99822000Y-128270000D01*
X103251000Y-131953000D02*
X102616000Y-132588000D01*
X102616000Y-132588000D02*
X101346000Y-132588000D01*
X101346000Y-132588000D02*
X99822000Y-131064000D01*
X103251000Y-131572000D02*
X103251000Y-131953000D01*
X99822000Y-128270000D02*
X100584000Y-127508000D01*
X109982000Y-134874000D02*
X112522000Y-137414000D01*
X112522000Y-137414000D02*
X114046000Y-137414000D01*
X114046000Y-137414000D02*
X115824000Y-137414000D01*
X115824000Y-137414000D02*
X116078000Y-137160000D01*
X110744000Y-128016000D02*
X110744000Y-130302000D01*
X110744000Y-130302000D02*
X111105998Y-130663998D01*
X111105998Y-130663998D02*
X112890002Y-130663998D01*
X112890002Y-130663998D02*
X113792000Y-129762000D01*
D28*
X86868000Y-69596000D02*
X84328000Y-69596000D01*
X81788000Y-69596000D02*
X84328000Y-69596000D01*
X79248000Y-69596000D02*
X81788000Y-69596000D01*
X76708000Y-69596000D02*
X79248000Y-69596000D01*
X74168000Y-69596000D02*
X76708000Y-69596000D01*
X86868000Y-69596000D02*
X71628000Y-69596000D01*
X99314000Y-79248000D02*
X107442000Y-79248000D01*
X108045000Y-79851000D02*
X108045000Y-80518000D01*
X107442000Y-79248000D02*
X108045000Y-79851000D01*
D29*
X132588000Y-72517000D02*
X134921000Y-74850000D01*
X128016000Y-72517000D02*
X132588000Y-72517000D01*
X134921000Y-74850000D02*
X135636000Y-74850000D01*
X132715000Y-112141000D02*
X124333000Y-112141000D01*
X132715000Y-112141000D02*
X134112000Y-112141000D01*
X135636000Y-110617000D02*
X134112000Y-112141000D01*
X135636000Y-110617000D02*
X135636000Y-110570000D01*
X100330000Y-144526000D02*
X85852000Y-144526000D01*
X85852000Y-144526000D02*
X85090000Y-144018000D01*
X85090000Y-144018000D02*
X84328000Y-144526000D01*
X84328000Y-144526000D02*
X83566000Y-144526000D01*
X100584000Y-144272000D02*
X100330000Y-144526000D01*
D28*
X113792000Y-120142000D02*
X113792000Y-127762000D01*
X113538000Y-119888000D02*
X113792000Y-120142000D01*
D30*
X76454000Y-137668000D02*
X76454000Y-150368000D01*
X79184500Y-153098500D02*
X76454000Y-150368000D01*
X115316000Y-106807000D02*
X115316000Y-108712000D01*
X117094000Y-110490000D02*
X117094000Y-120396000D01*
X115316000Y-108712000D02*
X117094000Y-110490000D01*
X93472000Y-127762000D02*
X93472000Y-133350000D01*
X95504000Y-125730000D02*
X93472000Y-127762000D01*
D27*
X108204000Y-136906000D02*
X103378000Y-136906000D01*
X108966000Y-136144000D02*
X108204000Y-136906000D01*
D30*
X115316000Y-106807000D02*
X115316000Y-105029000D01*
X115316000Y-105029000D02*
X113030000Y-102743000D01*
X113030000Y-102743000D02*
X105283000Y-102743000D01*
X105283000Y-102743000D02*
X103251000Y-100711000D01*
X103251000Y-100711000D02*
X103251000Y-91440000D01*
X103251000Y-91440000D02*
X104775000Y-89916000D01*
X104775000Y-89916000D02*
X108077000Y-86614000D01*
X108077000Y-86614000D02*
X113030000Y-86614000D01*
X113030000Y-86614000D02*
X115316000Y-84328000D01*
X115316000Y-84328000D02*
X115316000Y-66167000D01*
D28*
X108204000Y-147320000D02*
X110490000Y-147320000D01*
X110490000Y-147320000D02*
X110998000Y-146812000D01*
X110998000Y-146812000D02*
X110998000Y-144780000D01*
X110998000Y-144780000D02*
X108712000Y-142494000D01*
X108712000Y-142494000D02*
X108458000Y-142494000D01*
D27*
X97536000Y-137160000D02*
X97536000Y-137668000D01*
X98806000Y-134112000D02*
X99314000Y-134620000D01*
X99314000Y-134620000D02*
X99314000Y-135382000D01*
X99314000Y-135382000D02*
X97536000Y-137160000D01*
X117094000Y-138176000D02*
X117348000Y-137922000D01*
X98044000Y-138176000D02*
X117094000Y-138176000D01*
X97536000Y-137668000D02*
X98044000Y-138176000D01*
X117348000Y-137922000D02*
X117348000Y-136906000D01*
D28*
X117856000Y-136398000D02*
X117348000Y-136906000D01*
X124460000Y-136398000D02*
X117856000Y-136398000D01*
X124714000Y-136144000D02*
X124460000Y-136398000D01*
X118872000Y-146050000D02*
X114808000Y-146050000D01*
X125730000Y-139192000D02*
X118872000Y-146050000D01*
X124206000Y-138176000D02*
X124460000Y-137922000D01*
D30*
X131445000Y-109855000D02*
X131445000Y-89535000D01*
X131445000Y-74930000D02*
X131445000Y-89535000D01*
X106070400Y-91643200D02*
X108178600Y-89535000D01*
X108178600Y-89535000D02*
X131445000Y-89535000D01*
D28*
X82804000Y-125730000D02*
X82296000Y-126238000D01*
X84328000Y-125730000D02*
X82804000Y-125730000D01*
X85344000Y-125730000D02*
X84328000Y-125730000D01*
X85344000Y-125730000D02*
X91662000Y-125730000D01*
D30*
X95250000Y-108712000D02*
X95250000Y-109982000D01*
X65024000Y-127254000D02*
X66802000Y-129032000D01*
X65024000Y-116586000D02*
X65024000Y-127254000D01*
X69088000Y-112522000D02*
X65024000Y-116586000D01*
X92710000Y-112522000D02*
X69088000Y-112522000D01*
X95250000Y-109982000D02*
X92710000Y-112522000D01*
X75438000Y-129032000D02*
X66802000Y-129032000D01*
X99314000Y-91948000D02*
X99314000Y-96742000D01*
X99314000Y-96742000D02*
X96266000Y-99790000D01*
D28*
X94996000Y-138938000D02*
X88392000Y-138938000D01*
X78994000Y-136398000D02*
X77216000Y-134620000D01*
X85852000Y-136398000D02*
X78994000Y-136398000D01*
X88392000Y-138938000D02*
X85852000Y-136398000D01*
D27*
X98806000Y-138938000D02*
X95504000Y-138938000D01*
X101092000Y-137668000D02*
X99060000Y-137668000D01*
X104394000Y-129540000D02*
X106172000Y-131318000D01*
X106172000Y-131318000D02*
X105918000Y-131064000D01*
X105918000Y-131064000D02*
X105918000Y-133096000D01*
X105918000Y-133096000D02*
X108204000Y-135382000D01*
X108204000Y-135382000D02*
X109220000Y-135382000D01*
X109220000Y-135382000D02*
X109728000Y-135890000D01*
X109728000Y-135890000D02*
X109728000Y-136652000D01*
X109728000Y-136652000D02*
X108712000Y-137668000D01*
X108712000Y-137668000D02*
X101092000Y-137668000D01*
X104394000Y-128524000D02*
X104394000Y-129540000D01*
X99060000Y-137668000D02*
X98806000Y-137414000D01*
X95504000Y-138938000D02*
X94996000Y-138938000D01*
D28*
X77724000Y-133604000D02*
X77724000Y-134112000D01*
X77724000Y-134112000D02*
X77216000Y-134620000D01*
D27*
X100584000Y-80518000D02*
X98298000Y-80518000D01*
X98298000Y-80518000D02*
X96266000Y-78486000D01*
X100076000Y-101346000D02*
X100330000Y-101092000D01*
X98298000Y-111506000D02*
X97028000Y-110236000D01*
X97028000Y-110236000D02*
X97028000Y-107188000D01*
X97028000Y-107188000D02*
X96012000Y-106172000D01*
X96012000Y-106172000D02*
X96012000Y-105410000D01*
X96012000Y-105410000D02*
X100076000Y-101346000D01*
X101854000Y-119126000D02*
X98298000Y-115570000D01*
X98298000Y-115570000D02*
X98298000Y-111506000D01*
X100838000Y-80772000D02*
X100584000Y-80518000D01*
X100838000Y-93726000D02*
X100838000Y-80772000D01*
X100076000Y-94488000D02*
X100838000Y-93726000D01*
X100076000Y-97536000D02*
X100076000Y-94488000D01*
X100584000Y-100838000D02*
X100838000Y-100838000D01*
X100330000Y-101092000D02*
X100584000Y-100838000D01*
D28*
X79756000Y-133350000D02*
X80772000Y-132334000D01*
X80772000Y-132334000D02*
X88900000Y-132334000D01*
X88900000Y-132334000D02*
X89408000Y-131826000D01*
X79756000Y-134620000D02*
X79756000Y-133350000D01*
D27*
X99568000Y-125984000D02*
X101600000Y-125984000D01*
X102108000Y-125476000D02*
X102108000Y-123444000D01*
X101600000Y-125984000D02*
X102108000Y-125476000D01*
X99822000Y-125984000D02*
X99568000Y-125984000D01*
X96266000Y-94488000D02*
X92202000Y-94488000D01*
X87884000Y-117856000D02*
X84328000Y-117856000D01*
X93726000Y-123698000D02*
X87884000Y-117856000D01*
D28*
X85344000Y-89154000D02*
X88900000Y-89154000D01*
X84836000Y-100076000D02*
X89154000Y-100076000D01*
X92202000Y-100076000D02*
X92202000Y-99568000D01*
X90170000Y-110998000D02*
X85852000Y-110998000D01*
X92202000Y-108966000D02*
X90170000Y-110998000D01*
X92202000Y-77470000D02*
X92202000Y-89154000D01*
X92202000Y-89154000D02*
X92202000Y-94488000D01*
X92202000Y-94488000D02*
X92202000Y-99568000D01*
X92202000Y-99568000D02*
X92202000Y-108966000D01*
X89408000Y-74676000D02*
X92202000Y-77470000D01*
X85852000Y-74676000D02*
X89408000Y-74676000D01*
X84328000Y-73152000D02*
X85852000Y-74676000D01*
X84328000Y-73152000D02*
X84328000Y-72136000D01*
X84328000Y-110998000D02*
X85852000Y-110998000D01*
D27*
X98552000Y-124714000D02*
X98298000Y-124968000D01*
X103124000Y-122936000D02*
X102870000Y-122682000D01*
X102870000Y-122682000D02*
X100584000Y-122682000D01*
X100584000Y-122682000D02*
X98552000Y-124714000D01*
X98552000Y-129286000D02*
X99060000Y-129794000D01*
X98171000Y-128905000D02*
X98552000Y-129286000D01*
X98171000Y-125095000D02*
X98171000Y-128905000D01*
X98298000Y-124968000D02*
X98171000Y-125095000D01*
X96774000Y-101346000D02*
X93218000Y-101346000D01*
X88646000Y-124968000D02*
X81788000Y-118110000D01*
X93853000Y-124968000D02*
X88646000Y-124968000D01*
X94234000Y-124587000D02*
X93853000Y-124968000D01*
D28*
X82804000Y-87884000D02*
X88900000Y-87884000D01*
X82296000Y-98806000D02*
X89154000Y-98806000D01*
X91440000Y-108712000D02*
X89916000Y-110236000D01*
X91440000Y-77978000D02*
X91440000Y-87884000D01*
X91440000Y-87884000D02*
X91440000Y-98806000D01*
X91440000Y-98806000D02*
X91440000Y-102362000D01*
X91440000Y-102362000D02*
X91440000Y-108712000D01*
X89408000Y-75946000D02*
X91440000Y-77978000D01*
X84836000Y-75946000D02*
X89408000Y-75946000D01*
X84836000Y-75946000D02*
X81788000Y-72898000D01*
X81788000Y-110236000D02*
X89916000Y-110236000D01*
X81788000Y-72136000D02*
X81788000Y-72898000D01*
D27*
X93726000Y-105410000D02*
X92964000Y-106172000D01*
X92964000Y-106172000D02*
X92964000Y-106934000D01*
X92964000Y-106934000D02*
X92964000Y-107442000D01*
X100584000Y-107442000D02*
X98552000Y-107442000D01*
X112268000Y-127762000D02*
X112268000Y-113030000D01*
X112268000Y-113030000D02*
X106680000Y-107442000D01*
X106680000Y-107442000D02*
X100584000Y-107442000D01*
X98552000Y-107442000D02*
X96774000Y-105664000D01*
X74168000Y-110490000D02*
X74168000Y-106426000D01*
X75438000Y-111760000D02*
X74168000Y-110490000D01*
X91186000Y-111760000D02*
X75438000Y-111760000D01*
X91440000Y-111506000D02*
X91186000Y-111760000D01*
X95250000Y-113538000D02*
X92456000Y-113538000D01*
X95504000Y-113284000D02*
X95250000Y-113538000D01*
X108204000Y-113030000D02*
X100076000Y-113030000D01*
X110236000Y-115062000D02*
X108204000Y-113030000D01*
X110236000Y-124714000D02*
X110236000Y-115062000D01*
X105156000Y-129032000D02*
X105156000Y-128270000D01*
X104648000Y-121666000D02*
X105156000Y-122174000D01*
X89154000Y-113538000D02*
X78740000Y-113538000D01*
X96012000Y-120396000D02*
X89154000Y-113538000D01*
X99314000Y-120396000D02*
X98552000Y-120396000D01*
X100584000Y-121666000D02*
X99314000Y-120396000D01*
X103632000Y-121666000D02*
X100584000Y-121666000D01*
X103632000Y-121666000D02*
X104648000Y-121666000D01*
X105664000Y-122682000D02*
X105156000Y-122174000D01*
X105664000Y-127762000D02*
X105664000Y-122682000D01*
X105156000Y-128270000D02*
X105664000Y-127762000D01*
D28*
X76708000Y-83566000D02*
X76708000Y-84328000D01*
X76708000Y-84328000D02*
X77724000Y-85344000D01*
X77724000Y-85344000D02*
X89916000Y-85344000D01*
X76708000Y-94996000D02*
X76708000Y-96266000D01*
X77470000Y-97028000D02*
X89916000Y-97028000D01*
X76708000Y-96266000D02*
X77470000Y-97028000D01*
X85344000Y-108712000D02*
X78994000Y-108712000D01*
X76708000Y-72136000D02*
X82804000Y-78232000D01*
X89916000Y-107950000D02*
X89154000Y-108712000D01*
X89916000Y-80010000D02*
X89916000Y-85344000D01*
X89916000Y-85344000D02*
X89916000Y-97028000D01*
X89916000Y-97028000D02*
X89916000Y-107950000D01*
X89662000Y-79756000D02*
X89916000Y-80010000D01*
X88138000Y-78232000D02*
X89662000Y-79756000D01*
X82804000Y-78232000D02*
X88138000Y-78232000D01*
X89154000Y-108712000D02*
X85344000Y-108712000D01*
X78994000Y-108712000D02*
X76708000Y-106426000D01*
D27*
X100584000Y-113792000D02*
X99568000Y-113792000D01*
X107950000Y-121158000D02*
X100584000Y-113792000D01*
X106680000Y-125222000D02*
X107950000Y-123952000D01*
X106680000Y-128270000D02*
X106680000Y-125222000D01*
X107188000Y-128778000D02*
X106680000Y-128270000D01*
D28*
X80518000Y-86360000D02*
X88900000Y-86360000D01*
X80264000Y-86106000D02*
X80518000Y-86360000D01*
X80010000Y-97790000D02*
X89154000Y-97790000D01*
X90678000Y-108458000D02*
X89662000Y-109474000D01*
X90678000Y-78486000D02*
X90678000Y-86360000D01*
X90678000Y-86360000D02*
X90678000Y-97790000D01*
X90678000Y-97790000D02*
X90678000Y-108458000D01*
X89408000Y-77216000D02*
X90678000Y-78486000D01*
X84074000Y-77216000D02*
X89408000Y-77216000D01*
X84074000Y-77216000D02*
X79248000Y-72390000D01*
X79248000Y-109474000D02*
X89662000Y-109474000D01*
X79248000Y-72136000D02*
X79248000Y-72390000D01*
D27*
X96266000Y-92710000D02*
X93726000Y-92710000D01*
X98044000Y-94488000D02*
X96266000Y-92710000D01*
X93726000Y-92710000D02*
X92964000Y-92710000D01*
X71628000Y-94996000D02*
X72898000Y-93726000D01*
X72898000Y-91694000D02*
X72898000Y-93726000D01*
X73152000Y-91440000D02*
X72898000Y-91694000D01*
X73660000Y-90932000D02*
X73152000Y-91440000D01*
X88138000Y-90932000D02*
X78740000Y-90932000D01*
X88900000Y-90170000D02*
X88138000Y-90932000D01*
X101854000Y-100584000D02*
X101854000Y-101600000D01*
X112014000Y-129540000D02*
X112776000Y-128778000D01*
X112776000Y-128778000D02*
X115062000Y-128778000D01*
X115062000Y-128778000D02*
X115824000Y-128016000D01*
X115824000Y-128016000D02*
X115824000Y-113538000D01*
X115824000Y-113538000D02*
X107442000Y-105156000D01*
X107442000Y-105156000D02*
X105410000Y-105156000D01*
X101854000Y-100838000D02*
X101854000Y-100584000D01*
X101854000Y-101600000D02*
X105410000Y-105156000D01*
X89154000Y-101092000D02*
X83820000Y-101092000D01*
X115062000Y-126492000D02*
X115062000Y-114046000D01*
X115062000Y-114046000D02*
X106680000Y-105664000D01*
X106680000Y-105664000D02*
X98298000Y-105664000D01*
D28*
X88392000Y-103886000D02*
X88392000Y-107696000D01*
X88392000Y-103378000D02*
X88392000Y-103886000D01*
D27*
X104902000Y-132334000D02*
X104902000Y-134620000D01*
X103251000Y-130556000D02*
X104902000Y-132334000D01*
X88138000Y-128778000D02*
X90424000Y-131064000D01*
X90424000Y-131064000D02*
X90424000Y-133604000D01*
X90424000Y-133604000D02*
X91186000Y-134366000D01*
X91186000Y-134366000D02*
X93218000Y-134366000D01*
X71628000Y-85344000D02*
X71628000Y-83566000D01*
X75438000Y-89154000D02*
X71628000Y-85344000D01*
X75438000Y-102362000D02*
X75438000Y-89154000D01*
X75438000Y-108204000D02*
X75438000Y-102362000D01*
X76200000Y-116078000D02*
X76200000Y-113538000D01*
X76200000Y-120904000D02*
X76200000Y-116078000D01*
X87630000Y-128778000D02*
X76708000Y-128778000D01*
X97536000Y-134366000D02*
X93218000Y-134366000D01*
X98298000Y-135128000D02*
X97536000Y-134366000D01*
X104140000Y-135382000D02*
X101092000Y-135382000D01*
X87630000Y-128778000D02*
X88138000Y-128778000D01*
X104902000Y-134620000D02*
X104140000Y-135382000D01*
X96266000Y-130556000D02*
X96266000Y-123190000D01*
X96266000Y-123190000D02*
X88646000Y-115570000D01*
X88646000Y-115570000D02*
X83058000Y-115570000D01*
X83058000Y-107442000D02*
X83058000Y-101854000D01*
X83058000Y-101854000D02*
X80518000Y-99314000D01*
X80518000Y-99314000D02*
X79502000Y-99314000D01*
X79502000Y-99314000D02*
X78232000Y-98044000D01*
X77978000Y-93726000D02*
X77978000Y-88900000D01*
X77978000Y-88900000D02*
X74168000Y-85090000D01*
X74168000Y-85090000D02*
X74168000Y-83566000D01*
X101854000Y-136144000D02*
X100838000Y-136144000D01*
X105410000Y-131572000D02*
X105410000Y-135128000D01*
X105410000Y-135128000D02*
X104394000Y-136144000D01*
X104394000Y-136144000D02*
X101854000Y-136144000D01*
X104394000Y-130556000D02*
X105410000Y-131572000D01*
X100076000Y-134366000D02*
X97536000Y-131826000D01*
X100076000Y-135382000D02*
X100076000Y-134366000D01*
X100838000Y-136144000D02*
X100076000Y-135382000D01*
X97536000Y-131826000D02*
X96266000Y-130556000D01*
D28*
X89154000Y-104140000D02*
X89154000Y-106934000D01*
D27*
X87630000Y-127762000D02*
X91186000Y-127762000D01*
X71120000Y-72644000D02*
X71120000Y-73152000D01*
X66802000Y-126746000D02*
X66040000Y-125984000D01*
X67818000Y-127762000D02*
X66802000Y-126746000D01*
X87630000Y-127762000D02*
X67818000Y-127762000D01*
X66802000Y-77470000D02*
X69850000Y-74422000D01*
X66040000Y-78232000D02*
X66802000Y-77470000D01*
X66040000Y-81534000D02*
X66040000Y-78232000D01*
X66040000Y-104394000D02*
X66040000Y-81534000D01*
X66040000Y-114300000D02*
X66040000Y-104394000D01*
X66040000Y-125984000D02*
X66040000Y-117856000D01*
X69850000Y-74422000D02*
X71120000Y-73152000D01*
X92202000Y-128778000D02*
X92202000Y-132334000D01*
X91186000Y-127762000D02*
X92202000Y-128778000D01*
X71120000Y-72644000D02*
X71628000Y-72136000D01*
X67564000Y-126746000D02*
X66802000Y-125984000D01*
X95123000Y-124841000D02*
X92602002Y-127361998D01*
X92602002Y-127361998D02*
X68179998Y-127361998D01*
X68179998Y-127361998D02*
X67564000Y-126746000D01*
X66802000Y-79248000D02*
X73914000Y-72136000D01*
X66802000Y-87376000D02*
X66802000Y-79248000D01*
X66802000Y-99314000D02*
X66802000Y-87376000D01*
X66802000Y-113538000D02*
X66802000Y-99314000D01*
X66802000Y-116840000D02*
X66802000Y-116078000D01*
X66802000Y-125984000D02*
X66802000Y-116840000D01*
X73914000Y-72136000D02*
X74168000Y-72136000D01*
X106172000Y-124714000D02*
X106172000Y-123952000D01*
X106172000Y-124714000D02*
X106172000Y-129032000D01*
X109220000Y-121412000D02*
X109220000Y-120650000D01*
X108458000Y-122174000D02*
X109220000Y-121412000D01*
X107950000Y-122174000D02*
X108458000Y-122174000D01*
X106172000Y-123952000D02*
X107950000Y-122174000D01*
X107442000Y-131572000D02*
X107442000Y-130302000D01*
X107442000Y-109728000D02*
X99568000Y-109728000D01*
X111506000Y-113792000D02*
X107442000Y-109728000D01*
X111506000Y-126238000D02*
X111506000Y-113792000D01*
X107442000Y-130302000D02*
X111506000Y-126238000D01*
X106680000Y-132588000D02*
X106680000Y-130302000D01*
X99060000Y-110490000D02*
X98298000Y-109728000D01*
X107188000Y-110490000D02*
X99060000Y-110490000D01*
X110998000Y-114300000D02*
X107188000Y-110490000D01*
X110998000Y-125984000D02*
X110998000Y-114300000D01*
X106680000Y-130302000D02*
X110998000Y-125984000D01*
X100838000Y-133096000D02*
X103886000Y-133096000D01*
X97536000Y-129794000D02*
X97536000Y-113284000D01*
X108966000Y-82550000D02*
X109728000Y-81788000D01*
X109728000Y-81788000D02*
X109728000Y-78486000D01*
X109728000Y-78486000D02*
X105410000Y-74168000D01*
X105410000Y-74168000D02*
X101600000Y-74168000D01*
X101600000Y-74168000D02*
X100584000Y-73152000D01*
X100584000Y-73152000D02*
X100584000Y-71120000D01*
X105156000Y-82550000D02*
X108458000Y-82550000D01*
X102108000Y-85598000D02*
X105156000Y-82550000D01*
X102108000Y-98552000D02*
X102108000Y-85598000D01*
X97536000Y-103124000D02*
X102108000Y-98552000D01*
X100838000Y-133096000D02*
X97536000Y-129794000D01*
X108458000Y-82550000D02*
X108966000Y-82550000D01*
X95504000Y-105156000D02*
X97536000Y-103124000D01*
X95504000Y-106680000D02*
X95504000Y-105156000D01*
X96520000Y-107696000D02*
X95504000Y-106680000D01*
X96520000Y-112268000D02*
X96520000Y-107696000D01*
X97536000Y-113284000D02*
X96520000Y-112268000D01*
X103886000Y-133096000D02*
X104140000Y-132842000D01*
X96774000Y-102870000D02*
X94742000Y-104902000D01*
X108458000Y-82042000D02*
X109220000Y-81280000D01*
X109220000Y-81280000D02*
X109220000Y-79248000D01*
X109220000Y-79248000D02*
X104902000Y-74930000D01*
X104902000Y-74930000D02*
X98806000Y-74930000D01*
X98806000Y-74930000D02*
X97790000Y-73914000D01*
X97790000Y-73914000D02*
X97790000Y-68834000D01*
X104140000Y-133858000D02*
X100584000Y-133858000D01*
X104902000Y-82042000D02*
X108204000Y-82042000D01*
X101600000Y-85344000D02*
X104902000Y-82042000D01*
X101600000Y-98044000D02*
X101600000Y-85344000D01*
X96774000Y-102870000D02*
X101600000Y-98044000D01*
X100584000Y-133858000D02*
X96774000Y-130048000D01*
X108204000Y-82042000D02*
X108458000Y-82042000D01*
X96774000Y-113284000D02*
X96774000Y-130048000D01*
X96012000Y-112522000D02*
X96774000Y-113284000D01*
X96012000Y-108204000D02*
X96012000Y-112522000D01*
X94742000Y-106934000D02*
X96012000Y-108204000D01*
X94742000Y-104902000D02*
X94742000Y-106934000D01*
X108458000Y-133604000D02*
X113792000Y-133604000D01*
X113792000Y-133604000D02*
X114554000Y-134366000D01*
X108966000Y-131064000D02*
X108712000Y-131064000D01*
X108966000Y-131064000D02*
X116586000Y-131064000D01*
X108204000Y-131572000D02*
X108204000Y-132080000D01*
X108712000Y-131064000D02*
X108204000Y-131572000D01*
D30*
X121592300Y-102555000D02*
X121592300Y-102542300D01*
X104394000Y-100330000D02*
X104394000Y-91948000D01*
X104394000Y-91948000D02*
X108204000Y-88138000D01*
X108204000Y-88138000D02*
X121158000Y-88138000D01*
X121158000Y-88138000D02*
X123444000Y-85852000D01*
X105664000Y-101600000D02*
X104394000Y-100330000D01*
X120650000Y-101600000D02*
X105664000Y-101600000D01*
X121592300Y-102542300D02*
X120650000Y-101600000D01*
X121589800Y-102552500D02*
X121589800Y-102557500D01*
X121589800Y-102557500D02*
X121592300Y-102555000D01*
X121589800Y-102552500D02*
X121589800Y-105105200D01*
X120015000Y-118491000D02*
X123190000Y-118491000D01*
X118364000Y-116840000D02*
X120015000Y-118491000D01*
X118364000Y-108331000D02*
X118364000Y-116840000D01*
X121589800Y-105105200D02*
X118364000Y-108331000D01*
X123444000Y-85852000D02*
X123444000Y-79883000D01*
X126492000Y-76835000D02*
X126492000Y-60833000D01*
X123444000Y-79883000D02*
X126492000Y-76835000D01*
X121589800Y-102552500D02*
X121602500Y-102539800D01*
D27*
X104648000Y-122428000D02*
X105156000Y-122936000D01*
X104394000Y-122174000D02*
X104648000Y-122428000D01*
X99822000Y-122174000D02*
X103378000Y-122174000D01*
X103378000Y-122174000D02*
X104394000Y-122174000D01*
X105156000Y-124714000D02*
X104394000Y-125476000D01*
X105156000Y-122936000D02*
X105156000Y-124714000D01*
X102362000Y-131826000D02*
X102362000Y-127508000D01*
X102362000Y-127508000D02*
X104394000Y-125476000D01*
X104394000Y-125476000D02*
X104648000Y-125222000D01*
D29*
X132588000Y-85344000D02*
X132588000Y-93472000D01*
X133072000Y-84860000D02*
X132588000Y-85344000D01*
D31*
G36*
X87503000Y-141276606D02*
X87503000Y-143965394D01*
X86778197Y-144690197D01*
X86750334Y-144732211D01*
X86741000Y-144780000D01*
X86741000Y-148029394D01*
X86307394Y-148463000D01*
X82348606Y-148463000D01*
X81915000Y-148029394D01*
X81915000Y-146102606D01*
X83401803Y-144615803D01*
X83429666Y-144573789D01*
X83439000Y-144526000D01*
X83439000Y-141022606D01*
X83872606Y-140589000D01*
X86815394Y-140589000D01*
X87503000Y-141276606D01*
X87503000Y-141276606D01*
G37*
X87503000Y-141276606D02*
X87503000Y-143965394D01*
X86778197Y-144690197D01*
X86750334Y-144732211D01*
X86741000Y-144780000D01*
X86741000Y-148029394D01*
X86307394Y-148463000D01*
X82348606Y-148463000D01*
X81915000Y-148029394D01*
X81915000Y-146102606D01*
X83401803Y-144615803D01*
X83429666Y-144573789D01*
X83439000Y-144526000D01*
X83439000Y-141022606D01*
X83872606Y-140589000D01*
X86815394Y-140589000D01*
X87503000Y-141276606D01*
G36*
X143383000Y-157861000D02*
X63627000Y-157861000D01*
X63627000Y-155128619D01*
X64820613Y-155128619D01*
X65160155Y-155950372D01*
X65788321Y-156579636D01*
X66609481Y-156920611D01*
X67498619Y-156921387D01*
X68320372Y-156581845D01*
X68949636Y-155953679D01*
X69290611Y-155132519D01*
X69291387Y-154243381D01*
X68951845Y-153421628D01*
X68323679Y-152792364D01*
X67502519Y-152451389D01*
X66613381Y-152450613D01*
X65791628Y-152790155D01*
X65162364Y-153418321D01*
X64821389Y-154239481D01*
X64820613Y-155128619D01*
X63627000Y-155128619D01*
X63627000Y-147443265D01*
X66674670Y-147443265D01*
X66964078Y-148143686D01*
X67499495Y-148680039D01*
X68199410Y-148970668D01*
X68957265Y-148971330D01*
X69657686Y-148681922D01*
X70194039Y-148146505D01*
X70484668Y-147446590D01*
X70485330Y-146688735D01*
X70195922Y-145988314D01*
X69660505Y-145451961D01*
X68960590Y-145161332D01*
X68202735Y-145160670D01*
X67502314Y-145450078D01*
X66965961Y-145985495D01*
X66675332Y-146685410D01*
X66674670Y-147443265D01*
X63627000Y-147443265D01*
X63627000Y-116586000D01*
X64089000Y-116586000D01*
X64089000Y-127254000D01*
X64160173Y-127611809D01*
X64362855Y-127915145D01*
X65916852Y-129469142D01*
X65966471Y-129589229D01*
X66243314Y-129866555D01*
X66605212Y-130016828D01*
X66997069Y-130017170D01*
X67118490Y-129967000D01*
X71460393Y-129967000D01*
X71440722Y-129986637D01*
X71191284Y-130587352D01*
X71190716Y-131237795D01*
X71439106Y-131838943D01*
X71898637Y-132299278D01*
X72499352Y-132548716D01*
X73149795Y-132549284D01*
X73750943Y-132300894D01*
X74211278Y-131841363D01*
X74460716Y-131240648D01*
X74461284Y-130590205D01*
X74212894Y-129989057D01*
X74190876Y-129967000D01*
X75438000Y-129967000D01*
X75795809Y-129895827D01*
X76099145Y-129693145D01*
X76152194Y-129613751D01*
X76511212Y-129762828D01*
X76903069Y-129763170D01*
X77265229Y-129613529D01*
X77365933Y-129513000D01*
X87833554Y-129513000D01*
X89176455Y-130855902D01*
X88850771Y-130990471D01*
X88573445Y-131267314D01*
X88446098Y-131574000D01*
X80772000Y-131574000D01*
X80481161Y-131631852D01*
X80234599Y-131796599D01*
X79218599Y-132812599D01*
X79053852Y-133059161D01*
X79036065Y-133148581D01*
X78696330Y-133375585D01*
X78686757Y-133389913D01*
X78682762Y-133368683D01*
X78543690Y-133152559D01*
X78331490Y-133007569D01*
X78104159Y-132961533D01*
X78014839Y-132901852D01*
X77724000Y-132844000D01*
X77433161Y-132901852D01*
X77351284Y-132956560D01*
X76352400Y-132956560D01*
X76117083Y-133000838D01*
X75900959Y-133139910D01*
X75755969Y-133352110D01*
X75704960Y-133604000D01*
X75704960Y-135636000D01*
X75749238Y-135871317D01*
X75888310Y-136087441D01*
X76100510Y-136232431D01*
X76352400Y-136283440D01*
X77804638Y-136283440D01*
X78456599Y-136935401D01*
X78703161Y-137100148D01*
X78994000Y-137158000D01*
X85537198Y-137158000D01*
X87854599Y-139475401D01*
X88101160Y-139640148D01*
X88149414Y-139649746D01*
X88392000Y-139698000D01*
X94996000Y-139698000D01*
X95121682Y-139673000D01*
X98147932Y-139673000D01*
X98247314Y-139772555D01*
X98609212Y-139922828D01*
X99001069Y-139923170D01*
X99363229Y-139773529D01*
X99640555Y-139496686D01*
X99790828Y-139134788D01*
X99791023Y-138911000D01*
X117094000Y-138911000D01*
X117375272Y-138855051D01*
X117613723Y-138695723D01*
X117867723Y-138441724D01*
X118027051Y-138203272D01*
X118046908Y-138103445D01*
X118083000Y-137922000D01*
X118083000Y-137564068D01*
X118182555Y-137464686D01*
X118309902Y-137158000D01*
X123831117Y-137158000D01*
X123625445Y-137363314D01*
X123475172Y-137725212D01*
X123474905Y-138030684D01*
X123446000Y-138176000D01*
X123503852Y-138466839D01*
X123668599Y-138713401D01*
X123785612Y-138791586D01*
X123414599Y-139162599D01*
X123343406Y-139269147D01*
X120130279Y-142482275D01*
X120130276Y-142482277D01*
X118821554Y-143791000D01*
X114554000Y-143791000D01*
X114272728Y-143846949D01*
X114034276Y-144006277D01*
X111758000Y-146282553D01*
X111758000Y-144780000D01*
X111718861Y-144583238D01*
X111700148Y-144489160D01*
X111535401Y-144242599D01*
X109338562Y-142045760D01*
X109293529Y-141936771D01*
X109016686Y-141659445D01*
X108654788Y-141509172D01*
X108262931Y-141508830D01*
X107900771Y-141658471D01*
X107623445Y-141935314D01*
X107473172Y-142297212D01*
X107472830Y-142689069D01*
X107622471Y-143051229D01*
X107899314Y-143328555D01*
X108261212Y-143478828D01*
X108622341Y-143479143D01*
X110238000Y-145094802D01*
X110238000Y-146497198D01*
X110175198Y-146560000D01*
X108837111Y-146560000D01*
X108762686Y-146485445D01*
X108400788Y-146335172D01*
X108008931Y-146334830D01*
X107646771Y-146484471D01*
X107369445Y-146761314D01*
X107219172Y-147123212D01*
X107218830Y-147515069D01*
X107368471Y-147877229D01*
X107645314Y-148154555D01*
X108007212Y-148304828D01*
X108399069Y-148305170D01*
X108761229Y-148155529D01*
X108836890Y-148080000D01*
X109960553Y-148080000D01*
X103581554Y-154459000D01*
X77266447Y-154459000D01*
X73561000Y-150753554D01*
X73561000Y-138879377D01*
X73750943Y-138800894D01*
X74211278Y-138341363D01*
X74409882Y-137863069D01*
X75468830Y-137863069D01*
X75519000Y-137984490D01*
X75519000Y-150368000D01*
X75590173Y-150725809D01*
X75792855Y-151029145D01*
X77887060Y-153123350D01*
X77887060Y-153748500D01*
X77931338Y-153983817D01*
X78070410Y-154199941D01*
X78282610Y-154344931D01*
X78534500Y-154395940D01*
X79834500Y-154395940D01*
X80069817Y-154351662D01*
X80285941Y-154212590D01*
X80430931Y-154000390D01*
X80481940Y-153748500D01*
X80481940Y-152448500D01*
X80437662Y-152213183D01*
X80298590Y-151997059D01*
X80086390Y-151852069D01*
X79834500Y-151801060D01*
X79209350Y-151801060D01*
X77389000Y-149980710D01*
X77389000Y-146050000D01*
X81661000Y-146050000D01*
X81661000Y-148082000D01*
X81670334Y-148129789D01*
X81698197Y-148171803D01*
X82206197Y-148679803D01*
X82246590Y-148706994D01*
X82296000Y-148717000D01*
X86360000Y-148717000D01*
X86407789Y-148707666D01*
X86449803Y-148679803D01*
X86957803Y-148171803D01*
X86984994Y-148131410D01*
X86995000Y-148082000D01*
X86995000Y-144832606D01*
X87443606Y-144384000D01*
X105890560Y-144384000D01*
X105890560Y-145684000D01*
X105934838Y-145919317D01*
X106073910Y-146135441D01*
X106286110Y-146280431D01*
X106538000Y-146331440D01*
X107838000Y-146331440D01*
X108073317Y-146287162D01*
X108289441Y-146148090D01*
X108434431Y-145935890D01*
X108485440Y-145684000D01*
X108485440Y-144384000D01*
X108441162Y-144148683D01*
X108302090Y-143932559D01*
X108089890Y-143787569D01*
X107838000Y-143736560D01*
X106538000Y-143736560D01*
X106302683Y-143780838D01*
X106086559Y-143919910D01*
X105941569Y-144132110D01*
X105890560Y-144384000D01*
X87443606Y-144384000D01*
X87719803Y-144107803D01*
X87746994Y-144067410D01*
X87757000Y-144018000D01*
X87757000Y-141224000D01*
X87747666Y-141176211D01*
X87719803Y-141134197D01*
X86957803Y-140372197D01*
X86917410Y-140345006D01*
X86868000Y-140335000D01*
X86146514Y-140335000D01*
X86191441Y-140306090D01*
X86336431Y-140093890D01*
X86387440Y-139842000D01*
X86387440Y-138542000D01*
X86343162Y-138306683D01*
X86204090Y-138090559D01*
X85991890Y-137945569D01*
X85740000Y-137894560D01*
X84440000Y-137894560D01*
X84204683Y-137938838D01*
X83988559Y-138077910D01*
X83843569Y-138290110D01*
X83792560Y-138542000D01*
X83792560Y-139842000D01*
X83836838Y-140077317D01*
X83975910Y-140293441D01*
X84036734Y-140335000D01*
X83820000Y-140335000D01*
X83772211Y-140344334D01*
X83730197Y-140372197D01*
X83222197Y-140880197D01*
X83195006Y-140920590D01*
X83185000Y-140970000D01*
X83185000Y-144473394D01*
X81698197Y-145960197D01*
X81671006Y-146000590D01*
X81661000Y-146050000D01*
X77389000Y-146050000D01*
X77389000Y-137984787D01*
X77438828Y-137864788D01*
X77439170Y-137472931D01*
X77289529Y-137110771D01*
X77012686Y-136833445D01*
X76650788Y-136683172D01*
X76258931Y-136682830D01*
X75896771Y-136832471D01*
X75619445Y-137109314D01*
X75469172Y-137471212D01*
X75468830Y-137863069D01*
X74409882Y-137863069D01*
X74460716Y-137740648D01*
X74461284Y-137090205D01*
X74212894Y-136489057D01*
X73753363Y-136028722D01*
X73152648Y-135779284D01*
X72502205Y-135778716D01*
X71901057Y-136027106D01*
X71440722Y-136486637D01*
X71191284Y-137087352D01*
X71190716Y-137737795D01*
X71439106Y-138338943D01*
X71898637Y-138799278D01*
X72091000Y-138879154D01*
X72091000Y-151058000D01*
X72125577Y-151231827D01*
X72146949Y-151339272D01*
X72306277Y-151577723D01*
X76442276Y-155713723D01*
X76680728Y-155873051D01*
X76962000Y-155929000D01*
X103886000Y-155929000D01*
X104167272Y-155873051D01*
X104405723Y-155713723D01*
X104990827Y-155128619D01*
X137718613Y-155128619D01*
X138058155Y-155950372D01*
X138686321Y-156579636D01*
X139507481Y-156920611D01*
X140396619Y-156921387D01*
X141218372Y-156581845D01*
X141847636Y-155953679D01*
X142188611Y-155132519D01*
X142189387Y-154243381D01*
X141849845Y-153421628D01*
X141221679Y-152792364D01*
X140400519Y-152451389D01*
X139511381Y-152450613D01*
X138689628Y-152790155D01*
X138060364Y-153418321D01*
X137719389Y-154239481D01*
X137718613Y-155128619D01*
X104990827Y-155128619D01*
X109639446Y-150480000D01*
X127734560Y-150480000D01*
X127734560Y-151780000D01*
X127778838Y-152015317D01*
X127917910Y-152231441D01*
X128130110Y-152376431D01*
X128382000Y-152427440D01*
X129682000Y-152427440D01*
X129917317Y-152383162D01*
X130133441Y-152244090D01*
X130212687Y-152128109D01*
X130303155Y-152218735D01*
X130775276Y-152414777D01*
X131286481Y-152415223D01*
X131758943Y-152220005D01*
X132120735Y-151858845D01*
X132316777Y-151386724D01*
X132317223Y-150875519D01*
X132122005Y-150403057D01*
X131760845Y-150041265D01*
X131288724Y-149845223D01*
X130777519Y-149844777D01*
X130305057Y-150039995D01*
X130212746Y-150132145D01*
X130146090Y-150028559D01*
X129933890Y-149883569D01*
X129682000Y-149832560D01*
X128382000Y-149832560D01*
X128146683Y-149876838D01*
X127930559Y-150015910D01*
X127785569Y-150228110D01*
X127734560Y-150480000D01*
X109639446Y-150480000D01*
X112179446Y-147940000D01*
X113764560Y-147940000D01*
X113764560Y-149240000D01*
X113808838Y-149475317D01*
X113947910Y-149691441D01*
X114160110Y-149836431D01*
X114412000Y-149887440D01*
X115712000Y-149887440D01*
X115947317Y-149843162D01*
X116163441Y-149704090D01*
X116308431Y-149491890D01*
X116359440Y-149240000D01*
X116359440Y-147940000D01*
X116315162Y-147704683D01*
X116176090Y-147488559D01*
X115963890Y-147343569D01*
X115712000Y-147292560D01*
X114412000Y-147292560D01*
X114176683Y-147336838D01*
X113960559Y-147475910D01*
X113815569Y-147688110D01*
X113764560Y-147940000D01*
X112179446Y-147940000D01*
X113837902Y-146281545D01*
X113972471Y-146607229D01*
X114249314Y-146884555D01*
X114611212Y-147034828D01*
X115003069Y-147035170D01*
X115365229Y-146885529D01*
X115440890Y-146810000D01*
X118872000Y-146810000D01*
X119162839Y-146752148D01*
X119409401Y-146587401D01*
X124550736Y-141446066D01*
X124570115Y-141543489D01*
X124894971Y-142029670D01*
X125209752Y-142240000D01*
X124894971Y-142450330D01*
X124570115Y-142936511D01*
X124456041Y-143510000D01*
X124570115Y-144083489D01*
X124894971Y-144569670D01*
X125209752Y-144780000D01*
X124894971Y-144990330D01*
X124570115Y-145476511D01*
X124456041Y-146050000D01*
X124570115Y-146623489D01*
X124894971Y-147109670D01*
X125381152Y-147434526D01*
X125954641Y-147548600D01*
X126013359Y-147548600D01*
X126586848Y-147434526D01*
X127052442Y-147123426D01*
X127057238Y-147148917D01*
X127196310Y-147365041D01*
X127408510Y-147510031D01*
X127660400Y-147561040D01*
X129387600Y-147561040D01*
X129622917Y-147516762D01*
X129839041Y-147377690D01*
X129984031Y-147165490D01*
X130035040Y-146913600D01*
X130035040Y-146304000D01*
X133459173Y-146304000D01*
X133595048Y-146987090D01*
X133981987Y-147566186D01*
X134561083Y-147953125D01*
X135244173Y-148089000D01*
X136027827Y-148089000D01*
X136710917Y-147953125D01*
X137290013Y-147566186D01*
X137676952Y-146987090D01*
X137812827Y-146304000D01*
X137676952Y-145620910D01*
X137290013Y-145041814D01*
X136710917Y-144654875D01*
X136027827Y-144519000D01*
X135244173Y-144519000D01*
X134561083Y-144654875D01*
X133981987Y-145041814D01*
X133595048Y-145620910D01*
X133459173Y-146304000D01*
X130035040Y-146304000D01*
X130035040Y-145186400D01*
X129990762Y-144951083D01*
X129851690Y-144734959D01*
X129639490Y-144589969D01*
X129595869Y-144581136D01*
X129613029Y-144569670D01*
X129937885Y-144083489D01*
X130051959Y-143510000D01*
X129937885Y-142936511D01*
X129613029Y-142450330D01*
X129298248Y-142240000D01*
X129613029Y-142029670D01*
X129937885Y-141543489D01*
X130051959Y-140970000D01*
X129937885Y-140396511D01*
X129613029Y-139910330D01*
X129126848Y-139585474D01*
X128553359Y-139471400D01*
X128494641Y-139471400D01*
X127921152Y-139585474D01*
X127434971Y-139910330D01*
X127254000Y-140181172D01*
X127073029Y-139910330D01*
X126623099Y-139609696D01*
X126714828Y-139388788D01*
X126715170Y-138996931D01*
X126565529Y-138634771D01*
X126316745Y-138385553D01*
X126432148Y-138212839D01*
X126490000Y-137922000D01*
X126490000Y-135494000D01*
X127734560Y-135494000D01*
X127734560Y-136794000D01*
X127778838Y-137029317D01*
X127917910Y-137245441D01*
X128130110Y-137390431D01*
X128382000Y-137441440D01*
X129682000Y-137441440D01*
X129917317Y-137397162D01*
X130133441Y-137258090D01*
X130212687Y-137142109D01*
X130303155Y-137232735D01*
X130775276Y-137428777D01*
X131286481Y-137429223D01*
X131758943Y-137234005D01*
X132120735Y-136872845D01*
X132316777Y-136400724D01*
X132317223Y-135889519D01*
X132122005Y-135417057D01*
X131760845Y-135055265D01*
X131288724Y-134859223D01*
X130777519Y-134858777D01*
X130305057Y-135053995D01*
X130212746Y-135146145D01*
X130146090Y-135042559D01*
X129933890Y-134897569D01*
X129682000Y-134846560D01*
X128382000Y-134846560D01*
X128146683Y-134890838D01*
X127930559Y-135029910D01*
X127785569Y-135242110D01*
X127734560Y-135494000D01*
X126490000Y-135494000D01*
X126490000Y-135382000D01*
X126432148Y-135091161D01*
X126267401Y-134844599D01*
X125505401Y-134082599D01*
X125258839Y-133917852D01*
X124968000Y-133860000D01*
X124206000Y-133860000D01*
X124080318Y-133885000D01*
X116636447Y-133885000D01*
X115031047Y-132279601D01*
X115031170Y-132138931D01*
X114890714Y-131799000D01*
X115927932Y-131799000D01*
X116027314Y-131898555D01*
X116389212Y-132048828D01*
X116781069Y-132049170D01*
X117143229Y-131899529D01*
X117420555Y-131622686D01*
X117570828Y-131260788D01*
X117571170Y-130868931D01*
X117421529Y-130506771D01*
X117144686Y-130229445D01*
X116782788Y-130079172D01*
X116390931Y-130078830D01*
X116028771Y-130228471D01*
X115928067Y-130329000D01*
X112617839Y-130329000D01*
X112848555Y-130098686D01*
X112998828Y-129736788D01*
X112998952Y-129594494D01*
X113080447Y-129513000D01*
X115062000Y-129513000D01*
X115343272Y-129457051D01*
X115581723Y-129297723D01*
X116343724Y-128535723D01*
X116503051Y-128297272D01*
X116559000Y-128016000D01*
X116559000Y-125984000D01*
X124456041Y-125984000D01*
X124570115Y-126557489D01*
X124894971Y-127043670D01*
X125209752Y-127254000D01*
X124894971Y-127464330D01*
X124570115Y-127950511D01*
X124456041Y-128524000D01*
X124570115Y-129097489D01*
X124894971Y-129583670D01*
X125209752Y-129794000D01*
X124894971Y-130004330D01*
X124570115Y-130490511D01*
X124456041Y-131064000D01*
X124570115Y-131637489D01*
X124894971Y-132123670D01*
X125381152Y-132448526D01*
X125954641Y-132562600D01*
X126013359Y-132562600D01*
X126586848Y-132448526D01*
X127052442Y-132137426D01*
X127057238Y-132162917D01*
X127196310Y-132379041D01*
X127408510Y-132524031D01*
X127660400Y-132575040D01*
X129387600Y-132575040D01*
X129622917Y-132530762D01*
X129839041Y-132391690D01*
X129984031Y-132179490D01*
X130035040Y-131927600D01*
X130035040Y-131064000D01*
X133459173Y-131064000D01*
X133595048Y-131747090D01*
X133981987Y-132326186D01*
X134561083Y-132713125D01*
X135244173Y-132849000D01*
X136027827Y-132849000D01*
X136710917Y-132713125D01*
X137290013Y-132326186D01*
X137676952Y-131747090D01*
X137812827Y-131064000D01*
X137676952Y-130380910D01*
X137290013Y-129801814D01*
X136710917Y-129414875D01*
X136027827Y-129279000D01*
X135244173Y-129279000D01*
X134561083Y-129414875D01*
X133981987Y-129801814D01*
X133595048Y-130380910D01*
X133459173Y-131064000D01*
X130035040Y-131064000D01*
X130035040Y-130200400D01*
X129990762Y-129965083D01*
X129851690Y-129748959D01*
X129639490Y-129603969D01*
X129595869Y-129595136D01*
X129613029Y-129583670D01*
X129937885Y-129097489D01*
X130051959Y-128524000D01*
X129937885Y-127950511D01*
X129613029Y-127464330D01*
X129298248Y-127254000D01*
X129613029Y-127043670D01*
X129937885Y-126557489D01*
X130051959Y-125984000D01*
X129937885Y-125410511D01*
X129613029Y-124924330D01*
X129126848Y-124599474D01*
X128553359Y-124485400D01*
X128494641Y-124485400D01*
X127921152Y-124599474D01*
X127434971Y-124924330D01*
X127254000Y-125195172D01*
X127073029Y-124924330D01*
X126586848Y-124599474D01*
X126013359Y-124485400D01*
X125954641Y-124485400D01*
X125381152Y-124599474D01*
X124894971Y-124924330D01*
X124570115Y-125410511D01*
X124456041Y-125984000D01*
X116559000Y-125984000D01*
X116559000Y-121240390D01*
X116897212Y-121380828D01*
X117289069Y-121381170D01*
X117651229Y-121231529D01*
X117928555Y-120954686D01*
X118078828Y-120592788D01*
X118079170Y-120200931D01*
X118029000Y-120079510D01*
X118029000Y-117827290D01*
X119353855Y-119152145D01*
X119657191Y-119354827D01*
X119716556Y-119366636D01*
X120015000Y-119426001D01*
X120015005Y-119426000D01*
X122873213Y-119426000D01*
X122993212Y-119475828D01*
X123385069Y-119476170D01*
X123747229Y-119326529D01*
X124024555Y-119049686D01*
X124174828Y-118687788D01*
X124175170Y-118295931D01*
X124025529Y-117933771D01*
X123748686Y-117656445D01*
X123386788Y-117506172D01*
X122994931Y-117505830D01*
X122873510Y-117556000D01*
X120402290Y-117556000D01*
X119299000Y-116452710D01*
X119299000Y-114031000D01*
X119416060Y-114031000D01*
X119416060Y-115331000D01*
X119460338Y-115566317D01*
X119599410Y-115782441D01*
X119811610Y-115927431D01*
X120063500Y-115978440D01*
X121363500Y-115978440D01*
X121598817Y-115934162D01*
X121814941Y-115795090D01*
X121894187Y-115679109D01*
X121984655Y-115769735D01*
X122456776Y-115965777D01*
X122967981Y-115966223D01*
X123440443Y-115771005D01*
X123641799Y-115570000D01*
X133459173Y-115570000D01*
X133595048Y-116253090D01*
X133981987Y-116832186D01*
X134561083Y-117219125D01*
X135244173Y-117355000D01*
X136027827Y-117355000D01*
X136710917Y-117219125D01*
X137290013Y-116832186D01*
X137676952Y-116253090D01*
X137812827Y-115570000D01*
X137676952Y-114886910D01*
X137290013Y-114307814D01*
X136710917Y-113920875D01*
X136027827Y-113785000D01*
X135244173Y-113785000D01*
X134561083Y-113920875D01*
X133981987Y-114307814D01*
X133595048Y-114886910D01*
X133459173Y-115570000D01*
X123641799Y-115570000D01*
X123802235Y-115409845D01*
X123998277Y-114937724D01*
X123998723Y-114426519D01*
X123803505Y-113954057D01*
X123442345Y-113592265D01*
X122970224Y-113396223D01*
X122459019Y-113395777D01*
X121986557Y-113590995D01*
X121894246Y-113683145D01*
X121827590Y-113579559D01*
X121615390Y-113434569D01*
X121363500Y-113383560D01*
X120063500Y-113383560D01*
X119828183Y-113427838D01*
X119612059Y-113566910D01*
X119467069Y-113779110D01*
X119416060Y-114031000D01*
X119299000Y-114031000D01*
X119299000Y-108718290D01*
X119479560Y-108537730D01*
X119479560Y-109489000D01*
X119523838Y-109724317D01*
X119662910Y-109940441D01*
X119875110Y-110085431D01*
X120127000Y-110136440D01*
X121427000Y-110136440D01*
X121662317Y-110092162D01*
X121878441Y-109953090D01*
X121957687Y-109837109D01*
X122048155Y-109927735D01*
X122520276Y-110123777D01*
X123031481Y-110124223D01*
X123503943Y-109929005D01*
X123865735Y-109567845D01*
X124061777Y-109095724D01*
X124062223Y-108584519D01*
X123867005Y-108112057D01*
X123505845Y-107750265D01*
X123033724Y-107554223D01*
X122522519Y-107553777D01*
X122050057Y-107748995D01*
X121957746Y-107841145D01*
X121891090Y-107737559D01*
X121678890Y-107592569D01*
X121427000Y-107541560D01*
X120475730Y-107541560D01*
X122250945Y-105766345D01*
X122453627Y-105463009D01*
X122524800Y-105105200D01*
X122524800Y-102877808D01*
X122577128Y-102751788D01*
X122577470Y-102359931D01*
X122427829Y-101997771D01*
X122150986Y-101720445D01*
X122051371Y-101679081D01*
X121311145Y-100938855D01*
X121007809Y-100736173D01*
X120650000Y-100665000D01*
X106051290Y-100665000D01*
X105329000Y-99942710D01*
X105329000Y-92335290D01*
X105349266Y-92315024D01*
X105511714Y-92477755D01*
X105873612Y-92628028D01*
X106265469Y-92628370D01*
X106627629Y-92478729D01*
X106904955Y-92201886D01*
X106955337Y-92080553D01*
X108565890Y-90470000D01*
X130510000Y-90470000D01*
X130510000Y-109538213D01*
X130460172Y-109658212D01*
X130459830Y-110050069D01*
X130609471Y-110412229D01*
X130886314Y-110689555D01*
X131248212Y-110839828D01*
X131640069Y-110840170D01*
X132002229Y-110690529D01*
X132279555Y-110413686D01*
X132429828Y-110051788D01*
X132430170Y-109659931D01*
X132380000Y-109538510D01*
X132380000Y-100330000D01*
X133459173Y-100330000D01*
X133595048Y-101013090D01*
X133981987Y-101592186D01*
X134561083Y-101979125D01*
X135244173Y-102115000D01*
X136027827Y-102115000D01*
X136710917Y-101979125D01*
X137290013Y-101592186D01*
X137676952Y-101013090D01*
X137812827Y-100330000D01*
X137676952Y-99646910D01*
X137290013Y-99067814D01*
X136710917Y-98680875D01*
X136027827Y-98545000D01*
X135244173Y-98545000D01*
X134561083Y-98680875D01*
X133981987Y-99067814D01*
X133595048Y-99646910D01*
X133459173Y-100330000D01*
X132380000Y-100330000D01*
X132380000Y-94452172D01*
X132391212Y-94456828D01*
X132783069Y-94457170D01*
X133145229Y-94307529D01*
X133422555Y-94030686D01*
X133572828Y-93668788D01*
X133573170Y-93276931D01*
X133423529Y-92914771D01*
X133373000Y-92864154D01*
X133373000Y-85801400D01*
X133583388Y-85714470D01*
X133595048Y-85773090D01*
X133981987Y-86352186D01*
X134561083Y-86739125D01*
X135244173Y-86875000D01*
X136027827Y-86875000D01*
X136710917Y-86739125D01*
X137290013Y-86352186D01*
X137676952Y-85773090D01*
X137812827Y-85090000D01*
X137676952Y-84406910D01*
X137290013Y-83827814D01*
X136710917Y-83440875D01*
X136027827Y-83305000D01*
X135244173Y-83305000D01*
X134561083Y-83440875D01*
X133981987Y-83827814D01*
X133762024Y-84157012D01*
X133630686Y-84025445D01*
X133268788Y-83875172D01*
X132876931Y-83874830D01*
X132514771Y-84024471D01*
X132380000Y-84159007D01*
X132380000Y-75246787D01*
X132429828Y-75126788D01*
X132430170Y-74734931D01*
X132280529Y-74372771D01*
X132003686Y-74095445D01*
X131641788Y-73945172D01*
X131249931Y-73944830D01*
X130887771Y-74094471D01*
X130610445Y-74371314D01*
X130460172Y-74733212D01*
X130459830Y-75125069D01*
X130510000Y-75246490D01*
X130510000Y-88600000D01*
X122018290Y-88600000D01*
X123881142Y-86737148D01*
X124001229Y-86687529D01*
X124278555Y-86410686D01*
X124428828Y-86048788D01*
X124429123Y-85710000D01*
X124813560Y-85710000D01*
X124813560Y-87010000D01*
X124857838Y-87245317D01*
X124996910Y-87461441D01*
X125209110Y-87606431D01*
X125461000Y-87657440D01*
X126761000Y-87657440D01*
X126996317Y-87613162D01*
X127212441Y-87474090D01*
X127357431Y-87261890D01*
X127408440Y-87010000D01*
X127408440Y-85710000D01*
X127364162Y-85474683D01*
X127225090Y-85258559D01*
X127012890Y-85113569D01*
X126761000Y-85062560D01*
X125461000Y-85062560D01*
X125225683Y-85106838D01*
X125009559Y-85245910D01*
X124864569Y-85458110D01*
X124813560Y-85710000D01*
X124429123Y-85710000D01*
X124429170Y-85656931D01*
X124379000Y-85535510D01*
X124379000Y-80270290D01*
X127153145Y-77496145D01*
X127355827Y-77192809D01*
X127427000Y-76835000D01*
X127427000Y-69850000D01*
X133459173Y-69850000D01*
X133595048Y-70533090D01*
X133981987Y-71112186D01*
X134561083Y-71499125D01*
X135244173Y-71635000D01*
X136027827Y-71635000D01*
X136710917Y-71499125D01*
X137290013Y-71112186D01*
X137676952Y-70533090D01*
X137812827Y-69850000D01*
X137676952Y-69166910D01*
X137290013Y-68587814D01*
X136710917Y-68200875D01*
X136027827Y-68065000D01*
X135244173Y-68065000D01*
X134561083Y-68200875D01*
X133981987Y-68587814D01*
X133595048Y-69166910D01*
X133459173Y-69850000D01*
X127427000Y-69850000D01*
X127427000Y-61656619D01*
X137718613Y-61656619D01*
X138058155Y-62478372D01*
X138686321Y-63107636D01*
X139507481Y-63448611D01*
X140396619Y-63449387D01*
X141218372Y-63109845D01*
X141847636Y-62481679D01*
X142188611Y-61660519D01*
X142189387Y-60771381D01*
X141849845Y-59949628D01*
X141221679Y-59320364D01*
X140400519Y-58979389D01*
X139511381Y-58978613D01*
X138689628Y-59318155D01*
X138060364Y-59946321D01*
X137719389Y-60767481D01*
X137718613Y-61656619D01*
X127427000Y-61656619D01*
X127427000Y-61149787D01*
X127476828Y-61029788D01*
X127477170Y-60637931D01*
X127327529Y-60275771D01*
X127050686Y-59998445D01*
X126688788Y-59848172D01*
X126296931Y-59847830D01*
X125934771Y-59997471D01*
X125657445Y-60274314D01*
X125507172Y-60636212D01*
X125506830Y-61028069D01*
X125557000Y-61149490D01*
X125557000Y-76447710D01*
X122782855Y-79221855D01*
X122580173Y-79525191D01*
X122509000Y-79883000D01*
X122509000Y-85464710D01*
X120770710Y-87203000D01*
X113763290Y-87203000D01*
X115977145Y-84989145D01*
X116179827Y-84685809D01*
X116251000Y-84328000D01*
X116251000Y-74280000D01*
X119606560Y-74280000D01*
X119606560Y-75580000D01*
X119650838Y-75815317D01*
X119789910Y-76031441D01*
X120002110Y-76176431D01*
X120254000Y-76227440D01*
X121554000Y-76227440D01*
X121789317Y-76183162D01*
X122005441Y-76044090D01*
X122084687Y-75928109D01*
X122175155Y-76018735D01*
X122647276Y-76214777D01*
X123158481Y-76215223D01*
X123630943Y-76020005D01*
X123992735Y-75658845D01*
X124188777Y-75186724D01*
X124189223Y-74675519D01*
X123994005Y-74203057D01*
X123632845Y-73841265D01*
X123160724Y-73645223D01*
X122649519Y-73644777D01*
X122177057Y-73839995D01*
X122084746Y-73932145D01*
X122018090Y-73828559D01*
X121805890Y-73683569D01*
X121554000Y-73632560D01*
X120254000Y-73632560D01*
X120018683Y-73676838D01*
X119802559Y-73815910D01*
X119657569Y-74028110D01*
X119606560Y-74280000D01*
X116251000Y-74280000D01*
X116251000Y-68120500D01*
X119606560Y-68120500D01*
X119606560Y-69420500D01*
X119650838Y-69655817D01*
X119789910Y-69871941D01*
X120002110Y-70016931D01*
X120254000Y-70067940D01*
X121554000Y-70067940D01*
X121789317Y-70023662D01*
X122005441Y-69884590D01*
X122084687Y-69768609D01*
X122175155Y-69859235D01*
X122647276Y-70055277D01*
X123158481Y-70055723D01*
X123630943Y-69860505D01*
X123992735Y-69499345D01*
X124188777Y-69027224D01*
X124189223Y-68516019D01*
X123994005Y-68043557D01*
X123632845Y-67681765D01*
X123160724Y-67485723D01*
X122649519Y-67485277D01*
X122177057Y-67680495D01*
X122084746Y-67772645D01*
X122018090Y-67669059D01*
X121805890Y-67524069D01*
X121554000Y-67473060D01*
X120254000Y-67473060D01*
X120018683Y-67517338D01*
X119802559Y-67656410D01*
X119657569Y-67868610D01*
X119606560Y-68120500D01*
X116251000Y-68120500D01*
X116251000Y-67388192D01*
X116417441Y-67281090D01*
X116562431Y-67068890D01*
X116613440Y-66817000D01*
X116613440Y-65517000D01*
X116569162Y-65281683D01*
X116430090Y-65065559D01*
X116217890Y-64920569D01*
X115966000Y-64869560D01*
X114666000Y-64869560D01*
X114430683Y-64913838D01*
X114214559Y-65052910D01*
X114069569Y-65265110D01*
X114018560Y-65517000D01*
X114018560Y-66817000D01*
X114062838Y-67052317D01*
X114201910Y-67268441D01*
X114381000Y-67390808D01*
X114381000Y-83940710D01*
X112642710Y-85679000D01*
X108077000Y-85679000D01*
X107719191Y-85750173D01*
X107415855Y-85952855D01*
X104337858Y-89030852D01*
X104217771Y-89080471D01*
X103940445Y-89357314D01*
X103890063Y-89478647D01*
X102843000Y-90525710D01*
X102843000Y-85902446D01*
X105460447Y-83285000D01*
X108966000Y-83285000D01*
X109247272Y-83229051D01*
X109485723Y-83069723D01*
X110247724Y-82307723D01*
X110407051Y-82069272D01*
X110463000Y-81788000D01*
X110463000Y-78486000D01*
X110407051Y-78204728D01*
X110369849Y-78149051D01*
X110247723Y-77966276D01*
X105929723Y-73648277D01*
X105691272Y-73488949D01*
X105410000Y-73433000D01*
X101904446Y-73433000D01*
X101319000Y-72847554D01*
X101319000Y-71778068D01*
X101418555Y-71678686D01*
X101568828Y-71316788D01*
X101569170Y-70924931D01*
X101419529Y-70562771D01*
X101142686Y-70285445D01*
X100780788Y-70135172D01*
X100388931Y-70134830D01*
X100026771Y-70284471D01*
X99749445Y-70561314D01*
X99599172Y-70923212D01*
X99598830Y-71315069D01*
X99748471Y-71677229D01*
X99849000Y-71777933D01*
X99849000Y-73152000D01*
X99897192Y-73394277D01*
X99904949Y-73433272D01*
X100064277Y-73671723D01*
X100587554Y-74195000D01*
X99110446Y-74195000D01*
X98525000Y-73609554D01*
X98525000Y-69492068D01*
X98624555Y-69392686D01*
X98774828Y-69030788D01*
X98775170Y-68638931D01*
X98625529Y-68276771D01*
X98348686Y-67999445D01*
X97986788Y-67849172D01*
X97594931Y-67848830D01*
X97232771Y-67998471D01*
X96955445Y-68275314D01*
X96805172Y-68637212D01*
X96805024Y-68806222D01*
X94009401Y-66010599D01*
X93762839Y-65845852D01*
X93472000Y-65788000D01*
X67564000Y-65788000D01*
X67273160Y-65845852D01*
X67026599Y-66010599D01*
X64740599Y-68296599D01*
X64575852Y-68543161D01*
X64518000Y-68834000D01*
X64518000Y-111888889D01*
X64443445Y-111963314D01*
X64293172Y-112325212D01*
X64292830Y-112717069D01*
X64442471Y-113079229D01*
X64719314Y-113356555D01*
X65081212Y-113506828D01*
X65305000Y-113507023D01*
X65305000Y-113641932D01*
X65205445Y-113741314D01*
X65055172Y-114103212D01*
X65054830Y-114495069D01*
X65204471Y-114857229D01*
X65317378Y-114970332D01*
X64362855Y-115924855D01*
X64160173Y-116228191D01*
X64089000Y-116586000D01*
X63627000Y-116586000D01*
X63627000Y-61910619D01*
X64820613Y-61910619D01*
X65160155Y-62732372D01*
X65788321Y-63361636D01*
X66609481Y-63702611D01*
X67498619Y-63703387D01*
X68320372Y-63363845D01*
X68949636Y-62735679D01*
X69290611Y-61914519D01*
X69291387Y-61025381D01*
X68951845Y-60203628D01*
X68323679Y-59574364D01*
X67502519Y-59233389D01*
X66613381Y-59232613D01*
X65791628Y-59572155D01*
X65162364Y-60200321D01*
X64821389Y-61021481D01*
X64820613Y-61910619D01*
X63627000Y-61910619D01*
X63627000Y-58039000D01*
X143383000Y-58039000D01*
X143383000Y-157861000D01*
X143383000Y-157861000D01*
G37*
X143383000Y-157861000D02*
X63627000Y-157861000D01*
X63627000Y-155128619D01*
X64820613Y-155128619D01*
X65160155Y-155950372D01*
X65788321Y-156579636D01*
X66609481Y-156920611D01*
X67498619Y-156921387D01*
X68320372Y-156581845D01*
X68949636Y-155953679D01*
X69290611Y-155132519D01*
X69291387Y-154243381D01*
X68951845Y-153421628D01*
X68323679Y-152792364D01*
X67502519Y-152451389D01*
X66613381Y-152450613D01*
X65791628Y-152790155D01*
X65162364Y-153418321D01*
X64821389Y-154239481D01*
X64820613Y-155128619D01*
X63627000Y-155128619D01*
X63627000Y-147443265D01*
X66674670Y-147443265D01*
X66964078Y-148143686D01*
X67499495Y-148680039D01*
X68199410Y-148970668D01*
X68957265Y-148971330D01*
X69657686Y-148681922D01*
X70194039Y-148146505D01*
X70484668Y-147446590D01*
X70485330Y-146688735D01*
X70195922Y-145988314D01*
X69660505Y-145451961D01*
X68960590Y-145161332D01*
X68202735Y-145160670D01*
X67502314Y-145450078D01*
X66965961Y-145985495D01*
X66675332Y-146685410D01*
X66674670Y-147443265D01*
X63627000Y-147443265D01*
X63627000Y-116586000D01*
X64089000Y-116586000D01*
X64089000Y-127254000D01*
X64160173Y-127611809D01*
X64362855Y-127915145D01*
X65916852Y-129469142D01*
X65966471Y-129589229D01*
X66243314Y-129866555D01*
X66605212Y-130016828D01*
X66997069Y-130017170D01*
X67118490Y-129967000D01*
X71460393Y-129967000D01*
X71440722Y-129986637D01*
X71191284Y-130587352D01*
X71190716Y-131237795D01*
X71439106Y-131838943D01*
X71898637Y-132299278D01*
X72499352Y-132548716D01*
X73149795Y-132549284D01*
X73750943Y-132300894D01*
X74211278Y-131841363D01*
X74460716Y-131240648D01*
X74461284Y-130590205D01*
X74212894Y-129989057D01*
X74190876Y-129967000D01*
X75438000Y-129967000D01*
X75795809Y-129895827D01*
X76099145Y-129693145D01*
X76152194Y-129613751D01*
X76511212Y-129762828D01*
X76903069Y-129763170D01*
X77265229Y-129613529D01*
X77365933Y-129513000D01*
X87833554Y-129513000D01*
X89176455Y-130855902D01*
X88850771Y-130990471D01*
X88573445Y-131267314D01*
X88446098Y-131574000D01*
X80772000Y-131574000D01*
X80481161Y-131631852D01*
X80234599Y-131796599D01*
X79218599Y-132812599D01*
X79053852Y-133059161D01*
X79036065Y-133148581D01*
X78696330Y-133375585D01*
X78686757Y-133389913D01*
X78682762Y-133368683D01*
X78543690Y-133152559D01*
X78331490Y-133007569D01*
X78104159Y-132961533D01*
X78014839Y-132901852D01*
X77724000Y-132844000D01*
X77433161Y-132901852D01*
X77351284Y-132956560D01*
X76352400Y-132956560D01*
X76117083Y-133000838D01*
X75900959Y-133139910D01*
X75755969Y-133352110D01*
X75704960Y-133604000D01*
X75704960Y-135636000D01*
X75749238Y-135871317D01*
X75888310Y-136087441D01*
X76100510Y-136232431D01*
X76352400Y-136283440D01*
X77804638Y-136283440D01*
X78456599Y-136935401D01*
X78703161Y-137100148D01*
X78994000Y-137158000D01*
X85537198Y-137158000D01*
X87854599Y-139475401D01*
X88101160Y-139640148D01*
X88149414Y-139649746D01*
X88392000Y-139698000D01*
X94996000Y-139698000D01*
X95121682Y-139673000D01*
X98147932Y-139673000D01*
X98247314Y-139772555D01*
X98609212Y-139922828D01*
X99001069Y-139923170D01*
X99363229Y-139773529D01*
X99640555Y-139496686D01*
X99790828Y-139134788D01*
X99791023Y-138911000D01*
X117094000Y-138911000D01*
X117375272Y-138855051D01*
X117613723Y-138695723D01*
X117867723Y-138441724D01*
X118027051Y-138203272D01*
X118046908Y-138103445D01*
X118083000Y-137922000D01*
X118083000Y-137564068D01*
X118182555Y-137464686D01*
X118309902Y-137158000D01*
X123831117Y-137158000D01*
X123625445Y-137363314D01*
X123475172Y-137725212D01*
X123474905Y-138030684D01*
X123446000Y-138176000D01*
X123503852Y-138466839D01*
X123668599Y-138713401D01*
X123785612Y-138791586D01*
X123414599Y-139162599D01*
X123343406Y-139269147D01*
X120130279Y-142482275D01*
X120130276Y-142482277D01*
X118821554Y-143791000D01*
X114554000Y-143791000D01*
X114272728Y-143846949D01*
X114034276Y-144006277D01*
X111758000Y-146282553D01*
X111758000Y-144780000D01*
X111718861Y-144583238D01*
X111700148Y-144489160D01*
X111535401Y-144242599D01*
X109338562Y-142045760D01*
X109293529Y-141936771D01*
X109016686Y-141659445D01*
X108654788Y-141509172D01*
X108262931Y-141508830D01*
X107900771Y-141658471D01*
X107623445Y-141935314D01*
X107473172Y-142297212D01*
X107472830Y-142689069D01*
X107622471Y-143051229D01*
X107899314Y-143328555D01*
X108261212Y-143478828D01*
X108622341Y-143479143D01*
X110238000Y-145094802D01*
X110238000Y-146497198D01*
X110175198Y-146560000D01*
X108837111Y-146560000D01*
X108762686Y-146485445D01*
X108400788Y-146335172D01*
X108008931Y-146334830D01*
X107646771Y-146484471D01*
X107369445Y-146761314D01*
X107219172Y-147123212D01*
X107218830Y-147515069D01*
X107368471Y-147877229D01*
X107645314Y-148154555D01*
X108007212Y-148304828D01*
X108399069Y-148305170D01*
X108761229Y-148155529D01*
X108836890Y-148080000D01*
X109960553Y-148080000D01*
X103581554Y-154459000D01*
X77266447Y-154459000D01*
X73561000Y-150753554D01*
X73561000Y-138879377D01*
X73750943Y-138800894D01*
X74211278Y-138341363D01*
X74409882Y-137863069D01*
X75468830Y-137863069D01*
X75519000Y-137984490D01*
X75519000Y-150368000D01*
X75590173Y-150725809D01*
X75792855Y-151029145D01*
X77887060Y-153123350D01*
X77887060Y-153748500D01*
X77931338Y-153983817D01*
X78070410Y-154199941D01*
X78282610Y-154344931D01*
X78534500Y-154395940D01*
X79834500Y-154395940D01*
X80069817Y-154351662D01*
X80285941Y-154212590D01*
X80430931Y-154000390D01*
X80481940Y-153748500D01*
X80481940Y-152448500D01*
X80437662Y-152213183D01*
X80298590Y-151997059D01*
X80086390Y-151852069D01*
X79834500Y-151801060D01*
X79209350Y-151801060D01*
X77389000Y-149980710D01*
X77389000Y-146050000D01*
X81661000Y-146050000D01*
X81661000Y-148082000D01*
X81670334Y-148129789D01*
X81698197Y-148171803D01*
X82206197Y-148679803D01*
X82246590Y-148706994D01*
X82296000Y-148717000D01*
X86360000Y-148717000D01*
X86407789Y-148707666D01*
X86449803Y-148679803D01*
X86957803Y-148171803D01*
X86984994Y-148131410D01*
X86995000Y-148082000D01*
X86995000Y-144832606D01*
X87443606Y-144384000D01*
X105890560Y-144384000D01*
X105890560Y-145684000D01*
X105934838Y-145919317D01*
X106073910Y-146135441D01*
X106286110Y-146280431D01*
X106538000Y-146331440D01*
X107838000Y-146331440D01*
X108073317Y-146287162D01*
X108289441Y-146148090D01*
X108434431Y-145935890D01*
X108485440Y-145684000D01*
X108485440Y-144384000D01*
X108441162Y-144148683D01*
X108302090Y-143932559D01*
X108089890Y-143787569D01*
X107838000Y-143736560D01*
X106538000Y-143736560D01*
X106302683Y-143780838D01*
X106086559Y-143919910D01*
X105941569Y-144132110D01*
X105890560Y-144384000D01*
X87443606Y-144384000D01*
X87719803Y-144107803D01*
X87746994Y-144067410D01*
X87757000Y-144018000D01*
X87757000Y-141224000D01*
X87747666Y-141176211D01*
X87719803Y-141134197D01*
X86957803Y-140372197D01*
X86917410Y-140345006D01*
X86868000Y-140335000D01*
X86146514Y-140335000D01*
X86191441Y-140306090D01*
X86336431Y-140093890D01*
X86387440Y-139842000D01*
X86387440Y-138542000D01*
X86343162Y-138306683D01*
X86204090Y-138090559D01*
X85991890Y-137945569D01*
X85740000Y-137894560D01*
X84440000Y-137894560D01*
X84204683Y-137938838D01*
X83988559Y-138077910D01*
X83843569Y-138290110D01*
X83792560Y-138542000D01*
X83792560Y-139842000D01*
X83836838Y-140077317D01*
X83975910Y-140293441D01*
X84036734Y-140335000D01*
X83820000Y-140335000D01*
X83772211Y-140344334D01*
X83730197Y-140372197D01*
X83222197Y-140880197D01*
X83195006Y-140920590D01*
X83185000Y-140970000D01*
X83185000Y-144473394D01*
X81698197Y-145960197D01*
X81671006Y-146000590D01*
X81661000Y-146050000D01*
X77389000Y-146050000D01*
X77389000Y-137984787D01*
X77438828Y-137864788D01*
X77439170Y-137472931D01*
X77289529Y-137110771D01*
X77012686Y-136833445D01*
X76650788Y-136683172D01*
X76258931Y-136682830D01*
X75896771Y-136832471D01*
X75619445Y-137109314D01*
X75469172Y-137471212D01*
X75468830Y-137863069D01*
X74409882Y-137863069D01*
X74460716Y-137740648D01*
X74461284Y-137090205D01*
X74212894Y-136489057D01*
X73753363Y-136028722D01*
X73152648Y-135779284D01*
X72502205Y-135778716D01*
X71901057Y-136027106D01*
X71440722Y-136486637D01*
X71191284Y-137087352D01*
X71190716Y-137737795D01*
X71439106Y-138338943D01*
X71898637Y-138799278D01*
X72091000Y-138879154D01*
X72091000Y-151058000D01*
X72125577Y-151231827D01*
X72146949Y-151339272D01*
X72306277Y-151577723D01*
X76442276Y-155713723D01*
X76680728Y-155873051D01*
X76962000Y-155929000D01*
X103886000Y-155929000D01*
X104167272Y-155873051D01*
X104405723Y-155713723D01*
X104990827Y-155128619D01*
X137718613Y-155128619D01*
X138058155Y-155950372D01*
X138686321Y-156579636D01*
X139507481Y-156920611D01*
X140396619Y-156921387D01*
X141218372Y-156581845D01*
X141847636Y-155953679D01*
X142188611Y-155132519D01*
X142189387Y-154243381D01*
X141849845Y-153421628D01*
X141221679Y-152792364D01*
X140400519Y-152451389D01*
X139511381Y-152450613D01*
X138689628Y-152790155D01*
X138060364Y-153418321D01*
X137719389Y-154239481D01*
X137718613Y-155128619D01*
X104990827Y-155128619D01*
X109639446Y-150480000D01*
X127734560Y-150480000D01*
X127734560Y-151780000D01*
X127778838Y-152015317D01*
X127917910Y-152231441D01*
X128130110Y-152376431D01*
X128382000Y-152427440D01*
X129682000Y-152427440D01*
X129917317Y-152383162D01*
X130133441Y-152244090D01*
X130212687Y-152128109D01*
X130303155Y-152218735D01*
X130775276Y-152414777D01*
X131286481Y-152415223D01*
X131758943Y-152220005D01*
X132120735Y-151858845D01*
X132316777Y-151386724D01*
X132317223Y-150875519D01*
X132122005Y-150403057D01*
X131760845Y-150041265D01*
X131288724Y-149845223D01*
X130777519Y-149844777D01*
X130305057Y-150039995D01*
X130212746Y-150132145D01*
X130146090Y-150028559D01*
X129933890Y-149883569D01*
X129682000Y-149832560D01*
X128382000Y-149832560D01*
X128146683Y-149876838D01*
X127930559Y-150015910D01*
X127785569Y-150228110D01*
X127734560Y-150480000D01*
X109639446Y-150480000D01*
X112179446Y-147940000D01*
X113764560Y-147940000D01*
X113764560Y-149240000D01*
X113808838Y-149475317D01*
X113947910Y-149691441D01*
X114160110Y-149836431D01*
X114412000Y-149887440D01*
X115712000Y-149887440D01*
X115947317Y-149843162D01*
X116163441Y-149704090D01*
X116308431Y-149491890D01*
X116359440Y-149240000D01*
X116359440Y-147940000D01*
X116315162Y-147704683D01*
X116176090Y-147488559D01*
X115963890Y-147343569D01*
X115712000Y-147292560D01*
X114412000Y-147292560D01*
X114176683Y-147336838D01*
X113960559Y-147475910D01*
X113815569Y-147688110D01*
X113764560Y-147940000D01*
X112179446Y-147940000D01*
X113837902Y-146281545D01*
X113972471Y-146607229D01*
X114249314Y-146884555D01*
X114611212Y-147034828D01*
X115003069Y-147035170D01*
X115365229Y-146885529D01*
X115440890Y-146810000D01*
X118872000Y-146810000D01*
X119162839Y-146752148D01*
X119409401Y-146587401D01*
X124550736Y-141446066D01*
X124570115Y-141543489D01*
X124894971Y-142029670D01*
X125209752Y-142240000D01*
X124894971Y-142450330D01*
X124570115Y-142936511D01*
X124456041Y-143510000D01*
X124570115Y-144083489D01*
X124894971Y-144569670D01*
X125209752Y-144780000D01*
X124894971Y-144990330D01*
X124570115Y-145476511D01*
X124456041Y-146050000D01*
X124570115Y-146623489D01*
X124894971Y-147109670D01*
X125381152Y-147434526D01*
X125954641Y-147548600D01*
X126013359Y-147548600D01*
X126586848Y-147434526D01*
X127052442Y-147123426D01*
X127057238Y-147148917D01*
X127196310Y-147365041D01*
X127408510Y-147510031D01*
X127660400Y-147561040D01*
X129387600Y-147561040D01*
X129622917Y-147516762D01*
X129839041Y-147377690D01*
X129984031Y-147165490D01*
X130035040Y-146913600D01*
X130035040Y-146304000D01*
X133459173Y-146304000D01*
X133595048Y-146987090D01*
X133981987Y-147566186D01*
X134561083Y-147953125D01*
X135244173Y-148089000D01*
X136027827Y-148089000D01*
X136710917Y-147953125D01*
X137290013Y-147566186D01*
X137676952Y-146987090D01*
X137812827Y-146304000D01*
X137676952Y-145620910D01*
X137290013Y-145041814D01*
X136710917Y-144654875D01*
X136027827Y-144519000D01*
X135244173Y-144519000D01*
X134561083Y-144654875D01*
X133981987Y-145041814D01*
X133595048Y-145620910D01*
X133459173Y-146304000D01*
X130035040Y-146304000D01*
X130035040Y-145186400D01*
X129990762Y-144951083D01*
X129851690Y-144734959D01*
X129639490Y-144589969D01*
X129595869Y-144581136D01*
X129613029Y-144569670D01*
X129937885Y-144083489D01*
X130051959Y-143510000D01*
X129937885Y-142936511D01*
X129613029Y-142450330D01*
X129298248Y-142240000D01*
X129613029Y-142029670D01*
X129937885Y-141543489D01*
X130051959Y-140970000D01*
X129937885Y-140396511D01*
X129613029Y-139910330D01*
X129126848Y-139585474D01*
X128553359Y-139471400D01*
X128494641Y-139471400D01*
X127921152Y-139585474D01*
X127434971Y-139910330D01*
X127254000Y-140181172D01*
X127073029Y-139910330D01*
X126623099Y-139609696D01*
X126714828Y-139388788D01*
X126715170Y-138996931D01*
X126565529Y-138634771D01*
X126316745Y-138385553D01*
X126432148Y-138212839D01*
X126490000Y-137922000D01*
X126490000Y-135494000D01*
X127734560Y-135494000D01*
X127734560Y-136794000D01*
X127778838Y-137029317D01*
X127917910Y-137245441D01*
X128130110Y-137390431D01*
X128382000Y-137441440D01*
X129682000Y-137441440D01*
X129917317Y-137397162D01*
X130133441Y-137258090D01*
X130212687Y-137142109D01*
X130303155Y-137232735D01*
X130775276Y-137428777D01*
X131286481Y-137429223D01*
X131758943Y-137234005D01*
X132120735Y-136872845D01*
X132316777Y-136400724D01*
X132317223Y-135889519D01*
X132122005Y-135417057D01*
X131760845Y-135055265D01*
X131288724Y-134859223D01*
X130777519Y-134858777D01*
X130305057Y-135053995D01*
X130212746Y-135146145D01*
X130146090Y-135042559D01*
X129933890Y-134897569D01*
X129682000Y-134846560D01*
X128382000Y-134846560D01*
X128146683Y-134890838D01*
X127930559Y-135029910D01*
X127785569Y-135242110D01*
X127734560Y-135494000D01*
X126490000Y-135494000D01*
X126490000Y-135382000D01*
X126432148Y-135091161D01*
X126267401Y-134844599D01*
X125505401Y-134082599D01*
X125258839Y-133917852D01*
X124968000Y-133860000D01*
X124206000Y-133860000D01*
X124080318Y-133885000D01*
X116636447Y-133885000D01*
X115031047Y-132279601D01*
X115031170Y-132138931D01*
X114890714Y-131799000D01*
X115927932Y-131799000D01*
X116027314Y-131898555D01*
X116389212Y-132048828D01*
X116781069Y-132049170D01*
X117143229Y-131899529D01*
X117420555Y-131622686D01*
X117570828Y-131260788D01*
X117571170Y-130868931D01*
X117421529Y-130506771D01*
X117144686Y-130229445D01*
X116782788Y-130079172D01*
X116390931Y-130078830D01*
X116028771Y-130228471D01*
X115928067Y-130329000D01*
X112617839Y-130329000D01*
X112848555Y-130098686D01*
X112998828Y-129736788D01*
X112998952Y-129594494D01*
X113080447Y-129513000D01*
X115062000Y-129513000D01*
X115343272Y-129457051D01*
X115581723Y-129297723D01*
X116343724Y-128535723D01*
X116503051Y-128297272D01*
X116559000Y-128016000D01*
X116559000Y-125984000D01*
X124456041Y-125984000D01*
X124570115Y-126557489D01*
X124894971Y-127043670D01*
X125209752Y-127254000D01*
X124894971Y-127464330D01*
X124570115Y-127950511D01*
X124456041Y-128524000D01*
X124570115Y-129097489D01*
X124894971Y-129583670D01*
X125209752Y-129794000D01*
X124894971Y-130004330D01*
X124570115Y-130490511D01*
X124456041Y-131064000D01*
X124570115Y-131637489D01*
X124894971Y-132123670D01*
X125381152Y-132448526D01*
X125954641Y-132562600D01*
X126013359Y-132562600D01*
X126586848Y-132448526D01*
X127052442Y-132137426D01*
X127057238Y-132162917D01*
X127196310Y-132379041D01*
X127408510Y-132524031D01*
X127660400Y-132575040D01*
X129387600Y-132575040D01*
X129622917Y-132530762D01*
X129839041Y-132391690D01*
X129984031Y-132179490D01*
X130035040Y-131927600D01*
X130035040Y-131064000D01*
X133459173Y-131064000D01*
X133595048Y-131747090D01*
X133981987Y-132326186D01*
X134561083Y-132713125D01*
X135244173Y-132849000D01*
X136027827Y-132849000D01*
X136710917Y-132713125D01*
X137290013Y-132326186D01*
X137676952Y-131747090D01*
X137812827Y-131064000D01*
X137676952Y-130380910D01*
X137290013Y-129801814D01*
X136710917Y-129414875D01*
X136027827Y-129279000D01*
X135244173Y-129279000D01*
X134561083Y-129414875D01*
X133981987Y-129801814D01*
X133595048Y-130380910D01*
X133459173Y-131064000D01*
X130035040Y-131064000D01*
X130035040Y-130200400D01*
X129990762Y-129965083D01*
X129851690Y-129748959D01*
X129639490Y-129603969D01*
X129595869Y-129595136D01*
X129613029Y-129583670D01*
X129937885Y-129097489D01*
X130051959Y-128524000D01*
X129937885Y-127950511D01*
X129613029Y-127464330D01*
X129298248Y-127254000D01*
X129613029Y-127043670D01*
X129937885Y-126557489D01*
X130051959Y-125984000D01*
X129937885Y-125410511D01*
X129613029Y-124924330D01*
X129126848Y-124599474D01*
X128553359Y-124485400D01*
X128494641Y-124485400D01*
X127921152Y-124599474D01*
X127434971Y-124924330D01*
X127254000Y-125195172D01*
X127073029Y-124924330D01*
X126586848Y-124599474D01*
X126013359Y-124485400D01*
X125954641Y-124485400D01*
X125381152Y-124599474D01*
X124894971Y-124924330D01*
X124570115Y-125410511D01*
X124456041Y-125984000D01*
X116559000Y-125984000D01*
X116559000Y-121240390D01*
X116897212Y-121380828D01*
X117289069Y-121381170D01*
X117651229Y-121231529D01*
X117928555Y-120954686D01*
X118078828Y-120592788D01*
X118079170Y-120200931D01*
X118029000Y-120079510D01*
X118029000Y-117827290D01*
X119353855Y-119152145D01*
X119657191Y-119354827D01*
X119716556Y-119366636D01*
X120015000Y-119426001D01*
X120015005Y-119426000D01*
X122873213Y-119426000D01*
X122993212Y-119475828D01*
X123385069Y-119476170D01*
X123747229Y-119326529D01*
X124024555Y-119049686D01*
X124174828Y-118687788D01*
X124175170Y-118295931D01*
X124025529Y-117933771D01*
X123748686Y-117656445D01*
X123386788Y-117506172D01*
X122994931Y-117505830D01*
X122873510Y-117556000D01*
X120402290Y-117556000D01*
X119299000Y-116452710D01*
X119299000Y-114031000D01*
X119416060Y-114031000D01*
X119416060Y-115331000D01*
X119460338Y-115566317D01*
X119599410Y-115782441D01*
X119811610Y-115927431D01*
X120063500Y-115978440D01*
X121363500Y-115978440D01*
X121598817Y-115934162D01*
X121814941Y-115795090D01*
X121894187Y-115679109D01*
X121984655Y-115769735D01*
X122456776Y-115965777D01*
X122967981Y-115966223D01*
X123440443Y-115771005D01*
X123641799Y-115570000D01*
X133459173Y-115570000D01*
X133595048Y-116253090D01*
X133981987Y-116832186D01*
X134561083Y-117219125D01*
X135244173Y-117355000D01*
X136027827Y-117355000D01*
X136710917Y-117219125D01*
X137290013Y-116832186D01*
X137676952Y-116253090D01*
X137812827Y-115570000D01*
X137676952Y-114886910D01*
X137290013Y-114307814D01*
X136710917Y-113920875D01*
X136027827Y-113785000D01*
X135244173Y-113785000D01*
X134561083Y-113920875D01*
X133981987Y-114307814D01*
X133595048Y-114886910D01*
X133459173Y-115570000D01*
X123641799Y-115570000D01*
X123802235Y-115409845D01*
X123998277Y-114937724D01*
X123998723Y-114426519D01*
X123803505Y-113954057D01*
X123442345Y-113592265D01*
X122970224Y-113396223D01*
X122459019Y-113395777D01*
X121986557Y-113590995D01*
X121894246Y-113683145D01*
X121827590Y-113579559D01*
X121615390Y-113434569D01*
X121363500Y-113383560D01*
X120063500Y-113383560D01*
X119828183Y-113427838D01*
X119612059Y-113566910D01*
X119467069Y-113779110D01*
X119416060Y-114031000D01*
X119299000Y-114031000D01*
X119299000Y-108718290D01*
X119479560Y-108537730D01*
X119479560Y-109489000D01*
X119523838Y-109724317D01*
X119662910Y-109940441D01*
X119875110Y-110085431D01*
X120127000Y-110136440D01*
X121427000Y-110136440D01*
X121662317Y-110092162D01*
X121878441Y-109953090D01*
X121957687Y-109837109D01*
X122048155Y-109927735D01*
X122520276Y-110123777D01*
X123031481Y-110124223D01*
X123503943Y-109929005D01*
X123865735Y-109567845D01*
X124061777Y-109095724D01*
X124062223Y-108584519D01*
X123867005Y-108112057D01*
X123505845Y-107750265D01*
X123033724Y-107554223D01*
X122522519Y-107553777D01*
X122050057Y-107748995D01*
X121957746Y-107841145D01*
X121891090Y-107737559D01*
X121678890Y-107592569D01*
X121427000Y-107541560D01*
X120475730Y-107541560D01*
X122250945Y-105766345D01*
X122453627Y-105463009D01*
X122524800Y-105105200D01*
X122524800Y-102877808D01*
X122577128Y-102751788D01*
X122577470Y-102359931D01*
X122427829Y-101997771D01*
X122150986Y-101720445D01*
X122051371Y-101679081D01*
X121311145Y-100938855D01*
X121007809Y-100736173D01*
X120650000Y-100665000D01*
X106051290Y-100665000D01*
X105329000Y-99942710D01*
X105329000Y-92335290D01*
X105349266Y-92315024D01*
X105511714Y-92477755D01*
X105873612Y-92628028D01*
X106265469Y-92628370D01*
X106627629Y-92478729D01*
X106904955Y-92201886D01*
X106955337Y-92080553D01*
X108565890Y-90470000D01*
X130510000Y-90470000D01*
X130510000Y-109538213D01*
X130460172Y-109658212D01*
X130459830Y-110050069D01*
X130609471Y-110412229D01*
X130886314Y-110689555D01*
X131248212Y-110839828D01*
X131640069Y-110840170D01*
X132002229Y-110690529D01*
X132279555Y-110413686D01*
X132429828Y-110051788D01*
X132430170Y-109659931D01*
X132380000Y-109538510D01*
X132380000Y-100330000D01*
X133459173Y-100330000D01*
X133595048Y-101013090D01*
X133981987Y-101592186D01*
X134561083Y-101979125D01*
X135244173Y-102115000D01*
X136027827Y-102115000D01*
X136710917Y-101979125D01*
X137290013Y-101592186D01*
X137676952Y-101013090D01*
X137812827Y-100330000D01*
X137676952Y-99646910D01*
X137290013Y-99067814D01*
X136710917Y-98680875D01*
X136027827Y-98545000D01*
X135244173Y-98545000D01*
X134561083Y-98680875D01*
X133981987Y-99067814D01*
X133595048Y-99646910D01*
X133459173Y-100330000D01*
X132380000Y-100330000D01*
X132380000Y-94452172D01*
X132391212Y-94456828D01*
X132783069Y-94457170D01*
X133145229Y-94307529D01*
X133422555Y-94030686D01*
X133572828Y-93668788D01*
X133573170Y-93276931D01*
X133423529Y-92914771D01*
X133373000Y-92864154D01*
X133373000Y-85801400D01*
X133583388Y-85714470D01*
X133595048Y-85773090D01*
X133981987Y-86352186D01*
X134561083Y-86739125D01*
X135244173Y-86875000D01*
X136027827Y-86875000D01*
X136710917Y-86739125D01*
X137290013Y-86352186D01*
X137676952Y-85773090D01*
X137812827Y-85090000D01*
X137676952Y-84406910D01*
X137290013Y-83827814D01*
X136710917Y-83440875D01*
X136027827Y-83305000D01*
X135244173Y-83305000D01*
X134561083Y-83440875D01*
X133981987Y-83827814D01*
X133762024Y-84157012D01*
X133630686Y-84025445D01*
X133268788Y-83875172D01*
X132876931Y-83874830D01*
X132514771Y-84024471D01*
X132380000Y-84159007D01*
X132380000Y-75246787D01*
X132429828Y-75126788D01*
X132430170Y-74734931D01*
X132280529Y-74372771D01*
X132003686Y-74095445D01*
X131641788Y-73945172D01*
X131249931Y-73944830D01*
X130887771Y-74094471D01*
X130610445Y-74371314D01*
X130460172Y-74733212D01*
X130459830Y-75125069D01*
X130510000Y-75246490D01*
X130510000Y-88600000D01*
X122018290Y-88600000D01*
X123881142Y-86737148D01*
X124001229Y-86687529D01*
X124278555Y-86410686D01*
X124428828Y-86048788D01*
X124429123Y-85710000D01*
X124813560Y-85710000D01*
X124813560Y-87010000D01*
X124857838Y-87245317D01*
X124996910Y-87461441D01*
X125209110Y-87606431D01*
X125461000Y-87657440D01*
X126761000Y-87657440D01*
X126996317Y-87613162D01*
X127212441Y-87474090D01*
X127357431Y-87261890D01*
X127408440Y-87010000D01*
X127408440Y-85710000D01*
X127364162Y-85474683D01*
X127225090Y-85258559D01*
X127012890Y-85113569D01*
X126761000Y-85062560D01*
X125461000Y-85062560D01*
X125225683Y-85106838D01*
X125009559Y-85245910D01*
X124864569Y-85458110D01*
X124813560Y-85710000D01*
X124429123Y-85710000D01*
X124429170Y-85656931D01*
X124379000Y-85535510D01*
X124379000Y-80270290D01*
X127153145Y-77496145D01*
X127355827Y-77192809D01*
X127427000Y-76835000D01*
X127427000Y-69850000D01*
X133459173Y-69850000D01*
X133595048Y-70533090D01*
X133981987Y-71112186D01*
X134561083Y-71499125D01*
X135244173Y-71635000D01*
X136027827Y-71635000D01*
X136710917Y-71499125D01*
X137290013Y-71112186D01*
X137676952Y-70533090D01*
X137812827Y-69850000D01*
X137676952Y-69166910D01*
X137290013Y-68587814D01*
X136710917Y-68200875D01*
X136027827Y-68065000D01*
X135244173Y-68065000D01*
X134561083Y-68200875D01*
X133981987Y-68587814D01*
X133595048Y-69166910D01*
X133459173Y-69850000D01*
X127427000Y-69850000D01*
X127427000Y-61656619D01*
X137718613Y-61656619D01*
X138058155Y-62478372D01*
X138686321Y-63107636D01*
X139507481Y-63448611D01*
X140396619Y-63449387D01*
X141218372Y-63109845D01*
X141847636Y-62481679D01*
X142188611Y-61660519D01*
X142189387Y-60771381D01*
X141849845Y-59949628D01*
X141221679Y-59320364D01*
X140400519Y-58979389D01*
X139511381Y-58978613D01*
X138689628Y-59318155D01*
X138060364Y-59946321D01*
X137719389Y-60767481D01*
X137718613Y-61656619D01*
X127427000Y-61656619D01*
X127427000Y-61149787D01*
X127476828Y-61029788D01*
X127477170Y-60637931D01*
X127327529Y-60275771D01*
X127050686Y-59998445D01*
X126688788Y-59848172D01*
X126296931Y-59847830D01*
X125934771Y-59997471D01*
X125657445Y-60274314D01*
X125507172Y-60636212D01*
X125506830Y-61028069D01*
X125557000Y-61149490D01*
X125557000Y-76447710D01*
X122782855Y-79221855D01*
X122580173Y-79525191D01*
X122509000Y-79883000D01*
X122509000Y-85464710D01*
X120770710Y-87203000D01*
X113763290Y-87203000D01*
X115977145Y-84989145D01*
X116179827Y-84685809D01*
X116251000Y-84328000D01*
X116251000Y-74280000D01*
X119606560Y-74280000D01*
X119606560Y-75580000D01*
X119650838Y-75815317D01*
X119789910Y-76031441D01*
X120002110Y-76176431D01*
X120254000Y-76227440D01*
X121554000Y-76227440D01*
X121789317Y-76183162D01*
X122005441Y-76044090D01*
X122084687Y-75928109D01*
X122175155Y-76018735D01*
X122647276Y-76214777D01*
X123158481Y-76215223D01*
X123630943Y-76020005D01*
X123992735Y-75658845D01*
X124188777Y-75186724D01*
X124189223Y-74675519D01*
X123994005Y-74203057D01*
X123632845Y-73841265D01*
X123160724Y-73645223D01*
X122649519Y-73644777D01*
X122177057Y-73839995D01*
X122084746Y-73932145D01*
X122018090Y-73828559D01*
X121805890Y-73683569D01*
X121554000Y-73632560D01*
X120254000Y-73632560D01*
X120018683Y-73676838D01*
X119802559Y-73815910D01*
X119657569Y-74028110D01*
X119606560Y-74280000D01*
X116251000Y-74280000D01*
X116251000Y-68120500D01*
X119606560Y-68120500D01*
X119606560Y-69420500D01*
X119650838Y-69655817D01*
X119789910Y-69871941D01*
X120002110Y-70016931D01*
X120254000Y-70067940D01*
X121554000Y-70067940D01*
X121789317Y-70023662D01*
X122005441Y-69884590D01*
X122084687Y-69768609D01*
X122175155Y-69859235D01*
X122647276Y-70055277D01*
X123158481Y-70055723D01*
X123630943Y-69860505D01*
X123992735Y-69499345D01*
X124188777Y-69027224D01*
X124189223Y-68516019D01*
X123994005Y-68043557D01*
X123632845Y-67681765D01*
X123160724Y-67485723D01*
X122649519Y-67485277D01*
X122177057Y-67680495D01*
X122084746Y-67772645D01*
X122018090Y-67669059D01*
X121805890Y-67524069D01*
X121554000Y-67473060D01*
X120254000Y-67473060D01*
X120018683Y-67517338D01*
X119802559Y-67656410D01*
X119657569Y-67868610D01*
X119606560Y-68120500D01*
X116251000Y-68120500D01*
X116251000Y-67388192D01*
X116417441Y-67281090D01*
X116562431Y-67068890D01*
X116613440Y-66817000D01*
X116613440Y-65517000D01*
X116569162Y-65281683D01*
X116430090Y-65065559D01*
X116217890Y-64920569D01*
X115966000Y-64869560D01*
X114666000Y-64869560D01*
X114430683Y-64913838D01*
X114214559Y-65052910D01*
X114069569Y-65265110D01*
X114018560Y-65517000D01*
X114018560Y-66817000D01*
X114062838Y-67052317D01*
X114201910Y-67268441D01*
X114381000Y-67390808D01*
X114381000Y-83940710D01*
X112642710Y-85679000D01*
X108077000Y-85679000D01*
X107719191Y-85750173D01*
X107415855Y-85952855D01*
X104337858Y-89030852D01*
X104217771Y-89080471D01*
X103940445Y-89357314D01*
X103890063Y-89478647D01*
X102843000Y-90525710D01*
X102843000Y-85902446D01*
X105460447Y-83285000D01*
X108966000Y-83285000D01*
X109247272Y-83229051D01*
X109485723Y-83069723D01*
X110247724Y-82307723D01*
X110407051Y-82069272D01*
X110463000Y-81788000D01*
X110463000Y-78486000D01*
X110407051Y-78204728D01*
X110369849Y-78149051D01*
X110247723Y-77966276D01*
X105929723Y-73648277D01*
X105691272Y-73488949D01*
X105410000Y-73433000D01*
X101904446Y-73433000D01*
X101319000Y-72847554D01*
X101319000Y-71778068D01*
X101418555Y-71678686D01*
X101568828Y-71316788D01*
X101569170Y-70924931D01*
X101419529Y-70562771D01*
X101142686Y-70285445D01*
X100780788Y-70135172D01*
X100388931Y-70134830D01*
X100026771Y-70284471D01*
X99749445Y-70561314D01*
X99599172Y-70923212D01*
X99598830Y-71315069D01*
X99748471Y-71677229D01*
X99849000Y-71777933D01*
X99849000Y-73152000D01*
X99897192Y-73394277D01*
X99904949Y-73433272D01*
X100064277Y-73671723D01*
X100587554Y-74195000D01*
X99110446Y-74195000D01*
X98525000Y-73609554D01*
X98525000Y-69492068D01*
X98624555Y-69392686D01*
X98774828Y-69030788D01*
X98775170Y-68638931D01*
X98625529Y-68276771D01*
X98348686Y-67999445D01*
X97986788Y-67849172D01*
X97594931Y-67848830D01*
X97232771Y-67998471D01*
X96955445Y-68275314D01*
X96805172Y-68637212D01*
X96805024Y-68806222D01*
X94009401Y-66010599D01*
X93762839Y-65845852D01*
X93472000Y-65788000D01*
X67564000Y-65788000D01*
X67273160Y-65845852D01*
X67026599Y-66010599D01*
X64740599Y-68296599D01*
X64575852Y-68543161D01*
X64518000Y-68834000D01*
X64518000Y-111888889D01*
X64443445Y-111963314D01*
X64293172Y-112325212D01*
X64292830Y-112717069D01*
X64442471Y-113079229D01*
X64719314Y-113356555D01*
X65081212Y-113506828D01*
X65305000Y-113507023D01*
X65305000Y-113641932D01*
X65205445Y-113741314D01*
X65055172Y-114103212D01*
X65054830Y-114495069D01*
X65204471Y-114857229D01*
X65317378Y-114970332D01*
X64362855Y-115924855D01*
X64160173Y-116228191D01*
X64089000Y-116586000D01*
X63627000Y-116586000D01*
X63627000Y-61910619D01*
X64820613Y-61910619D01*
X65160155Y-62732372D01*
X65788321Y-63361636D01*
X66609481Y-63702611D01*
X67498619Y-63703387D01*
X68320372Y-63363845D01*
X68949636Y-62735679D01*
X69290611Y-61914519D01*
X69291387Y-61025381D01*
X68951845Y-60203628D01*
X68323679Y-59574364D01*
X67502519Y-59233389D01*
X66613381Y-59232613D01*
X65791628Y-59572155D01*
X65162364Y-60200321D01*
X64821389Y-61021481D01*
X64820613Y-61910619D01*
X63627000Y-61910619D01*
X63627000Y-58039000D01*
X143383000Y-58039000D01*
X143383000Y-157861000D01*
G36*
X89689000Y-133604000D02*
X89737192Y-133846276D01*
X89744949Y-133885272D01*
X89904277Y-134123723D01*
X90666277Y-134885724D01*
X90882068Y-135029910D01*
X90904728Y-135045051D01*
X91186000Y-135101000D01*
X97231554Y-135101000D01*
X97312953Y-135182399D01*
X97312830Y-135323069D01*
X97462471Y-135685229D01*
X97716676Y-135939878D01*
X97016277Y-136640277D01*
X96856949Y-136878728D01*
X96801000Y-137160000D01*
X96801000Y-137668000D01*
X96851524Y-137922000D01*
X96856949Y-137949272D01*
X97016277Y-138187723D01*
X97031554Y-138203000D01*
X95121682Y-138203000D01*
X94996000Y-138178000D01*
X88706802Y-138178000D01*
X86389401Y-135860599D01*
X86142839Y-135695852D01*
X85852000Y-135638000D01*
X80966956Y-135638000D01*
X81140526Y-135378234D01*
X81254600Y-134804745D01*
X81254600Y-134435255D01*
X81140526Y-133861766D01*
X80815670Y-133375585D01*
X80809404Y-133371398D01*
X81086802Y-133094000D01*
X88900000Y-133094000D01*
X89190839Y-133036148D01*
X89437401Y-132871401D01*
X89497724Y-132811078D01*
X89603069Y-132811170D01*
X89689000Y-132775664D01*
X89689000Y-133604000D01*
X89689000Y-133604000D01*
G37*
X89689000Y-133604000D02*
X89737192Y-133846276D01*
X89744949Y-133885272D01*
X89904277Y-134123723D01*
X90666277Y-134885724D01*
X90882068Y-135029910D01*
X90904728Y-135045051D01*
X91186000Y-135101000D01*
X97231554Y-135101000D01*
X97312953Y-135182399D01*
X97312830Y-135323069D01*
X97462471Y-135685229D01*
X97716676Y-135939878D01*
X97016277Y-136640277D01*
X96856949Y-136878728D01*
X96801000Y-137160000D01*
X96801000Y-137668000D01*
X96851524Y-137922000D01*
X96856949Y-137949272D01*
X97016277Y-138187723D01*
X97031554Y-138203000D01*
X95121682Y-138203000D01*
X94996000Y-138178000D01*
X88706802Y-138178000D01*
X86389401Y-135860599D01*
X86142839Y-135695852D01*
X85852000Y-135638000D01*
X80966956Y-135638000D01*
X81140526Y-135378234D01*
X81254600Y-134804745D01*
X81254600Y-134435255D01*
X81140526Y-133861766D01*
X80815670Y-133375585D01*
X80809404Y-133371398D01*
X81086802Y-133094000D01*
X88900000Y-133094000D01*
X89190839Y-133036148D01*
X89437401Y-132871401D01*
X89497724Y-132811078D01*
X89603069Y-132811170D01*
X89689000Y-132775664D01*
X89689000Y-133604000D01*
G36*
X113618908Y-134470355D02*
X113618838Y-134551167D01*
X113760883Y-134894943D01*
X114023673Y-135158192D01*
X114367201Y-135300838D01*
X114739167Y-135301162D01*
X115082943Y-135159117D01*
X115346192Y-134896327D01*
X115411530Y-134738977D01*
X115812276Y-135139723D01*
X115990313Y-135258683D01*
X116050728Y-135299051D01*
X116332000Y-135355000D01*
X124080318Y-135355000D01*
X124105202Y-135359950D01*
X123879445Y-135585314D01*
X123857568Y-135638000D01*
X117856000Y-135638000D01*
X117565161Y-135695852D01*
X117329731Y-135853161D01*
X117318599Y-135860599D01*
X117258276Y-135920922D01*
X117152931Y-135920830D01*
X116790771Y-136070471D01*
X116513445Y-136347314D01*
X116363172Y-136709212D01*
X116362830Y-137101069D01*
X116503286Y-137441000D01*
X109978446Y-137441000D01*
X110247723Y-137171723D01*
X110407051Y-136933272D01*
X110417846Y-136879000D01*
X110463000Y-136652000D01*
X110463000Y-135890000D01*
X110407051Y-135608728D01*
X110407051Y-135608727D01*
X110247723Y-135370276D01*
X109739723Y-134862277D01*
X109501272Y-134702949D01*
X109220000Y-134647000D01*
X108508447Y-134647000D01*
X108450440Y-134588993D01*
X108653069Y-134589170D01*
X109015229Y-134439529D01*
X109115933Y-134339000D01*
X113487554Y-134339000D01*
X113618908Y-134470355D01*
X113618908Y-134470355D01*
G37*
X113618908Y-134470355D02*
X113618838Y-134551167D01*
X113760883Y-134894943D01*
X114023673Y-135158192D01*
X114367201Y-135300838D01*
X114739167Y-135301162D01*
X115082943Y-135159117D01*
X115346192Y-134896327D01*
X115411530Y-134738977D01*
X115812276Y-135139723D01*
X115990313Y-135258683D01*
X116050728Y-135299051D01*
X116332000Y-135355000D01*
X124080318Y-135355000D01*
X124105202Y-135359950D01*
X123879445Y-135585314D01*
X123857568Y-135638000D01*
X117856000Y-135638000D01*
X117565161Y-135695852D01*
X117329731Y-135853161D01*
X117318599Y-135860599D01*
X117258276Y-135920922D01*
X117152931Y-135920830D01*
X116790771Y-136070471D01*
X116513445Y-136347314D01*
X116363172Y-136709212D01*
X116362830Y-137101069D01*
X116503286Y-137441000D01*
X109978446Y-137441000D01*
X110247723Y-137171723D01*
X110407051Y-136933272D01*
X110417846Y-136879000D01*
X110463000Y-136652000D01*
X110463000Y-135890000D01*
X110407051Y-135608728D01*
X110407051Y-135608727D01*
X110247723Y-135370276D01*
X109739723Y-134862277D01*
X109501272Y-134702949D01*
X109220000Y-134647000D01*
X108508447Y-134647000D01*
X108450440Y-134588993D01*
X108653069Y-134589170D01*
X109015229Y-134439529D01*
X109115933Y-134339000D01*
X113487554Y-134339000D01*
X113618908Y-134470355D01*
G36*
X104128276Y-122947723D02*
X104128279Y-122947725D01*
X104421000Y-123240447D01*
X104421000Y-124409553D01*
X104128278Y-124702276D01*
X104128276Y-124702277D01*
X103989554Y-124841000D01*
X103874280Y-124956274D01*
X103874277Y-124956276D01*
X101842277Y-126988277D01*
X101682949Y-127226728D01*
X101627000Y-127508000D01*
X101627000Y-131167932D01*
X101527445Y-131267314D01*
X101377172Y-131629212D01*
X101376830Y-132021069D01*
X101517286Y-132361000D01*
X101142447Y-132361000D01*
X99471280Y-130689834D01*
X99617229Y-130629529D01*
X99894555Y-130352686D01*
X100044828Y-129990788D01*
X100045170Y-129598931D01*
X99895529Y-129236771D01*
X99618686Y-128959445D01*
X99256788Y-128809172D01*
X99114494Y-128809048D01*
X99071725Y-128766279D01*
X99071723Y-128766276D01*
X98906000Y-128600553D01*
X98906000Y-126715061D01*
X99009314Y-126818555D01*
X99371212Y-126968828D01*
X99763069Y-126969170D01*
X100125229Y-126819529D01*
X100225933Y-126719000D01*
X101600000Y-126719000D01*
X101881272Y-126663051D01*
X102119723Y-126503723D01*
X102627723Y-125995724D01*
X102787051Y-125757273D01*
X102807102Y-125656471D01*
X102843000Y-125476000D01*
X102843000Y-124102068D01*
X102942555Y-124002686D01*
X102976527Y-123920871D01*
X103319069Y-123921170D01*
X103681229Y-123771529D01*
X103958555Y-123494686D01*
X104108828Y-123132788D01*
X104109006Y-122928453D01*
X104128276Y-122947723D01*
X104128276Y-122947723D01*
G37*
X104128276Y-122947723D02*
X104128279Y-122947725D01*
X104421000Y-123240447D01*
X104421000Y-124409553D01*
X104128278Y-124702276D01*
X104128276Y-124702277D01*
X103989554Y-124841000D01*
X103874280Y-124956274D01*
X103874277Y-124956276D01*
X101842277Y-126988277D01*
X101682949Y-127226728D01*
X101627000Y-127508000D01*
X101627000Y-131167932D01*
X101527445Y-131267314D01*
X101377172Y-131629212D01*
X101376830Y-132021069D01*
X101517286Y-132361000D01*
X101142447Y-132361000D01*
X99471280Y-130689834D01*
X99617229Y-130629529D01*
X99894555Y-130352686D01*
X100044828Y-129990788D01*
X100045170Y-129598931D01*
X99895529Y-129236771D01*
X99618686Y-128959445D01*
X99256788Y-128809172D01*
X99114494Y-128809048D01*
X99071725Y-128766279D01*
X99071723Y-128766276D01*
X98906000Y-128600553D01*
X98906000Y-126715061D01*
X99009314Y-126818555D01*
X99371212Y-126968828D01*
X99763069Y-126969170D01*
X100125229Y-126819529D01*
X100225933Y-126719000D01*
X101600000Y-126719000D01*
X101881272Y-126663051D01*
X102119723Y-126503723D01*
X102627723Y-125995724D01*
X102787051Y-125757273D01*
X102807102Y-125656471D01*
X102843000Y-125476000D01*
X102843000Y-124102068D01*
X102942555Y-124002686D01*
X102976527Y-123920871D01*
X103319069Y-123921170D01*
X103681229Y-123771529D01*
X103958555Y-123494686D01*
X104108828Y-123132788D01*
X104109006Y-122928453D01*
X104128276Y-122947723D01*
G36*
X111283172Y-127565212D02*
X111282830Y-127957069D01*
X111432471Y-128319229D01*
X111709314Y-128596555D01*
X111713621Y-128598343D01*
X111456771Y-128704471D01*
X111179445Y-128981314D01*
X111029172Y-129343212D01*
X111028830Y-129735069D01*
X111178471Y-130097229D01*
X111409838Y-130329000D01*
X108712000Y-130329000D01*
X108482982Y-130374555D01*
X108430727Y-130384949D01*
X108333597Y-130449850D01*
X111329283Y-127454164D01*
X111283172Y-127565212D01*
X111283172Y-127565212D01*
G37*
X111283172Y-127565212D02*
X111282830Y-127957069D01*
X111432471Y-128319229D01*
X111709314Y-128596555D01*
X111713621Y-128598343D01*
X111456771Y-128704471D01*
X111179445Y-128981314D01*
X111029172Y-129343212D01*
X111028830Y-129735069D01*
X111178471Y-130097229D01*
X111409838Y-130329000D01*
X108712000Y-130329000D01*
X108482982Y-130374555D01*
X108430727Y-130384949D01*
X108333597Y-130449850D01*
X111329283Y-127454164D01*
X111283172Y-127565212D01*
G36*
X68322041Y-114808000D02*
X68436115Y-115381489D01*
X68760971Y-115867670D01*
X68774642Y-115876805D01*
X68751083Y-115881238D01*
X68534959Y-116020310D01*
X68389969Y-116232510D01*
X68338960Y-116484400D01*
X68338960Y-118211600D01*
X68383238Y-118446917D01*
X68522310Y-118663041D01*
X68734510Y-118808031D01*
X68986400Y-118859040D01*
X70713600Y-118859040D01*
X70948917Y-118814762D01*
X71165041Y-118675690D01*
X71310031Y-118463490D01*
X71318908Y-118419655D01*
X71787152Y-118732526D01*
X72360641Y-118846600D01*
X72419359Y-118846600D01*
X72992848Y-118732526D01*
X73479029Y-118407670D01*
X73660000Y-118136828D01*
X73840971Y-118407670D01*
X74327152Y-118732526D01*
X74900641Y-118846600D01*
X74959359Y-118846600D01*
X75465000Y-118746022D01*
X75465000Y-120245932D01*
X75365445Y-120345314D01*
X75215172Y-120707212D01*
X75214830Y-121099069D01*
X75364471Y-121461229D01*
X75641314Y-121738555D01*
X76003212Y-121888828D01*
X76395069Y-121889170D01*
X76757229Y-121739529D01*
X77034555Y-121462686D01*
X77184828Y-121100788D01*
X77185170Y-120708931D01*
X77035529Y-120346771D01*
X76935000Y-120246067D01*
X76935000Y-118746022D01*
X77440641Y-118846600D01*
X77499359Y-118846600D01*
X78072848Y-118732526D01*
X78559029Y-118407670D01*
X78740000Y-118136828D01*
X78920971Y-118407670D01*
X79407152Y-118732526D01*
X79980641Y-118846600D01*
X80039359Y-118846600D01*
X80612848Y-118732526D01*
X80900135Y-118540567D01*
X80952471Y-118667229D01*
X81229314Y-118944555D01*
X81591212Y-119094828D01*
X81733506Y-119094952D01*
X87608553Y-124970000D01*
X82804000Y-124970000D01*
X82513161Y-125027852D01*
X82331184Y-125149445D01*
X82266599Y-125192599D01*
X82206276Y-125252922D01*
X82100931Y-125252830D01*
X81738771Y-125402471D01*
X81461445Y-125679314D01*
X81311172Y-126041212D01*
X81310830Y-126433069D01*
X81390960Y-126626998D01*
X68484445Y-126626998D01*
X68083726Y-126226280D01*
X68083724Y-126226277D01*
X67537000Y-125679554D01*
X67537000Y-116736068D01*
X67636555Y-116636686D01*
X67786828Y-116274788D01*
X67787170Y-115882931D01*
X67637529Y-115520771D01*
X67524622Y-115407668D01*
X68371143Y-114561147D01*
X68322041Y-114808000D01*
X68322041Y-114808000D01*
G37*
X68322041Y-114808000D02*
X68436115Y-115381489D01*
X68760971Y-115867670D01*
X68774642Y-115876805D01*
X68751083Y-115881238D01*
X68534959Y-116020310D01*
X68389969Y-116232510D01*
X68338960Y-116484400D01*
X68338960Y-118211600D01*
X68383238Y-118446917D01*
X68522310Y-118663041D01*
X68734510Y-118808031D01*
X68986400Y-118859040D01*
X70713600Y-118859040D01*
X70948917Y-118814762D01*
X71165041Y-118675690D01*
X71310031Y-118463490D01*
X71318908Y-118419655D01*
X71787152Y-118732526D01*
X72360641Y-118846600D01*
X72419359Y-118846600D01*
X72992848Y-118732526D01*
X73479029Y-118407670D01*
X73660000Y-118136828D01*
X73840971Y-118407670D01*
X74327152Y-118732526D01*
X74900641Y-118846600D01*
X74959359Y-118846600D01*
X75465000Y-118746022D01*
X75465000Y-120245932D01*
X75365445Y-120345314D01*
X75215172Y-120707212D01*
X75214830Y-121099069D01*
X75364471Y-121461229D01*
X75641314Y-121738555D01*
X76003212Y-121888828D01*
X76395069Y-121889170D01*
X76757229Y-121739529D01*
X77034555Y-121462686D01*
X77184828Y-121100788D01*
X77185170Y-120708931D01*
X77035529Y-120346771D01*
X76935000Y-120246067D01*
X76935000Y-118746022D01*
X77440641Y-118846600D01*
X77499359Y-118846600D01*
X78072848Y-118732526D01*
X78559029Y-118407670D01*
X78740000Y-118136828D01*
X78920971Y-118407670D01*
X79407152Y-118732526D01*
X79980641Y-118846600D01*
X80039359Y-118846600D01*
X80612848Y-118732526D01*
X80900135Y-118540567D01*
X80952471Y-118667229D01*
X81229314Y-118944555D01*
X81591212Y-119094828D01*
X81733506Y-119094952D01*
X87608553Y-124970000D01*
X82804000Y-124970000D01*
X82513161Y-125027852D01*
X82331184Y-125149445D01*
X82266599Y-125192599D01*
X82206276Y-125252922D01*
X82100931Y-125252830D01*
X81738771Y-125402471D01*
X81461445Y-125679314D01*
X81311172Y-126041212D01*
X81310830Y-126433069D01*
X81390960Y-126626998D01*
X68484445Y-126626998D01*
X68083726Y-126226280D01*
X68083724Y-126226277D01*
X67537000Y-125679554D01*
X67537000Y-116736068D01*
X67636555Y-116636686D01*
X67786828Y-116274788D01*
X67787170Y-115882931D01*
X67637529Y-115520771D01*
X67524622Y-115407668D01*
X68371143Y-114561147D01*
X68322041Y-114808000D01*
G36*
X95026953Y-120450400D02*
X95026830Y-120591069D01*
X95176471Y-120953229D01*
X95453314Y-121230555D01*
X95815212Y-121380828D01*
X96039000Y-121381023D01*
X96039000Y-121923553D01*
X89165723Y-115050277D01*
X88927272Y-114890949D01*
X88646000Y-114835000D01*
X83716068Y-114835000D01*
X83616686Y-114735445D01*
X83254788Y-114585172D01*
X82862931Y-114584830D01*
X82500771Y-114734471D01*
X82223445Y-115011314D01*
X82073172Y-115373212D01*
X82072830Y-115765069D01*
X82222471Y-116127229D01*
X82499314Y-116404555D01*
X82861212Y-116554828D01*
X83253069Y-116555170D01*
X83615229Y-116405529D01*
X83715933Y-116305000D01*
X88341554Y-116305000D01*
X95531000Y-123494447D01*
X95531000Y-123943875D01*
X95319788Y-123856172D01*
X94927931Y-123855830D01*
X94905247Y-123865203D01*
X94792686Y-123752445D01*
X94710982Y-123718519D01*
X94711170Y-123502931D01*
X94561529Y-123140771D01*
X94284686Y-122863445D01*
X93922788Y-122713172D01*
X93780495Y-122713048D01*
X88403723Y-117336277D01*
X88165272Y-117176949D01*
X87884000Y-117121000D01*
X84986068Y-117121000D01*
X84886686Y-117021445D01*
X84524788Y-116871172D01*
X84132931Y-116870830D01*
X83770771Y-117020471D01*
X83493445Y-117297314D01*
X83343172Y-117659212D01*
X83342830Y-118051069D01*
X83492471Y-118413229D01*
X83769314Y-118690555D01*
X84131212Y-118840828D01*
X84523069Y-118841170D01*
X84885229Y-118691529D01*
X84985933Y-118591000D01*
X87579554Y-118591000D01*
X92740953Y-123752400D01*
X92740830Y-123893069D01*
X92881286Y-124233000D01*
X88950447Y-124233000D01*
X82773047Y-118055601D01*
X82773170Y-117914931D01*
X82623529Y-117552771D01*
X82346686Y-117275445D01*
X81984788Y-117125172D01*
X81592931Y-117124830D01*
X81501114Y-117162768D01*
X81423885Y-116774511D01*
X81099029Y-116288330D01*
X80612848Y-115963474D01*
X80039359Y-115849400D01*
X79980641Y-115849400D01*
X79407152Y-115963474D01*
X78920971Y-116288330D01*
X78740000Y-116559172D01*
X78559029Y-116288330D01*
X78244248Y-116078000D01*
X78559029Y-115867670D01*
X78883885Y-115381489D01*
X78997959Y-114808000D01*
X78940829Y-114520790D01*
X79297229Y-114373529D01*
X79397933Y-114273000D01*
X88849554Y-114273000D01*
X95026953Y-120450400D01*
X95026953Y-120450400D01*
G37*
X95026953Y-120450400D02*
X95026830Y-120591069D01*
X95176471Y-120953229D01*
X95453314Y-121230555D01*
X95815212Y-121380828D01*
X96039000Y-121381023D01*
X96039000Y-121923553D01*
X89165723Y-115050277D01*
X88927272Y-114890949D01*
X88646000Y-114835000D01*
X83716068Y-114835000D01*
X83616686Y-114735445D01*
X83254788Y-114585172D01*
X82862931Y-114584830D01*
X82500771Y-114734471D01*
X82223445Y-115011314D01*
X82073172Y-115373212D01*
X82072830Y-115765069D01*
X82222471Y-116127229D01*
X82499314Y-116404555D01*
X82861212Y-116554828D01*
X83253069Y-116555170D01*
X83615229Y-116405529D01*
X83715933Y-116305000D01*
X88341554Y-116305000D01*
X95531000Y-123494447D01*
X95531000Y-123943875D01*
X95319788Y-123856172D01*
X94927931Y-123855830D01*
X94905247Y-123865203D01*
X94792686Y-123752445D01*
X94710982Y-123718519D01*
X94711170Y-123502931D01*
X94561529Y-123140771D01*
X94284686Y-122863445D01*
X93922788Y-122713172D01*
X93780495Y-122713048D01*
X88403723Y-117336277D01*
X88165272Y-117176949D01*
X87884000Y-117121000D01*
X84986068Y-117121000D01*
X84886686Y-117021445D01*
X84524788Y-116871172D01*
X84132931Y-116870830D01*
X83770771Y-117020471D01*
X83493445Y-117297314D01*
X83343172Y-117659212D01*
X83342830Y-118051069D01*
X83492471Y-118413229D01*
X83769314Y-118690555D01*
X84131212Y-118840828D01*
X84523069Y-118841170D01*
X84885229Y-118691529D01*
X84985933Y-118591000D01*
X87579554Y-118591000D01*
X92740953Y-123752400D01*
X92740830Y-123893069D01*
X92881286Y-124233000D01*
X88950447Y-124233000D01*
X82773047Y-118055601D01*
X82773170Y-117914931D01*
X82623529Y-117552771D01*
X82346686Y-117275445D01*
X81984788Y-117125172D01*
X81592931Y-117124830D01*
X81501114Y-117162768D01*
X81423885Y-116774511D01*
X81099029Y-116288330D01*
X80612848Y-115963474D01*
X80039359Y-115849400D01*
X79980641Y-115849400D01*
X79407152Y-115963474D01*
X78920971Y-116288330D01*
X78740000Y-116559172D01*
X78559029Y-116288330D01*
X78244248Y-116078000D01*
X78559029Y-115867670D01*
X78883885Y-115381489D01*
X78997959Y-114808000D01*
X78940829Y-114520790D01*
X79297229Y-114373529D01*
X79397933Y-114273000D01*
X88849554Y-114273000D01*
X95026953Y-120450400D01*
G36*
X106964953Y-121212400D02*
X106964830Y-121353069D01*
X107114471Y-121715229D01*
X107241786Y-121842767D01*
X106399000Y-122685554D01*
X106399000Y-122682000D01*
X106343051Y-122400728D01*
X106343051Y-122400727D01*
X106183723Y-122162276D01*
X105675725Y-121654279D01*
X105675723Y-121654276D01*
X105167723Y-121146277D01*
X104929272Y-120986949D01*
X104675440Y-120936458D01*
X104675440Y-120000000D01*
X104631162Y-119764683D01*
X104492090Y-119548559D01*
X104279890Y-119403569D01*
X104028000Y-119352560D01*
X102826466Y-119352560D01*
X102838828Y-119322788D01*
X102839170Y-118930931D01*
X102689529Y-118568771D01*
X102412686Y-118291445D01*
X102050788Y-118141172D01*
X101908495Y-118141048D01*
X99033000Y-115265554D01*
X99033000Y-114636390D01*
X99371212Y-114776828D01*
X99763069Y-114777170D01*
X100125229Y-114627529D01*
X100225933Y-114527000D01*
X100279554Y-114527000D01*
X106964953Y-121212400D01*
X106964953Y-121212400D01*
G37*
X106964953Y-121212400D02*
X106964830Y-121353069D01*
X107114471Y-121715229D01*
X107241786Y-121842767D01*
X106399000Y-122685554D01*
X106399000Y-122682000D01*
X106343051Y-122400728D01*
X106343051Y-122400727D01*
X106183723Y-122162276D01*
X105675725Y-121654279D01*
X105675723Y-121654276D01*
X105167723Y-121146277D01*
X104929272Y-120986949D01*
X104675440Y-120936458D01*
X104675440Y-120000000D01*
X104631162Y-119764683D01*
X104492090Y-119548559D01*
X104279890Y-119403569D01*
X104028000Y-119352560D01*
X102826466Y-119352560D01*
X102838828Y-119322788D01*
X102839170Y-118930931D01*
X102689529Y-118568771D01*
X102412686Y-118291445D01*
X102050788Y-118141172D01*
X101908495Y-118141048D01*
X99033000Y-115265554D01*
X99033000Y-114636390D01*
X99371212Y-114776828D01*
X99763069Y-114777170D01*
X100125229Y-114627529D01*
X100225933Y-114527000D01*
X100279554Y-114527000D01*
X106964953Y-121212400D01*
G36*
X100868953Y-119180400D02*
X100868830Y-119321069D01*
X101018471Y-119683229D01*
X101295314Y-119960555D01*
X101657212Y-120110828D01*
X102049069Y-120111170D01*
X102080560Y-120098158D01*
X102080560Y-120931000D01*
X100888447Y-120931000D01*
X99833723Y-119876277D01*
X99595272Y-119716949D01*
X99314000Y-119661000D01*
X99210068Y-119661000D01*
X99110686Y-119561445D01*
X98748788Y-119411172D01*
X98356931Y-119410830D01*
X98271000Y-119446336D01*
X98271000Y-116582446D01*
X100868953Y-119180400D01*
X100868953Y-119180400D01*
G37*
X100868953Y-119180400D02*
X100868830Y-119321069D01*
X101018471Y-119683229D01*
X101295314Y-119960555D01*
X101657212Y-120110828D01*
X102049069Y-120111170D01*
X102080560Y-120098158D01*
X102080560Y-120931000D01*
X100888447Y-120931000D01*
X99833723Y-119876277D01*
X99595272Y-119716949D01*
X99314000Y-119661000D01*
X99210068Y-119661000D01*
X99110686Y-119561445D01*
X98748788Y-119411172D01*
X98356931Y-119410830D01*
X98271000Y-119446336D01*
X98271000Y-116582446D01*
X100868953Y-119180400D01*
G36*
X109501000Y-115366447D02*
X109501000Y-119700140D01*
X109416788Y-119665172D01*
X109024931Y-119664830D01*
X108662771Y-119814471D01*
X108385445Y-120091314D01*
X108321356Y-120245659D01*
X108146788Y-120173172D01*
X108004495Y-120173048D01*
X101596446Y-113765000D01*
X107899554Y-113765000D01*
X109501000Y-115366447D01*
X109501000Y-115366447D01*
G37*
X109501000Y-115366447D02*
X109501000Y-119700140D01*
X109416788Y-119665172D01*
X109024931Y-119664830D01*
X108662771Y-119814471D01*
X108385445Y-120091314D01*
X108321356Y-120245659D01*
X108146788Y-120173172D01*
X108004495Y-120173048D01*
X101596446Y-113765000D01*
X107899554Y-113765000D01*
X109501000Y-115366447D01*
G36*
X114327000Y-114350447D02*
X114327000Y-119284161D01*
X114096686Y-119053445D01*
X113734788Y-118903172D01*
X113342931Y-118902830D01*
X113003000Y-119043286D01*
X113003000Y-113030000D01*
X113002118Y-113025565D01*
X114327000Y-114350447D01*
X114327000Y-114350447D01*
G37*
X114327000Y-114350447D02*
X114327000Y-119284161D01*
X114096686Y-119053445D01*
X113734788Y-118903172D01*
X113342931Y-118902830D01*
X113003000Y-119043286D01*
X113003000Y-113030000D01*
X113002118Y-113025565D01*
X114327000Y-114350447D01*
G36*
X99060000Y-111225000D02*
X106883554Y-111225000D01*
X107953554Y-112295000D01*
X100734068Y-112295000D01*
X100634686Y-112195445D01*
X100272788Y-112045172D01*
X99880931Y-112044830D01*
X99518771Y-112194471D01*
X99241445Y-112471314D01*
X99091172Y-112833212D01*
X99091093Y-112923283D01*
X99033000Y-112947286D01*
X99033000Y-111506000D01*
X98977051Y-111224728D01*
X98964546Y-111206013D01*
X99060000Y-111225000D01*
X99060000Y-111225000D01*
G37*
X99060000Y-111225000D02*
X106883554Y-111225000D01*
X107953554Y-112295000D01*
X100734068Y-112295000D01*
X100634686Y-112195445D01*
X100272788Y-112045172D01*
X99880931Y-112044830D01*
X99518771Y-112194471D01*
X99241445Y-112471314D01*
X99091172Y-112833212D01*
X99091093Y-112923283D01*
X99033000Y-112947286D01*
X99033000Y-111506000D01*
X98977051Y-111224728D01*
X98964546Y-111206013D01*
X99060000Y-111225000D01*
G36*
X75618971Y-73195670D02*
X76105152Y-73520526D01*
X76678641Y-73634600D01*
X76737359Y-73634600D01*
X77066356Y-73569158D01*
X82266599Y-78769401D01*
X82513161Y-78934148D01*
X82804000Y-78992000D01*
X87823198Y-78992000D01*
X89156000Y-80324802D01*
X89156000Y-84584000D01*
X87984872Y-84584000D01*
X88281885Y-84139489D01*
X88395959Y-83566000D01*
X88281885Y-82992511D01*
X87957029Y-82506330D01*
X87470848Y-82181474D01*
X86897359Y-82067400D01*
X86838641Y-82067400D01*
X86265152Y-82181474D01*
X85778971Y-82506330D01*
X85598000Y-82777172D01*
X85417029Y-82506330D01*
X84930848Y-82181474D01*
X84357359Y-82067400D01*
X84298641Y-82067400D01*
X83725152Y-82181474D01*
X83238971Y-82506330D01*
X83058000Y-82777172D01*
X82877029Y-82506330D01*
X82390848Y-82181474D01*
X81817359Y-82067400D01*
X81758641Y-82067400D01*
X81185152Y-82181474D01*
X80698971Y-82506330D01*
X80518000Y-82777172D01*
X80337029Y-82506330D01*
X79850848Y-82181474D01*
X79277359Y-82067400D01*
X79218641Y-82067400D01*
X78645152Y-82181474D01*
X78158971Y-82506330D01*
X77978000Y-82777172D01*
X77797029Y-82506330D01*
X77310848Y-82181474D01*
X76737359Y-82067400D01*
X76678641Y-82067400D01*
X76105152Y-82181474D01*
X75618971Y-82506330D01*
X75438000Y-82777172D01*
X75257029Y-82506330D01*
X74770848Y-82181474D01*
X74197359Y-82067400D01*
X74138641Y-82067400D01*
X73565152Y-82181474D01*
X73078971Y-82506330D01*
X72898000Y-82777172D01*
X72717029Y-82506330D01*
X72230848Y-82181474D01*
X71657359Y-82067400D01*
X71598641Y-82067400D01*
X71025152Y-82181474D01*
X70559558Y-82492574D01*
X70554762Y-82467083D01*
X70415690Y-82250959D01*
X70203490Y-82105969D01*
X69951600Y-82054960D01*
X68224400Y-82054960D01*
X67989083Y-82099238D01*
X67772959Y-82238310D01*
X67627969Y-82450510D01*
X67576960Y-82702400D01*
X67576960Y-84429600D01*
X67621238Y-84664917D01*
X67760310Y-84881041D01*
X67972510Y-85026031D01*
X68224400Y-85077040D01*
X69951600Y-85077040D01*
X70186917Y-85032762D01*
X70403041Y-84893690D01*
X70548031Y-84681490D01*
X70556908Y-84637655D01*
X70893000Y-84862225D01*
X70893000Y-85344000D01*
X70929092Y-85525445D01*
X70948949Y-85625272D01*
X71108277Y-85863723D01*
X74703000Y-89458447D01*
X74703000Y-93597978D01*
X74197359Y-93497400D01*
X74138641Y-93497400D01*
X73633000Y-93597978D01*
X73633000Y-91998447D01*
X73671723Y-91959724D01*
X73671725Y-91959721D01*
X73714399Y-91917047D01*
X73855069Y-91917170D01*
X74217229Y-91767529D01*
X74494555Y-91490686D01*
X74644828Y-91128788D01*
X74645170Y-90736931D01*
X74495529Y-90374771D01*
X74218686Y-90097445D01*
X73856788Y-89947172D01*
X73464931Y-89946830D01*
X73102771Y-90096471D01*
X72825445Y-90373314D01*
X72675172Y-90735212D01*
X72675048Y-90877506D01*
X72632279Y-90920275D01*
X72632276Y-90920277D01*
X72378277Y-91174277D01*
X72218949Y-91412728D01*
X72163000Y-91694000D01*
X72163000Y-93421553D01*
X72015846Y-93568707D01*
X71657359Y-93497400D01*
X71598641Y-93497400D01*
X71025152Y-93611474D01*
X70559558Y-93922574D01*
X70554762Y-93897083D01*
X70415690Y-93680959D01*
X70203490Y-93535969D01*
X69951600Y-93484960D01*
X68224400Y-93484960D01*
X67989083Y-93529238D01*
X67772959Y-93668310D01*
X67627969Y-93880510D01*
X67576960Y-94132400D01*
X67576960Y-95859600D01*
X67621238Y-96094917D01*
X67760310Y-96311041D01*
X67972510Y-96456031D01*
X68224400Y-96507040D01*
X69951600Y-96507040D01*
X70186917Y-96462762D01*
X70403041Y-96323690D01*
X70548031Y-96111490D01*
X70556908Y-96067655D01*
X71025152Y-96380526D01*
X71598641Y-96494600D01*
X71657359Y-96494600D01*
X72230848Y-96380526D01*
X72717029Y-96055670D01*
X72898000Y-95784828D01*
X73078971Y-96055670D01*
X73565152Y-96380526D01*
X74138641Y-96494600D01*
X74197359Y-96494600D01*
X74703000Y-96394022D01*
X74703000Y-105027978D01*
X74197359Y-104927400D01*
X74138641Y-104927400D01*
X73565152Y-105041474D01*
X73078971Y-105366330D01*
X72898000Y-105637172D01*
X72717029Y-105366330D01*
X72230848Y-105041474D01*
X71657359Y-104927400D01*
X71598641Y-104927400D01*
X71025152Y-105041474D01*
X70559558Y-105352574D01*
X70554762Y-105327083D01*
X70415690Y-105110959D01*
X70203490Y-104965969D01*
X69951600Y-104914960D01*
X68224400Y-104914960D01*
X67989083Y-104959238D01*
X67772959Y-105098310D01*
X67627969Y-105310510D01*
X67576960Y-105562400D01*
X67576960Y-107289600D01*
X67621238Y-107524917D01*
X67760310Y-107741041D01*
X67972510Y-107886031D01*
X68224400Y-107937040D01*
X69951600Y-107937040D01*
X70186917Y-107892762D01*
X70403041Y-107753690D01*
X70548031Y-107541490D01*
X70556908Y-107497655D01*
X71025152Y-107810526D01*
X71598641Y-107924600D01*
X71657359Y-107924600D01*
X72230848Y-107810526D01*
X72717029Y-107485670D01*
X72898000Y-107214828D01*
X73078971Y-107485670D01*
X73433000Y-107722225D01*
X73433000Y-110490000D01*
X73477324Y-110712828D01*
X73488949Y-110771272D01*
X73648277Y-111009723D01*
X74225554Y-111587000D01*
X69088000Y-111587000D01*
X68730191Y-111658173D01*
X68426855Y-111860855D01*
X67537000Y-112750710D01*
X67537000Y-79552446D01*
X73568296Y-73521151D01*
X74138641Y-73634600D01*
X74197359Y-73634600D01*
X74770848Y-73520526D01*
X75257029Y-73195670D01*
X75438000Y-72924828D01*
X75618971Y-73195670D01*
X75618971Y-73195670D01*
G37*
X75618971Y-73195670D02*
X76105152Y-73520526D01*
X76678641Y-73634600D01*
X76737359Y-73634600D01*
X77066356Y-73569158D01*
X82266599Y-78769401D01*
X82513161Y-78934148D01*
X82804000Y-78992000D01*
X87823198Y-78992000D01*
X89156000Y-80324802D01*
X89156000Y-84584000D01*
X87984872Y-84584000D01*
X88281885Y-84139489D01*
X88395959Y-83566000D01*
X88281885Y-82992511D01*
X87957029Y-82506330D01*
X87470848Y-82181474D01*
X86897359Y-82067400D01*
X86838641Y-82067400D01*
X86265152Y-82181474D01*
X85778971Y-82506330D01*
X85598000Y-82777172D01*
X85417029Y-82506330D01*
X84930848Y-82181474D01*
X84357359Y-82067400D01*
X84298641Y-82067400D01*
X83725152Y-82181474D01*
X83238971Y-82506330D01*
X83058000Y-82777172D01*
X82877029Y-82506330D01*
X82390848Y-82181474D01*
X81817359Y-82067400D01*
X81758641Y-82067400D01*
X81185152Y-82181474D01*
X80698971Y-82506330D01*
X80518000Y-82777172D01*
X80337029Y-82506330D01*
X79850848Y-82181474D01*
X79277359Y-82067400D01*
X79218641Y-82067400D01*
X78645152Y-82181474D01*
X78158971Y-82506330D01*
X77978000Y-82777172D01*
X77797029Y-82506330D01*
X77310848Y-82181474D01*
X76737359Y-82067400D01*
X76678641Y-82067400D01*
X76105152Y-82181474D01*
X75618971Y-82506330D01*
X75438000Y-82777172D01*
X75257029Y-82506330D01*
X74770848Y-82181474D01*
X74197359Y-82067400D01*
X74138641Y-82067400D01*
X73565152Y-82181474D01*
X73078971Y-82506330D01*
X72898000Y-82777172D01*
X72717029Y-82506330D01*
X72230848Y-82181474D01*
X71657359Y-82067400D01*
X71598641Y-82067400D01*
X71025152Y-82181474D01*
X70559558Y-82492574D01*
X70554762Y-82467083D01*
X70415690Y-82250959D01*
X70203490Y-82105969D01*
X69951600Y-82054960D01*
X68224400Y-82054960D01*
X67989083Y-82099238D01*
X67772959Y-82238310D01*
X67627969Y-82450510D01*
X67576960Y-82702400D01*
X67576960Y-84429600D01*
X67621238Y-84664917D01*
X67760310Y-84881041D01*
X67972510Y-85026031D01*
X68224400Y-85077040D01*
X69951600Y-85077040D01*
X70186917Y-85032762D01*
X70403041Y-84893690D01*
X70548031Y-84681490D01*
X70556908Y-84637655D01*
X70893000Y-84862225D01*
X70893000Y-85344000D01*
X70929092Y-85525445D01*
X70948949Y-85625272D01*
X71108277Y-85863723D01*
X74703000Y-89458447D01*
X74703000Y-93597978D01*
X74197359Y-93497400D01*
X74138641Y-93497400D01*
X73633000Y-93597978D01*
X73633000Y-91998447D01*
X73671723Y-91959724D01*
X73671725Y-91959721D01*
X73714399Y-91917047D01*
X73855069Y-91917170D01*
X74217229Y-91767529D01*
X74494555Y-91490686D01*
X74644828Y-91128788D01*
X74645170Y-90736931D01*
X74495529Y-90374771D01*
X74218686Y-90097445D01*
X73856788Y-89947172D01*
X73464931Y-89946830D01*
X73102771Y-90096471D01*
X72825445Y-90373314D01*
X72675172Y-90735212D01*
X72675048Y-90877506D01*
X72632279Y-90920275D01*
X72632276Y-90920277D01*
X72378277Y-91174277D01*
X72218949Y-91412728D01*
X72163000Y-91694000D01*
X72163000Y-93421553D01*
X72015846Y-93568707D01*
X71657359Y-93497400D01*
X71598641Y-93497400D01*
X71025152Y-93611474D01*
X70559558Y-93922574D01*
X70554762Y-93897083D01*
X70415690Y-93680959D01*
X70203490Y-93535969D01*
X69951600Y-93484960D01*
X68224400Y-93484960D01*
X67989083Y-93529238D01*
X67772959Y-93668310D01*
X67627969Y-93880510D01*
X67576960Y-94132400D01*
X67576960Y-95859600D01*
X67621238Y-96094917D01*
X67760310Y-96311041D01*
X67972510Y-96456031D01*
X68224400Y-96507040D01*
X69951600Y-96507040D01*
X70186917Y-96462762D01*
X70403041Y-96323690D01*
X70548031Y-96111490D01*
X70556908Y-96067655D01*
X71025152Y-96380526D01*
X71598641Y-96494600D01*
X71657359Y-96494600D01*
X72230848Y-96380526D01*
X72717029Y-96055670D01*
X72898000Y-95784828D01*
X73078971Y-96055670D01*
X73565152Y-96380526D01*
X74138641Y-96494600D01*
X74197359Y-96494600D01*
X74703000Y-96394022D01*
X74703000Y-105027978D01*
X74197359Y-104927400D01*
X74138641Y-104927400D01*
X73565152Y-105041474D01*
X73078971Y-105366330D01*
X72898000Y-105637172D01*
X72717029Y-105366330D01*
X72230848Y-105041474D01*
X71657359Y-104927400D01*
X71598641Y-104927400D01*
X71025152Y-105041474D01*
X70559558Y-105352574D01*
X70554762Y-105327083D01*
X70415690Y-105110959D01*
X70203490Y-104965969D01*
X69951600Y-104914960D01*
X68224400Y-104914960D01*
X67989083Y-104959238D01*
X67772959Y-105098310D01*
X67627969Y-105310510D01*
X67576960Y-105562400D01*
X67576960Y-107289600D01*
X67621238Y-107524917D01*
X67760310Y-107741041D01*
X67972510Y-107886031D01*
X68224400Y-107937040D01*
X69951600Y-107937040D01*
X70186917Y-107892762D01*
X70403041Y-107753690D01*
X70548031Y-107541490D01*
X70556908Y-107497655D01*
X71025152Y-107810526D01*
X71598641Y-107924600D01*
X71657359Y-107924600D01*
X72230848Y-107810526D01*
X72717029Y-107485670D01*
X72898000Y-107214828D01*
X73078971Y-107485670D01*
X73433000Y-107722225D01*
X73433000Y-110490000D01*
X73477324Y-110712828D01*
X73488949Y-110771272D01*
X73648277Y-111009723D01*
X74225554Y-111587000D01*
X69088000Y-111587000D01*
X68730191Y-111658173D01*
X68426855Y-111860855D01*
X67537000Y-112750710D01*
X67537000Y-79552446D01*
X73568296Y-73521151D01*
X74138641Y-73634600D01*
X74197359Y-73634600D01*
X74770848Y-73520526D01*
X75257029Y-73195670D01*
X75438000Y-72924828D01*
X75618971Y-73195670D01*
G36*
X120654800Y-102927090D02*
X120654800Y-104717910D01*
X117702855Y-107669855D01*
X117500173Y-107973191D01*
X117429000Y-108331000D01*
X117429000Y-109502710D01*
X116251000Y-108324710D01*
X116251000Y-108028192D01*
X116417441Y-107921090D01*
X116562431Y-107708890D01*
X116613440Y-107457000D01*
X116613440Y-106157000D01*
X116569162Y-105921683D01*
X116430090Y-105705559D01*
X116251000Y-105583192D01*
X116251000Y-105029000D01*
X116179827Y-104671191D01*
X115977145Y-104367855D01*
X114144290Y-102535000D01*
X120262710Y-102535000D01*
X120654800Y-102927090D01*
X120654800Y-102927090D01*
G37*
X120654800Y-102927090D02*
X120654800Y-104717910D01*
X117702855Y-107669855D01*
X117500173Y-107973191D01*
X117429000Y-108331000D01*
X117429000Y-109502710D01*
X116251000Y-108324710D01*
X116251000Y-108028192D01*
X116417441Y-107921090D01*
X116562431Y-107708890D01*
X116613440Y-107457000D01*
X116613440Y-106157000D01*
X116569162Y-105921683D01*
X116430090Y-105705559D01*
X116251000Y-105583192D01*
X116251000Y-105029000D01*
X116179827Y-104671191D01*
X115977145Y-104367855D01*
X114144290Y-102535000D01*
X120262710Y-102535000D01*
X120654800Y-102927090D01*
G36*
X98032277Y-107961724D02*
X98270728Y-108121051D01*
X98552000Y-108177000D01*
X106375554Y-108177000D01*
X107191554Y-108993000D01*
X100226068Y-108993000D01*
X100126686Y-108893445D01*
X99764788Y-108743172D01*
X99372931Y-108742830D01*
X99010771Y-108892471D01*
X98933107Y-108970000D01*
X98856686Y-108893445D01*
X98494788Y-108743172D01*
X98102931Y-108742830D01*
X97763000Y-108883286D01*
X97763000Y-107692447D01*
X98032277Y-107961724D01*
X98032277Y-107961724D01*
G37*
X98032277Y-107961724D02*
X98270728Y-108121051D01*
X98552000Y-108177000D01*
X106375554Y-108177000D01*
X107191554Y-108993000D01*
X100226068Y-108993000D01*
X100126686Y-108893445D01*
X99764788Y-108743172D01*
X99372931Y-108742830D01*
X99010771Y-108892471D01*
X98933107Y-108970000D01*
X98856686Y-108893445D01*
X98494788Y-108743172D01*
X98102931Y-108742830D01*
X97763000Y-108883286D01*
X97763000Y-107692447D01*
X98032277Y-107961724D01*
G36*
X80698971Y-107485670D02*
X81185152Y-107810526D01*
X81758641Y-107924600D01*
X81817359Y-107924600D01*
X82163210Y-107855806D01*
X82202956Y-107952000D01*
X79308802Y-107952000D01*
X79280731Y-107923929D01*
X79850848Y-107810526D01*
X80337029Y-107485670D01*
X80518000Y-107214828D01*
X80698971Y-107485670D01*
X80698971Y-107485670D01*
G37*
X80698971Y-107485670D02*
X81185152Y-107810526D01*
X81758641Y-107924600D01*
X81817359Y-107924600D01*
X82163210Y-107855806D01*
X82202956Y-107952000D01*
X79308802Y-107952000D01*
X79280731Y-107923929D01*
X79850848Y-107810526D01*
X80337029Y-107485670D01*
X80518000Y-107214828D01*
X80698971Y-107485670D01*
G36*
X88595314Y-101926555D02*
X88957212Y-102076828D01*
X89156000Y-102077001D01*
X89156000Y-102749117D01*
X88950686Y-102543445D01*
X88588788Y-102393172D01*
X88196931Y-102392830D01*
X87834771Y-102542471D01*
X87557445Y-102819314D01*
X87407172Y-103181212D01*
X87406830Y-103573069D01*
X87556471Y-103935229D01*
X87632000Y-104010890D01*
X87632000Y-105149152D01*
X87470848Y-105041474D01*
X86897359Y-104927400D01*
X86838641Y-104927400D01*
X86265152Y-105041474D01*
X85778971Y-105366330D01*
X85598000Y-105637172D01*
X85417029Y-105366330D01*
X84930848Y-105041474D01*
X84357359Y-104927400D01*
X84298641Y-104927400D01*
X83793000Y-105027978D01*
X83793000Y-102076976D01*
X84015069Y-102077170D01*
X84377229Y-101927529D01*
X84477933Y-101827000D01*
X88495932Y-101827000D01*
X88595314Y-101926555D01*
X88595314Y-101926555D01*
G37*
X88595314Y-101926555D02*
X88957212Y-102076828D01*
X89156000Y-102077001D01*
X89156000Y-102749117D01*
X88950686Y-102543445D01*
X88588788Y-102393172D01*
X88196931Y-102392830D01*
X87834771Y-102542471D01*
X87557445Y-102819314D01*
X87407172Y-103181212D01*
X87406830Y-103573069D01*
X87556471Y-103935229D01*
X87632000Y-104010890D01*
X87632000Y-105149152D01*
X87470848Y-105041474D01*
X86897359Y-104927400D01*
X86838641Y-104927400D01*
X86265152Y-105041474D01*
X85778971Y-105366330D01*
X85598000Y-105637172D01*
X85417029Y-105366330D01*
X84930848Y-105041474D01*
X84357359Y-104927400D01*
X84298641Y-104927400D01*
X83793000Y-105027978D01*
X83793000Y-102076976D01*
X84015069Y-102077170D01*
X84377229Y-101927529D01*
X84477933Y-101827000D01*
X88495932Y-101827000D01*
X88595314Y-101926555D01*
G36*
X76932599Y-97565401D02*
X77179161Y-97730148D01*
X77286884Y-97751576D01*
X77247172Y-97847212D01*
X77246830Y-98239069D01*
X77396471Y-98601229D01*
X77673314Y-98878555D01*
X78035212Y-99028828D01*
X78177506Y-99028952D01*
X78982276Y-99833723D01*
X79088874Y-99904949D01*
X79220728Y-99993051D01*
X79502000Y-100049000D01*
X80213554Y-100049000D01*
X82323000Y-102158447D01*
X82323000Y-105027978D01*
X81817359Y-104927400D01*
X81758641Y-104927400D01*
X81185152Y-105041474D01*
X80698971Y-105366330D01*
X80518000Y-105637172D01*
X80337029Y-105366330D01*
X79850848Y-105041474D01*
X79277359Y-104927400D01*
X79218641Y-104927400D01*
X78645152Y-105041474D01*
X78158971Y-105366330D01*
X77978000Y-105637172D01*
X77797029Y-105366330D01*
X77310848Y-105041474D01*
X76737359Y-104927400D01*
X76678641Y-104927400D01*
X76173000Y-105027978D01*
X76173000Y-96805802D01*
X76932599Y-97565401D01*
X76932599Y-97565401D01*
G37*
X76932599Y-97565401D02*
X77179161Y-97730148D01*
X77286884Y-97751576D01*
X77247172Y-97847212D01*
X77246830Y-98239069D01*
X77396471Y-98601229D01*
X77673314Y-98878555D01*
X78035212Y-99028828D01*
X78177506Y-99028952D01*
X78982276Y-99833723D01*
X79088874Y-99904949D01*
X79220728Y-99993051D01*
X79502000Y-100049000D01*
X80213554Y-100049000D01*
X82323000Y-102158447D01*
X82323000Y-105027978D01*
X81817359Y-104927400D01*
X81758641Y-104927400D01*
X81185152Y-105041474D01*
X80698971Y-105366330D01*
X80518000Y-105637172D01*
X80337029Y-105366330D01*
X79850848Y-105041474D01*
X79277359Y-104927400D01*
X79218641Y-104927400D01*
X78645152Y-105041474D01*
X78158971Y-105366330D01*
X77978000Y-105637172D01*
X77797029Y-105366330D01*
X77310848Y-105041474D01*
X76737359Y-104927400D01*
X76678641Y-104927400D01*
X76173000Y-105027978D01*
X76173000Y-96805802D01*
X76932599Y-97565401D01*
G36*
X101164154Y-101827000D02*
X101174949Y-101881272D01*
X101334277Y-102119723D01*
X104143553Y-104929000D01*
X98956068Y-104929000D01*
X98856686Y-104829445D01*
X98494788Y-104679172D01*
X98102931Y-104678830D01*
X97740771Y-104828471D01*
X97535886Y-105032999D01*
X97482213Y-104979233D01*
X100595724Y-101865723D01*
X100595726Y-101865720D01*
X100639379Y-101822067D01*
X100641212Y-101822828D01*
X101033069Y-101823170D01*
X101153494Y-101773412D01*
X101164154Y-101827000D01*
X101164154Y-101827000D01*
G37*
X101164154Y-101827000D02*
X101174949Y-101881272D01*
X101334277Y-102119723D01*
X104143553Y-104929000D01*
X98956068Y-104929000D01*
X98856686Y-104829445D01*
X98494788Y-104679172D01*
X98102931Y-104678830D01*
X97740771Y-104828471D01*
X97535886Y-105032999D01*
X97482213Y-104979233D01*
X100595724Y-101865723D01*
X100595726Y-101865720D01*
X100639379Y-101822067D01*
X100641212Y-101822828D01*
X101033069Y-101823170D01*
X101153494Y-101773412D01*
X101164154Y-101827000D01*
G36*
X83851172Y-99879212D02*
X83850973Y-100107027D01*
X83624931Y-100106830D01*
X83262771Y-100256471D01*
X82985445Y-100533314D01*
X82924216Y-100680769D01*
X81988163Y-99744716D01*
X82099212Y-99790828D01*
X82491069Y-99791170D01*
X82853229Y-99641529D01*
X82928890Y-99566000D01*
X83981229Y-99566000D01*
X83851172Y-99879212D01*
X83851172Y-99879212D01*
G37*
X83851172Y-99879212D02*
X83850973Y-100107027D01*
X83624931Y-100106830D01*
X83262771Y-100256471D01*
X82985445Y-100533314D01*
X82924216Y-100680769D01*
X81988163Y-99744716D01*
X82099212Y-99790828D01*
X82491069Y-99791170D01*
X82853229Y-99641529D01*
X82928890Y-99566000D01*
X83981229Y-99566000D01*
X83851172Y-99879212D01*
G36*
X89156000Y-96268000D02*
X87639255Y-96268000D01*
X87957029Y-96055670D01*
X88281885Y-95569489D01*
X88395959Y-94996000D01*
X88281885Y-94422511D01*
X87957029Y-93936330D01*
X87470848Y-93611474D01*
X86897359Y-93497400D01*
X86838641Y-93497400D01*
X86265152Y-93611474D01*
X85778971Y-93936330D01*
X85598000Y-94207172D01*
X85417029Y-93936330D01*
X84930848Y-93611474D01*
X84357359Y-93497400D01*
X84298641Y-93497400D01*
X83725152Y-93611474D01*
X83238971Y-93936330D01*
X83058000Y-94207172D01*
X82877029Y-93936330D01*
X82390848Y-93611474D01*
X81817359Y-93497400D01*
X81758641Y-93497400D01*
X81185152Y-93611474D01*
X80698971Y-93936330D01*
X80518000Y-94207172D01*
X80337029Y-93936330D01*
X79850848Y-93611474D01*
X79277359Y-93497400D01*
X79218641Y-93497400D01*
X78963155Y-93548219D01*
X78963170Y-93530931D01*
X78813529Y-93168771D01*
X78713000Y-93068067D01*
X78713000Y-91916976D01*
X78935069Y-91917170D01*
X79297229Y-91767529D01*
X79397933Y-91667000D01*
X88138000Y-91667000D01*
X88419272Y-91611051D01*
X88657723Y-91451723D01*
X88954399Y-91155047D01*
X89095069Y-91155170D01*
X89156000Y-91129994D01*
X89156000Y-96268000D01*
X89156000Y-96268000D01*
G37*
X89156000Y-96268000D02*
X87639255Y-96268000D01*
X87957029Y-96055670D01*
X88281885Y-95569489D01*
X88395959Y-94996000D01*
X88281885Y-94422511D01*
X87957029Y-93936330D01*
X87470848Y-93611474D01*
X86897359Y-93497400D01*
X86838641Y-93497400D01*
X86265152Y-93611474D01*
X85778971Y-93936330D01*
X85598000Y-94207172D01*
X85417029Y-93936330D01*
X84930848Y-93611474D01*
X84357359Y-93497400D01*
X84298641Y-93497400D01*
X83725152Y-93611474D01*
X83238971Y-93936330D01*
X83058000Y-94207172D01*
X82877029Y-93936330D01*
X82390848Y-93611474D01*
X81817359Y-93497400D01*
X81758641Y-93497400D01*
X81185152Y-93611474D01*
X80698971Y-93936330D01*
X80518000Y-94207172D01*
X80337029Y-93936330D01*
X79850848Y-93611474D01*
X79277359Y-93497400D01*
X79218641Y-93497400D01*
X78963155Y-93548219D01*
X78963170Y-93530931D01*
X78813529Y-93168771D01*
X78713000Y-93068067D01*
X78713000Y-91916976D01*
X78935069Y-91917170D01*
X79297229Y-91767529D01*
X79397933Y-91667000D01*
X88138000Y-91667000D01*
X88419272Y-91611051D01*
X88657723Y-91451723D01*
X88954399Y-91155047D01*
X89095069Y-91155170D01*
X89156000Y-91129994D01*
X89156000Y-96268000D01*
G36*
X73078971Y-84625670D02*
X73433000Y-84862225D01*
X73433000Y-85090000D01*
X73483524Y-85344000D01*
X73488949Y-85371272D01*
X73648277Y-85609723D01*
X77243000Y-89204447D01*
X77243000Y-93067932D01*
X77143445Y-93167314D01*
X76993172Y-93529212D01*
X76993155Y-93548281D01*
X76737359Y-93497400D01*
X76678641Y-93497400D01*
X76173000Y-93597978D01*
X76173000Y-89154000D01*
X76117051Y-88872728D01*
X76091515Y-88834511D01*
X75957724Y-88634277D01*
X72363000Y-85039554D01*
X72363000Y-84862225D01*
X72717029Y-84625670D01*
X72898000Y-84354828D01*
X73078971Y-84625670D01*
X73078971Y-84625670D01*
G37*
X73078971Y-84625670D02*
X73433000Y-84862225D01*
X73433000Y-85090000D01*
X73483524Y-85344000D01*
X73488949Y-85371272D01*
X73648277Y-85609723D01*
X77243000Y-89204447D01*
X77243000Y-93067932D01*
X77143445Y-93167314D01*
X76993172Y-93529212D01*
X76993155Y-93548281D01*
X76737359Y-93497400D01*
X76678641Y-93497400D01*
X76173000Y-93597978D01*
X76173000Y-89154000D01*
X76117051Y-88872728D01*
X76091515Y-88834511D01*
X75957724Y-88634277D01*
X72363000Y-85039554D01*
X72363000Y-84862225D01*
X72717029Y-84625670D01*
X72898000Y-84354828D01*
X73078971Y-84625670D01*
G36*
X95788922Y-69939724D02*
X95788830Y-70045069D01*
X95938471Y-70407229D01*
X96215314Y-70684555D01*
X96577212Y-70834828D01*
X96969069Y-70835170D01*
X97055000Y-70799664D01*
X97055000Y-73914000D01*
X97105524Y-74168000D01*
X97110949Y-74195272D01*
X97270277Y-74433723D01*
X98286277Y-75449723D01*
X98524728Y-75609051D01*
X98806000Y-75665000D01*
X104597554Y-75665000D01*
X108485000Y-79552447D01*
X108485000Y-80975553D01*
X108153554Y-81307000D01*
X107314292Y-81307000D01*
X107342440Y-81168000D01*
X107342440Y-79868000D01*
X107298162Y-79632683D01*
X107159090Y-79416559D01*
X106946890Y-79271569D01*
X106695000Y-79220560D01*
X105395000Y-79220560D01*
X105159683Y-79264838D01*
X104943559Y-79403910D01*
X104798569Y-79616110D01*
X104747560Y-79868000D01*
X104747560Y-81168000D01*
X104778343Y-81331597D01*
X104620728Y-81362949D01*
X104382276Y-81522277D01*
X101573000Y-84331554D01*
X101573000Y-80772000D01*
X101517051Y-80490728D01*
X101458750Y-80403474D01*
X101357723Y-80252276D01*
X101103723Y-79998277D01*
X100865272Y-79838949D01*
X100584000Y-79783000D01*
X98602447Y-79783000D01*
X97251047Y-78431601D01*
X97251170Y-78290931D01*
X97101529Y-77928771D01*
X96824686Y-77651445D01*
X96462788Y-77501172D01*
X96070931Y-77500830D01*
X95708771Y-77650471D01*
X95431445Y-77927314D01*
X95281172Y-78289212D01*
X95280830Y-78681069D01*
X95430471Y-79043229D01*
X95707314Y-79320555D01*
X96069212Y-79470828D01*
X96211506Y-79470952D01*
X97778277Y-81037724D01*
X97836749Y-81076794D01*
X97744729Y-81214511D01*
X97630655Y-81788000D01*
X97744729Y-82361489D01*
X98069585Y-82847670D01*
X98384366Y-83058000D01*
X98069585Y-83268330D01*
X97744729Y-83754511D01*
X97630655Y-84328000D01*
X97744729Y-84901489D01*
X98069585Y-85387670D01*
X98384366Y-85598000D01*
X98069585Y-85808330D01*
X97744729Y-86294511D01*
X97630655Y-86868000D01*
X97744729Y-87441489D01*
X98069585Y-87927670D01*
X98384366Y-88138000D01*
X98069585Y-88348330D01*
X97744729Y-88834511D01*
X97630655Y-89408000D01*
X97744729Y-89981489D01*
X98069585Y-90467670D01*
X98083913Y-90477243D01*
X98062683Y-90481238D01*
X97846559Y-90620310D01*
X97701569Y-90832510D01*
X97650560Y-91084400D01*
X97650560Y-92811600D01*
X97694838Y-93046917D01*
X97789550Y-93194103D01*
X96785723Y-92190277D01*
X96547272Y-92030949D01*
X96266000Y-91975000D01*
X93551419Y-91975000D01*
X93494327Y-91917808D01*
X93150799Y-91775162D01*
X92962000Y-91774998D01*
X92962000Y-89787111D01*
X93036555Y-89712686D01*
X93186828Y-89350788D01*
X93187170Y-88958931D01*
X93037529Y-88596771D01*
X92962000Y-88521110D01*
X92962000Y-77470000D01*
X92904148Y-77179161D01*
X92739401Y-76932599D01*
X89945401Y-74138599D01*
X89698839Y-73973852D01*
X89408000Y-73916000D01*
X86166802Y-73916000D01*
X85428822Y-73178020D01*
X85598000Y-72924828D01*
X85778971Y-73195670D01*
X86265152Y-73520526D01*
X86838641Y-73634600D01*
X86897359Y-73634600D01*
X87470848Y-73520526D01*
X87957029Y-73195670D01*
X88281885Y-72709489D01*
X88395959Y-72136000D01*
X88281885Y-71562511D01*
X87957029Y-71076330D01*
X87470848Y-70751474D01*
X86897359Y-70637400D01*
X86838641Y-70637400D01*
X86265152Y-70751474D01*
X85778971Y-71076330D01*
X85598000Y-71347172D01*
X85417029Y-71076330D01*
X84930848Y-70751474D01*
X84357359Y-70637400D01*
X84298641Y-70637400D01*
X83725152Y-70751474D01*
X83238971Y-71076330D01*
X83058000Y-71347172D01*
X82877029Y-71076330D01*
X82390848Y-70751474D01*
X81817359Y-70637400D01*
X81758641Y-70637400D01*
X81185152Y-70751474D01*
X80698971Y-71076330D01*
X80518000Y-71347172D01*
X80337029Y-71076330D01*
X79850848Y-70751474D01*
X79277359Y-70637400D01*
X79218641Y-70637400D01*
X78645152Y-70751474D01*
X78158971Y-71076330D01*
X77978000Y-71347172D01*
X77797029Y-71076330D01*
X77310848Y-70751474D01*
X76737359Y-70637400D01*
X76678641Y-70637400D01*
X76105152Y-70751474D01*
X75618971Y-71076330D01*
X75438000Y-71347172D01*
X75257029Y-71076330D01*
X74770848Y-70751474D01*
X74197359Y-70637400D01*
X74138641Y-70637400D01*
X73565152Y-70751474D01*
X73078971Y-71076330D01*
X72898000Y-71347172D01*
X72717029Y-71076330D01*
X72230848Y-70751474D01*
X71657359Y-70637400D01*
X71598641Y-70637400D01*
X71025152Y-70751474D01*
X70559558Y-71062574D01*
X70554762Y-71037083D01*
X70415690Y-70820959D01*
X70203490Y-70675969D01*
X69951600Y-70624960D01*
X68224400Y-70624960D01*
X67989083Y-70669238D01*
X67772959Y-70808310D01*
X67627969Y-71020510D01*
X67576960Y-71272400D01*
X67576960Y-72999600D01*
X67621238Y-73234917D01*
X67760310Y-73451041D01*
X67972510Y-73596031D01*
X68224400Y-73647040D01*
X69585514Y-73647040D01*
X69330280Y-73902274D01*
X69330277Y-73902276D01*
X66282280Y-76950274D01*
X66282277Y-76950276D01*
X66038000Y-77194553D01*
X66038000Y-69148802D01*
X67878802Y-67308000D01*
X93157198Y-67308000D01*
X95788922Y-69939724D01*
X95788922Y-69939724D01*
G37*
X95788922Y-69939724D02*
X95788830Y-70045069D01*
X95938471Y-70407229D01*
X96215314Y-70684555D01*
X96577212Y-70834828D01*
X96969069Y-70835170D01*
X97055000Y-70799664D01*
X97055000Y-73914000D01*
X97105524Y-74168000D01*
X97110949Y-74195272D01*
X97270277Y-74433723D01*
X98286277Y-75449723D01*
X98524728Y-75609051D01*
X98806000Y-75665000D01*
X104597554Y-75665000D01*
X108485000Y-79552447D01*
X108485000Y-80975553D01*
X108153554Y-81307000D01*
X107314292Y-81307000D01*
X107342440Y-81168000D01*
X107342440Y-79868000D01*
X107298162Y-79632683D01*
X107159090Y-79416559D01*
X106946890Y-79271569D01*
X106695000Y-79220560D01*
X105395000Y-79220560D01*
X105159683Y-79264838D01*
X104943559Y-79403910D01*
X104798569Y-79616110D01*
X104747560Y-79868000D01*
X104747560Y-81168000D01*
X104778343Y-81331597D01*
X104620728Y-81362949D01*
X104382276Y-81522277D01*
X101573000Y-84331554D01*
X101573000Y-80772000D01*
X101517051Y-80490728D01*
X101458750Y-80403474D01*
X101357723Y-80252276D01*
X101103723Y-79998277D01*
X100865272Y-79838949D01*
X100584000Y-79783000D01*
X98602447Y-79783000D01*
X97251047Y-78431601D01*
X97251170Y-78290931D01*
X97101529Y-77928771D01*
X96824686Y-77651445D01*
X96462788Y-77501172D01*
X96070931Y-77500830D01*
X95708771Y-77650471D01*
X95431445Y-77927314D01*
X95281172Y-78289212D01*
X95280830Y-78681069D01*
X95430471Y-79043229D01*
X95707314Y-79320555D01*
X96069212Y-79470828D01*
X96211506Y-79470952D01*
X97778277Y-81037724D01*
X97836749Y-81076794D01*
X97744729Y-81214511D01*
X97630655Y-81788000D01*
X97744729Y-82361489D01*
X98069585Y-82847670D01*
X98384366Y-83058000D01*
X98069585Y-83268330D01*
X97744729Y-83754511D01*
X97630655Y-84328000D01*
X97744729Y-84901489D01*
X98069585Y-85387670D01*
X98384366Y-85598000D01*
X98069585Y-85808330D01*
X97744729Y-86294511D01*
X97630655Y-86868000D01*
X97744729Y-87441489D01*
X98069585Y-87927670D01*
X98384366Y-88138000D01*
X98069585Y-88348330D01*
X97744729Y-88834511D01*
X97630655Y-89408000D01*
X97744729Y-89981489D01*
X98069585Y-90467670D01*
X98083913Y-90477243D01*
X98062683Y-90481238D01*
X97846559Y-90620310D01*
X97701569Y-90832510D01*
X97650560Y-91084400D01*
X97650560Y-92811600D01*
X97694838Y-93046917D01*
X97789550Y-93194103D01*
X96785723Y-92190277D01*
X96547272Y-92030949D01*
X96266000Y-91975000D01*
X93551419Y-91975000D01*
X93494327Y-91917808D01*
X93150799Y-91775162D01*
X92962000Y-91774998D01*
X92962000Y-89787111D01*
X93036555Y-89712686D01*
X93186828Y-89350788D01*
X93187170Y-88958931D01*
X93037529Y-88596771D01*
X92962000Y-88521110D01*
X92962000Y-77470000D01*
X92904148Y-77179161D01*
X92739401Y-76932599D01*
X89945401Y-74138599D01*
X89698839Y-73973852D01*
X89408000Y-73916000D01*
X86166802Y-73916000D01*
X85428822Y-73178020D01*
X85598000Y-72924828D01*
X85778971Y-73195670D01*
X86265152Y-73520526D01*
X86838641Y-73634600D01*
X86897359Y-73634600D01*
X87470848Y-73520526D01*
X87957029Y-73195670D01*
X88281885Y-72709489D01*
X88395959Y-72136000D01*
X88281885Y-71562511D01*
X87957029Y-71076330D01*
X87470848Y-70751474D01*
X86897359Y-70637400D01*
X86838641Y-70637400D01*
X86265152Y-70751474D01*
X85778971Y-71076330D01*
X85598000Y-71347172D01*
X85417029Y-71076330D01*
X84930848Y-70751474D01*
X84357359Y-70637400D01*
X84298641Y-70637400D01*
X83725152Y-70751474D01*
X83238971Y-71076330D01*
X83058000Y-71347172D01*
X82877029Y-71076330D01*
X82390848Y-70751474D01*
X81817359Y-70637400D01*
X81758641Y-70637400D01*
X81185152Y-70751474D01*
X80698971Y-71076330D01*
X80518000Y-71347172D01*
X80337029Y-71076330D01*
X79850848Y-70751474D01*
X79277359Y-70637400D01*
X79218641Y-70637400D01*
X78645152Y-70751474D01*
X78158971Y-71076330D01*
X77978000Y-71347172D01*
X77797029Y-71076330D01*
X77310848Y-70751474D01*
X76737359Y-70637400D01*
X76678641Y-70637400D01*
X76105152Y-70751474D01*
X75618971Y-71076330D01*
X75438000Y-71347172D01*
X75257029Y-71076330D01*
X74770848Y-70751474D01*
X74197359Y-70637400D01*
X74138641Y-70637400D01*
X73565152Y-70751474D01*
X73078971Y-71076330D01*
X72898000Y-71347172D01*
X72717029Y-71076330D01*
X72230848Y-70751474D01*
X71657359Y-70637400D01*
X71598641Y-70637400D01*
X71025152Y-70751474D01*
X70559558Y-71062574D01*
X70554762Y-71037083D01*
X70415690Y-70820959D01*
X70203490Y-70675969D01*
X69951600Y-70624960D01*
X68224400Y-70624960D01*
X67989083Y-70669238D01*
X67772959Y-70808310D01*
X67627969Y-71020510D01*
X67576960Y-71272400D01*
X67576960Y-72999600D01*
X67621238Y-73234917D01*
X67760310Y-73451041D01*
X67972510Y-73596031D01*
X68224400Y-73647040D01*
X69585514Y-73647040D01*
X69330280Y-73902274D01*
X69330277Y-73902276D01*
X66282280Y-76950274D01*
X66282277Y-76950276D01*
X66038000Y-77194553D01*
X66038000Y-69148802D01*
X67878802Y-67308000D01*
X93157198Y-67308000D01*
X95788922Y-69939724D01*
G36*
X75618971Y-84625670D02*
X76105152Y-84950526D01*
X76293111Y-84987913D01*
X77186599Y-85881401D01*
X77433161Y-86046148D01*
X77724000Y-86104000D01*
X79279002Y-86104000D01*
X79278830Y-86301069D01*
X79428471Y-86663229D01*
X79705314Y-86940555D01*
X80067212Y-87090828D01*
X80372684Y-87091095D01*
X80518000Y-87120000D01*
X82175117Y-87120000D01*
X81969445Y-87325314D01*
X81819172Y-87687212D01*
X81818830Y-88079069D01*
X81968471Y-88441229D01*
X82245314Y-88718555D01*
X82607212Y-88868828D01*
X82999069Y-88869170D01*
X83361229Y-88719529D01*
X83436890Y-88644000D01*
X84489229Y-88644000D01*
X84359172Y-88957212D01*
X84358830Y-89349069D01*
X84508471Y-89711229D01*
X84785314Y-89988555D01*
X85147212Y-90138828D01*
X85539069Y-90139170D01*
X85901229Y-89989529D01*
X85976890Y-89914000D01*
X87939759Y-89914000D01*
X87915172Y-89973212D01*
X87915048Y-90115506D01*
X87833554Y-90197000D01*
X79398068Y-90197000D01*
X79298686Y-90097445D01*
X78936788Y-89947172D01*
X78713000Y-89946977D01*
X78713000Y-88900000D01*
X78657051Y-88618728D01*
X78635282Y-88586148D01*
X78497724Y-88380277D01*
X74948961Y-84831515D01*
X75257029Y-84625670D01*
X75438000Y-84354828D01*
X75618971Y-84625670D01*
X75618971Y-84625670D01*
G37*
X75618971Y-84625670D02*
X76105152Y-84950526D01*
X76293111Y-84987913D01*
X77186599Y-85881401D01*
X77433161Y-86046148D01*
X77724000Y-86104000D01*
X79279002Y-86104000D01*
X79278830Y-86301069D01*
X79428471Y-86663229D01*
X79705314Y-86940555D01*
X80067212Y-87090828D01*
X80372684Y-87091095D01*
X80518000Y-87120000D01*
X82175117Y-87120000D01*
X81969445Y-87325314D01*
X81819172Y-87687212D01*
X81818830Y-88079069D01*
X81968471Y-88441229D01*
X82245314Y-88718555D01*
X82607212Y-88868828D01*
X82999069Y-88869170D01*
X83361229Y-88719529D01*
X83436890Y-88644000D01*
X84489229Y-88644000D01*
X84359172Y-88957212D01*
X84358830Y-89349069D01*
X84508471Y-89711229D01*
X84785314Y-89988555D01*
X85147212Y-90138828D01*
X85539069Y-90139170D01*
X85901229Y-89989529D01*
X85976890Y-89914000D01*
X87939759Y-89914000D01*
X87915172Y-89973212D01*
X87915048Y-90115506D01*
X87833554Y-90197000D01*
X79398068Y-90197000D01*
X79298686Y-90097445D01*
X78936788Y-89947172D01*
X78713000Y-89946977D01*
X78713000Y-88900000D01*
X78657051Y-88618728D01*
X78635282Y-88586148D01*
X78497724Y-88380277D01*
X74948961Y-84831515D01*
X75257029Y-84625670D01*
X75438000Y-84354828D01*
X75618971Y-84625670D01*
M02*
