M48
INCH,TZ
T1C0.016
T2C0.031
T3C0.040
T4C0.043
T5C0.051
T6C0.067
T7C0.102
%
G90
G05
T1
X25700Y-44300
X26000Y-45000
X26000Y-46400
X26200Y-29300
X26300Y-44700
X26300Y-45700
X26300Y-50800
X26800Y-42800
X26800Y-43600
X27400Y-42800
X27400Y-43600
X27600Y-47200
X27800Y-49600
X28000Y-42800
X28000Y-43600
X28000Y-47600
X28600Y-42800
X28600Y-43200
X28600Y-43600
X29000Y-35800
X29700Y-42600
X30000Y-44700
X30000Y-47600
X30200Y-40200
X30200Y-50700
X30700Y-36900
X30800Y-34200
X30800Y-38600
X30800Y-40200
X30800Y-49200
X31000Y-35800
X31000Y-44700
X31200Y-43100
X31200Y-49600
X31400Y-34600
X31400Y-35200
X31400Y-40200
X31400Y-49200
X31500Y-38500
X31600Y-33900
X31600Y-59000
X31700Y-42500
X31800Y-34600
X31800Y-49600
X32000Y-35200
X32000Y-40200
X32200Y-43400
X32200Y-46500
X32200Y-49300
X32200Y-58800
X32200Y-59400
X32400Y-38900
X32600Y-34600
X32600Y-39400
X32600Y-56400
X32600Y-57000
X32600Y-57600
X32600Y-58200
X32700Y-42300
X32700Y-45500
X33000Y-39800
X33000Y-49600
X33200Y-43700
X33200Y-46400
X33200Y-56400
X33200Y-56900
X33400Y-39400
X33500Y-56900
X33600Y-35100
X33800Y-56400
X34400Y-55800
X34400Y-56400
X34800Y-40700
X34800Y-42400
X35000Y-34000
X35000Y-34600
X35000Y-35100
X35000Y-35500
X35100Y-38500
X35100Y-38900
X35100Y-39400
X35100Y-39800
X35100Y-41000
X35100Y-42100
X35200Y-48000
X35200Y-48600
X35700Y-34000
X35700Y-38500
X35700Y-42700
X36000Y-34600
X36000Y-38900
X36000Y-40300
X36000Y-43900
X36300Y-35100
X36300Y-39400
X36300Y-52100
X36400Y-44700
X36600Y-36500
X36600Y-42300
X36700Y-39900
X36700Y-54400
X36800Y-52500
X36900Y-41500
X36900Y-48700
X37100Y-49100
X37400Y-49200
X37500Y-42800
X37600Y-44600
X37600Y-49500
X37800Y-47400
X37900Y-30900
X37900Y-37200
X37900Y-39287
X38100Y-27500
X38100Y-39900
X38100Y-41600
X38500Y-27100
X38600Y-37200
X38700Y-41600
X38700Y-43200
X38700Y-53200
X38800Y-47400
X38900Y-52800
X38900Y-54100
X38900Y-54700
X39000Y-51100
X39000Y-55400
X39000Y-56000
X39000Y-56600
X39200Y-43200
X39200Y-44800
X39200Y-49600
X39300Y-48100
X39400Y-38400
X39400Y-44500
X39600Y-28000
X39600Y-50200
X39600Y-56000
X39600Y-56400
X39600Y-56800
X39700Y-39700
X39700Y-48600
X39800Y-53300
X39999Y-56400
X40000Y-56000
X40100Y-39600
X40200Y-47000
X40200Y-48600
X40300Y-51900
X40600Y-44000
X40600Y-46400
X40600Y-48400
X40600Y-51400
X40600Y-51800
X40700Y-53900
X40800Y-41200
X40900Y-55500
X41000Y-52300
X41000Y-52700
X41100Y-50600
X41100Y-51400
X41250Y-35400
X41400Y-50800
X41500Y-44000
X41700Y-57900
X41760Y-36080
X41800Y-50800
X42000Y-42800
X42000Y-52200
X42200Y-50700
X42300Y-51900
X42400Y-46000
X42500Y-47700
X42500Y-48800
X42600Y-52000
X42600Y-58000
X42700Y-52600
X42700Y-56100
X42900Y-53600
X43000Y-47500
X43300Y-53100
X43400Y-49100
X43600Y-50400
X44100Y-51000
X44200Y-50300
X44600Y-44600
X44600Y-45200
X44700Y-47200
X44900Y-52100
X44900Y-54100
X45100Y-52900
X45200Y-57500
X45300Y-49800
X45700Y-54000
X45900Y-51600
X46100Y-47400
X46200Y-53900
X47871Y-40376
X48500Y-46650
X48600Y-33800
X48950Y-44150
X49000Y-54300
X49100Y-53600
X49500Y-54800
X49800Y-23950
X50400Y-28550
X51750Y-29500
X51750Y-43250
X52200Y-36800
X52391Y-33409
T2
X31175Y-59488
X31175Y-60275
X33500Y-54800
X33500Y-55587
X39913Y-47500
X40700Y-47500
X41750Y-31700
X42200Y-57100
X42537Y-31700
X42987Y-57100
X44513Y-58500
X44800Y-50300
X44800Y-51087
X45300Y-58500
X45400Y-26050
X45400Y-42050
X46187Y-26050
X46187Y-42050
X47525Y-45150
X47550Y-42850
X47600Y-27075
X47600Y-29500
X48312Y-45150
X48337Y-42850
X48387Y-27075
X48387Y-29500
X49650Y-34000
X50437Y-34000
X50800Y-53600
X50800Y-59500
X51587Y-53600
X51587Y-59500
T3
X27200Y-27400
X27200Y-28400
X27200Y-31900
X27200Y-32900
X27200Y-36400
X27200Y-37400
X27200Y-40900
X27200Y-41900
X27500Y-45200
X27500Y-46200
X28200Y-27400
X28200Y-28400
X28200Y-31900
X28200Y-32900
X28200Y-36400
X28200Y-37400
X28200Y-40900
X28200Y-41900
X28500Y-45200
X28500Y-46200
X29200Y-27400
X29200Y-28400
X29200Y-31900
X29200Y-32900
X29200Y-36400
X29200Y-37400
X29200Y-40900
X29200Y-41900
X29500Y-45200
X29500Y-46200
X30200Y-27400
X30200Y-28400
X30200Y-31900
X30200Y-32900
X30200Y-36400
X30200Y-37400
X30200Y-40900
X30200Y-41900
X30500Y-45200
X30500Y-46200
X30725Y-52925
X31200Y-27400
X31200Y-28400
X31200Y-31900
X31200Y-32900
X31200Y-36400
X31200Y-37400
X31200Y-40900
X31200Y-41900
X31500Y-45200
X31500Y-46200
X31725Y-52925
X32200Y-27400
X32200Y-28400
X32200Y-31900
X32200Y-32900
X32200Y-36400
X32200Y-37400
X32200Y-40900
X32200Y-41900
X32725Y-52925
X33200Y-27400
X33200Y-28400
X33200Y-31900
X33200Y-32900
X33200Y-36400
X33200Y-37400
X33200Y-40900
X33200Y-41900
X34200Y-27400
X34200Y-28400
X34200Y-31900
X34200Y-32900
X34200Y-36400
X34200Y-37400
X34200Y-40900
X34200Y-41900
X39100Y-31200
X39100Y-32200
X39100Y-33200
X39100Y-34200
X39100Y-35200
X39100Y-36200
X49600Y-49600
X49600Y-50600
X49600Y-51600
X49600Y-55500
X49600Y-56500
X49600Y-57500
X50600Y-49600
X50600Y-50600
X50600Y-51600
X50600Y-55500
X50600Y-56500
X50600Y-57500
T4
X26900Y-51541
X26900Y-54100
X28672Y-51541
X28672Y-54100
T5
X27000Y-55900
X27000Y-57900
T6
X53400Y-27500
X53400Y-33500
X53400Y-39500
X53400Y-45500
X53400Y-51600
X53400Y-57600
T7
X53400Y-25531
X53400Y-29469
X53400Y-31531
X53400Y-35469
X53400Y-37531
X53400Y-41469
X53400Y-43531
X53400Y-47469
X53400Y-49631
X53400Y-53569
X53400Y-55631
X53400Y-59569
X55172Y-27500
X55172Y-33500
X55172Y-39500
X55172Y-45500
X55172Y-51600
X55172Y-57600
T0
M30
